<?xml version="1.0" encoding="utf-8"?>
<!-- Generator: Adobe Illustrator 21.0.0, SVG Export Plug-In . SVG Version: 6.00 Build 0)  -->
<svg version="1.1" id="Layer_1" xmlns="http://www.w3.org/2000/svg" xmlns:xlink="http://www.w3.org/1999/xlink" x="0px" y="0px"
	 viewBox="0 0 300 170" style="enable-background:new 0 0 300 170;" xml:space="preserve">
<style type="text/css">
	.st0{fill:#444A77;}
	.st1{fill:url(#SVGID_1_);}
	.st2{fill:#4E96AA;}
	.st3{fill:#367480;}
	.st4{fill:url(#SVGID_2_);}
	.st5{fill:#B4CAD1;}
	.st6{fill:#BEB3D2;}
	.st7{fill:#7E6289;}
	.st8{fill:#68537A;}
	.st9{fill:#6A5F75;}
	.st10{opacity:0.2;fill:#E7B77F;}
	.st11{fill:#9C8DB4;}
	.st12{fill:#353B59;}
	.st13{opacity:0.2;fill:#7E6289;}
	.st14{fill:#84809F;}
	.st15{fill:#9085A5;}
	.st16{fill:#458699;}
	.st17{fill:#408089;}
	.st18{fill:#4F9CB0;}
	.st19{opacity:0.5;}
	.st20{fill:#705785;}
	.st21{fill:#684A8A;}
	.st22{fill:#292F44;}
	.st23{fill:#6B667F;}
	.st24{fill:#59486D;}
	.st25{fill:#E7B77F;}
	.st26{fill:#805EAC;}
	.st27{fill:#BFD3DD;}
	.st28{fill:#D1E0E5;}
	.st29{opacity:0.43;fill:#FFFFFF;}
	.st30{opacity:0.63;}
	.st31{fill:#FFFFFF;}
	.st32{opacity:0.4;fill:url(#SVGID_3_);}
	.st33{clip-path:url(#SVGID_5_);fill:#84809F;}
	.st34{clip-path:url(#SVGID_5_);fill:#444A77;}
</style>
<g>
	<rect id="BACKGROUND_1_" x="-1" y="-0.6" class="st0" width="301.8" height="171.4"/>
	<linearGradient id="SVGID_1_" gradientUnits="userSpaceOnUse" x1="43.187" y1="34.6647" x2="43.2994" y2="154.3908">
		<stop  offset="0" style="stop-color:#794D8E"/>
		<stop  offset="0.1305" style="stop-color:#56628D"/>
		<stop  offset="0.3784" style="stop-color:#18878C"/>
		<stop  offset="0.4962" style="stop-color:#00968C"/>
	</linearGradient>
	<rect x="11.7" y="-1" class="st1" width="62.9" height="106.5"/>
	<rect x="70.4" y="-1" class="st2" width="6.4" height="106.5"/>
	<polygon class="st3" points="76.8,113.5 17.6,113.5 11.7,105.5 76.8,105.5 	"/>
	<linearGradient id="SVGID_2_" gradientUnits="userSpaceOnUse" x1="17.6243" y1="84.7326" x2="301" y2="84.7326">
		<stop  offset="0" style="stop-color:#794D8E"/>
		<stop  offset="1" style="stop-color:#448077;stop-opacity:0.5"/>
	</linearGradient>
	<polygon class="st4" points="76.8,-1 301,159 301,170.5 58.5,170.5 17.6,113.5 76.8,113.5 	"/>
	<rect x="64.1" y="27" class="st0" width="1.2" height="57.7"/>
	<ellipse class="st0" cx="64.7" cy="83.4" rx="1.2" ry="1.7"/>
	<g id="BINTANG_1_">
		<ellipse class="st5" cx="44.5" cy="20.1" rx="0.5" ry="0.5"/>
		<ellipse class="st5" cx="23.9" cy="12" rx="0.3" ry="0.3"/>
		<ellipse class="st5" cx="43" cy="16.6" rx="0.3" ry="0.3"/>
		<circle class="st5" cx="56.2" cy="12.4" r="0.2"/>
		<circle class="st5" cx="54.1" cy="8.3" r="0.2"/>
		<ellipse class="st5" cx="34.1" cy="10.6" rx="0.3" ry="0.3"/>
		<g>
			<ellipse class="st5" cx="46.3" cy="42.1" rx="0.3" ry="0.3"/>
			<ellipse class="st5" cx="54.1" cy="55.1" rx="0.3" ry="0.3"/>
			<ellipse class="st5" cx="30.8" cy="45.1" rx="0.5" ry="0.5"/>
			<ellipse class="st5" cx="43.7" cy="38.6" rx="0.5" ry="0.5"/>
			<ellipse class="st5" cx="38.3" cy="65.9" rx="0.5" ry="0.5"/>
			<circle class="st5" cx="31.8" cy="39.8" r="0.2"/>
			<circle class="st5" cx="41.5" cy="29.9" r="0.2"/>
			<circle class="st5" cx="64.5" cy="71.1" r="0.2"/>
			<circle class="st5" cx="44" cy="64.2" r="0.2"/>
			<circle class="st5" cx="41.7" cy="69.8" r="0.2"/>
			<circle class="st5" cx="23.7" cy="53" r="0.2"/>
			<ellipse class="st5" cx="21.4" cy="40" rx="0.2" ry="0.2"/>
			<circle class="st5" cx="46.5" cy="57.1" r="0.2"/>
			<ellipse class="st5" cx="47.5" cy="64.2" rx="0.3" ry="0.3"/>
			<circle class="st5" cx="44.5" cy="62.5" r="0.2"/>
		</g>
		<ellipse class="st5" cx="25.8" cy="17.4" rx="0.3" ry="0.3"/>
		<circle class="st5" cx="29" cy="14" r="0.2"/>
	</g>
	<polygon class="st0" points="76.7,20.3 11.7,20.3 11.7,15.4 70.4,15.7 	"/>
	<polygon class="st0" points="76.7,27 11.7,27 11.7,22.1 70.4,22.5 	"/>
	<g>
		<path class="st0" d="M126.1,135.9v-0.1c0,0,0,0,0,0v0c0,0.5,1,1,3.1,1c4.2,0,8.8,0,10.4,0c0.4,0,0.7,0,0.7,0c1.7,0,6.2,0,10.4,0
			c2.2,0,2.9,0,2.9-0.9h-0.2l0,0H126.1z"/>
		<path class="st0" d="M150.8,133c-1.9-2-2-6.4-2-6.4h-8.7h-0.7h-8.7c0,0-0.1,4.5-2,6.4c-1.9,2-5,3.9,0.3,3.9c4.2,0,8.8,0,10.4,0
			c0.4,0,0.7,0,0.7,0c1.7,0,6.2,0,10.4,0C155.8,136.8,152.8,134.9,150.8,133z"/>
		<path class="st0" d="M141.5,136.8c1.1-2.6,4.5-4.5,8.8-4.9c0.2,0.3,0.4,0.7,0.7,1c1.9,1.9,4.9,3.9,0,3.9H141.5z"/>
		<path class="st0" d="M138.4,136.8c-1.1-2.6-4.5-4.5-8.8-4.9c-0.2,0.3-0.4,0.7-0.7,1c-1.9,1.9-4.9,3.9,0,3.9H138.4z"/>
		<path class="st0" d="M128.9,136.4c1.8,0,3.6,0,5.4-0.1l5.4,0l5.4,0l2.7,0l2.7,0l-2.7,0l-2.7,0l-5.4,0l-5.4,0
			C132.6,136.4,130.7,136.4,128.9,136.4z"/>
	</g>
	<polygon class="st6" points="44.7,113.5 69.6,144.9 250.5,144.1 210.2,113.5 	"/>
	<g>
		<path class="st0" d="M196.8,120.6c0,1.3-0.9,2.4-2.1,2.4h-58.5c-1.2,0-2.5-1.2-2.5-2.4V89.5c0-1.3,1.3-2.4,2.5-2.4h58.5
			c1.2,0,2.1,1.1,2.1,2.4V120.6z"/>
		<rect x="136.4" y="90.1" class="st7" width="58.2" height="30.6"/>
		<rect x="145.9" y="93.4" class="st8" width="38" height="21.3"/>
		<rect x="140.5" y="114.6" class="st9" width="48.8" height="2.6"/>
		<rect x="145.9" y="93.4" class="st6" width="38" height="1.4"/>
		<rect x="136.4" y="90.1" class="st10" width="58" height="30.8"/>
	</g>
	<rect x="170.4" y="47.6" class="st11" width="23.8" height="32"/>
	<rect x="138.1" y="47.6" class="st11" width="23.8" height="32"/>
	<polygon class="st12" points="69.3,150.8 240.6,150.8 240.6,144.1 69.3,144.9 	"/>
	<polygon class="st13" points="170.2,64.9 189.3,78.7 194,78.7 194,46.7 170.2,46.7 	"/>
	<polygon class="st13" points="145.2,47.1 162,59.3 161.9,47.1 	"/>
	<polygon class="st14" points="44.4,118.5 69.3,150.8 69.3,144.9 44.4,113.5 	"/>
	<rect x="190.4" y="61.6" class="st14" width="8.3" height="8.4"/>
	<rect x="165.9" y="43.9" class="st14" width="8.3" height="8.2"/>
	<rect x="187.4" y="75.2" class="st14" width="8.7" height="8.9"/>
	<rect x="133.9" y="52" class="st14" width="8.5" height="8.4"/>
	<polygon class="st15" points="196.1,84 187.4,77.3 187.4,84 	"/>
	<rect x="69.3" y="150.8" class="st12" width="9.9" height="19.6"/>
	<rect x="240.6" y="144.1" class="st12" width="9.7" height="26.4"/>
	<polygon class="st12" points="51.9,170.2 44.3,170.2 44.3,118.7 52.1,128.7 	"/>
	<rect x="68.1" y="149.2" class="st14" width="1.2" height="21.3"/>
	<polygon class="st14" points="45.3,152.1 44.3,150.6 44.4,117.6 45.2,117.7 	"/>
	<polygon class="st16" points="14.1,101.3 11.7,103.7 11.7,105.5 17.2,105.7 38.5,99.7 42.8,94.1 21.7,96.3 	"/>
	<polygon class="st17" points="70.4,105.5 70.4,98.2 50.5,87.9 48,85.1 37,99.6 16.3,105.7 	"/>
	<path class="st17" d="M11.7,100.6c0,0,4.8-0.7,6-2c1.6-1.7,2.4-6,2.9-6.1c2.7-0.9,11.9-4.5,13.4-7.9c1.5-3.3,0.8-2.9,1.6-1.8
		c0.8,1,11.7,1.5,12.5,2.3c0.8,0.8,1.1,4.5,1.2,5.1c0.1,0.6,3.4,4,3.4,4s-3.7-2.6-6.2-2.3c-2.5,0.3-9.7,2.5-12.9,2.5
		c-3.2,0-5.4-0.1-6.7,0.5c-1.3,0.6-15,8.6-15,8.6V100.6z"/>
	<path class="st18" d="M14.1,104.2c1.4-1.1,2.9-3.3,6.1-3.8c3.2-0.5,12.4-0.9,14.7-1.2c0.3,0,2.1,0.5,2.1,0.5l-20.6,6.1l-4.7-0.2
		C11.7,105.5,13.5,104.7,14.1,104.2z"/>
	<path class="st2" d="M20.6,92.5c0,0,10.5-5.4,11.4-6.4c0.9-1,3-3.9,3-3.9S34.2,85,33.2,86C28.2,90.5,20.6,92.5,20.6,92.5z"/>
	<path class="st2" d="M21.9,97.7c0,0,8.4-1.3,10.6-1.6c2.2-0.3,7.1-0.1,10.6-2.1c3.5-2,3.5-2,3.5-2s-9,1.9-12,2.1
		c-1.8,0.1-5.4,0-7.1,0.4C25.9,95,21.9,97.7,21.9,97.7z"/>
	<path class="st16" d="M57.4,95.1c0,0-15,5.4-17.6,7.4c-2.6,2,4.9-0.6,10.1-1.3c5.2-0.7,13.1-0.9,13.1-0.9l2.9-3L57.4,95.1z"/>
	<rect x="238.5" y="150.8" class="st14" width="2.1" height="19.6"/>
	<rect x="200.8" y="149.9" class="st12" width="9.7" height="20.6"/>
	<rect x="198.7" y="150.8" class="st14" width="2.1" height="19.6"/>
	<g>
		<g class="st19">
			<path class="st14" d="M91.7,127.9v-0.1C91.7,127.9,91.7,127.9,91.7,127.9L91.7,127.9c0,0.3,0.6,0.7,2.1,0.7c2.9,0,6,0,7.2,0
				c0.3,0,0.5,0,0.5,0c1.1,0,4.3,0,7.2,0c1.5,0,2,0,2-0.7h-0.1l0,0H91.7z"/>
			<path class="st14" d="M108.6,126c-1.3-1.3-1.4-4.4-1.4-4.4h-6h-0.5h-6c0,0-0.1,3-1.4,4.4c-1.3,1.3-3.4,2.6,0.2,2.6
				c2.9,0,6,0,7.2,0c0.3,0,0.5,0,0.5,0c1.1,0,4.3,0,7.2,0C112,128.7,109.9,127.4,108.6,126z"/>
			<path class="st14" d="M102.2,128.7c0.7-1.7,3.1-3.1,6-3.4c0.1,0.2,0.3,0.5,0.5,0.7c1.3,1.3,3.3,2.7,0,2.7H102.2z"/>
			<path class="st14" d="M100,128.7c-0.7-1.7-3.1-3.1-6-3.4c-0.1,0.2-0.3,0.5-0.5,0.7c-1.3,1.3-3.3,2.7,0,2.7H100z"/>
			<path class="st14" d="M93.5,128.3c1.2,0,2.5,0,3.7,0l3.7,0l3.7,0l1.9,0l1.9,0l-1.9,0l-1.9,0l-3.7,0l-3.7,0
				C96,128.3,94.8,128.3,93.5,128.3z"/>
		</g>
		<g>
			<path class="st0" d="M132.9,120.3c0,1.2-1,2.5-2.3,2.5H72.3c-1.2,0-2.8-1.3-2.8-2.5v-31c0-1.2,1.6-2.2,2.8-2.2h58.3
				c1.2,0,2.3,0.9,2.3,2.2V120.3z"/>
			<rect x="72.3" y="89.9" class="st7" width="58.5" height="30.8"/>
		</g>
		<rect x="72.3" y="89.9" class="st8" width="8.3" height="14.5"/>
		<rect x="80.6" y="89.9" class="st9" width="24.8" height="14.2"/>
		<rect x="105.3" y="89.9" class="st8" width="25.5" height="14.2"/>
		<rect x="72.3" y="104.1" class="st9" width="8.3" height="16.6"/>
		<rect x="80.6" y="104.1" class="st8" width="50.2" height="16.6"/>
		<rect x="80.6" y="101.8" class="st20" width="24.8" height="2.3"/>
		<rect x="105.3" y="101.8" class="st21" width="25.2" height="2.3"/>
		<rect x="80.6" y="112.1" class="st21" width="50.2" height="0.2"/>
		<rect x="80.6" y="109.5" class="st9" width="8.3" height="2.6"/>
		<rect x="85" y="107.6" class="st9" width="5.7" height="1.9"/>
		<rect x="93.5" y="107.6" class="st9" width="1.7" height="1.9"/>
		<rect x="93.5" y="109.5" class="st9" width="5.4" height="2.6"/>
		<rect x="95.2" y="112.3" class="st20" width="3.8" height="3.3"/>
		<rect x="89.3" y="109.5" class="st9" width="4.2" height="2.6"/>
		<rect x="80.6" y="112.3" class="st20" width="8.3" height="3.3"/>
		<rect x="85" y="115.6" class="st20" width="5.7" height="1.9"/>
		<rect x="93.5" y="115.6" class="st20" width="1.7" height="1.9"/>
		<rect x="89.3" y="112.3" class="st20" width="4.2" height="3.3"/>
		<rect x="72.3" y="89.9" class="st6" width="58.5" height="0.7"/>
		<rect x="72.3" y="89.9" class="st10" width="58.5" height="30.8"/>
	</g>
	<g>
		<rect x="54.2" y="104.4" class="st20" width="13.9" height="17.3"/>
		<g>
			<polygon class="st14" points="54.2,121.6 52.5,119.9 52.5,103.2 54.2,104.3 			"/>
			<polygon class="st6" points="68,104.4 54.2,104.4 52.6,103.2 66.7,103.2 			"/>
			<ellipse class="st14" cx="61.8" cy="115.2" rx="4.1" ry="4.1"/>
			<ellipse class="st20" cx="61.8" cy="115.2" rx="2.3" ry="2.3"/>
			<ellipse class="st14" cx="61.5" cy="107.8" rx="1.7" ry="1.7"/>
			<ellipse class="st20" cx="61.6" cy="107.8" rx="0.9" ry="0.9"/>
		</g>
	</g>
	<g>
		<rect x="200.6" y="104.4" class="st20" width="13.9" height="17.3"/>
		<g>
			<polygon class="st14" points="200.6,121.6 198.9,119.9 198.9,103.2 200.6,104.3 			"/>
			<polygon class="st6" points="214.5,104.4 200.6,104.4 199,103.2 213.2,103.2 			"/>
			<ellipse class="st14" cx="208.3" cy="115.2" rx="4.1" ry="4.1"/>
			<ellipse class="st20" cx="208.3" cy="115.2" rx="2.3" ry="2.3"/>
			<ellipse class="st14" cx="208" cy="107.8" rx="1.7" ry="1.7"/>
			<ellipse class="st20" cx="208" cy="107.8" rx="0.9" ry="0.9"/>
		</g>
	</g>
	<g>
		<polygon class="st20" points="100.4,130.1 100.4,130.9 104.6,137.9 104.6,137.1 		"/>
		<g>
			<polygon class="st7" points="134.9,137.1 104.6,137.1 100.4,130.1 128.5,130 			"/>
			<polygon class="st20" points="134.6,137.4 104.6,137.9 104.6,137.1 134.6,136.6 			"/>
		</g>
	</g>
	<polygon class="st22" points="51.8,170.2 45.2,170.2 45.2,152.1 51.9,161.3 	"/>
	<polygon class="st23" points="45.3,170.2 44.3,170.2 44.3,150.7 45.3,152.1 	"/>
	<g id="BINTANG_2_" class="st19">
		<ellipse transform="matrix(0.5297 -0.8482 0.8482 0.5297 3.9984 155.5428)" class="st5" cx="142.3" cy="74.2" rx="0.4" ry="0.4"/>
		<ellipse transform="matrix(0.5296 -0.8482 0.8482 0.5296 -2.9242 204.752)" class="st5" cx="183.2" cy="105" rx="0.2" ry="0.2"/>
		
			<ellipse transform="matrix(0.5298 -0.8481 0.8481 0.5298 -6.0072 197.6438)" class="st5" cx="175.2" cy="104.2" rx="0.2" ry="0.2"/>
		
			<ellipse transform="matrix(0.5296 -0.8482 0.8482 0.5296 -27.7344 203.0201)" class="st5" cx="169.2" cy="126.5" rx="0.2" ry="0.2"/>
		
			<ellipse transform="matrix(0.5297 -0.8482 0.8482 0.5297 -21.8324 201.7019)" class="st5" cx="171" cy="120.5" rx="0.2" ry="0.2"/>
		
			<ellipse transform="matrix(0.5296 -0.8482 0.8482 0.5296 -3.7731 163.6301)" class="st5" cx="145.7" cy="85.2" rx="0.5" ry="0.5"/>
		
			<ellipse transform="matrix(0.5296 -0.8483 0.8483 0.5296 -2.9092 231.5757)" class="st5" cx="207.3" cy="118.4" rx="0.5" ry="0.5"/>
		
			<ellipse transform="matrix(0.5296 -0.8482 0.8482 0.5296 -21.637 149.7274)" class="st5" cx="124.2" cy="94.4" rx="0.4" ry="0.4"/>
		
			<ellipse transform="matrix(0.5296 -0.8482 0.8482 0.5296 -20.6537 223.1974)" class="st5" cx="190.9" cy="130.2" rx="0.3" ry="0.3"/>
		
			<ellipse transform="matrix(0.5299 -0.8481 0.8481 0.5299 -4.1077 228.2269)" class="st5" cx="203.8" cy="117.8" rx="0.3" ry="0.3"/>
		
			<ellipse transform="matrix(0.5296 -0.8483 0.8483 0.5296 -38.1773 142.1437)" class="st5" cx="109.1" cy="105.5" rx="0.5" ry="0.5"/>
		
			<ellipse transform="matrix(0.5296 -0.8482 0.8482 0.5296 -16.3597 146.8373)" class="st5" cx="124.2" cy="88.2" rx="0.5" ry="0.5"/>
		
			<ellipse transform="matrix(0.5296 -0.8482 0.8482 0.5296 -18.6332 192.9963)" class="st5" cx="164.7" cy="113.3" rx="0.5" ry="0.5"/>
		<ellipse transform="matrix(0.5296 -0.8483 0.8483 0.5296 8.4537 193.0787)" class="st5" cx="178.3" cy="88.9" rx="0.5" ry="0.5"/>
		<ellipse transform="matrix(0.5297 -0.8482 0.8482 0.5297 -1.4389 180.032)" class="st5" cx="161.6" cy="91.3" rx="0.5" ry="0.5"/>
		
			<ellipse transform="matrix(0.5296 -0.8483 0.8483 0.5296 -18.4681 163.6522)" class="st5" cx="138.3" cy="98.5" rx="0.2" ry="0.2"/>
		
			<ellipse transform="matrix(0.5297 -0.8482 0.8482 0.5297 -28.948 147.6126)" class="st5" cx="118.6" cy="99.9" rx="0.2" ry="0.2"/>
		<ellipse transform="matrix(0.5298 -0.8481 0.8481 0.5298 -39.6812 162.332)" class="st5" cx="126.6" cy="117" rx="0.2" ry="0.2"/>
		<ellipse transform="matrix(0.5299 -0.8481 0.8481 0.5299 7.6798 225.1978)" class="st5" cx="207" cy="105.7" rx="0.2" ry="0.2"/>
		
			<ellipse transform="matrix(0.5295 -0.8483 0.8483 0.5295 6.1196 221.5381)" class="st5" cx="202.8" cy="105.3" rx="0.2" ry="0.2"/>
		
			<ellipse transform="matrix(0.5297 -0.8482 0.8482 0.5297 -12.5927 201.8705)" class="st5" cx="175.7" cy="112.3" rx="0.2" ry="0.2"/>
		
			<ellipse transform="matrix(0.5296 -0.8482 0.8482 0.5296 -18.7854 149.902)" class="st5" cx="125.8" cy="91.9" rx="0.2" ry="0.2"/>
		
			<ellipse transform="matrix(0.5298 -0.8481 0.8481 0.5298 -4.6203 147.0772)" class="st5" cx="130.3" cy="77.7" rx="0.2" ry="0.2"/>
		<ellipse transform="matrix(0.5294 -0.8484 0.8484 0.5294 8.7262 155.5053)" class="st5" cx="144.5" cy="69.9" rx="0.2" ry="0.2"/>
		<ellipse transform="matrix(0.5299 -0.8481 0.8481 0.5299 0.9066 182.0067)" class="st5" cx="164.6" cy="90.2" rx="0.2" ry="0.2"/>
		<ellipse transform="matrix(0.5297 -0.8482 0.8482 0.5297 9.2203 203.3598)" class="st5" cx="188" cy="93.4" rx="0.2" ry="0.2"/>
		
			<ellipse transform="matrix(0.5296 -0.8482 0.8482 0.5296 -11.4689 183.8032)" class="st5" cx="160" cy="102.2" rx="0.2" ry="0.2"/>
		
			<ellipse transform="matrix(0.5297 -0.8482 0.8482 0.5297 -22.759 203.5407)" class="st5" cx="172.2" cy="122.3" rx="0.2" ry="0.2"/>
		
			<ellipse transform="matrix(0.5297 -0.8482 0.8482 0.5297 -11.6154 222.478)" class="st5" cx="194.8" cy="121.7" rx="0.2" ry="0.2"/>
		<ellipse transform="matrix(0.5296 -0.8482 0.8482 0.5296 0.5836 154.9891)" class="st5" cx="140" cy="77" rx="0.2" ry="0.2"/>
		<ellipse transform="matrix(0.5295 -0.8483 0.8483 0.5295 7.523 149.6564)" class="st5" cx="138.7" cy="68" rx="0.2" ry="0.2"/>
		
			<ellipse transform="matrix(0.5298 -0.8481 0.8481 0.5298 -3.3821 160.3673)" class="st5" cx="142.9" cy="83.2" rx="0.2" ry="0.2"/>
		<ellipse transform="matrix(0.5298 -0.8481 0.8481 0.5298 3.81 170.3025)" class="st5" cx="155.5" cy="81.7" rx="0.1" ry="0.1"/>
		<ellipse transform="matrix(0.5298 -0.8481 0.8481 0.5298 9.2388 161.8911)" class="st5" cx="150.6" cy="72.6" rx="0.2" ry="0.2"/>
		<ellipse transform="matrix(0.5296 -0.8482 0.8482 0.5296 6.7244 160.2304)" class="st5" cx="147.8" cy="74.1" rx="0.2" ry="0.2"/>
		<g>
			
				<ellipse transform="matrix(0.5296 -0.8482 0.8482 0.5296 -2.3595 251.2411)" class="st5" cx="225.4" cy="127.7" rx="0.2" ry="0.2"/>
			
				<ellipse transform="matrix(0.5296 -0.8483 0.8483 0.5296 3.9403 263.3335)" class="st5" cx="239.4" cy="128.1" rx="0.2" ry="0.2"/>
			
				<ellipse transform="matrix(0.5297 -0.8482 0.8482 0.5297 -16.1842 253.0775)" class="st5" cx="220.1" cy="141.1" rx="0.5" ry="0.5"/>
			<ellipse transform="matrix(0.5297 -0.8482 0.8482 0.5297 -4.4988 247.972)" class="st5" cx="221.4" cy="128" rx="0.5" ry="0.5"/>
			
				<ellipse transform="matrix(0.5297 -0.8482 0.8482 0.5297 -10.5498 272.0502)" class="st5" cx="240" cy="145.5" rx="0.5" ry="0.5"/>
			<ellipse transform="matrix(0.53 -0.848 0.848 0.53 -15.0927 248.3877)" class="st5" cx="216.5" cy="137.8" rx="0.2" ry="0.2"/>
			
				<ellipse transform="matrix(0.5297 -0.8482 0.8482 0.5297 -6.0486 240.1349)" class="st5" cx="213.5" cy="125.5" rx="0.2" ry="0.2"/>
			<ellipse transform="matrix(0.5294 -0.8484 0.8484 0.5294 12.3683 278.2038)" class="st5" cx="257" cy="128" rx="0.2" ry="0.2"/>
			
				<ellipse transform="matrix(0.5299 -0.8481 0.8481 0.5299 -5.4483 270.8299)" class="st5" cx="241.6" cy="140.3" rx="0.2" ry="0.2"/>
			
				<ellipse transform="matrix(0.5299 -0.848 0.848 0.5299 -7.7599 275.6569)" class="st5" cx="244.8" cy="144.8" rx="0.2" ry="0.2"/>
			
				<ellipse transform="matrix(0.5294 -0.8484 0.8484 0.5294 -22.7095 259.9178)" class="st5" cx="222.9" cy="150.4" rx="0.2" ry="0.2"/>
			
				<ellipse transform="matrix(0.5295 -0.8483 0.8483 0.5295 -24.2044 248.1272)" class="st5" cx="211.6" cy="145.9" rx="0.2" ry="0.2"/>
			
				<ellipse transform="matrix(0.5299 -0.848 0.848 0.5299 -2.9455 264.5604)" class="st5" cx="237.2" cy="134.9" rx="0.2" ry="0.2"/>
			
				<ellipse transform="matrix(0.5298 -0.8481 0.8481 0.5298 -2.373 271.0465)" class="st5" cx="243.3" cy="137.7" rx="0.2" ry="0.2"/>
			
				<ellipse transform="matrix(0.5296 -0.8482 0.8482 0.5296 -4.8817 269.4012)" class="st5" cx="240.5" cy="139.1" rx="0.2" ry="0.2"/>
		</g>
		<g>
			<ellipse transform="matrix(0.5296 -0.8482 0.8482 0.5296 0.2001 108.1134)" class="st5" cx="97.6" cy="53.9" rx="0.2" ry="0.2"/>
			
				<ellipse transform="matrix(0.5295 -0.8483 0.8483 0.5295 6.5027 120.2092)" class="st5" cx="111.6" cy="54.2" rx="0.2" ry="0.2"/>
			
				<ellipse transform="matrix(0.5296 -0.8482 0.8482 0.5296 -13.6155 109.9686)" class="st5" cx="92.3" cy="67.3" rx="0.5" ry="0.5"/>
			
				<ellipse transform="matrix(0.5296 -0.8482 0.8482 0.5296 -1.9276 104.8664)" class="st5" cx="93.6" cy="54.2" rx="0.5" ry="0.5"/>
			
				<ellipse transform="matrix(0.5296 -0.8482 0.8482 0.5296 -7.9785 128.9455)" class="st5" cx="112.3" cy="71.7" rx="0.5" ry="0.5"/>
			
				<ellipse transform="matrix(0.5296 -0.8482 0.8482 0.5296 -12.4885 105.3529)" class="st5" cx="88.7" cy="63.9" rx="0.2" ry="0.2"/>
			<ellipse transform="matrix(0.5296 -0.8483 0.8483 0.5296 -3.4785 97.0275)" class="st5" cx="85.7" cy="51.6" rx="0.2" ry="0.2"/>
			
				<ellipse transform="matrix(0.5298 -0.8481 0.8481 0.5298 14.8765 134.9961)" class="st5" cx="129.2" cy="54.1" rx="0.2" ry="0.2"/>
			<ellipse transform="matrix(0.5299 -0.848 0.848 0.5299 -2.8726 127.7324)" class="st5" cx="113.8" cy="66.5" rx="0.2" ry="0.2"/>
			<ellipse transform="matrix(0.5296 -0.8482 0.8482 0.5296 -5.1528 132.6207)" class="st5" cx="117" cy="71" rx="0.2" ry="0.2"/>
			
				<ellipse transform="matrix(0.5298 -0.8481 0.8481 0.5298 -20.182 116.7134)" class="st5" cx="95.2" cy="76.6" rx="0.2" ry="0.2"/>
			<ellipse transform="matrix(0.5297 -0.8482 0.8482 0.5297 -21.6566 104.968)" class="st5" cx="83.8" cy="72" rx="0.2" ry="0.2"/>
			<ellipse transform="matrix(0.5294 -0.8484 0.8484 0.5294 -0.3223 121.55)" class="st5" cx="109.4" cy="61.1" rx="0.2" ry="0.2"/>
			
				<ellipse transform="matrix(0.5295 -0.8483 0.8483 0.5295 0.2214 127.9829)" class="st5" cx="115.5" cy="63.8" rx="0.2" ry="0.2"/>
			<ellipse transform="matrix(0.5298 -0.8481 0.8481 0.5298 -2.3293 126.26)" class="st5" cx="112.7" cy="65.2" rx="0.2" ry="0.2"/>
		</g>
		<ellipse transform="matrix(0.5299 -0.848 0.848 0.5299 6.5879 181.4302)" class="st5" cx="167" cy="84.8" rx="0.2" ry="0.2"/>
		<ellipse transform="matrix(0.5292 -0.8485 0.8485 0.5292 9.1792 175.3046)" class="st5" cx="162.6" cy="79.4" rx="0.2" ry="0.2"/>
		<ellipse transform="matrix(0.5296 -0.8482 0.8482 0.5296 9.6846 181.6785)" class="st5" cx="168.7" cy="82.1" rx="0.2" ry="0.2"/>
		<ellipse transform="matrix(0.5295 -0.8483 0.8483 0.5295 7.173 180.0236)" class="st5" cx="165.9" cy="83.5" rx="0.2" ry="0.2"/>
		
			<ellipse transform="matrix(0.5294 -0.8484 0.8484 0.5294 -19.2085 228.1474)" class="st5" cx="196" cy="131.4" rx="0.2" ry="0.2"/>
		
			<ellipse transform="matrix(0.5297 -0.8482 0.8482 0.5297 -16.2621 225.2083)" class="st5" cx="195" cy="127.3" rx="0.2" ry="0.2"/>
	</g>
	<g>
		<g>
			<g>
				<path class="st24" d="M126.5,171.8c0,0-5.6-38.3,0.7-42.2c5.6-3.5,19.3-8,19.3-8l18-1.7c0,0,12.1,4.5,13.7,5.4
					c1.6,0.9,4.3,2.6,5.8,5c1.5,2.4,4.5,41.9,4.5,41.9L126.5,171.8z"/>
				<path class="st25" d="M127.7,171.9h-3.9c0,0-0.9-10.5-1-18.1c0-1.7-1.8,1.1-8.3,1.4c-8.1,0.4-28.7-15.1-28.7-15.1l3.3-3.6
					c0,0,14.3,4.4,19.4,4.9c2.5,0.2,7.4,0.6,9.4-0.9c3.1-2.3,4.8-8.2,8.4-12.3c2.9-3.4,18.3-6.7,18.3-6.7l2.3,0.1
					c0,0-12.5,3.3-19.1,8.7C122.3,134.8,127.7,171.9,127.7,171.9z"/>
				<path class="st26" d="M163.6,118.4v-3.8c0,0,0,0.9-1.6,1.3c-1.6,0.3-10.3,0.6-11.5-0.7c-1.3-1.3-0.5-5.8-7.6-13.4
					c-0.5-0.5-1.9-1.2-2.8-0.4c-0.6,0.6,0,3.4,0,3.4s0.3,3.1,1.1,5.1c0.8,2,3.9,6.9,3.9,6.9l1.7,4.7l18.4-1.4L163.6,118.4z"/>
				<path class="st25" d="M144.9,116.4c0,0-4.3-5.6-5.1-8.4c-2-7.2-1.4-13.9-1.4-13.9l1.3,1.6c0,0,0.5,9.1,1.6,11.9
					c1.1,2.8,2.3,5.8,2.3,5.8L144.9,116.4z"/>
				<path class="st25" d="M139.7,96.3l0.2-6.1l2.7-0.5L139,84c0,0,0.9,2.8,0.3,3.5c-0.3,0.3-1.9-0.1-1.9-0.1s1.8,2.8,1.1,3.4
					c-0.5,0.5-2.6-1.1-2.6-1.1s0.9,2.6,1.3,3.4C137.9,93.8,139.7,96.3,139.7,96.3z"/>
				<path class="st25" d="M140.3,85.4c-0.1,1,1.7,3.7,1.7,3.7s-0.7-3.8,0.3-4.1c0.5-0.1,1.2,1.5,1.2,1.5s-0.2-5.1,9.1-4.9
					c9.2,0.2,11,4,11,4s-3.2-6.3-13.5-5.6c-4.6,0.3-4.9,3.6-6.9,3.4c-0.5-0.1-0.9-1.9-0.9-1.9S140.6,82.3,140.3,85.4z"/>
				<path class="st25" d="M164.8,87.9c0,0,3.2,6.1,2.1,11.1c-1.2,5-3.3,11.4-3.4,13.1c-0.1,2.5-0.1,3.8,1.1,6c1.7,3,5.1,4.4,5.1,4.4
					l-5.7-1l-1.8-4.6c0,0,0.2-10.6,1.2-14.1c1-3.4,1-3.4,1-3.4l-2.2,0.5c0,0,2.1-4.5,2.5-5.8C165.1,92.7,164.8,87.9,164.8,87.9z"/>
				<path class="st25" d="M146.8,121.6c0,0-0.1-4.9-1-7.4c-0.9-2.5-1.8-5.2-1.8-5.2s0.9,4.6,0.9,6.2c0,0.8-0.1,3-0.1,3.8
					c0,0.9-0.3,2.5-0.3,2.5L146.8,121.6z"/>
				<path class="st0" d="M163,112.4c0.1-2.1,1.4-5.8,2.1-8.4c1.4-5,1-5.9,1-5.9s-1.9,0.5-2.2,0.2c-1.3-1.2,1.6-3.1,1.8-6.1
					c0.2-3-2.2-12.8-15.8-11.5c-3.5,0.3-6.3,2.7-6.5,3.2c-0.2,0.5-0.2,0.5-0.2,0.5l-1.2-1.8c0,0-1.2,0.4-1.3,3.2
					c0,0.8,0.2,1.8,0.2,1.8l-1.3-2.5c0,0,1,3,0.3,3.6c-0.3,0.2-1.4-0.7-1.4-0.7s1.6,3.4,0.8,4.1c-0.7,0.6-2.6-1.5-2.6-1.5l2.7,3.8
					c0,0-1.1,5.8,0.4,9.1c0.1,0.3,0.9,1.5,0.9,1.5s-1.1-4,1.1-2.6c2,1.3,3.7,4.7,7,13c3.5,8.9,20.9,7.1,20.9,7.1s-4.7-1.7-5.9-4.6
					C163,116.1,162.9,114.8,163,112.4z"/>
			</g>
			<path class="st0" d="M192.8,169.3c0,1.5-1.3,2.8-2.8,2.8l-58-0.3c-1.6,0-2.8-0.9-2.8-2.5v-41.8c0-1.5,1.3-2.8,2.8-2.8h58
				c1.6,0,2.8,1.3,2.8,2.8V169.3z"/>
			<path class="st12" d="M176.8,153.2c0,1.5-1.3,2.8-2.8,2.8H156c-1.6,0-2.8-1.3-2.8-2.8v-12.4c0-1.5,1.3-2.8,2.8-2.8h17.9
				c1.6,0,2.8,1.3,2.8,2.8V153.2z"/>
			<rect x="164.5" y="150.1" class="st12" width="5" height="22"/>
			<path class="st14" d="M132.8,127.1c1.3-1.9,26.8-2.4,26.8-2.4H132c0,0-1.6-0.4-2.5,1c-0.4,0.7-0.5,2.9-0.5,2.9l0.2,40.2
				c0,0,0,1.7,1,2.4c1.7,1.1,2.7,0.7,2.7,0.7S130.2,130.8,132.8,127.1z"/>
			<path class="st14" d="M189.2,127.1c-1.3-1.9-26.8-2.4-26.8-2.4h27.6c0,0,1.6-0.4,2.5,1c0.4,0.7,0.5,2.9,0.5,2.9l-0.2,40.2
				C192.9,168.8,191.8,130.8,189.2,127.1z"/>
			<path class="st25" d="M89.5,137.4c0,0,1.5-3.1,0.5-4.1c-1.4-1.5-7.8-2.8-9.4-1.5c-1.6,1.3-0.9,5,0.2,6.7c1,1.6,5.7,2.2,5.7,2.2
				L89.5,137.4z"/>
			<path class="st26" d="M86.5,140.6c0,0,18.7,13,25.9,13.2c7.6,0.3,8.1-3.4,10.7-2.4c1.8,0.7,2.2,20.3,2.2,20.3l-1.5,0.1
				c0,0-1.2-15.3-1.4-17.2c-0.3-2.5-0.4,1.3-10.7,0.6C104.6,154.8,86.5,140.6,86.5,140.6z"/>
		</g>
		<path class="st0" d="M146.3,107.2c0,0,2.1,2.5,2.3,7.5c0.2,4.9-4.3,9.3-4.3,9.3s5.1-1.8,8.2-7.3c3.1-5.7-3.2-11.5-3.2-11.5
			L146.3,107.2z"/>
		<path class="st0" d="M146.5,104.7c0,0,1.7,2.2,2.4,6.1c0.6,3.8-3.5,7.7-3.5,7.7s3.8-1.8,5.6-6.4c1.9-4.7-3.6-8.6-3.6-8.6
			L146.5,104.7z"/>
		<path class="st0" d="M151.8,113.5c0,0,0,1.9-0.2,4.4c-0.2,1.7-2,4.8-2,4.8s2.1-0.2,3.7-2.9c1.6-2.9,0.8-7.2,0.8-7.2L151.8,113.5z"
			/>
		<path class="st26" d="M112,141.6c0,0,3.8,1.9,7.1-0.5c1.5-1,2.5-5.8,2.5-5.8s-2.4,4.4-4.4,5.5C115.6,141.7,112,141.6,112,141.6z"
			/>
	</g>
	<g>
		<g>
			<ellipse class="st14" cx="72.2" cy="131.9" rx="3.9" ry="0.9"/>
			<g>
				<g>
					<path class="st27" d="M69.6,130.3l0.1,1.1c0,0.3,0.2,0.5,0.5,0.6c0.4,0.1,1,0.2,2.1,0.2c1,0,1.5-0.1,1.9-0.2
						c0.3-0.1,0.5-0.3,0.5-0.6l0.1-1.1c-0.3,0.2-0.9,0.4-2.4,0.4C70.7,130.8,69.9,130.5,69.6,130.3z"/>
					<path class="st28" d="M75.6,119.9c-1.3-0.3-4.3-0.5-6.9,0.1c-0.1,0-0.2,0.1-0.2,0.2l1.1,10.1c0.3,0.2,1.1,0.4,2.8,0.4
						c1.5,0,2.2-0.2,2.4-0.4l1-10.1C75.7,120.1,75.7,119.9,75.6,119.9z"/>
					<path class="st20" d="M74.6,130.2l0.5-5.8c0,0-1-0.3-3.2-0.3c-2,0-2.7,0.4-2.7,0.4l0.6,5.6c0,0,0.5,0.4,2.4,0.4
						C74.1,130.6,74.6,130.2,74.6,130.2z"/>
					<g>
						<path class="st27" d="M74.6,130.2c0-2.2,0.2-4.4,0.3-6.6c0-0.6,0.1-1.1,0.1-1.7l0.1-1.5c0,0,0,0,0,0c0,0,0.1,0,0.1,0l-0.1,0
							l-0.2,0l-0.4,0l-0.8-0.1c-0.5,0-1.1-0.1-1.6-0.1c-0.5,0-1.1,0-1.6,0.1c-0.3,0-0.5,0.1-0.8,0.1c-0.1,0-0.3,0-0.4,0.1l-0.2,0
							l-0.1,0c0,0-0.1,0,0,0c0,0,0.1-0.1,0.1-0.1l0,0.2l0,0.4l0.1,0.8c0.1,0.6,0.1,1.1,0.1,1.7c0.2,2.2,0.3,4.4,0.4,6.6
							c-0.4-2.2-0.7-4.4-1-6.6c-0.1-0.5-0.1-1.1-0.2-1.7l-0.1-0.8l0-0.4l0-0.2c0-0.2,0.1-0.4,0.3-0.5c0.1,0,0.1,0,0.2-0.1l0.1,0
							l0.2,0c0.1,0,0.3-0.1,0.4-0.1c0.3-0.1,0.6-0.1,0.8-0.1c0.6-0.1,1.1-0.1,1.7-0.1c0.6,0,1.1,0,1.7,0.1l0.8,0.1l0.4,0.1l0.2,0
							l0.1,0c0,0,0.2,0,0.2,0.1c0.1,0.1,0.1,0.1,0.2,0.2c0.1,0.1,0.1,0.2,0.1,0.4l0,0.2l0,0.4l-0.1,0.8c-0.1,0.6-0.1,1.1-0.2,1.7
							C75.2,125.8,74.9,128,74.6,130.2z"/>
					</g>
				</g>
				<g>
					<path class="st27" d="M74.6,130.3c-0.2-0.1-0.4,0-0.6,0l-0.6,0.1c-0.4,0.1-0.8,0.1-1.2,0.1c-0.4,0-0.8,0-1.2-0.1l-0.6-0.1
						c-0.1,0-0.2,0-0.3,0c-0.1,0-0.2,0-0.3,0.1c-0.1-0.1,0-0.3,0.1-0.4c0.1-0.1,0.2-0.2,0.3-0.3c0.2-0.1,0.4-0.2,0.7-0.3
						c0.4-0.1,0.9-0.2,1.3-0.2c0.4,0,0.9,0.1,1.3,0.2c0.2,0.1,0.4,0.2,0.7,0.3c0.1,0.1,0.2,0.1,0.3,0.3
						C74.5,130,74.6,130.1,74.6,130.3z"/>
				</g>
				<g>
					<path class="st27" d="M75.4,120.2c0,0.2-0.1,0.3-0.3,0.4c-0.1,0.1-0.3,0.2-0.4,0.2c-0.3,0.1-0.6,0.2-0.9,0.2
						c-0.6,0.1-1.2,0.1-1.8,0.2c-0.6,0-1.2,0-1.8-0.1c-0.3-0.1-0.6-0.1-0.9-0.2c-0.1,0-0.3-0.1-0.4-0.2c-0.1-0.1-0.3-0.2-0.3-0.3
						c0.1,0.2,0.5,0.2,0.8,0.2c0.3,0,0.6,0,0.9,0l1.7,0c0.6,0,1.2,0,1.7,0c0.3,0,0.6,0,0.9-0.1C75,120.4,75.3,120.4,75.4,120.2z"/>
				</g>
				<path class="st29" d="M75.4,120.2c0,0,0.1,0.7-3.3,0.7c-3.6,0-3.4-0.5-3.4-0.5s0.4-0.5,3.3-0.5C75,119.9,75.4,120.2,75.4,120.2z
					"/>
				<path class="st27" d="M74.6,130.3c0,0,0.1-0.5-2.5-0.5c-2.7,0-2.4,0.5-2.4,0.5s1.8,0.3,2.4,0.3
					C72.7,130.6,74.6,130.6,74.6,130.3z"/>
				<path class="st27" d="M75,124.6c0.1,0,0.1-0.2,0-0.2c-0.4-0.1-1.3-0.3-2.9-0.3c-2.7,0-3,0.4-3,0.4s0.3,0.4,3,0.4
					C73.6,124.9,74.6,124.7,75,124.6z"/>
				<g class="st30">
					<path class="st31" d="M73.4,119.6l-0.4,12.6c0.5,0,0.9-0.1,1.1-0.2l1-12.2C74.7,119.8,74.2,119.7,73.4,119.6z"/>
				</g>
			</g>
		</g>
		<path class="st27" d="M70.6,125.7c0,0-0.3,0-0.4,0c-0.1-0.1-0.1-0.3-0.1-0.3s0.3-0.1,0.4,0C70.6,125.4,70.6,125.7,70.6,125.7z"/>
		<path class="st27" d="M72.4,128.1c0,0,0.1,0.3,0.1,0.4c0,0.1-0.3,0.2-0.3,0.2s-0.1-0.2-0.1-0.3C72.1,128.2,72.4,128.1,72.4,128.1z
			"/>
		<path class="st27" d="M70.8,127.7c0,0-0.2,0-0.3,0c-0.1,0-0.1-0.2-0.1-0.2s0.2,0,0.2,0C70.7,127.5,70.8,127.7,70.8,127.7z"/>
		<path class="st27" d="M73.8,129.7c0,0-0.2,0-0.3,0c-0.1,0-0.1-0.2-0.1-0.2s0.2,0,0.2,0C73.8,129.5,73.8,129.7,73.8,129.7z"/>
		<path class="st27" d="M71.4,128.3c0,0-0.1,0-0.1,0c0,0,0-0.1,0-0.1s0.1,0,0.1,0C71.3,128.2,71.4,128.3,71.4,128.3z"/>
		<path class="st27" d="M71.3,126.5c0,0-0.1,0-0.1,0c0,0,0-0.1,0-0.1s0.1,0,0.1,0C71.3,126.4,71.3,126.5,71.3,126.5z"/>
		<path class="st27" d="M70.1,126.5c0,0,0,0.1,0,0.1c0,0-0.1,0-0.1,0s0-0.1,0-0.1C70,126.5,70.1,126.5,70.1,126.5z"/>
		<path class="st27" d="M72.1,127.4c0,0,0,0.1,0,0.1c0,0-0.1,0-0.1,0s0-0.1,0-0.1C72,127.4,72.1,127.4,72.1,127.4z"/>
		<path class="st27" d="M70.9,124.4c0,0,0,0.1,0,0.1c0,0-0.1,0-0.1,0s0-0.1,0-0.1C70.8,124.4,70.9,124.4,70.9,124.4z"/>
		<path class="st27" d="M72,125.3c0,0,0,0.1,0,0.1c0,0-0.1,0-0.1,0s0-0.1,0-0.1C71.9,125.3,72,125.3,72,125.3z"/>
		<path class="st27" d="M72.5,124.4c0,0,0,0.1,0,0.1c0,0-0.1,0-0.1,0s0-0.1,0-0.1C72.3,124.4,72.5,124.4,72.5,124.4z"/>
		<path class="st27" d="M73.1,125.7c0,0,0,0.1,0,0.1c0,0-0.1,0-0.1,0s0-0.1,0-0.1C73,125.7,73.1,125.7,73.1,125.7z"/>
		<path class="st27" d="M74.2,127.8c0,0,0,0.1,0,0.1c0,0-0.1,0-0.1,0s0-0.1,0-0.1C74.1,127.8,74.2,127.8,74.2,127.8z"/>
		<path class="st27" d="M73.1,127.3c0,0,0,0.1,0,0.1c0,0-0.1,0-0.1,0s0-0.1,0-0.1C73,127.3,73.1,127.3,73.1,127.3z"/>
		<path class="st27" d="M74.3,126.2c0,0,0,0.1,0,0.1c0,0-0.1,0-0.1,0s0-0.1,0-0.1C74.2,126.2,74.3,126.2,74.3,126.2z"/>
		<path class="st27" d="M72.5,126.3c0,0-0.1,0.2-0.1,0.2c-0.1,0-0.2,0-0.2,0s0-0.2,0.1-0.2C72.3,126.2,72.5,126.3,72.5,126.3z"/>
		<path class="st27" d="M70.6,129.1c0,0,0.3,0.1,0.3,0.2c0,0.1-0.2,0.2-0.2,0.2s-0.3-0.1-0.3-0.2C70.3,129.3,70.6,129.1,70.6,129.1z
			"/>
	</g>
	<linearGradient id="SVGID_3_" gradientUnits="userSpaceOnUse" x1="179.5524" y1="193.8255" x2="179.5524" y2="22.7759">
		<stop  offset="0" style="stop-color:#FFFFFF;stop-opacity:0.2"/>
		<stop  offset="7.057858e-02" style="stop-color:#FDF4E8;stop-opacity:0.2"/>
		<stop  offset="0.2446" style="stop-color:#F7DAB4;stop-opacity:0.2"/>
		<stop  offset="0.4155" style="stop-color:#F3C588;stop-opacity:0.2"/>
		<stop  offset="0.5798" style="stop-color:#EFB567;stop-opacity:0.2"/>
		<stop  offset="0.7356" style="stop-color:#EDA94F;stop-opacity:0.2"/>
		<stop  offset="0.8795" style="stop-color:#ECA240;stop-opacity:0.2"/>
		<stop  offset="1" style="stop-color:#EBA03B;stop-opacity:0.2"/>
	</linearGradient>
	<polygon class="st32" points="121.4,10.7 58.3,170.2 300.8,170.5 300.8,135.9 	"/>
	<g>
		<ellipse class="st25" cx="128" cy="20.3" rx="8" ry="6.8"/>
		<g>
			<defs>
				<path id="SVGID_4_" d="M127.4-0.8c-23.1,0-23.7,24.4-23.7,24.4h48.1C151.9,23.5,149-0.8,127.4-0.8z"/>
			</defs>
			<use xlink:href="#SVGID_4_"  style="overflow:visible;fill:#59486D;"/>
			<clipPath id="SVGID_5_">
				<use xlink:href="#SVGID_4_"  style="overflow:visible;"/>
			</clipPath>
			<path class="st33" d="M97.7,24.7H111c0,0,1.3-11.1,2.9-14.5c5-11,11.9-11.5,11.9-11.5s-6.1-3.3-18.4,6.5
				C103.3,8.5,97.7,24.7,97.7,24.7z"/>
			<path class="st34" d="M150.3,24.7h-12.6c0,0-2-10.9-3.6-14.5c-4.5-10.6-11.9-11.5-11.9-11.5s7.3-4.5,18.4,6.5
				C147.4,12,150.3,24.7,150.3,24.7z"/>
		</g>
	</g>
</g>
<polygon class="st0" points="77.9,13 13.4,13 13.4,8.1 71.6,8.5 "/>
<polygon class="st0" points="77.9,6.5 13.4,6.5 13.4,1.6 71.6,2 "/>
</svg>
