<?xml version="1.0" encoding="utf-8"?>
<!-- Generator: Adobe Illustrator 21.0.0, SVG Export Plug-In . SVG Version: 6.00 Build 0)  -->
<svg version="1.1" id="Layer_1" xmlns="http://www.w3.org/2000/svg" xmlns:xlink="http://www.w3.org/1999/xlink" x="0px" y="0px"
	 viewBox="0 0 72 72" style="enable-background:new 0 0 72 72;" xml:space="preserve">
<style type="text/css">
	.st0{fill:none;stroke:#FFFFFF;stroke-miterlimit:10;}
	.st1{fill:none;stroke:#FFFFFF;stroke-width:2;stroke-miterlimit:10;}
</style>
<title>Asset 1</title>
<g id="Layer_2">
	<g id="WORKS">
		<path class="st0" d="M71.5,71.5h-71v-71h71V71.5z M70.5,70.5v-69h-69v69H70.5"/>
		<path class="st1" d="M13.9,24.6L13.9,24.6c-1.7,1.7-1.7,4.5,0,6.2l18.3,18.3c1.7,1.7,4.5,1.7,6.2,0c0,0,0,0,0,0l18.3-18.3
			c1.7-1.7,1.7-4.5,0-6.2l0,0c-1.7-1.7-4.5-1.7-6.2,0L35.2,39.8L20.1,24.6C18.4,22.9,15.6,22.9,13.9,24.6z"/>
	</g>
</g>
</svg>
