<svg xmlns="http://www.w3.org/2000/svg" viewBox="0 0 114.5712 36.1168"><defs><style>.cls-1{fill:#005dab;}</style></defs><title>Asset 1</title><g id="Layer_2" data-name="Layer 2"><g id="CLIENT"><path class="cls-1" d="M45.8071,11.9351c-.1457-.0079-.2454-.0177-.3452-.018-.46-.0017-.92.0007-1.38-.0021a.3837.3837,0,0,1-.2838-.053,2.4533,2.4533,0,0,1,.0935-.24q.7157-1.4059,1.4353-2.81.4877-.9534.9763-1.9065.6349-1.24,1.27-2.48c.1949-.3814.392-.7619.5788-1.1472a.2606.2606,0,0,1,.26-.1713c.0613.0009.1227-.0016.184-.0015q5.8425.0006,11.6849.0016c.3679,0,.7342.0263,1.1014.051a11.2275,11.2275,0,0,1,1.4816.2226A6.7208,6.7208,0,0,1,64.06,3.75a7.1665,7.1665,0,0,1,1.5033.816,5.3176,5.3176,0,0,1,2.164,3.3658,7.6454,7.6454,0,0,1,.0932,1.9834,5.1175,5.1175,0,0,1-.1136.6944,7.8515,7.8515,0,0,1-.8459,2.35,9.42,9.42,0,0,1-1.5247,2.099A10.2332,10.2332,0,0,1,62.6975,17.03a.4876.4876,0,0,0-.2182.1865,2.2978,2.2978,0,0,0,.1914.141A6.1114,6.1114,0,0,1,64.66,19.2741a5.53,5.53,0,0,1,.7022,1.5564,7.0483,7.0483,0,0,1,.2167,2.1565,8.1646,8.1646,0,0,1-.21,1.6068,7.5557,7.5557,0,0,1-.3845,1.1931,9.65,9.65,0,0,1-.6918,1.3983c-.1668.2684-.3364.5356-.5185.7936a9.4424,9.4424,0,0,1-1.5409,1.7387,12.0881,12.0881,0,0,1-1.8254,1.3315A14.3144,14.3144,0,0,1,59.07,31.72a7.7913,7.7913,0,0,1-1.4544.4634c-.1589.0359-.3163.0782-.4751.1147a15.4,15.4,0,0,1-1.6018.241,1.967,1.967,0,0,1-.2143.009c-.2249.0026-.45.0051-.6747.0052q-6.8239,0-13.6477,0h-.3892a1.5386,1.5386,0,0,1,.02-.1915c.073-.2969.15-.5928.2247-.8894.1516-.6026.3009-1.2059.4544-1.808.0907-.3556.1908-.7088.2813-1.0645.1532-.6024.302-1.206.453-1.8089.1436-.5731.284-1.147.4326-1.7188.1436-.5522.2987-1.1014.4435-1.6534.093-.3546.1738-.7123.265-1.0674.0938-.3651.1967-.7279.29-1.0931.0857-.3356.16-.6742.2462-1.01.0991-.3849.2105-.7666.3083-1.1518.1178-.4642.2249-.931.34-1.3958.14-.5641.284-1.1273.4257-1.691.1467-.5832.29-1.1675.44-1.75.1631-.6313.3351-1.26.4982-1.8917C45.7688,12.2425,45.7792,12.11,45.8071,11.9351Zm5.4238,12.9013a.5132.5132,0,0,0,.31.06c1.0314.0007,2.0628.0048,3.0941-.0027a2.5777,2.5777,0,0,0,.8718-.1417,3.2661,3.2661,0,0,0,1.4351-1.0082,2.3558,2.3558,0,0,0,.6231-1.678,1.3136,1.3136,0,0,0-.1854-.6368,1.7427,1.7427,0,0,0-.49-.54,2.6326,2.6326,0,0,0-1.5129-.5027c-.5922.0051-1.1845.001-1.7768.0011-.3166,0-.6331-.0023-.95.0015-.2163.0026-.2624.0411-.3211.25-.0442.1567-.0843.3145-.1272.4715-.1559.57-.31,1.14-.4691,1.7082s-.3252,1.1353-.4884,1.7028A.4576.4576,0,0,0,51.2309,24.8364Zm4.988-13.8138v.002c-.47,0-.9406-.0035-1.4108.0018-.1824.0021-.2438.0548-.2814.2205-.0473.2085-.086.419-.1289.6285-.0327.16-.0634.32-.1.4793-.0817.3576-.1686.714-.2491,1.0718-.06.2683-.1156.5378-.17.8074-.0345.17-.0684.34-.0938.5114-.02.1329.0315.196.16.2072.0914.008.1838.0069.2757.007.777.0009,1.5541-.0082,2.3309.0056a2.0063,2.0063,0,0,0,1.047-.2906,3.4321,3.4321,0,0,0,1.0248-.9078,2.3875,2.3875,0,0,0,.5354-1.1528,1.1845,1.1845,0,0,0-.5115-1.2,1.9967,1.9967,0,0,0-1.2012-.3931C57.0368,11.0273,56.6278,11.0226,56.2189,11.0226Z"/><path class="cls-1" d="M94.6521,11.6133c.0791-.1492.1311-.2465.1824-.3441q.7189-1.3677,1.4374-2.7357c.4169-.7952.83-1.5923,1.2488-2.3867.3278-.6224.6609-1.242.9912-1.8631q.23-.4323.4584-.8654c.0335-.0631.066-.1269.103-.188a.2264.2264,0,0,1,.2-.121c.0818-.0007.1635-.0036.2453-.0036q6.6253,0,13.2506.0006a.7814.7814,0,0,1,.3658.0412.5839.5839,0,0,1,.0328.1172c.0259.4079.06.8156.0706,1.224.0135.5316.0244,1.0627.0849,1.5918.0174.152.0162.306.0237.4591q.031.6276.062,1.2552c.0055.1123.0135.2247.0136.337a16.8823,16.8823,0,0,0,.0905,1.8063c.0143.1318.0117.2654.0182.3981q.03.6123.06,1.2246c.0055.1123.0141.2247.0146.337a16.8731,16.8731,0,0,0,.0912,1.8369c.0162.1418.0114.2859.0183.4288.02.4082.0413.8163.0614,1.2245.006.1225.0129.2451.014.3677a15.5924,15.5924,0,0,0,.0848,1.7145c.0194.1619.0157.3265.0238.49q.0294.5969.06,1.1938c.0026.0511.0069.102.0087.1531.0292.8376.0544,1.6755.0887,2.5129.0159.3879.0492.775.075,1.1625.0034.051.0112.1017.0132.1527.0314.8067.0585,1.6137.0948,2.42.0188.4184.0535.8361.0811,1.2541.002.0306.0062.0611.0074.0917.03.7352.0565,1.4706.0909,2.2055.0239.51.0592,1.02.0879,1.53.0075.1326.0085.2656.0136.3983.0167.4391.0344.8782.05,1.3173a1.5568,1.5568,0,0,1-.0122.1637,1.47,1.47,0,0,1-.1776.035c-.0814.0061-.1635.0026-.2453.0026q-4.2942,0-8.5883,0c-.1318,0-.2636-.0041-.3771-.006a.3725.3725,0,0,1-.0826-.3082c-.0151-.4188-.0134-.8387-.0427-1.2565-.0678-.97-.0518-1.9414-.0788-2.912-.0031-.1124-.0049-.2252-.0172-.3368-.0159-.145-.0681-.19-.2193-.2027-.0508-.0043-.1022-.0031-.1533-.0031-1.81,0-3.6194.0044-5.429-.0053a.4234.4234,0,0,0-.4536.3127c-.2527.6351-.52,1.2643-.7828,1.8955-.2153.5178-.4336,1.0343-.6469,1.5529-.1009.2453-.19.4953-.2906.7409-.069.1688-.1479.3335-.2249.5055-.0809.0084-.15.02-.22.0221-1.3009.0356-9.73.0151-10.0457-.026a.5612.5612,0,0,1,.0279-.138c.2006-.4129.4019-.8255.608-1.2357q.7693-1.5316,1.5425-3.0612.84-1.6688,1.6773-3.3388.7815-1.5609,1.5587-3.124c.3285-.6573.66-1.3129.9887-1.97.3605-.7218.7174-1.4455,1.0784-2.1671.324-.6476.6522-1.2932.9773-1.94q.5357-1.0659,1.07-2.1328c.2108-.4192.4244-.8369.6356-1.2559.0505-.1.1-.2015.1438-.3048.07-.1644.0344-.2159-.1521-.2242-.0816-.0037-.1636-.0018-.2453-.0019-.47,0-.9406.0007-1.4109-.0008C94.8922,11.6305,94.8023,11.6216,94.6521,11.6133Zm10.2521,1.527c-.06.0639-.1126.0983-.1338.1467q-.1961.4474-.38.9c-.3033.7446-.6393,1.4753-.9257,2.2276-.239.6279-.5227,1.2388-.7856,1.8577q-.4063.9564-.81,1.9139a.6544.6544,0,0,0-.0729.3328,1.2785,1.2785,0,0,0,.1788.0346c.7864.0385,2.8274.0133,3.0556-.0358a.3755.3755,0,0,0,.0548-.2634c-.0062-.5-.011-1-.0232-1.5-.022-.898-.0551-1.7957-.0719-2.6938-.0158-.8472-.0156-1.6947-.0253-2.542A.7014.7014,0,0,0,104.9042,13.14Z"/><path class="cls-1" d="M89.2156,23.3875c-.0963.2013-.1931.4025-.2889.6041-.245.5159-.4851,1.0341-.7352,1.5475-.4063.8339-.8217,1.6633-1.2279,2.4973-.21.4311-.405.8694-.6128,1.3015-.2782.5785-.5626,1.154-.8439,1.731-.2236.4587-.45.9162-.6684,1.3772a.5752.5752,0,0,1-.3155.31,6.6994,6.6994,0,0,1-1.2049.341c-.2692.0562-.5415.1007-.8143.136-.4955.0641-.9888.1418-1.4894.1714-.5614.0332-1.1217.0775-1.6845.0617-.2859-.008-.5715-.0247-.8572-.0387-.2042-.01-.4082-.0259-.6125-.0316a2.2492,2.2492,0,0,1-.5465-.0641,1.06,1.06,0,0,0-.2117-.033,12.6755,12.6755,0,0,1-1.9847-.3526,14.4767,14.4767,0,0,1-1.9485-.6251,10.5079,10.5079,0,0,1-3.1522-1.904,9.8992,9.8992,0,0,1-1.9874-2.3954,11.5579,11.5579,0,0,1-.8174-1.7412,14.5,14.5,0,0,1-.4824-1.5468c-.04-.1473-.065-.2987-.0916-.4492a12.1589,12.1589,0,0,1-.2132-1.483,3.477,3.477,0,0,0-.0434-.3653,4.1317,4.1317,0,0,1-.0037-1.2209c.06-.4349.0905-.8737.1422-1.31.0252-.2125.0655-.4235.1055-.634.0875-.4607.1578-.926.2742-1.3794.185-.72.3908-1.4354.6419-2.1374.1787-.5.3793-.9885.5954-1.4728a17.919,17.919,0,0,1,1.2066-2.1995,16.9274,16.9274,0,0,1,2.4256-2.9922,17.9005,17.9005,0,0,1,1.8575-1.5977c.26-.1968.5192-.3986.7952-.5719.5006-.3144,1.0076-.62,1.5232-.9088.4444-.2492.8952-.4914,1.36-.6993a13.2372,13.2372,0,0,1,1.906-.7459c.108-.0295.2151-.0636.32-.1021.5755-.2111,1.1729-.3464,1.762-.51.147-.0408.2986-.0663.449-.0933.4315-.0775.8638-.1525,1.2953-.2286.4249-.0749.853-.0908,1.2782-.1335a11.85,11.85,0,0,1,1.4707-.02,6.9935,6.9935,0,0,1,1.0976.0944,4.4453,4.4453,0,0,1,.9758.2524c.028.0122.0584.019.0868.03a.187.187,0,0,0,.2417-.0672c.1836-.2323.3727-.46.5586-.6909.0381-.0473.0715-.0983.0853-.1176a.5259.5259,0,0,1,.3308.0961q1.3691.7186,2.7408,1.4325c.8505.4421,1.7032.88,2.554,1.3214.18.0936.3572.1941.5343.2937a.7442.7442,0,0,1,.0934.0735.6339.6339,0,0,1-.1365.3422c-.2134.3836-.4335.7635-.6513,1.1446-.4355.7621-.8738,1.5227-1.3061,2.2867q-.8291,1.4652-1.6507,2.9346-.33.5865-.661,1.1724c-.0349.0617-.076.12-.11.1734-.1286.0431-.2049-.0415-.2846-.0966-.2515-.1737-.4994-.3526-.7455-.5339a8.6648,8.6648,0,0,0-1.2438-.7144,10.0317,10.0317,0,0,0-1.8291-.6906,8.3774,8.3774,0,0,0-1.1071-.2292,11.6483,11.6483,0,0,0-2.294-.0612,4.4927,4.4927,0,0,0-.9658.1477c-.3039.0856-.615.1466-.9174.2371a7.9466,7.9466,0,0,0-1.5412.6681,7.2446,7.2446,0,0,0-1.237.8405,9.2378,9.2378,0,0,0-1.0448,1.072,7.3063,7.3063,0,0,0-1.2134,2.08,10.0122,10.0122,0,0,0-.3409,1.1425c-.0795.3075-.1117.6215-.1606.9331a1.6935,1.6935,0,0,0,.0052.3659c.01.1629.0229.3261.0443.4879.0348.2628.0641.5274.12.7859a10.5265,10.5265,0,0,0,.2731,1.0656,5.4777,5.4777,0,0,0,.6224,1.2925,5.2989,5.2989,0,0,0,2.217,1.9213,6.5664,6.5664,0,0,0,1.3638.4447,9.0791,9.0791,0,0,0,2.2857.1642,7.2228,7.2228,0,0,0,1.2148-.1484c.21-.0425.4244-.0608.6325-.1089a15.9878,15.9878,0,0,0,1.5607-.434,15.418,15.418,0,0,0,2.2413-.9807c.2793-.1479.5451-.3214.8171-.4832.0428-.0255.0858-.0506.1287-.0759Z"/><path class="cls-1" d="M36.0376,18.4312q0,.5521,0,1.1042c0,.0511.0017.1024-.0021.1533q-.0716.9473-.1449,1.8945c-.0039.051-.0127.1017-.0139.1527-.01.4511-.1209.89-.1642,1.3361-.0454.4687-.1584.9246-.2278,1.3885-.0662.4426-.182.8784-.2895,1.3139-.1416.5738-.28,1.1491-.45,1.7149-.1813.6053-.3914,1.2022-.6,1.7991-.151.4332-.3074.8654-.4829,1.2891-.2183.5271-.4579,1.0454-.69,1.5666-.0664.1489-.1437.293-.209.4424a.3147.3147,0,0,1-.1664.1678c-.1936.0914-.3818.1939-.5745.2872a24.329,24.329,0,0,1-2.335.9944c-.4788.1729-.9544.3558-1.4388.5113-.5229.1679-1.0535.312-1.5822.4612-.3524.0995-.7067.1926-1.0617.2828-.138.0351-.28.0521-.42.0812-.4586.0954-.9158.1982-1.3757.2865-.23.0442-.4651.0606-.6971.0944-.1311.0191-.26.0495-.3911.0717-.08.0137-.1613.0231-.2423.0317-.1827.0193-.3652.0443-.5485.0536-.53.0269-1.0511.1459-1.586.1412-.4386-.0038-.8774.0466-1.3164.0564a19.0407,19.0407,0,0,1-1.9921-.0385c-.3154-.026-.6336-.0152-.95-.03-.1829-.0088-.365-.0355-.5473-.0556-.0507-.0056-.1005-.02-.1513-.0244q-.58-.0525-1.1594-.1026a1.149,1.149,0,0,1-.1825-.0187,8.058,8.058,0,0,0-1.0875-.1708c-.1812-.0207-.3584-.0756-.5381-.1118-.299-.06-.6-.1111-.8964-.1842-.3755-.0925-.756-.1645-1.1311-.2585-.3056-.0766-.6052-.1774-.91-.2589s-.6087-.167-.9071-.2712c-.2783-.0972-.5584-.1893-.8378-.2833-.27-.091-.5462-.168-.81-.2748-.6993-.283-1.3965-.5713-2.0883-.8722-.4019-.1748-.79-.3818-1.1878-.5658a.5278.5278,0,0,1-.2706-.2751Q2.8677,31.2,2.42,30.0607c-.2869-.7321-.5266-1.48-.7706-2.226-.2154-.6589-.4-1.3263-.569-1.9987C.9455,25.302.8109,24.7694.7139,24.227.64,23.8159.54,23.41.4628,22.9991c-.0449-.24-.0668-.4849-.0983-.7277-.0066-.0507-.0071-.1021-.0149-.1526-.05-.3225-.1027-.6445-.15-.9674-.0146-.1008-.01-.2041-.02-.3057-.0188-.193-.0408-.3857-.0631-.5783-.0094-.0811-.03-.1615-.0334-.2426q-.041-1.1029-.0769-2.206c-.0031-.0919.0007-.1841-.0015-.276-.0226-.9616.0321-1.9211.0783-2.8807.0054-.1118.0279-.2229.0434-.3341.0141-.1012.0336-.2018.0438-.3033.0334-.3351.057-.6713.097-1.0055.0328-.2732.0793-.545.1277-.8159.0734-.4114.1471-.8229.2331-1.2317.0755-.3587.1645-.7147.2541-1.07.0922-.3655.1862-.7307.2906-1.0928q.3008-1.0431.6854-2.0589A23.7924,23.7924,0,0,1,3.3669,3.5039a.6509.6509,0,0,1,.3012-.29c.6212-.2852,1.23-.5961,1.8756-.8287.5554-.2,1.1016-.4256,1.655-.6315.238-.0886.4837-.1568.7262-.2335.34-.1074.6774-.2218,1.02-.3191.3622-.1028.7285-.1916,1.0942-.2817q.5926-.1461,1.1877-.2821c.119-.0271.2424-.0342.3628-.0556.4811-.0854.9591-.1859,1.448-.2282.3451-.03.687-.0978,1.03-.1488.02-.003.04-.009.06-.0107.3561-.03.712-.0618,1.0683-.0892Q15.7927.0585,16.3892.02c.1529-.01.3063-.0171.46-.0176.6748-.002,1.35-.0033,2.0243,0,.1733.0009.3466.0193.52.0305.3468.0225.6943.0371,1.04.0707.4669.0455.9364.0637,1.4005.1421.3118.0527.6292.0726.9416.1224a4.9971,4.9971,0,0,1,.8743.1395,2.2619,2.2619,0,0,0,.3022.0459c.43.0843.8607.1619,1.2869.2605.476.11.9529.2222,1.4192.3666.6608.2046,1.3226.4062,1.9772.6323.7328.2531,1.4506.5429,2.1671.8349.5568.2269,1.09.5117,1.635.7676a.5861.5861,0,0,1,.307.3221c.2134.5073.446,1.0067.655,1.5157.1624.3957.3047.8.4485,1.2031.1644.4609.3285.9222.4783,1.388.1779.5529.3442,1.11.5081,1.667.1006.3421.1963.6862.2778,1.0332.1025.4365.1918.8762.28,1.3158q.1421.7045.2707,1.4117a5.96,5.96,0,0,1,.0759.607c.0284.3771.1176.7454.1374,1.1247.0325.6221.0931,1.2428.14,1.8642.0108.1426.0194.2857.02.4286C36.0395,17.6746,36.0376,18.0529,36.0376,18.4312ZM17.9125.9534V.9466c-.1431,0-.2864.0036-.4294-.0006-.7677-.0225-1.5317.0473-2.2968.09a1.3474,1.3474,0,0,0-.2731.0365,3.0709,3.0709,0,0,1-.5466.0628c-.3151.0266-.6312.0569-.942.1124a3.5426,3.5426,0,0,1-.5126.0756,1.2138,1.2138,0,0,0-.2116.0323,5.8364,5.8364,0,0,1-.6275.1334c-.4692.0463-.9176.19-1.3786.2721-.1093.02-.212.084-.3211.0954a7.56,7.56,0,0,0-1.006.2554c-.3353.0822-.6611.2026-.9915.3047-.3212.0992-.6475.1839-.9634.2977-.4123.1485-.82.3112-1.2236.4823-.6009.2547-1.1971.5205-1.7936.7854A.56.56,0,0,0,4.09,4.268c-.0242.0557-.0642.1043-.0941.1578A22.9667,22.9667,0,0,0,2.7112,7.1645a19.1322,19.1322,0,0,0-.7558,2.2934c-.099.3846-.18.7742-.2909,1.1553-.114.3929-.1849.7941-.2658,1.1935-.04.2-.05.4062-.0994.6033a14.7321,14.7321,0,0,0-.2473,1.6646A9.1892,9.1892,0,0,0,.9462,15.51c.0016.061-.0094.1222-.0131.1834-.0239.3875-.0529.7749-.07,1.1627-.0475,1.0746.06,2.1446.1067,3.2163.0132.3056.0566.61.0872.9148.0051.0508.0173.1007.024.1514q.0317.2424.0614.4851c.01.0811.0135.1631.0265.2437.0769.4731.1539.9463.2351,1.4187.0259.15.0665.2983.0972.448.08.3894.1486.7813.2392,1.1682.0929.3967.225.7848.3061,1.1836a13.5067,13.5067,0,0,0,.4121,1.4709c.1539.4746.3287.9423.4867,1.4155.1909.5716.43,1.1238.6629,1.6786.1575.3759.3392.7417.499,1.1166a.5658.5658,0,0,0,.2949.2925c.0915.0446.1918.0711.2835.1154.8363.4043,1.6847.7789,2.5533,1.11.801.3056,1.6073.5941,2.4327.8249.5682.1589,1.1433.2936,1.7161.436a3.1961,3.1961,0,0,1,.3887.0792,9.9293,9.9293,0,0,0,1.1632.2534c.3628.0937.7486.0855,1.1141.1871a.69.69,0,0,0,.1219.0124c.3252.0294.65.0575.9754.0893.0708.0069.14.0283.21.0408a2.7072,2.7072,0,0,0,.2722.0436c.3871.0286.7742.068,1.1618.0752.7972.0149,1.5948.017,2.3922.0146a15.9211,15.9211,0,0,0,2.4113-.1694c.26-.0406.5284-.0354.7912-.08.3411-.058.686-.0945,1.0267-.1544a2.6418,2.6418,0,0,0,.6879-.14,8.9561,8.9561,0,0,0,1.2567-.254c.3665-.0837.73-.18,1.0933-.28.3435-.095.6947-.1631,1.0324-.2815.6544-.2295,1.3131-.4474,1.9617-.6921.5055-.1907,1.0012-.4086,1.4961-.6261.3174-.14.6253-.3007.9379-.4514a.5453.5453,0,0,0,.2875-.3c.1191-.2928.2566-.5782.3892-.8654a25.8259,25.8259,0,0,0,1.1686-3.0234c.1908-.6019.3514-1.2135.5187-1.8226.1025-.3733.2018-.748.2848-1.126.09-.4079.1584-.82.2369-1.2307.0421-.22.0952-.439.1259-.6609.0419-.303.0664-.6084.1-.9125.0079-.0709.0265-.1406.0357-.2114.0225-.1719.0452-.3438.0624-.5163.0122-.1219.0139-.2448.0232-.367.0177-.2341.0391-.4679.0558-.702.013-.1834.0165-.3675.0324-.5506a16.8429,16.8429,0,0,0,.0415-2.2673q-.033-.689-.08-1.3772c-.0253-.377-.0589-.7534-.09-1.13-.0033-.0406-.013-.0807-.0189-.1212q-.0707-.4844-.1412-.9688-.0689-.4688-.1391-.9374c-.0243-.1612-.0438-.3236-.0773-.483q-.129-.6131-.2694-1.2238c-.0912-.3972-.1824-.7946-.2854-1.1888-.0927-.3549-.1995-.7062-.3038-1.058-.1073-.3616-.2074-.726-.3317-1.0818-.1949-.5579-.3972-1.1138-.6152-1.663-.2521-.6349-.5267-1.2609-.7872-1.8926a.6242.6242,0,0,0-.3244-.348c-.4251-.1983-.8433-.412-1.2729-.6-.5327-.2327-1.0715-.4522-1.6128-.6643q-.5835-.2286-1.1808-.4214c-.4063-.132-.8173-.25-1.23-.3627-.373-.1018-.7556-.1707-1.1244-.2848-.42-.13-.8513-.2015-1.2783-.2955-.1589-.035-.3294-.0279-.482-.0782a12.1094,12.1094,0,0,0-1.3834-.2484c-.5191-.1073-1.0543-.105-1.5805-.1792A13.5629,13.5629,0,0,0,19.2006.9564C18.7717.9419,18.3419.9534,17.9125.9534Z"/><path class="cls-1" d="M18.3,27.5162a3.4231,3.4231,0,0,1-.8152-.0173.4856.4856,0,0,1-.0532-.312c-.0021-.368,0-.7359.0005-1.1039.0029-1.1857-.0009-2.3714.0117-3.557.0073-.6862-.0649-1.3674-.1039-2.05a10.6637,10.6637,0,0,0-.1843-1.364,16.7134,16.7134,0,0,0-.3718-1.639,7.0546,7.0546,0,0,0-1.2864-2.5177c-.5444-.6634-1.12-1.2974-1.7182-1.9128a5.7159,5.7159,0,0,1-1.3773-2.04,5.9071,5.9071,0,0,1-.2585-1.0355,7.3513,7.3513,0,0,1-.0744-1.283,5.1989,5.1989,0,0,1,.4474-2.0481A4.9385,4.9385,0,0,1,13.693,4.9743,5.5089,5.5089,0,0,1,14.64,4.3a6.6654,6.6654,0,0,1,1.5781-.6541c.3937-.1132.8021-.1481,1.1943-.2609a5.4186,5.4186,0,0,1,1.5847.0573c.3156.0815.6364.1425.9465.2466a5.9036,5.9036,0,0,1,1.297.6133,4.97,4.97,0,0,1,1.4433,1.3513,4.7864,4.7864,0,0,1,.7494,1.664c.0275.1189.0686.2348.0935.3542a8.1194,8.1194,0,0,1,.0812,1.8932,3.9314,3.9314,0,0,1-.1656,1.024,5.5853,5.5853,0,0,1-.4471,1.0365,6.58,6.58,0,0,1-.9278,1.3636c-.2067.2252-.4208.4437-.632.6647-.3027.3169-.6126.6272-.9074.9513a8.7493,8.7493,0,0,0-1.3624,2.026,4.9444,4.9444,0,0,0-.2815.8088,12.307,12.307,0,0,0-.3332,1.3968c-.0562.3315-.1143.6634-.1516.9973-.0566.5071-.0983,1.0158-.1414,1.5243-.0181.2137-.0313.4283-.0339.6426-.0142,1.1652-.0282,2.3309.0425,3.4946.0341.5617.0517,1.1228.0493,1.6849C18.3151,27.28,18.3065,27.38,18.3,27.5162Z"/><path class="cls-1" d="M17.01,27.4973a1.5376,1.5376,0,0,1-.591.0089,1.275,1.275,0,0,1-.05-.1671c-.0651-.4027-.1072-.81-.1943-1.208a5.7046,5.7046,0,0,0-1.0217-2.3356A6.1935,6.1935,0,0,0,13.392,22.25a8.07,8.07,0,0,0-1.4036-.6693c-.3457-.122-.6982-.2258-1.05-.3282-.6458-.1876-1.2956-.3617-1.94-.5534a7.433,7.433,0,0,1-1.6385-.6678,2.98,2.98,0,0,1-.9224-.7953,2.59,2.59,0,0,1-.4906-1.1421.3975.3975,0,0,0-.0075-.0608,3.5711,3.5711,0,0,1-.092-1.1861A4.6856,4.6856,0,0,1,5.903,16.3c.035-.2524.0708-.5052.1195-.7552a4.5708,4.5708,0,0,1,.3253-1.1116,3.2963,3.2963,0,0,1,.7225-.942,4.7253,4.7253,0,0,1,1.229-.794A4.0359,4.0359,0,0,1,9.3735,12.35a4.7415,4.7415,0,0,1,1.1273-.0976A5.2973,5.2973,0,0,1,12.2,12.607a5.7264,5.7264,0,0,1,1.9848,1.3482,8.4918,8.4918,0,0,1,1.3716,1.9822,11.3461,11.3461,0,0,1,.6566,1.58c.1127.3268.1946.6646.2822,1,.09.3447.1768.6906.2525,1.0386.0476.2188.0751.4421.1067.6641.0516.3637.0991.7281.1486,1.0921.0055.04.0156.08.0187.121.0282.3666.0688.733.08,1.1.028.9193.0793,1.8384.0486,2.7589-.017.5108-.0272,1.0218-.0475,1.5324-.0073.1834-.0338.3662-.0547.5488A.7467.7467,0,0,1,17.01,27.4973Z"/><path class="cls-1" d="M19.4031,27.505a1.8917,1.8917,0,0,1-.6944.0063c-.0864-.1043-.0564-.2216-.0569-.33q-.0073-1.4874-.0078-2.9749c0-.5418.005-1.0836.0085-1.6254a7.5507,7.5507,0,0,1,.0532-1.0709,3.0335,3.0335,0,0,0,.02-.3979,3.0909,3.0909,0,0,1,.0695-.7,1.4781,1.4781,0,0,0,.0321-.2736,5.41,5.41,0,0,1,.1548-.9965c.0315-.1284.04-.2623.0646-.3925a7.6548,7.6548,0,0,1,.431-1.4008q.2733-.6807.6137-1.3338a10.2267,10.2267,0,0,1,.95-1.4612,6.0675,6.0675,0,0,1,1.3815-1.3356,5.4068,5.4068,0,0,1,1.6167-.783,4.5939,4.5939,0,0,1,1.5137-.1779,4.6472,4.6472,0,0,1,2.1717.6679,4.2888,4.2888,0,0,1,1.3018,1.1878,3.4439,3.4439,0,0,1,.5833,1.2665,8.0431,8.0431,0,0,1,.2029,2.28A2.8927,2.8927,0,0,1,29.3494,19.1a3.049,3.049,0,0,1-.988.9029,7.75,7.75,0,0,1-1.8623.765c-.303.0878-.6052.1782-.9076.2677-.3128.0926-.6261.1839-.9382.2786a11.8662,11.8662,0,0,0-1.2485.4039,8.4166,8.4166,0,0,0-1.7183.9255,3.8462,3.8462,0,0,0-.3675.323,5.8166,5.8166,0,0,0-1.4073,1.9838,7.3725,7.3725,0,0,0-.32,1.02,11.8713,11.8713,0,0,0-.1508,1.2754C19.43,27.325,19.4179,27.4041,19.4031,27.505Z"/><path class="cls-1" d="M6.24,19.8518c.09.1223.1611.2333.2459.3329a2.0626,2.0626,0,0,0,.5778.449,6.2086,6.2086,0,0,0,1.005.4486q.4041.14.8129.2653c.1754.0538.3548.094.5322.1413.4619.1232.9249.2427,1.3852.3716.48.1344.9633.26,1.4339.422A5.4855,5.4855,0,0,1,15.4521,25.07a4.3139,4.3139,0,0,1,.4769,2.3086.9165.9165,0,0,1-.0223.1049,1.8669,1.8669,0,0,1-.7315.0266c-.0682-.16-.1383-.3168-.2025-.476a2.5584,2.5584,0,0,0-.6178-.9387,1.89,1.89,0,0,0-.9374-.4836,4.355,4.355,0,0,0-1.5227-.0125c-.232.0352-.4668.0522-.6993.0846-.1611.0224-.32.057-.4806.0864-.03.0055-.06.015-.09.0177-.4779.0417-.9552.0948-1.4339.12a4.0129,4.0129,0,0,1-1.2457-.1246,2.9406,2.9406,0,0,1-1.57-1.0082A4.3407,4.3407,0,0,1,5.68,23.5582a3.9071,3.9071,0,0,1-.2252-1.4426A4.0211,4.0211,0,0,1,6.17,19.9078.4027.4027,0,0,1,6.24,19.8518Z"/><path class="cls-1" d="M29.4073,19.8254a.8666.8666,0,0,1,.1052.13,6.7117,6.7117,0,0,1,.6357,1.6182,4.1738,4.1738,0,0,1,.13.9081,3.4824,3.4824,0,0,1-.6,1.9605,3.5352,3.5352,0,0,1-1.4852,1.1922c-.3071.1446-.64.2041-.9544.324a.1936.1936,0,0,1-.0595.0132c-.3671.0158-.7342.0334-1.1015.0443-.1016.003-.204-.024-.3055-.0208a6.3106,6.3106,0,0,1-1.12-.1508c-.1109-.0164-.2219-.0323-.333-.0471a1.4221,1.4221,0,0,1-.1821-.0212,4.8345,4.8345,0,0,0-1.3348-.1482,2.121,2.121,0,0,0-1.83.9914,6.5628,6.5628,0,0,0-.4054.718.2924.2924,0,0,1-.309.1917c-.1511-.0093-.3027-.0087-.4388-.012-.0249-.0391-.0453-.0561-.0444-.0719a5.6038,5.6038,0,0,1,1.1328-3.1751,5.6791,5.6791,0,0,1,1.7473-1.4651A9.15,9.15,0,0,1,24.5,22c.3887-.12.7713-.2584,1.1665-.3592.5327-.1359,1.0642-.278,1.5916-.4332a6.4189,6.4189,0,0,0,1.257-.476,3.0883,3.0883,0,0,0,.4128-.2617,1.1667,1.1667,0,0,0,.4061-.5268A.7532.7532,0,0,1,29.4073,19.8254Z"/><path class="cls-1" d="M11.6719,31.61c-.1441.35-.1831.74-.3231,1.1118a2.7564,2.7564,0,0,1-.6651-.1214.8451.8451,0,0,1,.0194-.43c.1135-.5276.2344-1.0537.3533-1.58.0628-.2782.1255-.5564.192-.8337a.1259.1259,0,0,1,.1375-.0993,3.5282,3.5282,0,0,1,1.1588.2562A.8956.8956,0,0,1,12.88,31.36a.3152.3152,0,0,0-.09.3255.9918.9918,0,0,1,.0109.3645c-.0365.283-.0881.564-.1353.8456a.1263.1263,0,0,1-.1756.1147c-.1387-.0328-.2769-.0684-.4144-.1058a.133.133,0,0,1-.0933-.169c.0386-.1479.0918-.2923.1247-.4413a2.58,2.58,0,0,0,.0446-.3626.3162.3162,0,0,0-.1542-.2822C11.9,31.5776,11.8708,31.5739,11.6719,31.61Zm.2932-1.1682c-.0434.1073-.0789.1809-.1033.2581-.05.1577.0194.2532.19.2687a.6058.6058,0,0,0,.0916.0017.2626.2626,0,0,0,.2529-.2553.2425.2425,0,0,0-.2059-.2587A1.8566,1.8566,0,0,0,11.9651,30.4416Z"/><path class="cls-1" d="M9.7029,30.3149c.0064-.0843.0122-.1628.0184-.2414.0107-.1365-.0195-.1906-.1351-.2415a.28.28,0,0,0-.4164.1215,2.9323,2.9323,0,0,0-.3589.9713,1.7073,1.7073,0,0,0-.0374.3344c.0027.2049.0959.3266.3232.3157a.3181.3181,0,0,0,.2957-.3575.19.19,0,0,0-.08-.118,2.2443,2.2443,0,0,0-.2492-.12c.0382-.13.0676-.2479.1081-.362.0378-.1064.1182-.1563.2162-.1129a5.97,5.97,0,0,1,.823.308,8.3509,8.3509,0,0,1-.4482,1.5392.5382.5382,0,0,1-.4672-.1409.3085.3085,0,0,0-.2207-.0844c-.0919,0-.1841-.0013-.2758-.0074a.8078.8078,0,0,1-.2119-.0292c-.4741-.1667-.6179-.3508-.5938-.837a4.0442,4.0442,0,0,1,.5823-1.8512.72.72,0,0,1,.6266-.3784,1.3709,1.3709,0,0,1,.9413.3029.51.51,0,0,1,.2146.48c-.0229.1817-.0562.3623-.0925.5419a.1227.1227,0,0,1-.1672.09C9.9715,30.4017,9.8466,30.36,9.7029,30.3149Z"/><path class="cls-1" d="M20.3511,30.3388a2.9111,2.9111,0,0,1,1.2809-.115.7589.7589,0,0,1,.6086.6775.809.809,0,0,1-.0818.5339.2729.2729,0,0,0-.021.0871c.0249.108.1135.1682.1749.2477a.9564.9564,0,0,1,.1415.9525.5552.5552,0,0,1-.4273.3934c-.3775.08-.7543.1633-1.1038.2392a.2287.2287,0,0,1-.1707-.227c-.0344-.3552-.107-.7035-.1716-1.054-.1013-.55-.1708-1.1054-.2523-1.6588C20.3258,30.3973,20.3393,30.3769,20.3511,30.3388Zm1.0074,1.7877a1.2077,1.2077,0,0,0,.0746.4895.1143.1143,0,0,0,.1552.0526.3541.3541,0,0,0,.0962-.5039.1722.1722,0,0,0-.1038-.0562A1.5458,1.5458,0,0,0,21.3585,32.1265Zm-.2492-1.2314c.014.107.0243.2172.0438.3257a.1168.1168,0,0,0,.1859.075.538.538,0,0,0,.13-.1236.2608.2608,0,0,0-.1695-.4189A.1487.1487,0,0,0,21.1093,30.8951Z"/><path class="cls-1" d="M15.2966,30.2544a1.397,1.397,0,0,1,.5618.022c.0164.0438.031.0633.0294.0815q-.0456.5332-.0946,1.0661c-.0129.1422-.0269.2843-.04.4265q-.0339.3654-.0673.7309a.9422.9422,0,0,1-.949.8186,1.1292,1.1292,0,0,1-1.0636-.7264.6687.6687,0,0,1-.0279-.3c.0243-.1715.0349-.3448.0542-.517.0644-.5759.13-1.1517.1966-1.7406a2.1824,2.1824,0,0,1,.5536.0331.141.141,0,0,1,.1251.1522c-.0072.1626-.0152.3259-.0378.4868a13.2632,13.2632,0,0,0-.1531,1.3677,1.3181,1.3181,0,0,0,.0041.1835.3085.3085,0,0,0,.2569.2984.3229.3229,0,0,0,.3277-.2247,1.6449,1.6449,0,0,0,.08-.3266c.042-.3338.07-.6695.1131-1.0031C15.2006,30.8126,15.25,30.5435,15.2966,30.2544Z"/><path class="cls-1" d="M27.7922,31.7249a1.3347,1.3347,0,0,1-.4685.3263c-.2355-.16-.3117-.4522-.54-.6365a1.4225,1.4225,0,0,0-.1927.0442c-.2018.0741-.2319.1209-.23.34.0012.1123.0077.2246.0114.337a.1787.1787,0,0,1-.1242.19c-.1422.05-.287.0922-.4317.1381-.0249-.0406-.0494-.0639-.0538-.09-.0612-.3668-.1848-2.742-.1555-3.0151.0945-.0318.1977-.07.3031-.1009.1074-.0312.217-.0547.3413-.0855a.7833.7833,0,0,1,.1158.1255q.5919,1,1.1787,2.0037C27.6288,31.441,27.7091,31.5813,27.7922,31.7249ZM26.3241,30.54a.3306.3306,0,0,0-.0314.3643.0952.0952,0,0,0,.1323.0315.1267.1267,0,0,0,.0671-.1754A2.25,2.25,0,0,0,26.3241,30.54Z"/><path class="cls-1" d="M24.7848,30.621c-.1617.0276-.3019.0528-.4425.0749a.1577.1577,0,0,1-.1979-.101c-.0224-.0454-.0308-.098-.0551-.142a.2578.2578,0,0,0-.2437-.1531.2989.2989,0,0,0-.24.2472,3.7272,3.7272,0,0,0,.0365.5772c.0383.2612.0952.52.15.7784a1.0562,1.0562,0,0,0,.084.2585.2611.2611,0,0,0,.3238.1616.3039.3039,0,0,0,.2214-.2633,1.7641,1.7641,0,0,0-.0044-.2133c-.0017-.1634.0459-.223.21-.2377a1.6621,1.6621,0,0,1,.41.001,1.4138,1.4138,0,0,1-.0143.753.6694.6694,0,0,1-.373.4215,1.2789,1.2789,0,0,1-.9218.08.63.63,0,0,1-.3907-.3189,1.4637,1.4637,0,0,1-.122-.3124,6.4125,6.4125,0,0,1-.201-1.0791c-.0084-.1015-.0213-.203-.0383-.3034a1.405,1.405,0,0,1,.0609-.6344.5534.5534,0,0,1,.3851-.4047,1.6435,1.6435,0,0,1,.8759-.0347.5887.5887,0,0,1,.4308.393C24.7755,30.3125,24.8591,30.4485,24.7848,30.621Z"/><path class="cls-1" d="M17.0762,33.4633H16.6a.9831.9831,0,0,1-.0451-.2055c0-.2041.0084-.4082.0181-.6122q.0289-.6116.0632-1.223c.0176-.3055.04-.6107.0628-.9159a1.0056,1.0056,0,0,1,.0362-.1524.9057.9057,0,0,1,.4853-.0166c.1713.0272.3419.0579.5127.0879a1.1076,1.1076,0,0,1,.475.1987.6594.6594,0,0,1,.3045.5377c.0009.1224.0047.2453-.0045.367a.7.7,0,0,1-.56.675,2.9781,2.9781,0,0,1-.3921.0552c-.0605.0067-.1227-.0024-.1835.0026a.1461.1461,0,0,0-.158.1508c-.0329.2735-.0628.5473-.096.8207C17.11,33.3023,17.0934,33.37,17.0762,33.4633Zm.2671-1.8688a1.7379,1.7379,0,0,0,.2864.0033.2364.2364,0,0,0,.1477-.09.3036.3036,0,0,0-.2708-.472.1682.1682,0,0,0-.1182.0774A.5959.5959,0,0,0,17.3433,31.5946Z"/></g></g></svg>