<svg xmlns="http://www.w3.org/2000/svg" xmlns:xlink="http://www.w3.org/1999/xlink" viewBox="0 0 1280 937"><defs><style>.cls-1{isolation:isolate;}.cls-2{fill:url(#linear-gradient);}.cls-3{opacity:0.1;mix-blend-mode:overlay;}.cls-4{fill:#bcbcbc;}</style><linearGradient id="linear-gradient" x1="2950.96" y1="272.64" x2="2948.78" y2="-217.83" gradientTransform="translate(3590.97 744.79) rotate(180)" gradientUnits="userSpaceOnUse"><stop offset="0" stop-color="#794d8e"/><stop offset="1" stop-color="#444a77"/></linearGradient></defs><title>contact_bg</title><g class="cls-1"><g id="Layer_2" data-name="Layer 2"><g id="CONTACT_US" data-name="CONTACT US"><rect id="BACKGROUND" class="cls-2" width="1280" height="937"/><g class="cls-3"><polygon class="cls-4" points="0 0.17 229.38 540.52 321.02 540.52 100.74 0.17 0 0.17"/><polygon class="cls-4" points="519.88 0.17 749.27 540.52 840.9 540.52 620.62 0.17 519.88 0.17"/><polygon class="cls-4" points="853.4 0.17 1082.79 540.52 1174.41 540.52 954.14 0.17 853.4 0.17"/><polygon class="cls-4" points="433.29 0.17 662.68 540.52 687.1 540.52 452.86 0.17 433.29 0.17"/><polygon class="cls-4" points="721.45 0.17 950.85 540.52 975.27 540.52 741.03 0.17 721.45 0.17"/><polygon class="cls-4" points="129.88 0.17 359.27 540.52 400.52 540.52 180.25 0.17 129.88 0.17"/><polygon class="cls-4" points="1006.09 0.17 1235.49 540.52 1276.74 540.52 1056.46 0.17 1006.09 0.17"/><polygon class="cls-4" points="353.37 0.17 582.75 540.52 624.02 540.52 403.74 0.17 353.37 0.17"/></g></g></g></g></svg>
