<svg xmlns="http://www.w3.org/2000/svg" viewBox="0 0 242.5722 43.2715"><defs><style>.cls-1{fill:#e31c24;}.cls-2{fill:#333;}</style></defs><title>Asset 2</title><g id="Layer_2" data-name="Layer 2"><g id="CLIENT"><path class="cls-1" d="M108.4062,1.3789A5.3071,5.3071,0,0,1,111.9394,0h3.4346a.7709.7709,0,0,1,.87.8721.7708.7708,0,0,1-.87.872H112.52a3.5981,3.5981,0,0,0-2.4219,1.1612,3.5291,3.5291,0,0,0-.9668,2.4912v.3642h2.8291a.7678.7678,0,0,1,.87.8711.7673.7673,0,0,1-.87.8692h-2.8291V21.9482a.76.76,0,0,1-.8476.87h-.8457a.7711.7711,0,0,1-.8741-.87V7.501h-2.8066a.768.768,0,0,1-.87-.8692.7686.7686,0,0,1,.87-.8711h2.8066v-.8a1.8274,1.8274,0,0,1,.0508-.29A5.41,5.41,0,0,1,108.4062,1.3789Z"/><path class="cls-1" d="M127.5595,10.5508v6.2929a6.3321,6.3321,0,0,1-6.0009,6.2422h-1.9844a5.2221,5.2221,0,0,1-3.7275-1.501,5.1162,5.1162,0,0,1-1.6182-3.6777.4611.4611,0,0,1-.0244-.1943V11.7607a5.88,5.88,0,0,1,1.7666-4.33,6.1219,6.1219,0,0,1,4.2822-1.9375h2.1289a.1743.1743,0,0,0,.0733.0235h.1884c.0528,0,.0869.0088.1.0244h.1231a.0747.0747,0,0,1,.0478.0254h.1436a.0958.0958,0,0,0,.0742.0234h.05a.0858.0858,0,0,0,.0713.0254l.0254.0235h.0928a.0517.0517,0,0,1,.0381.0117.0614.0614,0,0,0,.04.0136.1774.1774,0,0,0,.0713.0235h.0488a.0941.0941,0,0,0,.0713.0254c.0342,0,.0469.0058.0469.0244a.0921.0921,0,0,1,.0732.0234h.05a.0962.0962,0,0,0,.0723.0235l.0234.0234h.0274a.107.107,0,0,1,.0713.0244.0925.0925,0,0,1,.0693.0244.0749.0749,0,0,0,.0508.0235.0975.0975,0,0,0,.0713.0254.0759.0759,0,0,0,.0488.0234l.0478.0234a.0942.0942,0,0,1,.05.0244.042.042,0,0,1,.0342.0157.0779.0779,0,0,0,.0391.01.07.07,0,0,0,.0488.0264.0919.0919,0,0,0,.0694.0205c0,.0186.0175.0254.05.0254l.0244.0244a.0576.0576,0,0,1,.0459.0254.0864.0864,0,0,0,.05.0225.15.15,0,0,0,.0732.0244l.0215.0244c0,.0322.0273.0508.0762.0508v.0215h.0234l.0235.0244a.0784.0784,0,0,1,.0517.0254,1.9414,1.9414,0,0,1,.4072.2656.4274.4274,0,0,0,.0948.0732.3952.3952,0,0,1,.1015.0713V6.751h.0215c0,.0351.0234.05.0742.05l.0254.0244.0733.07v.0273h.0205c0,.0313.0185.0459.0507.0459l.0235.0235.0732.0742h.0225a.0661.0661,0,0,0,.0742.0742l.0244.0234c0,.0157.0176.0391.044.07l.0283.0253.0732.0743v.0234h.0215c0,.0479.0156.0732.0527.0732l.0206.0235a.0589.0589,0,0,1,.0234.0469l.0264.0244h.0224a.1873.1873,0,0,1,.0371.0488.2257.2257,0,0,0,.0352.0488v.0235c.0156,0,.042.0254.0732.0722v.0244c.0342.0489.0655.1016.0977.1573a.3374.3374,0,0,0,.123.1328,5.7064,5.7064,0,0,1,.7237,1.8642v.0245a.1354.1354,0,0,1,.0244.0966.2944.2944,0,0,0,.0224.1446v.122c.02.0166.0264.0635.0264.1446v.1211Zm-6.2656-3.3164H121.1a4.6958,4.6958,0,0,0-3.0957,1.4043,4.2334,4.2334,0,0,0-1.2608,3.122V17.666h.0284v.0234a3.5762,3.5762,0,0,0,.9882,2.5166,3.6775,3.6775,0,0,0,2.4668,1.1377h.4854a4.3563,4.3563,0,0,0,2.999-1.3789,4.41,4.41,0,0,0,1.2852-3.1211V10.915a3.5519,3.5519,0,0,0-1.0176-2.54,3.6643,3.6643,0,0,0-2.4678-1.1406Z"/><path class="cls-1" d="M136.9658,23.0859h-1.9834a5.2122,5.2122,0,0,1-3.7266-1.501,5.1184,5.1184,0,0,1-1.62-3.6777.4543.4543,0,0,1-.0263-.1943V6.6562a.7619.7619,0,0,1,.85-.872h.8457a.76.76,0,0,1,.8476.872v11.01h.0215v.0234a3.5761,3.5761,0,0,0,.9932,2.5166,3.68,3.68,0,0,0,2.47,1.1377h.4853a4.3537,4.3537,0,0,0,2.9971-1.3789,4.4041,4.4041,0,0,0,1.2832-3.1211V6.6318a.7591.7591,0,0,1,.8711-.8476h.8184a.76.76,0,0,1,.875.8476V21.9482a.77.77,0,0,1-.875.87h-.8184a.7686.7686,0,0,1-.8711-.87V21.876A6.1755,6.1755,0,0,1,136.9658,23.0859Z"/><path class="cls-1" d="M158.374,10.5508V21.9482a.7687.7687,0,0,1-.87.87h-.8213a.771.771,0,0,1-.874-.87V10.915a3.5567,3.5567,0,0,0-1.0137-2.54,3.6842,3.6842,0,0,0-2.4688-1.1406h-.414A4.4539,4.4539,0,0,0,148.84,8.6387a4.3589,4.3589,0,0,0-1.2851,3.0742V21.9482a.7576.7576,0,0,1-.8448.87h-.8466a.758.758,0,0,1-.8448-.87V6.6562a.7586.7586,0,0,1,.8448-.872h.8466a.7582.7582,0,0,1,.8448.872v.0713a6.086,6.086,0,0,1,3.51-1.2344h2.1319a.1777.1777,0,0,0,.0732.0235h.19a.1423.1423,0,0,1,.0977.0244h.1211a.0748.0748,0,0,1,.05.0254h.1435a.1022.1022,0,0,0,.0762.0234h.0459a.0975.0975,0,0,0,.0752.0254l.02.0235h.1a.0522.0522,0,0,1,.0332.0117.0554.0554,0,0,0,.041.0136.166.166,0,0,0,.07.0235h.0478a.1006.1006,0,0,0,.0733.0254c.0283,0,.0468.0058.0468.0244a.1022.1022,0,0,1,.0762.0234h.042a.115.115,0,0,0,.0781.0235l.0215.0234h.0225a.0889.0889,0,0,1,.0722.0244.1139.1139,0,0,1,.0782.0244.05.05,0,0,0,.0459.0235.0969.0969,0,0,0,.0722.0254.072.072,0,0,0,.0469.0234l.0469.0234a.0853.0853,0,0,1,.0527.0244.0509.0509,0,0,1,.0371.0157.0532.0532,0,0,0,.0342.01.074.074,0,0,0,.0488.0264.1052.1052,0,0,0,.0713.0205c0,.0186.0186.0254.0508.0254l.0254.0244a.0532.0532,0,0,1,.0439.0254.0821.0821,0,0,0,.0518.0225.1506.1506,0,0,0,.0722.0244l.0225.0244c0,.0322.0244.0508.0713.0508v.0215h.0234l.0293.0244a.07.07,0,0,1,.044.0254,1.9575,1.9575,0,0,1,.415.2656.3234.3234,0,0,0,.0938.0732.4143.4143,0,0,1,.0976.0713V6.751h.0235c0,.0351.0263.05.0732.05l.0225.0244.0742.07v.0273h.0264c0,.0313.0136.0459.0449.0459l.0283.0235.0693.0742h.0283c0,.0469.0206.0742.0684.0742l.0234.0234c0,.0157.0176.0391.0489.07l.0263.0253.0713.0743v.0234h.0264c0,.0479.0156.0732.0439.0732l.0264.0235a.0705.0705,0,0,1,.0264.0469l.02.0244h.0264a.48.48,0,0,1,.0371.0488.161.161,0,0,0,.0361.0488v.0235c.0137,0,.04.0254.0713.0722v.0244A1.3381,1.3381,0,0,1,157.43,7.9a.3879.3879,0,0,0,.124.1328,5.6381,5.6381,0,0,1,.7226,1.8642v.0245c.0186.0146.0245.0488.0245.0966a.2786.2786,0,0,0,.0234.1446v.122a.2455.2455,0,0,1,.0273.1446v.1211Z"/><path class="cls-1" d="M171.2187.8721A.758.758,0,0,1,172.0654,0h.8428a.77.77,0,0,1,.87.8721V21.9482a.7683.7683,0,0,1-.87.87h-.8428a.7566.7566,0,0,1-.8467-.87V21.876a6.1841,6.1841,0,0,1-3.4385,1.21h-1.9833a5.207,5.207,0,0,1-3.7266-1.501,5.1247,5.1247,0,0,1-1.6231-3.6777.5737.5737,0,0,1-.0263-.1943V11.7607a5.8975,5.8975,0,0,1,1.7695-4.33,6.1369,6.1369,0,0,1,4.2832-1.9375h2.08a.1725.1725,0,0,1,.0625.0137.1519.1519,0,0,0,.06.01h.166c.0683,0,.1074.0088.122.0244h.1485c-.0313-.0156-.0342-.0205-.0127-.0107.0244.0068.0654.0214.1328.0361a.1879.1879,0,0,1,.0635.0127.148.148,0,0,0,.0576.0107h.0234c.0655,0,.1045.0088.12.0254a.2154.2154,0,0,0,.1221.0235l.0274.0253a.1366.1366,0,0,1,.0957.0235h.0214a.1169.1169,0,0,1,.0489.0117.1613.1613,0,0,0,.0732.0137h.0215a.1585.1585,0,0,0,.0957.0478h.0264a.1531.1531,0,0,0,.0986.0235c0,.0156.0068.0234.02.0234a.058.058,0,0,1,.04.0127.0914.0914,0,0,0,.0585.0117.0245.0245,0,0,0,.0274.0244.1166.1166,0,0,1,.0478.0127.1083.1083,0,0,0,.0459.0108l.0254.0254a.14.14,0,0,1,.05.0117.1022.1022,0,0,0,.0479.0117v.0234h.02c0,.0176.0293.0244.0791.0244l.0469.0254a.0439.0439,0,0,1,.0312.01.0506.0506,0,0,0,.0381.0166.0826.0826,0,0,0,.0488.0205c.0313.0332.0547.05.0733.05l.05.0254a.09.09,0,0,1,.0683.0225L171,6.1953a.0242.0242,0,0,1,.0254.0234h.0244a.1307.1307,0,0,1,.0469.0274c.0312.0312.0527.0459.0732.0459a.0689.0689,0,0,0,.0488.0254Zm-8.2539,10.9121V17.666h.0254v.0234a3.5846,3.5846,0,0,0,.9883,2.5166,3.6961,3.6961,0,0,0,2.47,1.1377h.4854a4.56,4.56,0,0,0,4.2851-4.4785V10.67a.122.122,0,0,0-.0117-.0469.0689.0689,0,0,1-.0156-.05v-.0957a.1024.1024,0,0,0-.0215-.0713v-.0986a.0736.0736,0,0,0-.0156-.0479.1543.1543,0,0,1-.0108-.0478.1751.1751,0,0,0-.01-.0488.0835.0835,0,0,1-.0137-.0479V10.041l-.0234-.0225V9.9453a.0894.0894,0,0,1-.0264-.0713h-.02a.1507.1507,0,0,0-.0244-.0967V9.68L171,9.6553a.0816.0816,0,0,0-.0264-.0489.1019.1019,0,0,1-.0264-.0713V9.51a.1077.1077,0,0,0-.0214-.0732c-.0352,0-.0469-.0225-.0469-.0723-.0332-.03-.05-.0537-.05-.0712a.1.1,0,0,0-.0137-.0489.1155.1155,0,0,1-.01-.0488l-.0244-.0225a.0938.0938,0,0,0-.0254-.0517.1548.1548,0,0,1-.0488-.0694.1449.1449,0,0,1-.0459-.0732l-.0234-.0254c0-.0146-.0186-.0391-.0469-.0713,0-.0156-.0225-.04-.05-.0742a.0671.0671,0,0,0-.0293-.0469c0-.0166-.0117-.04-.0449-.0732l-.0235-.0254a.0664.0664,0,0,0-.0263-.0459c-.03-.0342-.0489-.0586-.0489-.0742h-.0234c-.0166-.0313-.0322-.0469-.0478-.0469V8.4687l-.05-.0468h-.0205l-.0488-.0469V8.3476l-.05-.0468c-.0137,0-.0225-.0078-.0225-.0245l-.05-.0488h-.0263l-.0264-.0244V8.1806h-.02V8.1572l-.0479-.0508h-.0273l-.0449-.0488-.0244-.0244a.068.068,0,0,0-.0508-.0225V7.9863a.1081.1081,0,0,1-.0713-.0234h-.0215V7.9355a.0938.0938,0,0,0-.0478-.0234l-.0274-.0234a.0642.0642,0,0,0-.0478-.0215.024.024,0,0,0-.0244-.0274l-.0235-.0234-.0264-.0244a.0508.0508,0,0,1-.0439-.0235.0663.0663,0,0,1-.0527-.0254.0766.0766,0,0,0-.0469-.0244l-.0225-.0234a.074.074,0,0,1-.0488-.0234c-.02,0-.0264-.0088-.0264-.0254h-.0234l-.0215-.0235H169.16a.0775.0775,0,0,0-.0478-.0234.0234.0234,0,0,0-.0264-.0254.068.068,0,0,0-.05-.0244h-.0215V7.5254a.0769.0769,0,0,1-.0508-.0244h-.0224a.0643.0643,0,0,1-.0479-.0235h-.0722c-.0186,0-.0225-.0078-.0225-.0234h-.0264a.048.048,0,0,1-.0351-.0127.05.05,0,0,0-.0342-.0108h-.0273a.067.067,0,0,1-.0469-.0253.0717.0717,0,0,1-.0488-.0235h-.0469c-.0186,0-.0264-.0088-.0264-.0244h-.05a.0711.0711,0,0,1-.0478-.0234h-.0733a.0737.0737,0,0,0-.0449-.0254h-.0518a.0585.0585,0,0,1-.0449-.0254h-.1a.0608.0608,0,0,1-.0478-.0235h-.1192c-.0361,0-.0517-.0078-.0517-.0253h-.5547a4.71,4.71,0,0,0-3.0987,1.4043,4.246,4.246,0,0,0-1.2578,3.122Z"/><path class="cls-1" d="M182.4443,23.0859H180.872a5.3731,5.3731,0,0,1-5.3974-5.3965,5.1585,5.1585,0,0,1,1.55-3.7988,5.353,5.353,0,0,1,3.7988-1.6211h5.4424V10.915a3.1238,3.1238,0,0,0-1.1143-2.42A3.736,3.736,0,0,0,182.59,7.55a.4161.4161,0,0,1-.1-.0117c-.0312-.0059-.0791-.0205-.1416-.0371h-4.2812a.7693.7693,0,0,1-.8731-.8692.7609.7609,0,0,1,.8731-.8476h5.3691a.6666.6666,0,0,1,.1074.0107c.0391.0107.0928.0215.1572.0371a5.6184,5.6184,0,0,1,3.3663,1.2813,4.5414,4.5414,0,0,1,1.6914,3.0263,1.0019,1.0019,0,0,1,.0732.3135V21.9482a.7686.7686,0,0,1-.8711.87h-.8223a.77.77,0,0,1-.873-.87V21.876a6.0752,6.0752,0,0,1-3.6982,1.21h-.1231Zm2.542-3.1211a4.3971,4.3971,0,0,0,1.2793-3.1211V14.0342h-5.0312a3.6743,3.6743,0,0,0-2.2969,1.2119,3.7016,3.7016,0,0,0,.0683,4.96,3.686,3.686,0,0,0,2.4688,1.1377h.51A4.3669,4.3669,0,0,0,184.9863,19.9648Z"/><path class="cls-1" d="M199.292,22.8183h-.0469a.2137.2137,0,0,1-.0762-.0224,5.5359,5.5359,0,0,1-3.6513-1.4053,4.81,4.81,0,0,1-1.6211-3.4834.5211.5211,0,0,1-.0235-.1943V7.501h-2.8359a.7577.7577,0,0,1-.8682-.8448.77.77,0,0,1,.8682-.872h2.8359v-3.17a.7687.7687,0,0,1,.87-.87h.85a.7582.7582,0,0,1,.8428.87v3.17h4.5a.758.758,0,0,1,.8457.872.7456.7456,0,0,1-.8457.8448h-4.5V17.666h.0235v.0234a3.1632,3.1632,0,0,0,.9931,2.3936,3.9524,3.9524,0,0,0,2.4414.9932h2.8311a.8711.8711,0,1,1,0,1.7421Z"/><path class="cls-1" d="M210.1816,5.7842a.7581.7581,0,0,1,.8447.872v15.292a.7575.7575,0,0,1-.8447.87h-.8486a.7669.7669,0,0,1-.8692-.87V7.5254h-2.8066a.7694.7694,0,0,1-.8721-.8692.77.77,0,0,1,.8721-.872h4.5244ZM209.8418,0a1.0588,1.0588,0,0,1,1.1845,1.2119,1.0453,1.0453,0,0,1-1.1845,1.1826h-.85a1.0475,1.0475,0,0,1-1.1866-1.1826A1.0611,1.0611,0,0,1,208.9922,0Z"/><path class="cls-1" d="M226.8056,10.5508v6.2929a6.3324,6.3324,0,0,1-5.998,6.2422h-1.9844a5.2189,5.2189,0,0,1-3.7275-1.501,5.1289,5.1289,0,0,1-1.6192-3.6777.5161.5161,0,0,1-.0283-.1943V11.7607a5.8958,5.8958,0,0,1,1.7676-4.33,6.1409,6.1409,0,0,1,4.2881-1.9375h2.1269a.1734.1734,0,0,0,.07.0235h.1973a.1337.1337,0,0,1,.0938.0244h.125c.0146,0,.0273.0107.0429.0254h.1475a.0913.0913,0,0,0,.0723.0234h.0478a.0957.0957,0,0,0,.0733.0254l.0263.0235h.0947a.0569.0569,0,0,1,.0362.0117.0573.0573,0,0,0,.0371.0136.2008.2008,0,0,0,.0723.0235h.0478a.11.11,0,0,0,.0713.0254c.0342,0,.0508.0058.0508.0244a.0938.0938,0,0,1,.0722.0234h.0508a.0912.0912,0,0,0,.07.0235l.0254.0234h.0215a.0989.0989,0,0,1,.0733.0244.0966.0966,0,0,1,.0722.0244.0709.0709,0,0,0,.0479.0235.0963.0963,0,0,0,.0732.0254.0865.0865,0,0,0,.0479.0234l.0527.0234a.0808.0808,0,0,1,.0439.0244.0514.0514,0,0,1,.04.0157.0617.0617,0,0,0,.0361.01.0776.0776,0,0,0,.0459.0264.1169.1169,0,0,0,.0752.0205c0,.0186.0156.0254.0469.0254l.0244.0244a.0651.0651,0,0,1,.0478.0254.0777.0777,0,0,0,.0459.0225.169.169,0,0,0,.0762.0244l.0235.0244c0,.0322.0234.0508.0712.0508v.0215h.0254l.0235.0244a.0745.0745,0,0,1,.05.0254,1.9844,1.9844,0,0,1,.4092.2656.3433.3433,0,0,0,.1.0732.5817.5817,0,0,1,.0957.0713V6.751h.0234c0,.0351.0254.05.0723.05l.0263.0244.07.07v.0273h.0214c0,.0313.0176.0459.0547.0459l.02.0235.0761.0742h.0254c0,.0469.0215.0742.07.0742l.0235.0234c0,.0157.0166.0391.0488.07l.0225.0253.0732.0743v.0234h.0234c0,.0479.0157.0732.05.0732l.0245.0235a.0653.0653,0,0,1,.0234.0469l.0254.0244h.0215a.2678.2678,0,0,1,.039.0488.171.171,0,0,0,.0342.0488v.0235c.0186,0,.042.0254.0772.0722v.0244c.0273.0489.0615.1016.0957.1573a.3323.3323,0,0,0,.1211.1328,5.7242,5.7242,0,0,1,.7226,1.8642v.0245c.0186.0146.0244.0488.0244.0966a.242.242,0,0,0,.0264.1446v.122a.2877.2877,0,0,1,.02.1446v.1211ZM220.54,7.2344h-.1914a4.6856,4.6856,0,0,0-3.0957,1.4043,4.2454,4.2454,0,0,0-1.2617,3.122V17.666h.0264v.0234a3.5755,3.5755,0,0,0,.9921,2.5166,3.6712,3.6712,0,0,0,2.4659,1.1377h.4882a4.5636,4.5636,0,0,0,4.2823-4.5V10.915a3.5417,3.5417,0,0,0-1.02-2.54,3.6562,3.6562,0,0,0-2.4677-1.1406Z"/><path class="cls-1" d="M242.5722,10.5508V21.9482a.7686.7686,0,0,1-.87.87h-.8232a.7694.7694,0,0,1-.87-.87V10.915a3.54,3.54,0,0,0-1.0176-2.54,3.6719,3.6719,0,0,0-2.4668-1.1406H236.11a4.45,4.45,0,0,0-3.07,1.4043,4.3358,4.3358,0,0,0-1.2822,3.0742V21.9482a.76.76,0,0,1-.8486.87h-.85a.7579.7579,0,0,1-.8447-.87V6.6562a.7585.7585,0,0,1,.8447-.872h.85a.76.76,0,0,1,.8486.872v.0713a6.0629,6.0629,0,0,1,3.5068-1.2344h2.13a.167.167,0,0,0,.0732.0235h.1944a.1464.1464,0,0,1,.0967.0244h.1181a.0811.0811,0,0,1,.05.0254h.1446a.0908.0908,0,0,0,.0732.0234h.0469a.0987.0987,0,0,0,.0752.0254l.0234.0235h.0967a.0658.0658,0,0,1,.0361.0117.0477.0477,0,0,0,.0362.0136.1838.1838,0,0,0,.07.0235h.05a.098.098,0,0,0,.0742.0254c.0332,0,.0478.0058.0478.0244a.098.098,0,0,1,.0723.0234h.05a.0924.0924,0,0,0,.0684.0235l.0293.0234h.0234a.0912.0912,0,0,1,.07.0244.0838.0838,0,0,1,.07.0244.0751.0751,0,0,0,.0508.0235.0989.0989,0,0,0,.0742.0254.0726.0726,0,0,0,.044.0234l.0517.0234a.0854.0854,0,0,1,.05.0244.0447.0447,0,0,1,.0362.0157.0619.0619,0,0,0,.0381.01.059.059,0,0,0,.0439.0264.12.12,0,0,0,.0762.0205c0,.0186.0156.0254.0469.0254l.02.0244a.0741.0741,0,0,1,.0527.0254.07.07,0,0,0,.0469.0225.166.166,0,0,0,.0752.0244l.0224.0244c0,.0322.0215.0508.0733.0508v.0215h.0234l.0234.0244a.0728.0728,0,0,1,.05.0254,2.2472,2.2472,0,0,1,.4121.2656.37.37,0,0,0,.0947.0732.4139.4139,0,0,1,.0976.0713V6.751h.0245c0,.0351.0244.05.0712.05l.0235.0244.0713.07v.0273h.0293c0,.0313.0127.0459.0468.0459l.0235.0235.0722.0742h.0254c0,.0469.0225.0742.07.0742l.0253.0234c0,.0157.0137.0391.0469.07l.0225.0253.0752.0743v.0234h.02c0,.0479.02.0732.0527.0732l.0264.0235a.0787.0787,0,0,1,.0234.0469l.02.0244h.0244a.1634.1634,0,0,1,.0391.0488.115.115,0,0,0,.0361.0488v.0235c.0166,0,.04.0254.0733.0722v.0244c.0293.0489.0625.1016.0947.1573a.44.44,0,0,0,.1182.1328,5.6331,5.6331,0,0,1,.73,1.8642v.0245a.1526.1526,0,0,1,.0235.0966c0,.08.0068.128.0263.1446v.122a.2794.2794,0,0,1,.0225.1446v.1211Z"/><path d="M73.1963,5.0527c-1.0782.9893-.9873,3.6182-1.1612,7.0957-.084,3.87-.7295,7.502,1.0782,10.3028-1.4864,0-2.97.083-4.4522.1689a.6287.6287,0,0,1-.2559-.41,4.56,4.56,0,0,0,0-1.5693,10.22,10.22,0,0,1-7.01,1.98c-1.3135-.1689-3.9551-1.1592-4.1113-3.8906q-.126-5.93-.254-11.8662a2.9017,2.9017,0,0,0-.8222-1.8106h5.6094c-.6612.2383-1.0713.9893-1.0049,3.12-.0664,2.7276-.1485,5.3731-.1485,8.169,0,4.1308,2.5557,4.3857,3.29,4.4531,2.4746.2539,4.2949-1.1445,4.3828-2.7978.24-3.0508.7285-11.7139-.8359-12.9444A45.2737,45.2737,0,0,0,73.1963,5.0527Z"/><path d="M55.3408,19.8037l-4.5342-6.1025c4.7061-2.3877,4.5342-8.7325,1.3281-8.6485H41.749c1.5674,1.2305,1.3994,5.44,1.3291,9.2276-.0811,2.8994-.2549,5.6953-.3408,6.4472a2.1136,2.1136,0,0,1-.7315,1.7237h5.6621a4.4833,4.4833,0,0,1-1.4863-2.7159V14.3681c.2578-.496.666-.496,1.0762-.1767.41.5849.8017,1.1621,1.1933,1.7412,1.1446,1.6895,2.2686,3.3975,3.4249,5.1162a3.1414,3.1414,0,0,0,2.3886,1.4024c1.2481,0,2.5615,0,3.8067-.0879A8.2236,8.2236,0,0,1,55.3408,19.8037Zm-6.5176-7.0928a2.0885,2.0885,0,0,1-.3721.085c-1.1787.2578-2.2695.289-2.2695-.085V6.1953h2.4912c1.8086.2578,1.9766,1.6543,1.9766,2.73C50.8935,10.4092,50.6494,12.2148,48.8232,12.7109Z"/><path d="M21.7793,7.9355V20.8808c0,2.4707-1.5684,4.042-4.3838,4.042-.41,0-1.3125-.0869-1.3125-.2422,0-.5771.9023.087,1.57-.747.4062-.41.9-1.81.9-4.5381,0-4.126,0-8.2539-.2393-12.3643a1.913,1.913,0,0,0-.83-1.6523s-.0889-.1719,0-.1719h5.2841v.1719C21.6094,6.042,21.7793,6.6074,21.7793,7.9355Z"/><path d="M41.0488,22.21a13.0537,13.0537,0,0,1-1.9766-3.3925A138.17,138.17,0,0,1,33.459,5.207s0-.0859-.17-.0859H28.9931V5.207a1.4129,1.4129,0,0,1,.4942,1.2461A17.4545,17.4545,0,0,1,28.9931,8.6l-2.7119,7.0957C25.2051,18.08,23.8935,21.22,22.8183,22.21c-.0839.0694-.0839.2413,0,.2413h4.4541v-.0879l-.26-.2393c-1.3106-1.2432.7519-5.4424,1.334-7.1777H33.459l2.9677,7.333c.085.084.1543.2549.3252.2549h4.2969C41.29,22.4512,41.1172,22.2793,41.0488,22.21ZM28.84,13.6308,30.7324,8.43c.0322.0683.0869.1543.1211.2226a45.5027,45.5027,0,0,1,2.0283,4.9785Z"/><path d="M84.6406,16.0185,88.7646,5.207s.084-.1543.1563-.1543h4.623c.17,0,.17.2383.084.3262-.9883.4941-.7314,4.209-.666,7.76.084,3.7851.4932,8.49,1.9971,9.2246,0,.0879,0,.1709-.0879.1709h-5.78a.2885.2885,0,0,1-.0859-.1709c1.16-1.3145.9072-5.1836.8378-7.8272l-.4306-5.7812c-1.6328,3.8007-4.2783,10.1484-5.3506,13.6963l-.085.083h-.582s-.0674,0-.0674-.083L78.2783,8.7549h-.0654c-.0889,3.2207-.1739,6.4267-.2569,9.6552,0,.8174.4073,3.2188,1.5674,3.9532.0869.0879.0869.2568,0,.2568H74.2383c-.0694,0-.0694-.1689-.0694-.2568,2.2168-1.0752,2.2168-9.4834,2.2168-12.0411,0-1.5673.41-4.62-.7324-5.0312-.0869,0-.0869-.17.082-.17h4.4541c.1524,0,.1524,0,.1524.0859Z"/><path d="M16.8174,13.207c-.07-7.25-4.6924-8.1543-7.01-8.2383-.3428,0-.6846.0157-1.0068.0352-2.9317.0986-5.75.375-8.6465.375L0,5.5488C1.5713,7.2705,1.1445,10.9,1.1445,14.1914c0,3.31,0,7.0967-.7334,8.0879-.084.084-.084.2549.0811.2549H6.5986c.8389-.0528,1.5557-.083,2.2022-.1368a7.5284,7.5284,0,0,0,5.22-2.0087,10.4164,10.4164,0,0,0,2.81-6.7579v-.3222A.2643.2643,0,0,0,16.8174,13.207Zm-6.7549,7.3477a9.3021,9.3021,0,0,1-1.2617.4941c-1.9141.58-4.045.58-4.1084-1.1582l-.24-8.4072.085-5.2a11.7229,11.7229,0,0,1,4.2637.0644c2.1337.53,3.5664,2.0821,4.1435,5.461C13.7627,16.8388,11.9541,19.65,10.0625,20.5547Z"/><path class="cls-2" d="M61.0234,29.1328h3.9629a6.604,6.604,0,0,1,2.8926.3965,2.5964,2.5964,0,0,1,1.2871,2.2783,2.5293,2.5293,0,0,1-1.626,2.4512v.0293A2.5049,2.5049,0,0,1,69.625,36.92,3.1062,3.1062,0,0,1,66.3,40.0566H61.0234ZM62.4785,33.83h2.9043c1.6543,0,2.3281-.5977,2.3281-1.7442,0-1.5137-1.0723-1.7314-2.3281-1.7314H62.4785Zm0,5.0019h3.6406a1.8716,1.8716,0,0,0,2.05-1.959c0-1.42-1.1445-1.8213-2.375-1.8213H62.4785Z"/><path class="cls-2" d="M78.2988,40.0254a1.7342,1.7342,0,0,1-.93.2138c-.6767,0-1.1055-.3662-1.1055-1.2236A3.51,3.51,0,0,1,73.48,40.2392c-1.4414,0-2.6191-.6406-2.6191-2.2158,0-1.792,1.335-2.1758,2.68-2.4336,1.4365-.2773,2.6641-.1836,2.6641-1.165,0-1.13-.9336-1.3135-1.76-1.3135-1.1045,0-1.916.3359-1.9766,1.499H71.1679c.0782-1.959,1.5918-2.6494,3.3516-2.6494,1.4229,0,2.97.3242,2.97,2.1738v4.0684c0,.6143,0,.89.4112.89a1.103,1.103,0,0,0,.3984-.0772Zm-2.11-4.0547a6.7165,6.7165,0,0,1-2.3565.5361c-.8564.1524-1.5947.458-1.5947,1.4209,0,.86.7383,1.1651,1.5322,1.1651,1.7149,0,2.419-1.0694,2.419-1.79Z"/><path class="cls-2" d="M79.5859,29.1328h1.3v6.4727l3.6113-3.459H86.24l-3.1387,2.8759,3.3692,5.0342H84.8193l-2.7109-4.1308-1.2227,1.1308v3h-1.3Z"/><path class="cls-2" d="M89.2578,32.1465H90.832v1.1484H89.2578v4.9082c0,.5977.165.707.9746.707h.6v1.1465h-.9932c-1.3466,0-1.8828-.2754-1.8828-1.73V33.2949H86.61V32.1465H87.956V29.7744h1.3018Z"/><path class="cls-2" d="M93.6465,30.7226h-1.295v-1.59h1.295Zm-1.295,1.4239h1.295v7.91h-1.295Z"/><path class="cls-2" d="M100.1347,29.1328h4.79c2.1758,0,3.3525,1.207,3.3525,3.2295a2.9836,2.9836,0,0,1-3.3525,3.2275H101.59v4.4668h-1.4551Zm1.4551,5.2324h2.8477c1.6347.0156,2.3877-.7041,2.3877-2.0029,0-1.3037-.753-2.0078-2.3877-2.0078H101.59Z"/><path class="cls-2" d="M116.8427,40.0254a1.7355,1.7355,0,0,1-.9306.2138c-.6748,0-1.0986-.3662-1.0986-1.2236a3.5241,3.5241,0,0,1-2.7881,1.2236c-1.4366,0-2.6153-.6406-2.6153-2.2158,0-1.792,1.3321-2.1758,2.6768-2.4336,1.4385-.2773,2.6631-.1836,2.6631-1.165,0-1.13-.9356-1.3135-1.7588-1.3135-1.1035,0-1.9141.3359-1.9756,1.499h-1.3018c.0791-1.959,1.5948-2.6494,3.3536-2.6494,1.4218,0,2.9677.3242,2.9677,2.1738v4.0684c0,.6143,0,.89.4112.89a1.0864,1.0864,0,0,0,.3964-.0772Zm-2.1113-4.0547a6.676,6.676,0,0,1-2.3525.5361c-.8555.1524-1.5928.458-1.5928,1.4209,0,.86.7373,1.1651,1.53,1.1651,1.7129,0,2.415-1.0694,2.415-1.79Z"/><path class="cls-2" d="M125.126,40.0566h-1.3008V38.9853H123.79a2.658,2.658,0,0,1-2.5224,1.2539c-2.4356,0-3.6416-1.9287-3.6416-4.1591,0-2.2354,1.1953-4.1192,3.6113-4.1192a3.0254,3.0254,0,0,1,2.5527,1.24h.0352V29.1328h1.3008Zm-3.6749-.9638c1.7432,0,2.418-1.4971,2.418-2.9854,0-1.5586-.7021-2.9961-2.4931-2.9961-1.7764,0-2.3711,1.5127-2.3711,3.06C119.0049,37.6553,119.7676,39.0928,121.4511,39.0928Z"/><path class="cls-2" d="M134.1347,40.0254a1.728,1.728,0,0,1-.9287.2138c-.6758,0-1.1015-.3662-1.1015-1.2236a3.5227,3.5227,0,0,1-2.7881,1.2236c-1.4365,0-2.6162-.6406-2.6162-2.2158,0-1.792,1.3281-2.1758,2.6787-2.4336,1.4394-.2773,2.6611-.1836,2.6611-1.165,0-1.13-.9336-1.3135-1.7607-1.3135-1.1026,0-1.91.3359-1.9717,1.499h-1.3018c.0791-1.959,1.5889-2.6494,3.3526-2.6494,1.4228,0,2.9687.3242,2.9687,2.1738v4.0684c0,.6143,0,.89.4092.89a1.0882,1.0882,0,0,0,.3984-.0772Zm-2.1113-4.0547a6.6718,6.6718,0,0,1-2.3535.5361c-.8574.1524-1.5918.458-1.5918,1.4209,0,.86.7344,1.1651,1.5313,1.1651,1.7119,0,2.414-1.0694,2.414-1.79Z"/><path class="cls-2" d="M139.8,29.1328h1.5439l5.7569,8.8584h.0283V29.1328h1.38V40.0566h-1.5967L141.208,31.289h-.0322v8.7676H139.8Z"/><path class="cls-2" d="M157.3955,37.5478a3.1863,3.1863,0,0,1-3.38,2.6914c-2.5244,0-3.7178-1.7431-3.7949-4.1591a3.81,3.81,0,0,1,3.7168-4.1192c2.8008,0,3.6572,2.6162,3.5791,4.5313H151.6a2.33,2.33,0,0,0,2.4619,2.6006,1.9045,1.9045,0,0,0,2.0488-1.545Zm-1.2529-2.2041a2.2777,2.2777,0,0,0-2.2832-2.2324,2.2478,2.2478,0,0,0-2.26,2.2324Z"/><path class="cls-2" d="M165.6894,39.3828c0,2.5713-1.1728,3.8887-3.6738,3.8887-1.4805,0-3.1934-.5987-3.27-2.3282h1.2959c.0644.9473,1.1972,1.2872,2.0537,1.2872,1.6992,0,2.3711-1.2266,2.3711-3V38.709h-.03a2.6308,2.6308,0,0,1-2.4629,1.4384c-2.3574,0-3.5371-1.8525-3.5371-4.0078,0-1.8662.92-4.1787,3.6592-4.1787a2.5807,2.5807,0,0,1,2.3545,1.3164h.0166V32.1465h1.2226Zm-1.2861-3.4434c0-1.3906-.6084-2.8281-2.249-2.8281-1.666,0-2.3389,1.3594-2.3389,2.877,0,1.4209.5195,3.0117,2.2354,3.0117C163.7607,39,164.4033,37.4238,164.4033,35.9394Z"/><path class="cls-2" d="M174.4,37.5478a3.1924,3.1924,0,0,1-3.3828,2.6914c-2.5245,0-3.72-1.7431-3.793-4.1591a3.8074,3.8074,0,0,1,3.7148-4.1192c2.8018,0,3.6573,2.6162,3.583,4.5313h-5.9267a2.3355,2.3355,0,0,0,2.4668,2.6006,1.9105,1.9105,0,0,0,2.0508-1.545Zm-1.2569-2.2041a2.2743,2.2743,0,0,0-4.5478,0Z"/><path class="cls-2" d="M175.82,32.1465h1.2275v1.6679h.0264a2.8868,2.8868,0,0,1,2.9062-1.8535v1.3809c-2.0937,0-2.8564,1.1914-2.8564,3.1972v3.5176H175.82Z"/><path class="cls-2" d="M182.3379,30.7226H181.04v-1.59h1.2979ZM181.04,32.1465h1.2979v7.91H181.04Z"/></g></g></svg>