<svg xmlns="http://www.w3.org/2000/svg" viewBox="0 0 78 71" id="SJfU-BTWQ"><style>@-webkit-keyframes Skyxf8ZS6-X_ByQq-B6b7_Animation{0%{-webkit-transform: translate(0px, 0px);transform: translate(0px, 0px);}50%{-webkit-transform: translate(0px, -5px);transform: translate(0px, -5px);}100%{-webkit-transform: translate(0px, 0px);transform: translate(0px, 0px);}}@keyframes Skyxf8ZS6-X_ByQq-B6b7_Animation{0%{-webkit-transform: translate(0px, 0px);transform: translate(0px, 0px);}50%{-webkit-transform: translate(0px, -5px);transform: translate(0px, -5px);}100%{-webkit-transform: translate(0px, 0px);transform: translate(0px, 0px);}}#SJfU-BTWQ *{-webkit-animation-duration: 1s;animation-duration: 1s;-webkit-animation-iteration-count: infinite;animation-iteration-count: infinite;-webkit-animation-play-state: running;animation-play-state: running;-webkit-animation-timing-function: cubic-bezier(0, 0, 1, 1);animation-timing-function: cubic-bezier(0, 0, 1, 1);}#SJMG8WHaWX{fill: #c2c3c9;fill-rule: evenodd;}#BkmG8-rpW7{fill-rule: evenodd;fill: #aeadb3;}#S14zLZS6ZQ{fill-rule: evenodd;fill: #edeef0;}#H1HGIbra-Q{fill-rule: evenodd;fill: #d8d9dd;}#ByLM8Zrp-X{fill-rule: evenodd;fill: #d8d9dd;}#rkwGLZSaW7{fill: #c2c3c9;fill-rule: evenodd;}#HyOfUbHT-m{fill: #c2c3c9;fill-rule: evenodd;}#ryFGL-rpZQ{fill: #c2c3c9;fill-rule: evenodd;}#HycMIZSa-Q{fill: #c2c3c9;fill-rule: evenodd;}#HJoGI-BaZm{fill-rule: evenodd;fill: #f7f7f8;}#ry2G8WBpWQ{fill-rule: evenodd;fill: #f7f7f8;}#B1pzLWHa-X{fill: #333;}#r10GU-SaWX{fill: #333;}#Skyxf8ZS6-X{fill: #333;}#BJxlMU-B6bX{fill: #333;}#Skyxf8ZS6-X_ByQq-B6b7{-webkit-transform-origin: 50% 50%;transform-origin: 50% 50%;transform-box: fill-box;-webkit-transform: translate(0px, 0px);transform: translate(0px, 0px);}#SJfU-BTWQ:hover #Skyxf8ZS6-X_ByQq-B6b7{-webkit-animation-name: Skyxf8ZS6-X_ByQq-B6b7_Animation;animation-name: Skyxf8ZS6-X_ByQq-B6b7_Animation;}</style><defs/><title>Asset 10</title><g id="S1lGUWB6W7" data-name="Layer 2"><g id="SkbMLbr6W7" data-name="CONTACT US"><path d="M6.56,18.23C2.38,10.38,3.5,6.45,13.06,2.64s51.5-3.23,48.42,0S62.12,4.88,61,5.8c-3.24,2.06-6.91,1.93-10.54,2-8.39.1-16.79,0-25.19.06C18.93,7.92,13.9,10,11,16,9.86,17.43,8.55,18.53,6.56,18.23Z" id="SJMG8WHaWX"/><path d="M59.5,5.36q0-1.1,0-2.19h2.2c1.75,3.12,5.36,1.48,7.68,3,2.9,1.87,2.14,3.17-.91,3.75-2,1.74-.67,4.67-2.31,6.54q0,2.15,0,4.31c-6,.13-7.21-5.19-9.95-8.78C55.3,8.76,57,6.88,59.5,5.36Z" id="BkmG8-rpW7"/><path d="M6.56,18.23l2.32-2.4C18,5.49,31,7.48,40.89,10.28S60.22,19.59,69.61,25c5.16,5.1,5.8,11,3,17.47-.1,1.79-.65,3.33-2.41,4.18-2.17,2.3-1.76,5.62-3.22,8.21-3.31,3.49-8.74,5.27-11.84,3.47-8.55-5-11-.13-13.41,6.29C25,73.19,26.07,71.82,12.58,57.7.29,44.84-.27,32.73,6.56,18.23Z" id="S14zLZS6ZQ"/><path d="M68.11,26.84c-2.72.52-2.48-10.22-7.89-1.7-2.09,3.3-4.32-1.87-6.22-3.62-11.92-11-32.11-13.59-45.13-5.7,1.57-8,6.66-11.25,14.6-11,9,.24,18,.18,27,.25,2.89,2.19,4.45,6.25,8.86,6.31,4.39,1.51,5.36,6.43,8.82,8.86l2.29,2.1C71.78,24.92,69.64,25.72,68.11,26.84Z" id="H1HGIbra-Q"/><path d="M41.76,64.58c3.23-6-4.36-3.55-5.53-7.42a22.15,22.15,0,0,0,18-8.38c4,3.67-.51,5.32.19,8.28,4.32.67,7.93-1.29,11.39-3.74C70,53,69.42,55.17,68.1,57.68Z" id="ByLM8Zrp-X"/><path d="M68.11,26.84l2.32-4.52c6,6.12,12.68,12.17,2.21,20.1C71.23,37.19,72.9,31.08,68.11,26.84Z" id="rkwGLZSaW7"/><path d="M68.1,57.68c-.14-1.76-.43-3.45-2.24-4.36,0-3.18,1.19-5.61,4.38-6.72C67.86,50,76.26,55.42,68.1,57.68Z" id="HyOfUbHT-m"/><path d="M66.16,17C65,14.08,62,9.45,68.11,9.14c3.07-1.11,5,6.52,5,6.52S67.14,20,66.16,17Z" id="ryFGL-rpZQ"/><path d="M59.31,11.35a24.47,24.47,0,0,1-2,3.28c-4.21-1.75-7.19-4.54-6.91-9.59l11-.2Z" id="HycMIZSa-Q"/><path d="M15.43,69.39l-2.09-.65C4.59,66.45,1.92,58.27.62,51.64S.36,37.57.72,30.48c1.46-4.53,4.72-6.65,9.33-6.94a2.91,2.91,0,0,1,3.16.17c2,.59,3.81-.63,5.76-.54,3,.9,5.67,3.56,5.54,5.91-.38,6.48,3.18,6.48,7.65,6,10,7.25,8.87,7,4.6,19.12C32.87,65.19,25.94,69.1,15.43,69.39Z" id="HJoGI-BaZm"/><path d="M6.42,64.25q-2-.16-3.9-.37L2.9,60c5.84-2.59,3.53-9.27,6.57-13.14,3.8-4.84,6-3.26,6.51,2.25,2.74,3.9,8.18,2,11.23,5.21l7.65.75C34.07,65.76,24.41,67,17.57,71.22,11.74,72.28,8.7,68.88,6.42,64.25Z" id="ry2G8WBpWQ"/><polygon points="57.05 48.44 57.05 21.97 42.16 33.55 57.05 48.44" id="B1pzLWHa-X"/><polygon points="27.91 33.58 13.05 21.69 13.05 48.44 27.91 33.58" id="r10GU-SaWX"/><g id="Skyxf8ZS6-X_ByQq-B6b7" data-animator-group="true" data-animator-type="0"><polygon points="54.01 20.87 15.79 20.87 34.9 36.21 54.01 20.87" id="Skyxf8ZS6-X"/></g><polygon points="54.97 49.43 15.28 49.43 29.16 35.78 35.12 39.6 41.08 35.78 54.97 49.43" id="BJxlMU-B6bX"/></g></g><script>(function(){var a=document.querySelector('#SJfU-BTWQ'),b=a.querySelectorAll('style'),c=function(d){b.forEach(function(f){var g=f.textContent;g&amp;&amp;(f.textContent=g.replace(/transform-box:[^;\r\n]*/gi,'transform-box: '+d))})};c('initial'),window.requestAnimationFrame(function(){return c('fill-box')})})();</script></svg>