<svg xmlns="http://www.w3.org/2000/svg" viewBox="0 0 102.0203 53.2997"><defs><style>.cls-1{fill:#030302;}.cls-2{fill:#020202;}.cls-3{fill:#040404;}.cls-4{fill:#030303;}.cls-5{fill:#0c0c0c;}.cls-6{fill:#0e0e0e;}.cls-7{fill:#0f0f0f;}.cls-8{fill:#bed630;}.cls-9{fill:#bcd42f;}.cls-10{fill:#020201;}.cls-11{fill:#040401;}</style></defs><title>Asset 15</title><g id="Layer_2" data-name="Layer 2"><g id="CLIENT"><path class="cls-1" d="M80.2419.1468a21.5933,21.5933,0,0,1,5.16.5824c.6178.1562,1.2269.34,1.8328.5373a19.45,19.45,0,0,1,3.9485,1.82A19.9075,19.9075,0,0,1,96.9,8.1959a18.7181,18.7181,0,0,1,2.059,3.4075c.1273.2735.2579.546.3688.8262a2.6854,2.6854,0,0,0,.3662.5581,11.4352,11.4352,0,0,1,1.1752,2.0251,14.1777,14.1777,0,0,1,.803,2.2718,12.4469,12.4469,0,0,1,.33,3.66,10.6085,10.6085,0,0,1-.3258,2.2182,9.6717,9.6717,0,0,1-.73,1.9055,9.0775,9.0775,0,0,1-2.281,2.8662,9.7124,9.7124,0,0,1-1.6975,1.1329.8525.8525,0,0,1-.5773.0956c-.3961-.0694-.7976-.108-1.1963-.1626a.2693.2693,0,0,0-.2831.1136,20.5612,20.5612,0,0,1-1.93,2.0956,19.5016,19.5016,0,0,1-1.7412,1.4714,19.7593,19.7593,0,0,1-2.9266,1.8246,16.82,16.82,0,0,1-4.3928,1.5066,15.1452,15.1452,0,0,1-3.8728.2542,16.4452,16.4452,0,0,1-3.401-.5649,15.42,15.42,0,0,1-3.7227-1.5787A15.5768,15.5768,0,0,1,70.6959,32.52a16.6571,16.6571,0,0,1-1.5129-1.473,18.6924,18.6924,0,0,1-2.0851-2.79A17.8691,17.8691,0,0,1,65.8625,25.88c-.0517-.1233-.0954-.25-.1363-.3778a.2309.2309,0,0,0-.2135-.18c-.2-.0213-.3993-.0506-.5989-.0765-1.0422-.135-2.0834-.2787-3.1274-.3979a.5012.5012,0,0,1-.4352-.2982c-.3044-.5845-.6311-1.1574-.9032-1.7586a14.3428,14.3428,0,0,1-1.0511-3.3144,10.6229,10.6229,0,0,1,.4606-5.7118A11.7234,11.7234,0,0,1,60.88,11.6962,12.1705,12.1705,0,0,1,62.4278,9.72c.29-.3081.6252-.5749.9454-.854a1.965,1.965,0,0,0,.3-.3139,20.1984,20.1984,0,0,1,3.3322-3.5743,17.6043,17.6043,0,0,1,1.77-1.326c.537-.3432,1.0678-.6959,1.633-.9919a21.0172,21.0172,0,0,1,2.6206-1.1948A22.571,22.571,0,0,1,76.9414.418,18.7156,18.7156,0,0,1,78.9078.2044C79.4213.1734,79.9358.16,80.2419.1468ZM96.643,10.6912l-.0171.02c-.029-.011-.0346-.0059-.018.0185l.0389-.0382c-.083.0757-.0442.1663-.0241.2493a11.6407,11.6407,0,0,1,.3132,1.6085.1259.1259,0,0,0,.1285.1241c.2218.0257.4435.0521.6647.0819.314.0424.2947.0068.1926-.238a3.314,3.314,0,0,0-.2565-.507,6.7862,6.7862,0,0,0-.8924-1.169C96.7264,10.7946,96.6869,10.7411,96.643,10.6912ZM81.473,35.2163a20.83,20.83,0,0,0,2.2715-.1669,14.7748,14.7748,0,0,0,4.83-1.6469c.2543-.14.4944-.3057.7461-.4509A11.9649,11.9649,0,0,0,91.3,31.46a12.5766,12.5766,0,0,0,1.6379-1.7253c.2237-.2934.4567-.5792.6682-.8824a1.3625,1.3625,0,0,0,.2409-.6493c.0416-.3778.0907-.7548.1363-1.1322q.2474-2.0479.4945-4.0959t.494-4.0956c.1041-.8659.2044-1.7322.31-2.5979.099-.81.2036-1.62.3048-2.43.0471-.3772.0893-.7551.1393-1.132a.8179.8179,0,0,0-.072-.5212c-.0321-.0586-.0527-.1234-.0809-.1842a19.3458,19.3458,0,0,0-2.39-3.9114A16.139,16.139,0,0,0,91.4077,6.185a13.5312,13.5312,0,0,0-2.0492-1.5658,14.5444,14.5444,0,0,0-1.9-.9918,13.44,13.44,0,0,0-4.4268-1.0041,18.26,18.26,0,0,0-3.6161.1123,16.1845,16.1845,0,0,0-4.0636,1.1129A14.6312,14.6312,0,0,0,72.599,5.3722,15.7115,15.7115,0,0,0,70,7.64,15.4523,15.4523,0,0,0,67.9163,10.47c-.1815.3212-.3692.6388-.53.9715a.9557.9557,0,0,0-.1051.3158c-.0835.7892-.2083,1.5732-.2867,2.3635-.0739.7451-.1865,1.4863-.2833,2.229-.1213.9313-.2455,1.8622-.3652,2.7937-.1454,1.1311-.2818,2.2634-.4357,3.3933a1.3438,1.3438,0,0,0,.0529.6232,20.7965,20.7965,0,0,0,1.1233,2.69,19.467,19.467,0,0,0,1.5791,2.6472,17.7509,17.7509,0,0,0,1.9744,2.367,15.2272,15.2272,0,0,0,2.6907,2.1546A13.6317,13.6317,0,0,0,75.63,34.1852a16.2756,16.2756,0,0,0,2.0788.6481A16.8351,16.8351,0,0,0,81.473,35.2163ZM96.8665,13.9584c-.1708-.0092-.186.0014-.2139.1348-.0137.0656-.0252.1318-.0337.1983-.0385.2993-.0752.5988-.1133.8982-.0776.61-.1573,1.2194-.2332,1.8295-.0621.4989-.1185.9985-.18,1.4975q-.1128.9151-.23,1.83c-.0984.7649-.2,1.5295-.299,2.2943s-.197,1.53-.2955,2.2946c-.0814.6318-.1648,1.2634-.2437,1.8956-.0526.4215-.1.8437-.1476,1.2658-.0149.1324.0049.165.1285.1853.1984.0326.3981.0572.5976.0828.255.0327.51.0663.7656.0928.1269.0131.155-.0139.1723-.143q.1-.7477.1969-1.4959.1824-1.43.3617-2.8609.2546-2.0126.51-4.0251c.1206-.9537.2391-1.9076.3617-2.861.1183-.92.2408-1.8395.3609-2.7593.0165-.1267,0-.1558-.1366-.1752C97.7406,14.0725,97.2861,14.0144,96.8665,13.9584ZM63.0046,24.2155c.49.0638.944.1217,1.3973.1824.2545.0341.2587.0331.2992-.2175.0036-.0221.0064-.0443.0093-.0664q.1351-1.0475.27-2.095.25-1.9623.497-3.9249.2587-2.0454.5174-4.0909.1925-1.5133.3887-3.0261c.0313-.2439.0638-.4877.0889-.7323.0137-.1334-.0111-.1614-.1365-.1783-.3433-.0465-.6871-.09-1.0306-.1351-.1219-.0159-.2435-.0337-.3657-.0475-.086-.01-.1239.02-.1394.1038-.0041.0219-.0053.0444-.008.0666-.09.7431-.178,1.4865-.2708,2.2293-.0762.61-.1588,1.219-.2374,1.8285-.0772.5986-.1524,1.1974-.2294,1.796q-.15,1.1638-.3006,2.3275c-.0773.5985-.1684,1.1957-.2286,1.796-.086.8566-.21,1.7081-.3175,2.5617C63.1407,23.1241,63.0747,23.6551,63.0046,24.2155ZM74.8485,2.3808A14.9583,14.9583,0,0,0,70.57,4.0761a18.7231,18.7231,0,0,0-5.1813,4.3591.1169.1169,0,0,0-.025.1354c.633.0823,1.2741.1643,1.9147.25a.2039.2039,0,0,0,.2023-.0842c.2-.2409.4074-.4756.6031-.72A18.4851,18.4851,0,0,1,69.84,6.1714c.5355-.5061,1.0879-.9949,1.667-1.4548q1.0786-.8567,2.2254-1.6141a9.102,9.102,0,0,1,1.0013-.61A.195.195,0,0,0,74.8485,2.3808Z"/><path class="cls-2" d="M22.9183,4.9327c-.0862.0639-.1719.1345-.2643.1947-.5149.3356-1.0322.6675-1.547,1.0031-.3652.238-.7277.48-1.0918.72-.14.0922-.2824.181-.4216.2744-.3262.2187-.2909.1425-.4837-.0707a11.77,11.77,0,0,0-1.9683-1.7658,6.5225,6.5225,0,0,0-1.9986-.9222A8.5011,8.5011,0,0,0,11.9843,4.13a8.0379,8.0379,0,0,0-2.7852.8079A7.4582,7.4582,0,0,0,7.4015,6.2168,9.7312,9.7312,0,0,0,5.3766,8.9112a8.9223,8.9223,0,0,0-.9431,3.1956,8.2481,8.2481,0,0,0,.2116,2.994A6.6182,6.6182,0,0,0,6.1,17.8627c.15.1661.2916.34.45.4967A6.809,6.809,0,0,0,8.89,19.8927a6.9107,6.9107,0,0,0,1.9909.4363,8.6029,8.6029,0,0,0,3.1178-.3351,6.8133,6.8133,0,0,0,1.6994-.7841,7.0776,7.0776,0,0,0,.77-.536A7.6076,7.6076,0,0,0,18.112,16.83c.14-.2288.2853-.454.4239-.6834.0453-.0751.0124-.1244-.0788-.1274-.1006-.0033-.2013-.002-.3019-.002l-6.3753,0c-.1006,0-.2014.0009-.3019-.0034-.0829-.0035-.1138-.0431-.1021-.1334q.1059-.8148.2149-1.6291.1213-.9142.2433-1.8282c.0178-.133.0347-.2661.0564-.3984.022-.1347.0269-.1373.1755-.1418.0782-.0024.1566-.0007.2349-.0007H23.2395c.0224,0,.0447,0,.0671,0,.3776.0027.3584-.04.3349.3352a16.3785,16.3785,0,0,1-.8649,4.4269,13.187,13.187,0,0,1-1.14,2.3817,10.853,10.853,0,0,1-1.5682,2.0013,10.8692,10.8692,0,0,1-3.3206,2.35,11.84,11.84,0,0,1-2.746.8513,14.3474,14.3474,0,0,1-3.5089.1861A12.0765,12.0765,0,0,1,6.9,23.6467a10.7786,10.7786,0,0,1-1.9616-1.0092A9.6419,9.6419,0,0,1,3.0752,21.06,10.7767,10.7767,0,0,1,1.6384,19.167,11.0582,11.0582,0,0,1,.67,17.1456a12.4707,12.4707,0,0,1-.5935-2.6433,14.578,14.578,0,0,1-.0514-2.3787,13.0564,13.0564,0,0,1,.4226-2.576A10.8519,10.8519,0,0,1,1.1169,7.69,13.6347,13.6347,0,0,1,3.9674,3.7027a14.4477,14.4477,0,0,1,2.47-1.9471A11.9206,11.9206,0,0,1,8.36.812a10.1554,10.1554,0,0,1,1.5339-.48,14.038,14.038,0,0,1,1.7211-.27A12.8977,12.8977,0,0,1,14.0609.0536c.4013.0373.7988.098,1.1959.1621a12.2367,12.2367,0,0,1,3.2113,1.0316,11.6677,11.6677,0,0,1,2.0043,1.2089A13.3925,13.3925,0,0,1,22.58,4.4646c.11.1259.2079.2627.31.3957A.316.316,0,0,1,22.9183,4.9327Z"/><path class="cls-2" d="M38.9666,21.4348a5.726,5.726,0,0,1-.7024.8027,7.3391,7.3391,0,0,1-1.6707,1.2275,9.1944,9.1944,0,0,1-3.2705,1.0408,11.0183,11.0183,0,0,1-3.1075-.067,7.4267,7.4267,0,0,1-2.3028-.7913,6.2789,6.2789,0,0,1-2.7271-2.9083,6.9444,6.9444,0,0,1-.5917-2.1227,9.6168,9.6168,0,0,1,.0521-2.7739,8.3539,8.3539,0,0,1,1.3113-3.3782,9.2982,9.2982,0,0,1,2.38-2.4292,7.9153,7.9153,0,0,1,3.6914-1.3935,8.4379,8.4379,0,0,1,3.1933.21,6.6654,6.6654,0,0,1,2.3467,1.1151,6.4909,6.4909,0,0,1,1.5394,1.62,7.9934,7.9934,0,0,1,.9274,1.8524,8.15,8.15,0,0,1,.4134,3.1377c-.0228.3232-.062.6453-.098.9674-.0119.1062-.0448.1323-.1532.137-.1.0043-.2013.0018-.3019.0018q-5.6033,0-11.2066.0016c-.1425,0-.3227-.0631-.4188.04-.11.1185-.01.2973.0054.4474a3.2733,3.2733,0,0,0,.3834,1.2409,3.1554,3.1554,0,0,0,1.8445,1.5168,4.9933,4.9933,0,0,0,2.1561.1748A5.4959,5.4959,0,0,0,35.565,19.833a.2139.2139,0,0,1,.27-.0158q.967.5011,1.9359.9985.4318.2223.864.4438C38.734,21.31,38.8319,21.3635,38.9666,21.4348Zm-6.2991-6.5H36.221c.0894,0,.1789.0016.2682-.0016.1109-.004.1387-.0423.1044-.1488a4.3736,4.3736,0,0,0-.58-1.165,3.4664,3.4664,0,0,0-2.0911-1.4092,4.4453,4.4453,0,0,0-2.157.0155,4.3735,4.3735,0,0,0-1.8668,1.0115,4.6215,4.6215,0,0,0-.9521,1.2457c-.0591.1074-.11.22-.161.3312-.03.066-.0047.1146.06.1174.0892.0038.1787.0032.268.0032Q30.8908,14.9354,32.6675,14.9353Z"/><path class="cls-2" d="M46.94,10.4561a.7277.7277,0,0,0,.2783-.1957A6.8843,6.8843,0,0,1,50.29,8.6914a4.8017,4.8017,0,0,1,3.0835.3038,4.1275,4.1275,0,0,1,2.4339,3.3412,8.55,8.55,0,0,1-.0441,2.0407c-.1041,1.0683-.2868,2.1269-.4141,3.1921-.1871,1.5651-.4319,3.122-.6313,4.6852-.0764.5986-.1676,1.1954-.2536,1.7928-.0176.1221-.0335.1356-.1422.1419-.0557.0032-.1118.0018-.1677.0018q-1.56,0-3.12,0a1.8754,1.8754,0,0,1-.2011-.0045.0926.0926,0,0,1-.0873-.1161c.0113-.1.0189-.2005.0326-.3q.3322-2.4082.6661-4.8162c.1232-.8856.2612-1.7694.3717-2.6566.0857-.6875.1418-1.3788.2056-2.0689a2.8985,2.8985,0,0,0-.0436-.8016,1.5651,1.5651,0,0,0-1.1022-1.2752,2.6252,2.6252,0,0,0-1.5529-.0376,3.4123,3.4123,0,0,0-1.06.4877,3.81,3.81,0,0,0-.97.8688,5.131,5.131,0,0,0-.76,1.448,11.9825,11.9825,0,0,0-.3961,1.5925c-.1218.7047-.2307,1.4118-.3326,2.12-.1353.94-.26,1.8823-.3863,2.8239-.1.7422-.1965,1.4848-.2952,2.2272-.0177.133-.04.2653-.057.3984a.1063.1063,0,0,1-.1051.1061c-.0557.0041-.1117.0045-.1676.0045q-1.5937,0-3.1874,0c-.0336,0-.0672.0009-.1006-.0007-.1189-.0056-.1432-.0263-.14-.1335a2.87,2.87,0,0,1,.0217-.3009q.329-2.3918.661-4.7831c.1463-1.0517.3093-2.1013.4389-3.155.0887-.7211.1866-1.4408.2851-2.16.1-.7309.1979-1.462.2985-2.1928q.1555-1.1294.3146-2.2583c.0062-.0443.0115-.0887.0193-.1326a.0963.0963,0,0,1,.088-.0859c.0664-.0066.1336-.0077.2-.0077q1.577-.0006,3.1539,0c.0559,0,.1119-.0016.1677.0015.0939.0052.1216.035.1124.121-.0059.0555-.0177.11-.0252.1657C47.0488,9.6547,46.9964,10.0417,46.94,10.4561Z"/><path class="cls-3" d="M55.6109,30.891a13.1411,13.1411,0,0,1,1.9781.025c-.0271.2194-.0552.44-.08.661a.07.07,0,0,0,.0256.0573.067.067,0,0,0,.089-.005,3.4469,3.4469,0,0,1,1.174-.76,2.9,2.9,0,0,1,2.0668-.0461,2.2021,2.2021,0,0,1,1.4524,1.63,4.98,4.98,0,0,1,.1736,1.2257c0,.043.0085.0859.0127.126.1033.0282.15-.0512.21-.0925a3.654,3.654,0,0,1,1.7708-.6567,2.3619,2.3619,0,0,1,2.2469.9958,1.8442,1.8442,0,0,1,.2853.6014,3.51,3.51,0,0,1,.1062,1.3294c-.06.5892-.1321,1.1772-.21,1.7643-.12.8974-.2485,1.7936-.3742,2.69q-.0605.4317-.1254.8627c-.02.1321-.0323.1446-.174.1452-.5592.0023-1.1184.0009-1.6777.0008l-.0335-.0012c-.1023-.0079-.1292-.0423-.1132-.1552.0738-.52.1635-1.0385.2193-1.56.0606-.5671.1456-1.13.2207-1.6954.0589-.4432.1164-.8867.1751-1.33a3.6239,3.6239,0,0,0,.0321-.8031.983.983,0,0,0-.4066-.7736,1.0429,1.0429,0,0,0-.4671-.1707,1.81,1.81,0,0,0-1.2908.3676,2.3314,2.3314,0,0,0-.8643,1.2447,8.5571,8.5571,0,0,0-.3237,1.54c-.1419,1.0185-.2766,2.038-.4219,3.056-.0436.3052-.02.2818-.3311.282-.5145,0-1.029.001-1.5435-.0011-.1342-.0005-.1559-.0248-.1382-.16q.0873-.665.1814-1.3291c.101-.7195.2057-1.4384.3052-2.1581q.22-1.5944.4345-3.19c.0354-.2658.0545-.5338.078-.8011a1.5473,1.5473,0,0,0-.0482-.4991.9932.9932,0,0,0-.8413-.7614,1.4559,1.4559,0,0,0-.7588.08,2.1441,2.1441,0,0,0-1.1036.8837,3.579,3.579,0,0,0-.4384,1.1529c-.0775.3945-.1423.7919-.198,1.19-.1131.8081-.2189,1.6173-.3227,2.4267-.08.6208-.1506,1.2426-.2275,1.8637q-.07.5658-.1469,1.1307c-.02.1459-.044.17-.1928.17q-.8556.0033-1.7112,0c-.1287,0-.1483-.0271-.13-.1666q.1727-1.2961.3486-2.5918.1406-1.03.2868-2.0592c.1275-.9076.2584-1.8147.3833-2.7227.0776-.5645.1458-1.13.22-1.6954.05-.3768.102-.7533.1538-1.13A.3629.3629,0,0,1,55.6109,30.891Z"/><path class="cls-4" d="M52.3767,35.199H48.5291c-.0783,0-.1566-.0018-.2348.001-.146.0054-.1756.0287-.196.17-.051.354-.0978.7085-.1475,1.0626q-.2586,1.8426-.518,3.6851c-.0528.3763-.1035.7528-.1558,1.1291-.0267.1924-.0273.1947-.2322.1974-.2236.0029-.4473.0007-.6709.0007H44.9649c-.0783,0-.1567.0021-.2348-.0011-.1135-.0047-.1438-.036-.1309-.14.0191-.1553.0435-.31.0647-.4649q.3257-2.3915.6511-4.7831.2827-2.0762.5656-4.1523.2337-1.7276.4632-3.4559c.0446-.3323.0917-.6642.1374-.9963.0311-.2258.0838-.1963.2384-.1966h.0671q3.17,0,6.34,0a1.4889,1.4889,0,0,1,.2007.0072.0672.0672,0,0,1,.06.0685c-.0035.0779-.0036.1563-.0136.2334q-.1338,1.0306-.2713,2.0607c-.0182.1363-.0384.1541-.1669.1588-.0893.0032-.1789.0012-.2683.0012H49.2795c-.0671,0-.1342-.0009-.2013,0-.2106.0036-.2142.0056-.247.2252-.04.2653-.0758.531-.1146.7964q-.1141.7795-.2291,1.5588c-.01.0663-.0166.1332-.0221.2-.01.1185.0111.1463.118.15.0893.0035.1789.0018.2683.0018q1.778,0,3.5559,0c.3059,0,.3126-.0254.2612.3139-.09.5965-.1559,1.1968-.2331,1.7953C52.4215,34.9369,52.4012,35.046,52.3767,35.199Z"/><path class="cls-3" d="M31.8156,30.8976c.05.1063.1556.1366.2295.2029.133.1192.2758.2279.4052.3507a1.7268,1.7268,0,0,1,.496,1.6889A2.4412,2.4412,0,0,1,31.77,34.78a3.2145,3.2145,0,0,1-1.4941.4473,6.2875,6.2875,0,0,1-1.4714-.0394,2.3616,2.3616,0,0,1-.8739-.32,1.5,1.5,0,0,1-.7405-1.21,2.1726,2.1726,0,0,1,.8461-1.9444,5.0923,5.0923,0,0,1,1.0026-.6673c.0459-.0225.1069-.0326.1367-.1157a3.1055,3.1055,0,0,0-.3481-.2835,1.6684,1.6684,0,0,1-.5947-1.3321,2.2231,2.2231,0,0,1,.373-1.2352A2.4721,2.4721,0,0,1,30.07,27.0313a4.5888,4.5888,0,0,1,1.8266-.1276,3.0648,3.0648,0,0,1,.7122.1812,1.485,1.485,0,0,1,.958,1.5056,2.2365,2.2365,0,0,1-.5582,1.4056,2.4622,2.4622,0,0,1-.66.5628C32.1658,30.6637,31.9925,30.7843,31.8156,30.8976Zm-1.9292,3.121v.0048a3.2408,3.2408,0,0,0,.3344-.0018,1.2119,1.2119,0,0,0,.86-.4614,1.0988,1.0988,0,0,0-.0717-1.4617,2.2989,2.2989,0,0,0-.4414-.3562.36.36,0,0,0-.3758-.0322,3.6023,3.6023,0,0,0-.97.6453,1.4026,1.4026,0,0,0-.3082.4342,1.1428,1.1428,0,0,0-.1012.42.7212.7212,0,0,0,.6737.8059A2.4346,2.4346,0,0,0,29.8864,34.0186Zm-.0692-4.7631a.8076.8076,0,0,0,.2813.6363,1.8685,1.8685,0,0,0,.2341.1884c.324.2139.25.2269.5856.0316.1347-.0784.2664-.163.3937-.2529a1.8362,1.8362,0,0,0,.4814-.5064,1.0638,1.0638,0,0,0,.176-.5671.6039.6039,0,0,0-.4906-.6618,1.5381,1.5381,0,0,0-.8588.0167A1.074,1.074,0,0,0,29.8172,29.2555Z"/><path class="cls-3" d="M26.9725,29.33a9.0243,9.0243,0,0,1-.7782,3.4444A4.0529,4.0529,0,0,1,23.89,35.0363a2.9587,2.9587,0,0,1-.5814.15,5.31,5.31,0,0,1-1.7346-.0128,2.7132,2.7132,0,0,1-.6385-.1959.2724.2724,0,0,1-.1856-.2543,1.8707,1.8707,0,0,1,.1736-.8454c.0745-.1561.1564-.188.3266-.1427.1186.0316.2346.0727.3519.1088a3.1788,3.1788,0,0,0,1.2909.1293,1.9889,1.9889,0,0,0,1.17-.5268,3.1581,3.1581,0,0,0,.8815-1.5881c.0169-.0654-.0312-.11-.091-.0859-.0726.0287-.1428.0637-.2152.0931a3.4268,3.4268,0,0,1-1.809.2116,1.963,1.963,0,0,1-.9144-.3913,1.4314,1.4314,0,0,1-.484-.8565,2.7288,2.7288,0,0,1-.0012-1.0986,3.6046,3.6046,0,0,1,.652-1.63,2.9333,2.9333,0,0,1,1.9557-1.1791,3.7515,3.7515,0,0,1,1.6281.065,1.6421,1.6421,0,0,1,1.1022.9952,2.11,2.11,0,0,1,.1713.6792C26.9553,28.8832,26.9617,29.1066,26.9725,29.33Zm-1.6035-.11a1.8644,1.8644,0,0,0-.1032-.6409.6109.6109,0,0,0-.3581-.3773,1.2894,1.2894,0,0,0-.595-.0616,1.2338,1.2338,0,0,0-.8886.5968,2.5267,2.5267,0,0,0-.3948,1.059,1.4682,1.4682,0,0,0-.0106.4669.6525.6525,0,0,0,.51.5565,1.4617,1.4617,0,0,0,.5656.0335,2.873,2.873,0,0,0,1.0118-.3366.2353.2353,0,0,0,.1333-.18A9.4884,9.4884,0,0,0,25.369,29.22Z"/><path class="cls-3" d="M40.0427,28.4357c-.492,0-.984.0024-1.4759-.001-.2616-.0018-.31-.0527-.3033-.3193a2.28,2.28,0,0,1,.2116-.9076.3026.3026,0,0,1,.2861-.1943c.0671-.0017.1341-.0019.2012-.0019q2.1971,0,4.3942.001a2.9983,2.9983,0,0,1,.3332.0246.1608.1608,0,0,1,.1333.1336.7173.7173,0,0,1,.0054.3,3.2807,3.2807,0,0,1-.4819,1.379c-.6387.9837-1.2646,1.9758-1.89,2.9681-.4465.7086-.8825,1.4239-1.3256,2.1346-.1714.2749-.3615.5389-.5211.82a.7184.7184,0,0,1-.6286.3791c-.2564.0145-.514.0119-.771.01a2.2477,2.2477,0,0,1-.3329-.0319.7714.7714,0,0,1-.19-.0617.1486.1486,0,0,1-.0738-.1984.8629.8629,0,0,1,.077-.1481q.5826-.9,1.1671-1.7993c.4553-.703.9075-1.408,1.3649-2.11.3172-.4867.6428-.968.961-1.4542.1772-.2708.3473-.5462.5192-.82a.0636.0636,0,0,0-.0506-.0953q-.1169-.0064-.2342-.0064Q40.73,28.4352,40.0427,28.4357Z"/><path class="cls-5" d="M52.8127,49.6728c-.0738.048-.08.1283-.1008.2017q-.4294,1.4979-.86,2.9956c-.0386.1346-.04.1358-.1821.1418-.3527.0147-.35.0152-.2564-.3121q.4772-1.6754.95-3.3519.1508-.5318.3043-1.0629c.0122-.0424.0324-.0931.08-.0911.0461.0019.0689.0513.0846.094q.0635.173.1258.3464.5924,1.6383,1.1854,3.2763a.6138.6138,0,0,0,.049.0878c.09.0043.0987-.0767.1287-.1248q.7354-1.1807,1.4652-2.3649c.258-.4183.5394-.8222.7715-1.2565a.1145.1145,0,0,1,.0743-.057c.0637-.0046.0552.0528.0577.0929.0036.0557.0016.1118.0019.1677q.01,2.1137.0205,4.2273c0,.067,0,.1342-.0029.2011a.1048.1048,0,0,1-.1045.1079,2.15,2.15,0,0,1-.2345,0,.1006.1006,0,0,1-.1041-.1059c-.0037-.0894-.0029-.1789-.0031-.2684q-.0035-1.2414-.0069-2.4828c0-.0894-.0013-.179-.0078-.2681-.0011-.0152-.03-.03-.0488-.0412-.0048-.0028-.0211.0077-.028.0157a.8517.8517,0,0,0-.0834.1025c-.2718.436-.54.8744-.8137,1.3091-.3454.5484-.695,1.0941-1.0434,1.6406a.3808.3808,0,0,1-.0632.0775.0693.0693,0,0,1-.1133-.0111.7361.7361,0,0,1-.0709-.1506q-.508-1.3838-1.0156-2.7677A1.3523,1.3523,0,0,0,52.8127,49.6728Z"/><path class="cls-5" d="M2.8532,51.2518c-.0277-.5339-.0694-.44.42-.4466.5369-.0076,1.0739-.0051,1.6108-.0046a.5847.5847,0,0,1,.2626.021,1.2474,1.2474,0,0,1-.0471.5836A2.5331,2.5331,0,0,1,2.6616,53.3a2.66,2.66,0,0,1-1.6431-.4774A2.1876,2.1876,0,0,1,.1472,51.438a2.6587,2.6587,0,0,1,.2612-1.7563,2.7477,2.7477,0,0,1,3.3533-1.2992,2.5865,2.5865,0,0,1,.9017.5685,1.6877,1.6877,0,0,1,.39.4322l-.3478.26c-.1226-.04-.1711-.1491-.2492-.2243A2.3487,2.3487,0,0,0,3.0124,48.71a2.1507,2.1507,0,0,0-1.37.3469,2.21,2.21,0,0,0-.967,1.2412,1.9,1.9,0,0,0,.9,2.2991,1.9845,1.9845,0,0,0,1.3351.198,2.4825,2.4825,0,0,0,.5168-.14,1.9359,1.9359,0,0,0,1.1341-1.248c.0254-.0739-.0147-.12-.1063-.12-.2461-.0016-.4922,0-.7383.0005-.2237.0005-.4474.0019-.6712.0021A.264.264,0,0,1,2.8532,51.2518Z"/><path class="cls-6" d="M80.1751,48.0022a2.0239,2.0239,0,0,1,.449-.0349.686.686,0,0,1-.0015.3409c-.0645.51-.1335,1.0193-.2022,1.5287q-.19,1.4118-.3823,2.8235c-.006.0443-.011.0888-.0156.1332a.1048.1048,0,0,1-.1034.1083c-.11.0048-.2393.0493-.3247-.0245-.0806-.07-.0138-.1874-.0062-.2841a.351.351,0,0,0,.0022-.0659.048.048,0,0,0-.0691-.043c-.0574.033-.1057.0813-.1607.1191a1.9334,1.9334,0,0,1-1.5165.3756,1.57,1.57,0,0,1-1.2954-1.359,2.1233,2.1233,0,0,1,1.5875-2.3267,1.9219,1.9219,0,0,1,.7664-.0163,1.4054,1.4054,0,0,1,.8068.4462c.0583.0632.0869.1548.1916.1989a3.4339,3.4339,0,0,0,.0994-.6247c.0409-.2194.0612-.4426.0906-.6642C80.1191,48.4237,80.147,48.2139,80.1751,48.0022Zm-.3516,2.9324c0-.011-.002-.0668,0-.1224a1.1258,1.1258,0,0,0-.7866-1.0529,1.4605,1.4605,0,0,0-1.4434.2836,1.5823,1.5823,0,0,0-.58,1.49,1.1359,1.1359,0,0,0,.8172,1.0013,1.502,1.502,0,0,0,.9213-.0209A1.5979,1.5979,0,0,0,79.8235,50.9346Z"/><path class="cls-7" d="M14.7951,51.4578a1.1675,1.1675,0,0,0,.1.6543,1.1292,1.1292,0,0,0,1.2012.6754,1.3828,1.3828,0,0,0,1.0422-.4646.7009.7009,0,0,1,.0734-.0681.1651.1651,0,0,1,.0291-.0166c.44.27.3754.2828.0246.5581a2.01,2.01,0,0,1-1.5461.4129,1.4988,1.4988,0,0,1-1.3333-1.1926,2.0673,2.0673,0,0,1,.8539-2.201,2.045,2.045,0,0,1,1.2359-.354,1.5662,1.5662,0,0,1,1.4754,1.3214,1.8,1.8,0,0,1,.0078.5681.0908.0908,0,0,1-.0855.0863c-.0892.0055-.1786.0081-.268.0085q-1.2585.0066-2.5169.0119C15,51.4582,14.9119,51.4578,14.7951,51.4578Zm1.3963-.4212V51.03c.3344,0,.6688-.0016,1.0032,0,.3844.0023.3593.0048.2575-.38a.8631.8631,0,0,0-.2231-.3675,1.136,1.136,0,0,0-1-.3567,1.5076,1.5076,0,0,0-1.3234.9761c-.0337.0817-.0038.1334.0815.1339C15.3889,51.038,15.79,51.0366,16.1914,51.0366Z"/><path class="cls-6" d="M101.3858,49.2738c.0582-.0049.113-.0133.1678-.0136.2867-.0013.3064-.0267.2624.2877-.1317.9406-.2518,1.8829-.377,2.8245-.0147.1108-.0311.2214-.0507.3314-.021.1177-.03.1275-.151.1284-.3409.0024-.3607.0449-.2994-.3091a.3475.3475,0,0,0-.0078-.0921c-.0566-.0235-.0856.0106-.12.0382a1.8825,1.8825,0,0,1-1.6582.4218,1.4889,1.4889,0,0,1-1.1953-1.1763A2.1,2.1,0,0,1,99.47,49.2291a2.1444,2.1444,0,0,1,.8656-.0151,1.24,1.24,0,0,1,.69.3886c.0613.0647.1159.1357.1767.2009a.0645.0645,0,0,0,.0559.0134.0677.0677,0,0,0,.0394-.0438A2.28,2.28,0,0,1,101.3858,49.2738Zm-.1987,1.6346a1.2845,1.2845,0,0,0-.101-.59,1.1757,1.1757,0,0,0-1.0557-.7061,1.601,1.601,0,0,0-1.6412,1.8956,1.1168,1.1168,0,0,0,.6355.8862,1.5491,1.5491,0,0,0,1.701-.3317A1.6634,1.6634,0,0,0,101.187,50.9084Z"/><path class="cls-6" d="M48.5507,53.02c-.14,0-.24.0026-.34-.0008-.085-.0029-.1091-.037-.0986-.1322.01-.0879.0223-.1755.0331-.26-.0722-.0516-.1077.0005-.1486.0277-.0837.0557-.1659.1135-.25.168a1.7761,1.7761,0,0,1-1.4146.2487,1.5011,1.5011,0,0,1-1.1959-1.1813,1.9362,1.9362,0,0,1,.4432-1.7829,1.9682,1.9682,0,0,1,1.3105-.7361,1.4719,1.4719,0,0,1,1.4736.59c.0184.0261.0388.0513.08.0382.0435-.014.0359-.0514.04-.0813.0215-.143.0406-.2864.06-.4258a.819.819,0,0,1,.4823-.0152C48.8737,50.65,48.72,51.8215,48.5507,53.02Zm-.18-1.8713a1.4189,1.4189,0,0,0-.1066-.7,1.1359,1.1359,0,0,0-.6688-.5762,1.4917,1.4917,0,0,0-1.6386.4638,1.5967,1.5967,0,0,0-.2833,1.6881,1.1056,1.1056,0,0,0,.7755.6358,1.8681,1.8681,0,0,0,.4.0247,1.4516,1.4516,0,0,0,1.2975-.7515A1.4686,1.4686,0,0,0,48.3708,51.1492Z"/><path class="cls-6" d="M41.96,53.0164a1.0791,1.0791,0,0,1-.43.0077c-.0733-.1363.04-.27-.0251-.4a.6483.6483,0,0,0-.25.1572,1.874,1.874,0,0,1-.9621.356,1.6085,1.6085,0,0,1-1.7985-1.5314,2.1194,2.1194,0,0,1,1.6433-2.1913,1.9851,1.9851,0,0,1,.7668-.0018,1.2764,1.2764,0,0,1,.6953.3781c.062.0641.117.1348.1769.201.0208.023.0454.0517.0806.0266a.0867.0867,0,0,0,.0341-.0511c.0176-.1215.0277-.2442.0478-.3653.02-.1189.0386-.1339.1477-.1377.0781-.0028.1565-.0029.2346.0007.0852.0039.1177.0422.1062.1309-.0473.3655-.0972.7306-.1461,1.0958q-.1221.9131-.2445,1.8262C42.0145,52.6836,41.9862,52.8478,41.96,53.0164Zm-1.8389-.32a1.3976,1.3976,0,0,0,1.1681-.404,1.7231,1.7231,0,0,0,.4684-1.5116,1.05,1.05,0,0,0-.2132-.485,1.22,1.22,0,0,0-1.2524-.4579A1.5888,1.5888,0,0,0,38.99,51.7723a1.1065,1.1065,0,0,0,.71.8624A1.3148,1.3148,0,0,0,40.1212,52.6965Z"/><path class="cls-6" d="M24.1607,53.078a.84.84,0,0,1-.43-.002c-.0042-.02-.0056-.0315-.0089-.0421-.0355-.1144.0823-.2336-.011-.346-.1231.0075-.1877.1116-.2778.172a1.8506,1.8506,0,0,1-1.5311.29,1.5857,1.5857,0,0,1-1.2046-1.4772,2.0281,2.0281,0,0,1,.6287-1.6315,1.9221,1.9221,0,0,1,1.6077-.5879,1.2992,1.2992,0,0,1,.9747.5153c.02.0268.0436.051.0626.0785a.0694.0694,0,0,0,.0832.031.0731.0731,0,0,0,.0364-.0517c.0164-.1216.0262-.2441.0431-.3656.0151-.1082.0389-.1276.1545-.1324.078-.0032.1564-.0036.2344,0,.0864.0036.1129.037.1007.1308q-.1281.9794-.2587,1.9585-.0863.6471-.1759,1.2937C24.1817,52.9656,24.1708,53.0194,24.1607,53.078Zm-1.758-.3129A1.4542,1.4542,0,0,0,23.64,52.19a1.7155,1.7155,0,0,0,.3214-1.33,1.0882,1.0882,0,0,0-.7511-.9032,1.3983,1.3983,0,0,0-.7261-.0583A1.61,1.61,0,0,0,21.1825,51.78a1.1032,1.1032,0,0,0,1.0672.9774C22.3054,52.761,22.3612,52.7631,22.4027,52.7651Z"/><path class="cls-6" d="M92.8421,52.2354a1.41,1.41,0,0,1-.5262.4641,2.1926,2.1926,0,0,1-1.593.194,1.3272,1.3272,0,0,1-.7809-.5429,1.7892,1.7892,0,0,1-.2237-1.7542A2.0409,2.0409,0,0,1,91.3269,49.23,1.5806,1.5806,0,0,1,93.25,50.8028c0,.0894-.0033.1789-.01.2681a.1076.1076,0,0,1-.1044.11c-.0891.0061-.1786.0077-.2679.0081q-1.2417.0046-2.4833.0081c-.0783,0-.1567-.0008-.2348.004a.0817.0817,0,0,0-.0868.0814A1.1764,1.1764,0,0,0,91.15,52.541a1.5269,1.5269,0,0,0,1.2025-.4068c.0412-.0374.0766-.0813.1177-.1189a.0827.0827,0,0,1,.1188-.0094C92.6726,52.0787,92.7533,52.1545,92.8421,52.2354Zm-1.3832-1.4532v-.0067q.4848,0,.97,0c.078,0,.1561.0014.234-.0023.1049-.005.131-.041.1169-.1518a1.0784,1.0784,0,0,0-1.0015-.9569,1.5458,1.5458,0,0,0-.3335.005,1.5036,1.5036,0,0,0-1.2673,1.0014.0791.0791,0,0,0,.0784.1107C90.6565,50.7829,91.0577,50.7823,91.4589,50.7823Z"/><path class="cls-5" d="M9.4641,51.471c-1.0253.01-2.062.0042-3.11.0126a1.327,1.327,0,0,0,.1269.7319,1.0478,1.0478,0,0,0,.8791.589,1.501,1.501,0,0,0,1.3427-.4538c.0886-.0963.1011-.0942.19-.0281.2706.2.2682.2108.0147.4311a2.0315,2.0315,0,0,1-1.8179.4505,1.4893,1.4893,0,0,1-1.1551-1.1774,1.8853,1.8853,0,0,1,.2728-1.57,2.0065,2.0065,0,0,1,1.6039-.9626,1.5955,1.5955,0,0,1,1.6959,1.8995A.3412.3412,0,0,1,9.4641,51.471Zm-1.72-.4011v-.0048q.4842,0,.9684,0c.0779,0,.1559.0013.2337-.0024.1079-.0052.1346-.0412.118-.1484a1.1141,1.1141,0,0,0-1.1-.9724,1.5673,1.5673,0,0,0-.8306.21,1.444,1.444,0,0,0-.6812.7912c-.0288.0815.0007.1259.09.1262C6.9424,51.0708,7.3432,51.07,7.7439,51.07Z"/><path class="cls-6" d="M68.79,49.3831c-.655.5951-1.3605,1.0419-1.9945,1.5935a10.5211,10.5211,0,0,0,.8827.9787c.2811.3149.5705.6224.8615.9388a1.1865,1.1865,0,0,1-.5227.0489.3914.3914,0,0,1-.1311-.0966c-.2992-.3164-.5954-.6357-.8939-.9529-.1979-.21-.3981-.4187-.59-.62-.1134.0166-.0991.0984-.1069.1566-.0546.41-.1043.82-.1558,1.23-.0083.0664-.0158.1331-.0271.199-.008.0466-.0334.0874-.0838.09-.1.0053-.2.0053-.3.0023a.066.066,0,0,1-.0619-.0646.6957.6957,0,0,1,.005-.1335q.1888-1.4616.3791-2.9231.1081-.8306.218-1.6609c.018-.1355.038-.153.1648-.1589.0557-.0026.1118-.0024.1676,0,.1105.0045.1423.0372.13.1416-.0217.1886-.0462.3769-.0713.5651q-.113.8468-.2272,1.6934a.5682.5682,0,0,0-.0065.0666c-.0007.0445.0009.0863.0513.11a.0815.0815,0,0,0,.091-.0164c.1525-.1126.3049-.2256.4547-.3417.3178-.2464.6355-.493.95-.7434a.4322.4322,0,0,1,.3053-.109C68.4317,49.3847,68.5853,49.3812,68.79,49.3831Z"/><path class="cls-6" d="M84.7906,50.9645a2.15,2.15,0,0,1-.4275,1.2783,1.8494,1.8494,0,0,1-1.1752.7092,1.797,1.797,0,0,1-.991-.0441A1.5294,1.5294,0,0,1,81.12,51.5823a2.0768,2.0768,0,0,1,1.5327-2.29,1.8639,1.8639,0,0,1,.96.0014A1.6225,1.6225,0,0,1,84.79,50.7972C84.7952,50.8525,84.7906,50.9087,84.7906,50.9645Zm-1.9564,1.6a1.38,1.38,0,0,0,.5792-.1177,1.64,1.64,0,0,0,.933-1.6022,1.2154,1.2154,0,0,0-1.4521-1.1475,1.6,1.6,0,0,0-1.327,1.64A1.2125,1.2125,0,0,0,82.8342,52.5647Z"/><path class="cls-6" d="M33.1124,51.82a1.0214,1.0214,0,0,0-.2439-.6787,4.8018,4.8018,0,0,0-.386-.4178c-.1338-.1347-.2806-.2565-.4129-.3926a1.4433,1.4433,0,0,1-.442-1.2482,1.1046,1.1046,0,0,1,1.6764-.8053,1.3572,1.3572,0,0,1,.5844.79.0777.0777,0,0,1-.0618.1,1.2015,1.2015,0,0,1-.1643.03c-.1945.0335-.1937.033-.3028-.1465a.86.86,0,0,0-.4288-.405.5968.5968,0,0,0-.823.4831.9987.9987,0,0,0,.1945.7264,2.3266,2.3266,0,0,0,.4625.4822,2.6063,2.6063,0,0,1,.6466.7617,1.3311,1.3311,0,0,1,.0273,1.3735,1.38,1.38,0,0,1-1.5044.6916,1.3251,1.3251,0,0,1-.8216-.6407,1.6967,1.6967,0,0,1-.1243-.274c-.071-.1886-.0544-.218.1419-.2874.021-.0074.043-.0122.0642-.0192.1723-.0566.1707-.056.2406.109a2.711,2.711,0,0,0,.128.2717.8061.8061,0,0,0,.9214.3716.856.856,0,0,0,.6275-.7414C33.116,51.91,33.1124,51.8649,33.1124,51.82Z"/><path class="cls-6" d="M86.3462,49.3477c.0326.1323-.0459.2651.0092.3988.1232-.0181.18-.1265.2654-.1928a1.4377,1.4377,0,0,1,1.2563-.3028,1.1018,1.1018,0,0,1,.8854.8971,1.4511,1.4511,0,0,1,.0334.499c-.0861.6866-.17,1.3735-.259,2.06-.021.163-.0411.1738-.2206.177-.0557.001-.1117.0013-.1673-.0026a.0753.0753,0,0,1-.08-.085q.018-.2.0435-.399c.07-.5537.1429-1.107.2106-1.6609a1.27,1.27,0,0,0-.0213-.4985.75.75,0,0,0-.7211-.5886,1.317,1.317,0,0,0-1.3032.909,5.6322,5.6322,0,0,0-.2061,1.0834c-.049.3651-.0939.7306-.1426,1.0957-.0176.1317-.0377.151-.17.1522-.2926.0027-.3067.0257-.2638-.2851.0872-.63.1586-1.2625.2392-1.8936q.0784-.6145.1651-1.2278c.0231-.1618.0292-.1647.1891-.1643C86.1749,49.3188,86.267,49.2892,86.3462,49.3477Z"/><path class="cls-7" d="M13.5225,50.8042c-.0241.2108-.0467.4218-.0725.6324-.0639.521-.1276,1.0421-.195,1.5627-.0174.1342-.0321.1438-.1731.146-.2761.0043-.32.0275-.2709-.2814.084-.53.1515-1.062.2147-1.5945a3.8739,3.8739,0,0,0,.0249-.6357.7444.7444,0,0,0-.6721-.7167,1.29,1.29,0,0,0-1.3359.7977,4.3193,4.3193,0,0,0-.207.9132c-.0543.3986-.1018.798-.1535,1.197-.01.0775-.0266.1542-.0395.2313a.1032.1032,0,0,1-.1139.0954c-.0782,0-.1566.0032-.2347,0-.0855-.0033-.1155-.04-.1039-.13q.0915-.7148.1863-1.4292c.08-.5979.1636-1.1954.2454-1.7931.0061-.0443.0086-.0891.0163-.1331a.0938.0938,0,0,1,.09-.0828c.0667-.0056.1339-.0087.2008-.0076.1326.0022.15.0217.1456.1582-.0014.0446-.0115.0893-.0094.1336.0015.0312.0075.0764.0279.0895.0417.0266.0809-.0019.1157-.0339a1.652,1.652,0,0,1,.8218-.4257,1.3736,1.3736,0,0,1,.758.0664,1.1082,1.1082,0,0,1,.7149.9716,2.0014,2.0014,0,0,1,.0017.2678Z"/><path class="cls-7" d="M73.2648,49.801c.1181-.0068.1657-.11.2419-.17a1.59,1.59,0,0,1,1.0171-.3718,1.1763,1.1763,0,0,1,1.199,1.1534,2.05,2.05,0,0,1-.0137.4016c-.0792.6436-.1635,1.2866-.2475,1.93-.0227.1741-.0369.1846-.21.1884-.0447.001-.09.0014-.1342-.001-.0883-.0049-.1243-.0412-.1135-.1253.0283-.2217.0646-.4425.0908-.6644.0551-.4662.1086-.9326.1569-1.4a1.2151,1.2151,0,0,0-.055-.5622.7055.7055,0,0,0-.5284-.4646,1.0806,1.0806,0,0,0-.6878.0671,1.34,1.34,0,0,0-.79.8593,6.14,6.14,0,0,0-.1966,1.0533c-.0522.3652-.0947.7318-.1437,1.0975-.0183.1368-.0285.1431-.1716.1482-.0447.0016-.09.0016-.1342,0-.1339-.0038-.1571-.03-.14-.1606q.1994-1.496.4-2.992c.01-.0775.02-.1551.0286-.2329.0217-.1992.0214-.1993.2214-.2014.1881-.002.2635-.0144.2128.2478A1.076,1.076,0,0,0,73.2648,49.801Z"/><path class="cls-7" d="M36.0829,53.155a1.2811,1.2811,0,0,1-1.3138-1.2758c.0009-.0781-.0014-.1565.0035-.2344.0421-.67.1593-1.33.2494-1.9934.0207-.1525.042-.1623.1949-.168.0223-.0008.0447-.0006.067-.0007.2221-.0008.228.0048.1984.2238q-.1258.9291-.254,1.8579a1.2625,1.2625,0,0,0,.0195.5308.7935.7935,0,0,0,.7116.6065.95.95,0,0,0,1.1162-.7725,11.2161,11.2161,0,0,0,.1928-1.2569c.05-.3536.0935-.7082.1418-1.0621.0145-.1062.0407-.1268.1539-.1326.0557-.0028.1117-.0028.1675-.0007.1116.0041.1436.0317.1352.14-.0131.1667-.0327.3332-.0554.4989-.08.5858-.1294,1.1763-.2623,1.7542-.0175.076-.04.1509-.056.2272A1.4048,1.4048,0,0,1,36.0829,53.155Z"/><path class="cls-7" d="M58.0241,51.6333c.042-.3661.0861-.7773.1374-1.1875.036-.2882.0816-.5753.1234-.8628.0228-.1569.0393-.1725.1841-.1786.3154-.0132.3184-.0126.274.31-.073.5314-.1529,1.0618-.224,1.5935a3.0221,3.0221,0,0,0-.0344.5008.8438.8438,0,0,0,.7995.8341.9782.9782,0,0,0,1.0665-.8147c.0638-.2943.099-.5951.1405-.8938.0569-.41.1073-.82.1614-1.23.0088-.0665.025-.132.0329-.1985.01-.0852.0636-.109.1387-.1076.0112,0,.0224,0,.0335,0,.2746,0,.3153-.0286.2663.2853-.0862.552-.1416,1.1087-.2231,1.6614a5.5059,5.5059,0,0,1-.1632.7523,1.3825,1.3825,0,0,1-2.7135-.4638Z"/><path class="cls-6" d="M25.2322,52.2972a4.0635,4.0635,0,0,0,.3353.2774.8627.8627,0,0,0,.7949.12.5888.5888,0,0,0,.2763-.9078,1.143,1.143,0,0,0-.2734-.2447,6.4013,6.4013,0,0,1-.7206-.5463.8168.8168,0,0,1-.2541-.7924.9066.9066,0,0,1,.4067-.5921,1.1306,1.1306,0,0,1,1.5061.2446.1142.1142,0,0,1,.0051.1522c-.0666.0871-.1028.1989-.2352.2755a2.5749,2.5749,0,0,0-.1671-.2.7455.7455,0,0,0-.35-.19.5767.5767,0,0,0-.5843.1616.4134.4134,0,0,0-.0184.6012,2.6038,2.6038,0,0,0,.4429.3569c.1638.1162.3268.235.48.365a.9666.9666,0,0,1,.2887,1.0968.9829.9829,0,0,1-.8325.6883,1.3229,1.3229,0,0,1-1.2687-.4444c-.0778-.0845-.0822-.12-.0184-.2035C25.0988,52.4456,25.16,52.3809,25.2322,52.2972Z"/><path class="cls-7" d="M61.7434,52.1864c.0873.0759.1751.1594.27.2334a.873.873,0,0,0,.6535.2066.6482.6482,0,0,0,.552-.43.5668.5668,0,0,0-.1865-.6341c-.129-.1064-.2737-.1936-.4072-.2949-.1512-.1147-.3011-.2316-.4458-.3544a.9006.9006,0,0,1,.3418-1.5524,1.1139,1.1139,0,0,1,1.24.3523.1384.1384,0,0,1,.0114.1825c-.0369.0559-.0742.1118-.1136.1659-.0633.0869-.0859.0888-.17-.0075a.8653.8653,0,0,0-.4769-.2925.5961.5961,0,0,0-.5067.1129.4367.4367,0,0,0-.0594.6742,2.5094,2.5094,0,0,0,.3683.2886,5.1158,5.1158,0,0,1,.5373.4,1.0735,1.0735,0,0,1,.2705,1.17.9326.9326,0,0,1-.608.5821,1.2921,1.2921,0,0,1-1.0412-.0678,1.6091,1.6091,0,0,1-.45-.3446.1184.1184,0,0,1-.0038-.1786C61.5871,52.3268,61.6318,52.23,61.7434,52.1864Z"/><path class="cls-7" d="M95.7683,50.0189c-.0761-.07-.1536-.15-.24-.2183a.7.7,0,0,0-.5665-.1478.534.534,0,0,0-.3955.2817.3687.3687,0,0,0,.0318.4385,1.215,1.215,0,0,0,.1906.1871c.1322.103.2734.1944.4063.2964a3.897,3.897,0,0,1,.4146.339,1.0134,1.0134,0,0,1,.2122,1.1187.8359.8359,0,0,1-.3265.414,1.3277,1.3277,0,0,1-1.7762-.2756.11.11,0,0,1-.0034-.1488c.0342-.0441.0656-.09.1-.1345.084-.1081.1132-.1145.2078-.0194a1.1488,1.1488,0,0,0,.6622.366.6814.6814,0,0,0,.6813-.3328.5291.5291,0,0,0-.0985-.6738c-.1546-.1443-.3307-.2656-.4976-.3967-.1406-.11-.2864-.2147-.4217-.3313a.8657.8657,0,0,1,.0445-1.3465,1.1308,1.1308,0,0,1,1.5877.1809.11.11,0,0,1,.0221.1239,1.3549,1.3549,0,0,1-.0881.1423C95.8766,49.9346,95.8544,50.0053,95.7683,50.0189Z"/><path class="cls-3" d="M34.6119,35.1914c-.1028-.0061-.2263-.0045-.3469-.0226a.4519.4519,0,0,1-.4216-.4425,1.9224,1.9224,0,0,1,.2137-1.0659.6847.6847,0,0,1,.5261-.37,2.2076,2.2076,0,0,1,.6988-.0067.4787.4787,0,0,1,.4679.51,2.2018,2.2018,0,0,1-.1875.9745.64.64,0,0,1-.5642.4049C34.8771,35.1865,34.754,35.1851,34.6119,35.1914Z"/><path class="cls-6" d="M71.5082,48.1243a1.3044,1.3044,0,0,1,.4557.0049,4.6144,4.6144,0,0,1-.08.7665c-.0723.6329-.1569,1.2643-.24,1.896q-.1306.9972-.2674,1.9936c-.0192.141-.0344.1527-.163.1586-.0558.0026-.1118.002-.1677.0011-.165-.0029-.18-.0154-.1616-.1695.0356-.3.0748-.5989.1145-.898q.2208-1.6616.4434-3.3229C71.4614,48.4118,71.4858,48.27,71.5082,48.1243Z"/><path class="cls-7" d="M19.3615,49.8562c.6839-.446.8632-.4894,1.2919-.3078a.8631.8631,0,0,1-.1349.3244.1054.1054,0,0,1-.1337.0676.7109.7109,0,0,0-.58.08,1.152,1.152,0,0,0-.46.5176,1.6425,1.6425,0,0,0-.1352.4466c-.0864.6075-.1786,1.2142-.264,1.8219-.0466.3314-.0436.3331-.3675.3175-.1076-.0052-.1324-.03-.1179-.1491q.081-.6648.1691-1.3287c.0823-.62.1674-1.2388.2517-1.8581.0075-.0551.0143-.1106.0268-.1646a.1028.1028,0,0,1,.0956-.0794,1.25,1.25,0,0,1,.1337-.0042c.1888-.0012.2409-.0078.21.224A.3479.3479,0,0,0,19.3615,49.8562Z"/><path class="cls-5" d="M44.751,49.85a.6542.6542,0,0,0-.5929.11,1.0894,1.0894,0,0,0-.46.598,5.0642,5.0642,0,0,0-.1792.816q-.1036.7456-.2056,1.4915c-.021.1513-.0354.1633-.1886.1686-.2971.01-.3034.0021-.2643-.2881q.1989-1.4755.3963-2.9513c.0089-.0663.0185-.1327.0321-.1981.025-.1205.0361-.13.15-.1346.0446-.002.0893-.0014.1339-.0008.1367.002.1367.0022.1665.168.0153.0853.07.115.1341.071.0367-.0252.07-.0549.1056-.0822a1.2009,1.2009,0,0,1,.3506-.1918.9506.9506,0,0,1,.6556-.0017c.0382.0144.0789.05.0527.1039-.0435.09-.0885.18-.1358.2684A.1163.1163,0,0,1,44.751,49.85Zm-.9716-.0921-.0194-.0226a.1913.1913,0,0,0-.02.04c-.0013.0052.011.0138.017.0209Z"/><path class="cls-7" d="M96.6407,52.8545c-.0335,0-.0672.0018-.1006,0-.0914-.0059-.1244-.0406-.1168-.1227.0031-.0333.0107-.0661.0151-.0993q.19-1.4284.38-2.8567c.0118-.0886.0246-.1772.0418-.2648.0145-.0737-.0134-.1718.0655-.2128a.5038.5038,0,0,1,.327-.0138.0929.0929,0,0,1,.052.0726c-.0036.1225-.0114.2454-.0268.3669q-.1746,1.38-.353,2.759c-.01.0775-.0229.1548-.0366.2318-.0206.1154-.04.1332-.1466.14C96.7079,52.8563,96.6742,52.8545,96.6407,52.8545Z"/><path class="cls-7" d="M28.2231,49.5309a1.196,1.196,0,0,1,.36-.0054.19.19,0,0,1,.0312.1723q-.1539,1.2613-.31,2.5222-.0472.3817-.0958.7632a.1111.1111,0,0,1-.1089.1043.2986.2986,0,0,1-.0333.0024c-.3367,0-.3464.0391-.2962-.3165.1061-.7506.2-1.5029.3053-2.2536A8.9477,8.9477,0,0,1,28.2231,49.5309Z"/><path class="cls-7" d="M64.2541,52.6938c.0751-.5669.1557-1.1636.2329-1.7607.06-.4642.1167-.9288.1734-1.3935.0156-.1282.0312-.1446.1682-.15.0111,0,.0223,0,.0335,0,.2683-.0035.2665.0027.2332.2521-.1284.9615-.2481,1.9242-.3714,2.8864-.01.0774-.019.1551-.0336.2317-.0337.1775.0067.2033-.2243.203C64.2268,52.9621,64.2268,52.9641,64.2541,52.6938Z"/><path class="cls-7" d="M97.241,48.5493a.3639.3639,0,1,1,.0193-.7274.3638.3638,0,0,1-.0193.7274Z"/><path class="cls-7" d="M65.4121,48.2907a.3643.3643,0,0,1-.3832.3708.3666.3666,0,1,1,.0256-.7326A.36.36,0,0,1,65.4121,48.2907Z"/><path class="cls-7" d="M28.2012,48.4269a.3643.3643,0,0,1,.3342-.3815.3729.3729,0,0,1,.3944.36.3773.3773,0,0,1-.3726.3842A.3681.3681,0,0,1,28.2012,48.4269Z"/><path class="cls-8" d="M81.473,35.2163a16.8351,16.8351,0,0,1-3.7642-.383,16.2756,16.2756,0,0,1-2.0788-.6481,13.6317,13.6317,0,0,1-2.2988-1.1663,15.2272,15.2272,0,0,1-2.6907-2.1546,17.7509,17.7509,0,0,1-1.9744-2.367A19.467,19.467,0,0,1,67.0871,25.85a20.7965,20.7965,0,0,1-1.1233-2.69,1.3438,1.3438,0,0,1-.0529-.6232c.1538-1.13.29-2.2622.4357-3.3933.12-.9315.2439-1.8624.3652-2.7937.0967-.7428.2094-1.484.2833-2.229.0784-.79.2032-1.5743.2867-2.3635a.9557.9557,0,0,1,.1051-.3158c.16-.3327.348-.65.53-.9715A15.4523,15.4523,0,0,1,70,7.64,15.7115,15.7115,0,0,1,72.599,5.3722a14.6312,14.6312,0,0,1,2.7532-1.5237,16.1845,16.1845,0,0,1,4.0636-1.1129,18.26,18.26,0,0,1,3.6161-.1123,13.44,13.44,0,0,1,4.4268,1.0041,14.5444,14.5444,0,0,1,1.9.9918A13.5312,13.5312,0,0,1,91.4077,6.185a16.139,16.139,0,0,1,1.7758,1.9182,19.3458,19.3458,0,0,1,2.39,3.9114c.0282.0608.0488.1256.0809.1842a.8179.8179,0,0,1,.072.5212c-.05.3769-.0921.7547-.1393,1.132-.1012.81-.2058,1.6194-.3048,2.43-.1058.8657-.2061,1.732-.31,2.5979q-.2461,2.0479-.494,4.0956t-.4945,4.0959c-.0456.3774-.0947.7544-.1363,1.1322a1.3625,1.3625,0,0,1-.2409.6493c-.2115.3032-.4446.589-.6682.8824A12.5766,12.5766,0,0,1,91.3,31.46a11.9649,11.9649,0,0,1-1.9793,1.4914c-.2517.1452-.4918.3107-.7461.4509a14.7748,14.7748,0,0,1-4.83,1.6469A20.83,20.83,0,0,1,81.473,35.2163Zm-1.0057-3.2636a4.3035,4.3035,0,0,0,1.35-.2171,3.3043,3.3043,0,0,0,1.4556-.9219,4.4661,4.4661,0,0,0,.98-1.7747,7.1141,7.1141,0,0,0,.2632-2.12c-.001-.3253-.017-.3388-.3177-.2523a29.1086,29.1086,0,0,1-3.04.6737,14.9839,14.9839,0,0,1-3.4711.2364,5.1188,5.1188,0,0,1-2.587-.7086.0651.0651,0,0,0-.0589.011.067.067,0,0,0-.0188.0566.3271.3271,0,0,0,.0451.0886,1.0938,1.0938,0,0,0,.4046.3439,4.1508,4.1508,0,0,1,.7043.4506c.2211.1879.4555.36.6791.5454A28.2164,28.2164,0,0,1,79.27,30.54a3.376,3.376,0,0,1,.4384.5491c.0939.1511.1512.3024.0142.4611a.1856.1856,0,0,0-.0282.06.2142.2142,0,0,0,.113.2807.4756.4756,0,0,0,.2243.0606C80.1769,31.9554,80.3221,31.9527,80.4673,31.9527ZM83.2916,9.0815a.3628.3628,0,0,1,.0107.2291,6.1829,6.1829,0,0,0-.0421,1.2049c.0109.2674.0466.534.0781.8a.13.13,0,0,0,.1595.1314q.5-.0489,1-.105c.0888-.01.1126-.0457.0958-.1374a3.6577,3.6577,0,0,1-.072-.5307,3.6468,3.6468,0,0,1,.3868-1.7166,6.366,6.366,0,0,1,1.2508-1.7712c.1344-.1344.2714-.2662.406-.4.03-.03.0734-.0557.043-.1349a1.2128,1.2128,0,0,0-.1455.0008c-.3552.04-.712.0712-1.0646.1276a10.2176,10.2176,0,0,0-2.1574.6043,6.9165,6.9165,0,0,0-1.1385.5678c-.1067.0672-.1643.0323-.1713-.094a.853.853,0,0,1-.0012-.1006A3.9744,3.9744,0,0,1,82.5466,5.73c.106-.1573.2239-.3067.3372-.4591.0323-.0434.0762-.0808.06-.1554a3.0618,3.0618,0,0,0-.7767.18,6.5384,6.5384,0,0,0-1.8181.99,10.08,10.08,0,0,0-2.18,2.3493,16.0189,16.0189,0,0,0-1.2421,2.2209c-.13.2718-.2442.5517-.3609.83-.0417.0994-.0053.1453.1081.1354.3563-.0312.712-.0685,1.0682-.1012a.2575.2575,0,0,0,.2305-.1615c.1991-.4125.4135-.8176.6113-1.2307A13.2444,13.2444,0,0,1,79.5925,8.628a5.11,5.11,0,0,1,.6961-.8573.9071.9071,0,0,1,.32-.2337.2317.2317,0,0,1-.0061.17,5.5287,5.5287,0,0,0-.1953,1.1884,2.9917,2.9917,0,0,0,.2534,1.4709,2.5374,2.5374,0,0,0,.2119.3407.1076.1076,0,0,0,.1718.031c.0366-.0253.0712-.0539.1053-.0827.3245-.2742.6524-.5446.9719-.8245a8.3166,8.3166,0,0,1,.9557-.6784C83.14,9.1117,83.2042,9.0574,83.2916,9.0815Zm-6.3168,9.3878c0-.0788.0018-.2129,0-.3469-.0076-.49-.0386-.4637-.4828-.3662-.3706.0814-.7381.1766-1.1074.2637a1.9362,1.9362,0,0,1-.2633.0459.0513.0513,0,0,1-.0449-.071,1.4039,1.4039,0,0,1,.1027-.2094c.2553-.4066.5136-.8113.7707-1.2167.09-.1414.1783-.2835.268-.4249a.1209.1209,0,0,0,.0085-.1532,1.4584,1.4584,0,0,0-1.0285-.6223,1.3049,1.3049,0,0,0-1.1908.554,3.2716,3.2716,0,0,0-.5646,1.0949,4.7815,4.7815,0,0,0-.1014,2.2863,3.716,3.716,0,0,0,.6617,1.5233,1.3383,1.3383,0,0,0,1.86.39,1.52,1.52,0,0,0,.4486-.4445,5.0852,5.0852,0,0,0,.3066-.5565A4.272,4.272,0,0,0,76.9748,18.4693Zm4.85,3.2568c.19,0,.2992.0066.4075-.0012.4349-.0313.8693-.07,1.3042-.1008q2.0745-.1471,4.1491-.2916a1.8208,1.8208,0,0,0,.2965-.0479.2741.2741,0,0,0,.2182-.23,2.1437,2.1437,0,0,0,.0261-.6013.3027.3027,0,0,0-.2877-.2786.9173.9173,0,0,0-.1668.0023c-.6807.0431-1.3613.0873-2.042.129-.0366.0022-.0931.0248-.1045-.0572A.4693.4693,0,0,1,85.789,20.1c.2806-.2034.5686-.397.8422-.6092a7.1551,7.1551,0,0,0,.6852-.5381.9849.9849,0,0,0,.26-.3853.6321.6321,0,0,0-.1431-.6539.4132.4132,0,0,0-.5729-.0517q-1.1456.8761-2.2893,1.7548c-.1684.1293-.3338.2626-.5028.391-.2314.1758-.4658.3478-.6976.5231q-.4813.364-.96.7311C82.2336,21.3977,82.0612,21.5383,81.8248,21.7261Z"/><path class="cls-9" d="M96.8665,13.9584c.42.056.8741.1141,1.3278.1787.1366.0195.1532.0486.1366.1752-.12.92-.2426,1.8393-.3609,2.7593-.1226.9534-.2411,1.9073-.3617,2.861q-.2546,2.0126-.51,4.0251-.1809,1.43-.3617,2.8609-.0954.7484-.1969,1.4959c-.0173.1291-.0454.1562-.1723.143-.2556-.0264-.5106-.06-.7656-.0928-.1995-.0256-.3992-.05-.5976-.0828-.1236-.02-.1434-.0529-.1285-.1853.0477-.4221.095-.8443.1476-1.2658.0789-.6322.1624-1.2637.2437-1.8956q.1478-1.1473.2955-2.2946c.0991-.7648.2006-1.5294.299-2.2943q.1177-.9145.23-1.83c.0615-.499.1179-.9986.18-1.4975.0759-.61.1556-1.22.2332-1.8295.0381-.2993.0748-.5989.1133-.8982.0086-.0665.02-.1327.0337-.1983C96.6805,13.96,96.6957,13.9492,96.8665,13.9584Z"/><path class="cls-9" d="M63.0046,24.2155c.07-.56.1361-1.0914.203-1.6223.1076-.8537.2315-1.7051.3175-2.5617.06-.6.1513-1.1974.2286-1.796q.15-1.1637.3006-2.3275c.077-.5986.1522-1.1974.2294-1.796.0786-.61.1612-1.2187.2374-1.8285.0928-.7428.1808-1.4862.2708-2.2293.0027-.0222.0039-.0446.008-.0666.0155-.0834.0535-.1135.1394-.1038.1221.0138.2438.0316.3657.0475.3436.0449.6873.0886,1.0306.1351.1254.017.15.0449.1365.1783-.0251.2446-.0576.4884-.0889.7323q-.1939,1.5131-.3887,3.0261-.26,2.0453-.5174,4.0909-.2482,1.9625-.497,3.9249-.1332,1.0477-.27,2.095c-.0029.0222-.0057.0444-.0093.0664-.0406.2505-.0447.2516-.2992.2175C63.9487,24.3372,63.495,24.2794,63.0046,24.2155Z"/><path class="cls-10" d="M80.4673,31.9527c-.1452,0-.29.0026-.4355-.0011a.4756.4756,0,0,1-.2243-.0606.2142.2142,0,0,1-.113-.2807.1856.1856,0,0,1,.0282-.06c.137-.1586.08-.31-.0142-.4611A3.376,3.376,0,0,0,79.27,30.54a28.2164,28.2164,0,0,0-2.4144-2.1758c-.2236-.1852-.4579-.3575-.6791-.5454a4.1508,4.1508,0,0,0-.7043-.4506,1.0938,1.0938,0,0,1-.4046-.3439.3271.3271,0,0,1-.0451-.0886.067.067,0,0,1,.0188-.0566.0651.0651,0,0,1,.0589-.011,5.1188,5.1188,0,0,0,2.587.7086,14.9839,14.9839,0,0,0,3.4711-.2364,29.1086,29.1086,0,0,0,3.04-.6737c.3007-.0865.3168-.073.3177.2523a7.1141,7.1141,0,0,1-.2632,2.12,4.4661,4.4661,0,0,1-.98,1.7747,3.3043,3.3043,0,0,1-1.4556.9219A4.3035,4.3035,0,0,1,80.4673,31.9527Z"/><path class="cls-11" d="M83.2916,9.0815c-.0875-.0242-.152.03-.2149.0712a8.3166,8.3166,0,0,0-.9557.6784c-.32.28-.6474.55-.9719.8245-.0341.0288-.0686.0574-.1053.0827a.1076.1076,0,0,1-.1718-.031,2.5374,2.5374,0,0,1-.2119-.3407,2.9917,2.9917,0,0,1-.2534-1.4709,5.5287,5.5287,0,0,1,.1953-1.1884.2317.2317,0,0,0,.0061-.17.9071.9071,0,0,0-.32.2337,5.11,5.11,0,0,0-.6961.8573,13.2444,13.2444,0,0,0-1.0084,1.6995c-.1978.4131-.4122.8182-.6113,1.2307a.2575.2575,0,0,1-.2305.1615c-.3562.0326-.7119.07-1.0682.1012-.1134.01-.15-.036-.1081-.1354.1167-.2781.2305-.558.3609-.83a16.0189,16.0189,0,0,1,1.2421-2.2209,10.08,10.08,0,0,1,2.18-2.3493,6.5384,6.5384,0,0,1,1.8181-.99,3.0618,3.0618,0,0,1,.7767-.18c.0159.0746-.028.112-.06.1554-.1133.1524-.2311.3018-.3372.4591A3.9744,3.9744,0,0,0,81.93,7.7569a.853.853,0,0,0,.0012.1006c.007.1263.0646.1612.1713.094a6.9165,6.9165,0,0,1,1.1385-.5678,10.2176,10.2176,0,0,1,2.1574-.6043c.3527-.0564.7095-.0872,1.0646-.1276a1.2128,1.2128,0,0,1,.1455-.0008c.03.0792-.0132.1052-.043.1349-.1346.1342-.2717.2659-.406.4a6.366,6.366,0,0,0-1.2508,1.7712,3.6468,3.6468,0,0,0-.3868,1.7166,3.6577,3.6577,0,0,0,.072.5307c.0168.0917-.007.1274-.0958.1374q-.5.0564-1,.105a.13.13,0,0,1-.1595-.1314c-.0314-.2662-.0672-.5328-.0781-.8a6.1829,6.1829,0,0,1,.0421-1.2049A.3628.3628,0,0,0,83.2916,9.0815Z"/><path class="cls-10" d="M76.9748,18.4693a4.272,4.272,0,0,1-.3573,1.7469,5.0852,5.0852,0,0,1-.3066.5565,1.52,1.52,0,0,1-.4486.4445,1.3383,1.3383,0,0,1-1.86-.39,3.716,3.716,0,0,1-.6617-1.5233,4.7815,4.7815,0,0,1,.1014-2.2863,3.2716,3.2716,0,0,1,.5646-1.0949,1.3049,1.3049,0,0,1,1.1908-.554,1.4584,1.4584,0,0,1,1.0285.6223.1209.1209,0,0,1-.0085.1532c-.09.1414-.1784.2835-.268.4249-.2571.4055-.5153.81-.7707,1.2167a1.4039,1.4039,0,0,0-.1027.2094.0513.0513,0,0,0,.0449.071,1.9362,1.9362,0,0,0,.2633-.0459c.3693-.0871.7368-.1823,1.1074-.2637.4442-.0975.4752-.1243.4828.3662C76.9766,18.2565,76.9748,18.3905,76.9748,18.4693Z"/><path class="cls-11" d="M81.8248,21.7261c.2364-.1878.4088-.3285.585-.4641q.4783-.368.96-.7311c.2318-.1753.4662-.3473.6976-.5231.1691-.1284.3344-.2618.5028-.391q1.1441-.8781,2.2893-1.7548a.4132.4132,0,0,1,.5729.0517.6321.6321,0,0,1,.1431.6539.9849.9849,0,0,1-.26.3853,7.1551,7.1551,0,0,1-.6852.5381c-.2737.2122-.5616.4059-.8422.6092a.4693.4693,0,0,0-.1636.1486c.0114.0821.0679.0595.1045.0572.6808-.0417,1.3614-.0859,2.042-.129a.9173.9173,0,0,1,.1668-.0023.3027.3027,0,0,1,.2877.2786,2.1437,2.1437,0,0,1-.0261.6013.2741.2741,0,0,1-.2182.23,1.8208,1.8208,0,0,1-.2965.0479q-2.0745.1475-4.1491.2916c-.4349.0308-.8693.0695-1.3042.1008C82.124,21.7328,82.0147,21.7261,81.8248,21.7261Z"/></g></g></svg>