<svg xmlns="http://www.w3.org/2000/svg" viewBox="0 0 182.4415 77.2734"><defs><style>.cls-1{fill:#010101;}.cls-2{fill:#050505;}.cls-3{fill:#060606;}.cls-4{fill:#c4e29e;}.cls-5{fill:#9acd56;}.cls-6{fill:#8dc640;}.cls-7{fill:#8ec741;}.cls-8{fill:#8ec742;}.cls-9{fill:#fafafa;}.cls-10{fill:#fefefe;}.cls-11{fill:#fdfefb;}.cls-12{fill:#fdfdfd;}.cls-13{fill:#fcfcfc;}</style></defs><title>Asset 3</title><g id="Layer_2" data-name="Layer 2"><g id="CLIENT"><path class="cls-1" d="M.1491,26.4839c.0846-.7544.1519-1.5111.2573-2.2626a26.6278,26.6278,0,0,1,1.1381-4.9237A11.7079,11.7079,0,0,1,2.07,18.037a5.0635,5.0635,0,0,1,1.2278-1.5939,12.6325,12.6325,0,0,1,1.6178-1.2173,20.327,20.327,0,0,1,3.1359-1.639,9.9758,9.9758,0,0,1,2.7885-.6956c.8226-.09,1.6489-.1192,2.4749-.1614,1.199-.0612,2.3983-.0427,3.5965-.0261,1.2817.0178,2.5627.09,3.8437.1456.7248.0316,1.449.076,2.1732.12.4879.0295.9752.0679,1.4446.101a.3687.3687,0,0,1,.0743.3058q.0017,2.8132.0008,5.6264c0,.0676-.0005.1351-.0025.2027-.0028.0954-.0431.16-.1472.1623q-.228.0047-.456.0045-4.2325,0-8.465.0008c-.98.0006-1.9552.0864-2.9312.1577-.64.0467-1.2769.1087-1.9105.2165a1.6365,1.6365,0,0,0-1.0194.6037,5.8,5.8,0,0,0-.9528,1.775,1.5212,1.5212,0,0,0-.035.501q-.0029,3.1934-.0013,6.3867c0,2.0275-.0051,4.0551.0023,6.0826a14.4688,14.4688,0,0,0,.3294,2.71,1.7578,1.7578,0,0,0,.4712.8809,11.4893,11.4893,0,0,0,1.0068.9244.6062.6062,0,0,0,.46.1621c.0838-.0074.1688-.0011.2533-.0011q2.433,0,4.8661,0c.1351,0,.27-.001.4053-.0049.0751-.0022.1288-.0375.1309-.12q.006-.2279.0063-.4559,0-4.9421.0006-9.8842c0-.5828-.0595-.5514.5394-.5512q3.4975.0011,6.995.0007c.4966,0,.4545-.0412.4545.47q0,7.9581.01,15.9161a.6925.6925,0,0,1-.4282.7075,7.7741,7.7741,0,0,1-2.0067.68,20.6358,20.6358,0,0,1-4.0736.4217c-1.604.0118-3.2059.0633-4.8065.168a24.15,24.15,0,0,1-2.6838.0175,6.4834,6.4834,0,0,1-2.251-.5434,12.7307,12.7307,0,0,1-2.21-1.2256A17.6165,17.6165,0,0,1,2.39,42.057,7.9721,7.9721,0,0,1,.7112,38.4747,22.44,22.44,0,0,1,.29,35.4684C.2448,34.7619.1931,34.0557.1443,33.35c.0027-.2-.0039-.402.0107-.602.01-.1395-.0783-.2114-.155-.2971V27.0761A.6745.6745,0,0,0,.1491,26.4839Z"/><path class="cls-2" d="M0,72.6086c.1354.03.171-.0791.2153-.1631.1969-.3728.39-.7476.5827-1.1226Q2.59,67.8362,4.3822,64.35c.511-.9885,1.0468-1.9642,1.5634-2.95.172-.3282.3177-.67.4787-1.0041.0658-.1365.1345-.2722.2114-.4027a1.2689,1.2689,0,0,1,2.0977-.0716,2.4021,2.4021,0,0,1,.3994.972c.2561,1.8206.5244,3.64.7785,5.46.1911,1.37.3657,2.7422.55,4.113.0856.6352.1788,1.2693.2661,1.9043.0313.2274.007.2623-.2007.335a2.1234,2.1234,0,0,1-.7439.1281.7267.7267,0,0,1-.6853-.4338,1.9394,1.9394,0,0,1-.19-.678c-.0557-.5367-.1157-1.0731-.1835-1.6083a3.4881,3.4881,0,0,0-.1161-.5436,1.1216,1.1216,0,0,0-.923-.83,11.824,11.824,0,0,0-1.4095-.1288,5.6666,5.6666,0,0,0-1.4617.0254,2.0107,2.0107,0,0,0-1.5809,1.2c-.1054.2289-.1735.475-.2793.7037-.2333.5045-.4613,1.0128-.725,1.5015A1.3642,1.3642,0,0,1,.53,72.7864c-.1759-.0311-.3361-.17-.53-.0764ZM7.6148,61.4017l-.0972-.011Q6.14,64.17,4.7644,66.9514a.5814.5814,0,0,0-.0108.18c.4114.0078.8118.0025,1.212.0035.3881.001.7764.0071,1.1643-.0017a6.3372,6.3372,0,0,0,1.22-.0451Z"/><path class="cls-3" d="M127.9777,77.2734c.0374-.1213-.07-.1779-.1175-.2609a4.9648,4.9648,0,0,1-.2756-.4817.6791.6791,0,0,1,.1822-.8694,2.4766,2.4766,0,0,1,.4962-.3471c.3338-.1979.6716-.3911.9917-.61a3.5931,3.5931,0,0,0,1.1244-1.1506A3.3853,3.3853,0,0,0,130.763,71.5a25.1708,25.1708,0,0,0-.4842-2.6369c-.283-1.44-.5877-2.8757-.8831-4.3133-.0679-.33-.1348-.6611-.2029-.9916a.1774.1774,0,0,1,.1345-.2325,2.6618,2.6618,0,0,1,.6939-.1292.888.888,0,0,1,.9038.5987,3.353,3.353,0,0,1,.19.7855,33.6262,33.6262,0,0,0,1.1118,4.9844,1.3871,1.3871,0,0,0,.1888.5071c.2135-.0859.231-.3084.31-.4764.7084-1.5122,1.4054-3.03,2.1031-4.5469.12-.26.2288-.526.34-.79a2.5006,2.5006,0,0,1,.3572-.6092,1.1685,1.1685,0,0,1,.9746-.451,1.9225,1.9225,0,0,1,.9329.2247c-.2456.4265-.4908.8292-.7137,1.2438-.6393,1.19-1.2,2.4172-1.7551,3.6476A40.1,40.1,0,0,1,133,72.2533,15.0948,15.0948,0,0,1,130.61,75.385a12.3514,12.3514,0,0,1-2.1054,1.6572.8929.8929,0,0,0-.3239.2311Z"/><path class="cls-4" d="M84.372,0a.2744.2744,0,0,0,.0057.0945c-.5843.0011-1.1686.0033-1.7528.003-.4,0-.801-.0037-1.2015-.0057A.3852.3852,0,0,0,81.4311,0Z"/><path class="cls-5" d="M0,32.4508c.0766.0856.1652.1576.155.2971-.0146.2-.008.4015-.0107.602-.0483.0043-.0963.009-.1443.0136Z"/><path class="cls-5" d="M.1491,26.4839A.6745.6745,0,0,1,0,27.0761v-.6085Z"/><path class="cls-1" d="M58.2015,29.5225A19.6519,19.6519,0,0,1,55.51,39.52a15.7916,15.7916,0,0,1-5.0422,5.319,12.9563,12.9563,0,0,1-14.6623-.3029,16.0073,16.0073,0,0,1-4.89-5.53,19.0492,19.0492,0,0,1-2.1323-6.2945,19.8583,19.8583,0,0,1-.2531-3.6827,19.1119,19.1119,0,0,1,3.8176-11.2705A14.8931,14.8931,0,0,1,37.35,13.4793a12.8921,12.8921,0,0,1,4.817-1.4341,12.73,12.73,0,0,1,6.421,1.0528A14.0255,14.0255,0,0,1,52.4959,15.69a17.3859,17.3859,0,0,1,4.6,7.1725,19.4934,19.4934,0,0,1,1.0419,5.1431C58.1712,28.5105,58.2085,29.0151,58.2015,29.5225Zm-8.0056.2362a15.011,15.011,0,0,0-.815-4.971,10.2444,10.2444,0,0,0-1.8226-3.3053,6.16,6.16,0,0,0-2.0811-1.6614,4.28,4.28,0,0,0-3.4374-.1642,5.7255,5.7255,0,0,0-2.1542,1.4709,9.6015,9.6015,0,0,0-1.8579,2.9344,14.6223,14.6223,0,0,0-1.0824,4.9667,15.409,15.409,0,0,0,.4743,4.664,11.5545,11.5545,0,0,0,1.644,3.7306,6.71,6.71,0,0,0,2.3816,2.2257,4.3363,4.3363,0,0,0,4.083.0779,5.9216,5.9216,0,0,0,1.8342-1.4114,9.5312,9.5312,0,0,0,1.6255-2.55A14.6716,14.6716,0,0,0,50.196,29.7587Z"/><path class="cls-1" d="M163.2323,27.9279c.1855-.2748.3735-.5479.5561-.8247q2.79-4.2284,5.5784-8.4579,1.7708-2.6857,3.5406-5.372c.0278-.0422.06-.0816.0847-.1257a.3506.3506,0,0,1,.3673-.2113,1.9211,1.9211,0,0,0,.2027.0008q4.2333,0,8.4666.002c.13,0,.3064-.0635.3805.054.0988.1565-.0715.2778-.1536.3948q-2.5456,3.63-5.0983,7.2541Q174.1706,24.89,171.185,29.14c-.0675.0961-.1309.1951-.2073.3094.2869.4385.57.8755.8572,1.3094q2.9664,4.4762,5.9341,8.9516,2.2379,3.3789,4.47,6.7613a1.0126,1.0126,0,0,1,.1976.3495c.0145.0739-.0056.136-.0889.1439-.1.01-.2022.0082-.3034.0082q-4.3347.0005-8.6694,0a.3286.3286,0,0,0-.0506,0,.4591.4591,0,0,1-.5216-.2849c-.3164-.5771-.66-1.1393-.9917-1.7079q-3.7642-6.4518-7.5279-12.9039c-.3212-.5505-.321-.5506-.9426-.5171-.1582.0085-.1966.0466-.2028.2188-.0049.135-.002.27-.002.4055q0,7.0217,0,14.0435c0,.1014,0,.2028,0,.3042.0014.4428.0321.4426-.44.4422q-3.4728-.0026-6.9457-.001-.1267,0-.2533-.0044c-.1032-.0036-.145-.0645-.1455-.1615-.0008-.1521-.002-.3042-.002-.4562q0-5.8557,0-11.7113,0-10.5453.0021-21.0906c0-.1827-.0774-.4052.0416-.54.1394-.1575.3793-.0688.5739-.0693q3.27-.0071,6.54-.0029c.1352,0,.2705-.0033.4055.0024.1672.0071.2143.051.2209.2059.0058.135.0026.27.0026.4055q0,6.895,0,13.79v.5545Z"/><path class="cls-6" d="M91.4215,33.09c-.1952.34-.35.62-.5151.8937a3.2383,3.2383,0,0,1-.6464.775,3.0731,3.0731,0,0,1-1.5234.6344c-.2322.0427-.4681.0651-.7025.096a1.009,1.009,0,0,0-.8634.6869,2.5719,2.5719,0,0,0-.1643.7381c-.0394.5407-.0077,1.0807-.0027,1.621.0039.4223.0087.8446.0116,1.2669.0006.0844-.0053.1688-.0084.2532a1.1619,1.1619,0,0,1-.5428.9778,5.8284,5.8284,0,0,1-.5677.3313,5.5929,5.5929,0,0,1-2.6412.5858c-1.2153-.0139-2.43-.0454-3.6416-.1468-.5886-.0493-1.1786-.0814-1.7684-.1147-.2008-.0113-.2306.02-.2753.21-.1006.4268-.1789.86-.3058,1.2791a7.7677,7.7677,0,0,1-1.5476,2.8783,5.7372,5.7372,0,0,1-3.054,1.8849,7.9489,7.9489,0,0,1-6.5262-1.184,5.0455,5.0455,0,0,1-2.3579-4.3523c.0013-.3548.002-.71-.0006-1.0643a.1475.1475,0,0,0-.1579-.1573c-.2531-.0059-.5065,0-.7593-.0106-.1679-.0068-.3352-.031-.5024-.0511a.6093.6093,0,0,1-.5131-.4291.5319.5319,0,0,1,.4291-.7412,5.6114,5.6114,0,0,1,.6075.0013c.1857.0035.3718.0219.557.0153.4221-.0152.5662-.1719.5736-.6011a1.1581,1.1581,0,0,0-.4585-1.0187c-.135-.1008-.2632-.2119-.3875-.3258a.5159.5159,0,0,1-.1544-.51,1.92,1.92,0,0,1,.2674-.6526,5.3563,5.3563,0,0,1,.9108-1.0828,11.4184,11.4184,0,0,1,1.8639-1.3914c.7838-.4657,1.543-.9727,2.32-1.45a1.0009,1.0009,0,0,0,.4566-.5773c.0978-.305.2184-.6031.3362-.9013.0682-.1725.1477-.3407.2267-.5087a1.5419,1.5419,0,0,1,1.3229-.9551c.4714-.0491.9411-.0849,1.4137-.0909a27.5927,27.5927,0,0,1,3.4873.182.5132.5132,0,0,0,.1009.0059c.0484-.0042.1091-.0042.1157-.0681a.2345.2345,0,0,0-.022-.1418,1.9471,1.9471,0,0,0-.3868-.3973c-.1534-.1321-.3012-.2711-.4462-.4124a.4336.4336,0,0,1-.1189-.4653c.0608-.193.1257-.3855.2019-.5729a22.07,22.07,0,0,1,.9907-2.0518c.834-1.5656,1.7259-3.0983,2.6473-4.6138.14-.2305.298-.4511.4586-.6682a.9775.9775,0,0,1,.595-.44c.1509-.03.1766-.1027.1336-.2714a5.6254,5.6254,0,0,1-.1853-1.3,3.4031,3.4031,0,0,1,.3928-1.7576,2.2216,2.2216,0,0,1,.8346-.864,3.4992,3.4992,0,0,1,2.6438-.3788,2.9434,2.9434,0,0,1,2.2076,2.3415,2.9221,2.9221,0,0,1-.6787,2.6917,2.0893,2.0893,0,0,1-1.6307.7942,4.6328,4.6328,0,0,1-1.0093-.0676.5633.5633,0,0,0-.299-.0021.1533.1533,0,0,0-.09.2033,2.0067,2.0067,0,0,0,.2718.362,10.93,10.93,0,0,0,.8405.73q.8068.6127,1.64,1.19c.8479.5852,1.7063,1.1553,2.5611,1.7307a5.2988,5.2988,0,0,0,1.74.7956,6.1372,6.1372,0,0,1,1.2013.3927.9737.9737,0,0,1,.686,1.2414c-.0043.0334-.0164.066-.0192.0995-.0467.5691-.1174.5057.461.57a2.1772,2.1772,0,0,0,1.4109-.304c.3021-.1846.6183-.3476.9359-.5048a3.0483,3.0483,0,0,1,.5662-.216.6644.6644,0,0,1,.8275.3187,2.4829,2.4829,0,0,1,.2881.5893,5.4485,5.4485,0,0,1,.1247,2.8991,1.6826,1.6826,0,0,1-.313.6864.58.58,0,0,1-.5265.241,2.1476,2.1476,0,0,1-.4925-.1089,1.7862,1.7862,0,0,0-.5411-.1225.3947.3947,0,0,0-.436.39,1.1357,1.1357,0,0,0,.0429.3488,3.1133,3.1133,0,0,0,.29.7,12.5451,12.5451,0,0,0,.9688,1.4229.4309.4309,0,0,0,.4781.1913c.2474-.0516.5-.0785.7494-.12a11.3442,11.3442,0,0,1,2.6776-.0792,5.8232,5.8232,0,0,1,1.8595.4583,5.0022,5.0022,0,0,1,1.3587.96,6.3541,6.3541,0,0,1,2.2566,5.7375,8.2515,8.2515,0,0,1-.3888,1.8274,6.32,6.32,0,0,1-2.5744,3.2291,6.5038,6.5038,0,0,1-2.4651,1.0152,7.5356,7.5356,0,0,1-4.7416-.883,7.0937,7.0937,0,0,1-2.4548-2.4406,9.0258,9.0258,0,0,1-.7286-1.4457,5.1239,5.1239,0,0,1-.3136-2.6332,8.3394,8.3394,0,0,1,.6117-2.1859,4.9951,4.9951,0,0,1,1.3449-1.8165c.2169-.1879.4427-.3655.6645-.5478.1645-.1353.1729-.15.0738-.3353q-.561-1.05-1.1289-2.0967C91.7376,33.6674,91.5917,33.4018,91.4215,33.09ZM97.65,37.0076a4.4824,4.4824,0,0,0-1.3017.13c-.2159.0452-.2578.1311-.1481.3111.2723.4469.5528.8887.8263,1.3349a.3563.3563,0,0,0,.2833.1791c.401.0533.8023.1093,1.1993.1857A1.9184,1.9184,0,0,1,100.11,40.71a2.8638,2.8638,0,0,1-.6523,2.5992,2.4821,2.4821,0,0,1-3.2033.58A4.16,4.16,0,0,1,95.07,42.8739a1.871,1.871,0,0,1-.4659-1.4477,2.27,2.27,0,0,1,.58-1.4212c.1594-.1627.1584-.1738.047-.34q-.4236-.6306-.858-1.2539c-.1085-.1556-.1838-.1527-.31.0151a5.3253,5.3253,0,0,0-1.0657,2.5386,3.81,3.81,0,0,0,.8456,3.0312,4.6048,4.6048,0,0,0,2.3327,1.5348,4.0688,4.0688,0,0,0,3.935-.8328,5.8609,5.8609,0,0,0,1.441-1.8126,3.3426,3.3426,0,0,0,.3784-1.2515,3.5226,3.5226,0,0,0-.5929-2.3065A6.565,6.565,0,0,0,99.6378,37.61,2.8,2.8,0,0,0,97.65,37.0076Zm-16.554-8.9751a5.1769,5.1769,0,0,0,.4525,1.9629.1445.1445,0,0,0,.2016.0943c.1113-.0394.2185-.09.3283-.1339.7842-.3124,1.5673-.6281,2.3709-.8885a5.41,5.41,0,0,1,1.1837-.263c.9761-.0877,1.9544-.1263,2.9341-.1419.2524-.004.5047-.0341.7562-.06a.1793.1793,0,0,0,.1187-.0756.6169.6169,0,0,0-.2717-.9256c-.37-.1621-.7522-.3013-1.1364-.4282q-1.25-.4127-2.5079-.8009a5.2738,5.2738,0,0,1-2.0213-1.1188,10.5191,10.5191,0,0,0-.8711-.6953c-.41-.2976-.5467-.2577-.7731.1866-.0153.03-.0251.0627-.0381.0939A10.3481,10.3481,0,0,0,81.0959,28.0325Zm-5.913,13.471c-.56-.02-1.1148-.0093-1.6694-.0067a.182.182,0,0,0-.1993.18q-.0466.402-.0977.8034a1.3628,1.3628,0,0,1-1.0431,1.2282,5.3835,5.3835,0,0,1-.9453.1678,4.6144,4.6144,0,0,1-1.61-.0638,1.8067,1.8067,0,0,1-1.4842-1.5306c-.0451-.2485-.1052-.4943-.159-.7412a.1975.1975,0,0,0-.21-.1755c-.4557,0-.9114-.004-1.3671.0007-.1568.0016-.2045.06-.1821.2277q.05.3756.1255.7478a5.925,5.925,0,0,0,.5052,1.5324,2.7845,2.7845,0,0,0,1.2826,1.2489,3.8032,3.8032,0,0,0,.8558.3055,7.6632,7.6632,0,0,0,3.0646.0848,4.2139,4.2139,0,0,0,1.3779-.4844,2.7885,2.7885,0,0,0,1.3785-1.6737,16.11,16.11,0,0,0,.3886-1.6744A.8725.8725,0,0,0,75.1828,41.5034ZM66.1172,40.12a.87.87,0,0,0,.1523.0381c.4218-.0032.8453-.0343,1.265-.0064a.9276.9276,0,0,0,.9982-.5076,1.6619,1.6619,0,0,1,.6058-.6675,1.9213,1.9213,0,0,1,1.6237-.3481.1433.1433,0,0,0,.1968-.1052c.1189-.5087.2366-1.0179.3439-1.5291.0391-.1865-.0158-.2558-.1955-.2713a5.7826,5.7826,0,0,0-2.6873.3255,2.7406,2.7406,0,0,0-1.1808.8423A6.9913,6.9913,0,0,0,66.1172,40.12Zm7.13-2.7786c-.235.631-.4444,1.2-.66,1.7659a.2972.2972,0,0,0,.0257.2869q.3271.5115.6543,1.023a.22.22,0,0,0,.2518.12q.8374-.1926,1.6751-.384a.1794.1794,0,0,0,.1455-.2252.6752.6752,0,0,0-.0169-.1A3.9325,3.9325,0,0,0,73.2474,37.3416Z"/><path class="cls-1" d="M141.3526,46.9733c-2.3323,0-4.6646-.0045-6.9968.0051a1.7217,1.7217,0,0,1-.91-.24c-.6564-.3826-1.3174-.7563-1.9543-1.1722a4.34,4.34,0,0,1-1.34-1.3584,13.0458,13.0458,0,0,1-1.2939-2.6278,9.3086,9.3086,0,0,1-.3658-1.6795,43.0727,43.0727,0,0,1-.4266-5.1444c-.0341-1.2155-.078-2.4308-.0541-3.6466.0319-1.62.0481-3.24.1491-4.8582.08-1.28.1355-2.562.2391-3.84.0968-1.194.1713-2.3926.3861-3.5734a11.9664,11.9664,0,0,1,1.0042-3.0689,3.8266,3.8266,0,0,1,1.5719-1.67,5.993,5.993,0,0,1,2.0975-.7069,12.5015,12.5015,0,0,1,1.716-.1269c.928-.0214,1.8553-.07,2.783-.1059.5395-.0208,1.079-.052,1.6186-.0553,1.3182-.0081,2.6366-.0126,3.9547,0,1.2661.0123,2.532.0481,3.798.0734.4391.0088.8783.0142,1.3172.0269.2017.0059.2207.0319.2292.2426.0027.0675.0008.1352.0008.2028q0,2.231,0,4.4619c0,.1013-.0011.2027-.0057.3039-.0047.1049-.0719.1418-.1672.14-.304-.0045-.6081-.0074-.9121-.0153-1.0125-.0263-2.0247-.0679-3.0373-.0788-1.2843-.0138-2.5689-.0007-3.8533-.0044a21.2712,21.2712,0,0,0-2.1741.11,5.53,5.53,0,0,0-1.7959.5023,1.0551,1.0551,0,0,0-.6345.795A8.5127,8.5127,0,0,0,136.1,21.472c-.004,1.42-.0014,2.8393-.0014,4.259,0,.0169,0,.0338,0,.0507.0055.2943.0055.2949.322.3.1183.0021.2366,0,.3549,0h11.4079c.1183,0,.2366-.0015.3549,0,.3311.0051.3364.0056.3367.3392q.0027,2.7632,0,5.5265a.6915.6915,0,0,1-.0145.2009.15.15,0,0,1-.1011.09c-.1512.0126-.3036.0115-.4556.0115q-5.6786.0006-11.3572.0019c-.7718.0007-.6249-.1028-.66.6373-.0688,1.4665-.1234,2.9337-.1791,4.4008a10.9479,10.9479,0,0,0,.1716,2.52c.1147.5883.2689.8292.9833.8587a5.7962,5.7962,0,0,0,.7082-.0065,19.4845,19.4845,0,0,1,2.2778-.0174c.6752.0239,1.3515.0165,2.0273.0211,1.0138.0069,2.0277.0061,3.0414.02,1.114.0152,2.2279.0427,3.3418.0663.1852.0039.2092.0276.2149.1972.004.1182.0014.2366.0014.3549q0,2.56,0,5.1209c0,.1183-.0026.2367,0,.3549.0027.12-.04.1926-.1721.1911-.1352-.0015-.27.0009-.4056.001Z"/><path class="cls-1" d="M114.279,27.0509q0-3.0411-.001-6.0823-.0024-1.4695-.0223-2.9389c-.0219-1.6038-.051-3.2075-.0767-4.8112a.9077.9077,0,0,1,.0049-.1518.1292.1292,0,0,1,.131-.1224c.1012-.0035.2025-.0069.3037-.007q3.8526-.0006,7.7051,0c.1014,0,.203-.0024.304.004.1234.0078.1682.0641.1674.2009-.0063,1.0811.0145,2.1632-.0266,3.243-.0539,1.4188-.0221,2.837-.0318,4.2554q-.0208,3.0662-.0233,6.1325-.0111,4.5365-.0163,9.0731c-.0009,1.3685.0021,2.7371.0184,4.1054.014,1.1814.0458,2.3626.0769,3.5436a2.01,2.01,0,0,1-.3588,1.2417,2.8993,2.8993,0,0,1-.4616.5355,6.1494,6.1494,0,0,1-3.004,1.476,18.418,18.418,0,0,1-3.1234.2646c-.6752.0008-1.35.0258-2.0257.0248-.9287-.0014-1.8581,0-2.7859-.0334-.5232-.0189-1.046-.0258-1.569-.0317-.1283-.0015-.1795-.0637-.1759-.1862.0025-.0844,0-.169,0-.2534q0-2.6613,0-5.3226c0-.1013.0012-.2027.0072-.3037.0062-.1051.0707-.1429.17-.1331.0672.0066.1354.0076.2017.0192a9.7415,9.7415,0,0,0,1.6682.0767,4.23,4.23,0,0,0,.8028-.1007,1.6279,1.6279,0,0,0,.6863-.3073,5.7894,5.7894,0,0,0,1.1028-1.1108,1.2635,1.2635,0,0,0,.2679-.7984c-.0011-.3376.0142-.6752.02-1.0128.0216-1.1814.0558-2.3628.0607-3.5443C114.2858,31.68,114.279,29.3657,114.279,27.0509Z"/><path class="cls-7" d="M81.4234.0919c.4.002.801.0055,1.2015.0057.5843,0,1.1686-.0019,1.7528-.003a19.8127,19.8127,0,0,1,4.3661.8407A29.6692,29.6692,0,0,1,96.771,4.8533a1.6236,1.6236,0,0,1,.412.371,1.0019,1.0019,0,0,1-.1713,1.3652.8124.8124,0,0,1-.7142.1633,3.8632,3.8632,0,0,1-1.1161-.4683Q94.0219,5.606,92.8134,5.02a29.8305,29.8305,0,0,0-5.9694-2.217,20.2053,20.2053,0,0,0-3.0434-.5013,17.5247,17.5247,0,0,0-3.5854.1062,30.3189,30.3189,0,0,0-6.8543,1.7357,44.4591,44.4591,0,0,0-4.8218,2.1131,1.9562,1.9562,0,0,1-1.07.2447,1.0726,1.0726,0,0,1-.521-.178.7017.7017,0,0,1-.3172-.443,1.2,1.2,0,0,1,.2684-1.1339,2.8945,2.8945,0,0,1,.8276-.5751q1.5648-.7793,3.1832-1.44A39.6582,39.6582,0,0,1,76.5821.87,26.2521,26.2521,0,0,1,80.5169.1815C80.8194.1558,81.1213.122,81.4234.0919Z"/><path class="cls-2" d="M144.758,62.1807a.2966.2966,0,0,0-.1361.2419c-.3987,2.1047-.8022,4.2085-1.1948,6.3143-.1886,1.0116-.3582,2.0267-.533,3.0408a2.0471,2.0471,0,0,1-.2071.62.7556.7556,0,0,1-.6951.4267,2.1,2.1,0,0,1-.6959-.1108.1814.1814,0,0,1-.14-.2287q.1171-.6731.243-1.3447.4843-2.5609.9724-5.1211.4278-2.2365.863-4.4717c.0834-.4307.1648-.8619.2565-1.2909a.9575.9575,0,0,1,1.0551-.7315,2.2527,2.2527,0,0,1,1.0066.4508,1.0563,1.0563,0,0,1,.308.4555c.29.7011.5956,1.3961.878,2.1q1.1669,2.9106,2.3176,5.8276c.1486.3761.2688.7633.4053,1.1442.0384.1072.0884.21.1757.4154.1252-.6448.2325-1.18.3326-1.7162q.6734-3.6068,1.3456-7.2139a10.023,10.023,0,0,1,.235-.9837c.1162-.3939.2487-.4777.6609-.4767a1.162,1.162,0,0,1,.2021.0082c.8577.1548.7987-.053.6315.8147q-.7042,3.6526-1.4032,7.3061-.4328,2.2614-.8588,4.524c-.091.4815-.1234.5371-.5885.6156a1.1663,1.1663,0,0,1-1.4442-.6424,4.5063,4.5063,0,0,1-.2871-.646c-1.1544-3.0429-2.39-6.0536-3.5895-9.0787C144.8431,62.3529,144.8037,62.2787,144.758,62.1807Z"/><path class="cls-2" d="M27.1725,67.1327a8.1441,8.1441,0,0,1,2.1369-5.7878,6.9461,6.9461,0,0,1,4.0728-2.1913A4.77,4.77,0,0,1,37.5167,60.35a5.1462,5.1462,0,0,1,1.517,2.75,7.9185,7.9185,0,0,1,.15,2.2632,10.8519,10.8519,0,0,1-.4479,2.6378,7.09,7.09,0,0,1-4.8511,4.8356,5.4484,5.4484,0,0,1-4.7808-.7773A4.0888,4.0888,0,0,1,27.39,69.3482,9.8871,9.8871,0,0,1,27.1725,67.1327Zm5.32,4.4763a6.1663,6.1663,0,0,0,.6323-.0589,4.0192,4.0192,0,0,0,2.9934-2.2536,13.5408,13.5408,0,0,0,1.3328-4.6386,3.9349,3.9349,0,0,0-.5405-2.4729,2.9819,2.9819,0,0,0-1.6756-1.39,3.9475,3.9475,0,0,0-4.6034,1.617,9.871,9.871,0,0,0-.7215,1.3328c-.43,1.0073-.85,2.0188-1.272,3.0294-.0821.1965-.0864.2108.1285.3441a.2516.2516,0,0,1,.1256.2487,7.0227,7.0227,0,0,0,.1141,1.3085,3.5086,3.5086,0,0,0,.8747,1.8463A3.6553,3.6553,0,0,0,32.493,71.6089Z"/><path class="cls-2" d="M177.725,71.61a1.1825,1.1825,0,0,0-.4487.2432,8.5885,8.5885,0,0,1-1.6832.9226,3.2844,3.2844,0,0,1-1.13.2482,2.5319,2.5319,0,0,1-2.3728-1.36,4.2482,4.2482,0,0,1-.498-1.9947,6.696,6.696,0,0,1,.29-2.1485,8.9086,8.9086,0,0,1,.4438-1.1834,5.0684,5.0684,0,0,1,3.4684-2.9392,9.7755,9.7755,0,0,1,2.0468-.3237c.3709-.018.7421-.0291,1.1132-.0438.216-.0085.2574-.0369.3045-.2557.1456-.6766.2866-1.3542.4281-2.0316.11-.5284.2169-1.0576.3294-1.5855.028-.1313.0724-.2591.1138-.4042h1.5038c.0948.0791.0448.1616.0307.2382q-.5559,3.0122-1.1135,6.0241-.5288,2.8626-1.0563,5.7255c-.1071.5808-.2119,1.1621-.32,1.7428-.04.215-.0516.2317-.2987.2626-.3014.0377-.6045.063-.9075.0856-.1333.01-.18-.0377-.1883-.1735C177.76,72.3246,177.7445,71.99,177.725,71.61Zm-.1957-7.3165a3.4738,3.4738,0,0,0-2.2724.8485,6.3118,6.3118,0,0,0-2.19,4.1429.4856.4856,0,0,0,.08.3324c.196.3341.3842.6728.5851,1.0039a3.5313,3.5313,0,0,0,.2982.4068.9938.9938,0,0,0,.7948.37,3.4662,3.4662,0,0,0,1.2384-.2035,1.6771,1.6771,0,0,0,.97-.8291,21.5254,21.5254,0,0,0,1.7007-4.6339,1.582,1.582,0,0,0,.0324-.6027.86.86,0,0,0-.5894-.75A1.8562,1.8562,0,0,0,177.5293,64.2931Z"/><path class="cls-3" d="M102.4551,71.3464c-.093.4766-.1694.8715-.2476,1.2661a.172.172,0,0,1-.1731.1518c-.1011.0045-.2024.0062-.3037.0062q-3.0907.0005-6.1815,0a2.2637,2.2637,0,0,1-.3513-.0208.14.14,0,0,1-.0872-.1038,1.513,1.513,0,0,1,.0332-.3011q.4082-2.1631.82-4.3255.491-2.56.99-5.1176c.1584-.811.3245-1.6206.4914-2.43a1.17,1.17,0,0,1,1.1147-.9868c.505-.0291,1.011-.05,1.5167-.0525,1.0469-.0052,2.0939.004,3.1408.0078.2533.0009.5067,0,.76.0064.2214.0054.2518.0311.2745.2678a3.2514,3.2514,0,0,1,.0173.5553.5644.5644,0,0,1-.4974.5553,1.8972,1.8972,0,0,1-.3529.0237c-.7594.0079-1.5191.0026-2.2781.0235a7.2529,7.2529,0,0,0-1.305.1447,1.4612,1.4612,0,0,0-1.2141,1.2019,5.98,5.98,0,0,0-.1534,1.05c-.0227.522-.05,1.0437-.0665,1.5659-.0055.1739.0393.2134.2014.2215.1348.0067.27.0033.4053.0034q1.6467,0,3.2934,0c.1182,0,.2365.0039.3546.0007a.1938.1938,0,0,1,.22.16,1.8044,1.8044,0,0,1,.03.7044.6652.6652,0,0,1-.5977.5981,1.7832,1.7832,0,0,1-.3531.0227c-.6761-.0179-1.3482.0519-2.0219.0866a5.15,5.15,0,0,0-1.1441.2,1.7927,1.7927,0,0,0-1.3346,1.3828,5.2194,5.2194,0,0,0-.1616.8945c-.0414.6734-.0528,1.3488-.0692,2.0236-.0042.1726.0368.2053.2061.2117.1349.0052.27.0025.4053.0025h4.6187Z"/><path class="cls-8" d="M82.3789,7.0838A16.195,16.195,0,0,0,75.91,8.3155a13.8575,13.8575,0,0,0-3.5519,2.1232,1.4864,1.4864,0,0,1-.7624.3692.955.955,0,0,1-1.1215-.8972A.6586.6586,0,0,1,70.72,9.33a3.2327,3.2327,0,0,1,.2909-.2022A26.7465,26.7465,0,0,1,76.78,6.3179a19.9519,19.9519,0,0,1,4.2359-.9607,15.7864,15.7864,0,0,1,8.0133,1.2374,21.2129,21.2129,0,0,1,4.8661,2.8835c.08.0625.1641.12.2383.1887A1.0667,1.0667,0,0,1,94.33,11.05a.4312.4312,0,0,1-.2714.2116,1.3616,1.3616,0,0,1-1.207-.1885c-.18-.1248-.341-.2763-.5141-.4113a16.9233,16.9233,0,0,0-6.1533-3.0991A13.4479,13.4479,0,0,0,82.3789,7.0838Z"/><path class="cls-2" d="M61.1246,72.654a2.04,2.04,0,0,1-.9771.1791,1.292,1.292,0,0,1-1.0416-.5352,3.1361,3.1361,0,0,1-.4093-.7532c-.4564-1.1095-1.0346-2.1594-1.59-3.22-.0141-.0269-.0452-.0449-.08-.0781a2.2939,2.2939,0,0,0-1.0055,1.22c-.17.4755-.309.9626-.4455,1.4492-.1458.52-.2718,1.0447-.4079,1.5669-.069.2647-.07.2724-.3275.2884-.419.026-.8388.04-1.2773.06a.62.62,0,0,1-.0006-.4023c.3848-2.0391.7767-4.0769,1.1623-6.1159q.5314-2.81,1.0541-5.6216c.1088-.58.2165-1.1612.3285-1.741.038-.1966.0747-.2292.2632-.231.4054-.0039.8109-.0028,1.2163.0009a1.1528,1.1528,0,0,1,.2085.0435c-.1167.646-.23,1.2757-.3443,1.9052q-.434,2.39-.8685,4.7808c-.0752.415-.1471.8306-.2193,1.2461-.0087.05.0008.1016.055.1192a.1367.1367,0,0,0,.0961-.0107A5.5639,5.5639,0,0,0,57.89,65.6985c.2567-.2682.4981-.5511.7545-.82a6.88,6.88,0,0,1,1.2973-1.1255,3.702,3.702,0,0,1,2.3957-.5444.104.104,0,0,1-.016.1522c-.7258.707-1.4473,1.4183-2.1806,2.1174-.2683.2558-.5648.4822-.848.7224a1.4,1.4,0,0,0-.4061,2.0475c.4811.8909.9572,1.7838,1.4033,2.6926C60.5649,71.5008,60.8364,72.0622,61.1246,72.654Z"/><path class="cls-2" d="M84.0073,67.067a6.3112,6.3112,0,0,1-2.5616,5.0487,4.4446,4.4446,0,0,1-3.6425.8217,3.3842,3.3842,0,0,1-2.6468-2.385,5.0676,5.0676,0,0,1-.2081-2.1019A6.3031,6.3031,0,0,1,76.075,65.19a4.9972,4.9972,0,0,1,4.5759-2.1926,3.6424,3.6424,0,0,1,1.134.24,3.1323,3.1323,0,0,1,1.66,1.4874A4.71,4.71,0,0,1,84.0073,67.067ZM76.655,68.7219a4.4386,4.4386,0,0,0,.2063,1.3954,2.1944,2.1944,0,0,0,.6751,1.0491,1.994,1.994,0,0,0,2.2252.278,3.7132,3.7132,0,0,0,1.753-1.69,8.6253,8.6253,0,0,0,.8174-3.0058.427.427,0,0,0-.061-.2888c-.241-.4053-.45-.83-.7306-1.2113a3.2566,3.2566,0,0,0-.4686-.5278,1.6812,1.6812,0,0,0-2.0119-.2549,3.2612,3.2612,0,0,0-.9479.746A5.1394,5.1394,0,0,0,76.655,68.7219Z"/><path class="cls-3" d="M15.7283,64.1922a4.4337,4.4337,0,0,0,.6995-.2822,14.94,14.94,0,0,1,1.6792-.7,3.9889,3.9889,0,0,1,1.2913-.2161,2.5253,2.5253,0,0,1,.8859.186,2.1277,2.1277,0,0,1,1.2832,2.158,9.1642,9.1642,0,0,1-.09.9569q-.2826,2.1324-.7291,4.2369c-.1093.5112-.2376,1.0187-.3355,1.532a.6292.6292,0,0,1-.3862.4924c-.2462.1094-.4968.2094-.7485.3056-.1174.0449-.2383.1795-.3678.0538a.5272.5272,0,0,1-.2164-.525c.19-.9077.3629-1.8192.5307-2.7314.2044-1.1111.3978-2.2243.595-3.3368a2.1057,2.1057,0,0,0-.0319-.9523,1.0157,1.0157,0,0,0-.8409-.7756A2.6,2.6,0,0,0,17.65,64.71a2.1446,2.1446,0,0,0-1.28,1.0013A17.2583,17.2583,0,0,0,15.1306,68.53a19.1,19.1,0,0,0-.8259,3.5932c-.1217.7848-.0376.63-.7215.646-.27.0063-.54.0038-.8105-.0016-.17-.0034-.2072-.0519-.1769-.2212q.1515-.8467.3075-1.6925.4427-2.4134.886-4.8266c.1427-.78.2819-1.56.4241-2.34.0151-.0828.0388-.1642.06-.2458a.1912.1912,0,0,1,.1242-.147,2.0256,2.0256,0,0,1,.8975-.1062.4891.4891,0,0,1,.429.4341,1.5282,1.5282,0,0,1,.0213.2516C15.7467,63.9577,15.7371,64.0413,15.7283,64.1922Z"/><path class="cls-2" d="M169.7124,71.22c-.2632.3983-.4682.762-.7192,1.0974a.7062.7062,0,0,1-.3662.26,8.0684,8.0684,0,0,1-2.48.4405,3.5485,3.5485,0,0,1-2.5764-1.1133,3.0912,3.0912,0,0,1-.906-1.9317,7.1013,7.1013,0,0,1,1.5723-5.2422,4.62,4.62,0,0,1,3.2137-1.7255,4.249,4.249,0,0,1,1.7018.1711,1.9749,1.9749,0,0,1,1.4347,1.5508,3.6682,3.6682,0,0,1,.0847,1.0553,2.1242,2.1242,0,0,1-1.4226,1.9679,7.7167,7.7167,0,0,1-1.0125.3177,24.7035,24.7035,0,0,1-2.6275.5178c-.2169.029-.4365.0381-.655.0553-.1662.0132-.3325.0248-.5285.0394a4.5384,4.5384,0,0,0,.2085,1.7583,1.4639,1.4639,0,0,0,1.2691.9476,6.7907,6.7907,0,0,0,1.514.042q1.0609-.07,2.1117-.2275A1.1277,1.1277,0,0,1,169.7124,71.22Zm-5.1549-3.7746c.488-.0837.9-.1515,1.3115-.2256.6123-.11,1.2213-.233,1.8216-.4018a1.337,1.337,0,0,0,.9166-.7954c.1007-.2313.2105-.4587.3166-.6877.0476-.1028.049-.1884-.0659-.2533-.3222-.1819-.6384-.3748-.9635-.5513a1.2572,1.2572,0,0,0-.9786-.0862,2.6782,2.6782,0,0,0-1.5181,1.1033A6.2551,6.2551,0,0,0,164.5575,67.4459Z"/><path class="cls-3" d="M157.6967,71.5959a6.2055,6.2055,0,0,0,1.6442-.2581c.2124-.0535.4233-.1131.6331-.1761a.2016.2016,0,0,1,.2495.1116c.3973.62.2575,1.0631-.4438,1.2809A8.2541,8.2541,0,0,1,157.1482,73a3.655,3.655,0,0,1-2.2059-.7679,2.93,2.93,0,0,1-1.1876-1.992,6.8708,6.8708,0,0,1,1.3006-5.256,5.0154,5.0154,0,0,1,2.7086-1.8506,4.1654,4.1654,0,0,1,2.1026-.0459,2.2564,2.2564,0,0,1,1.8667,2.1145,2.6792,2.6792,0,0,1-.0825,1.1027,1.9662,1.9662,0,0,1-1.201,1.3443,11.2928,11.2928,0,0,1-1.6452.4923c-.9191.2141-1.8427.4092-2.7643.6125-.1481.0327-.2968.0632-.4437.1006-.1715.0436-.22.09-.1947.2363.0526.2987.0481.6021.1162.9012a1.899,1.899,0,0,0,2.0269,1.6037C157.5954,71.5955,157.646,71.5958,157.6967,71.5959Zm-2.043-4.2558c.0465.051.0966.0324.1456.0249.5836-.0894,1.1688-.1691,1.75-.271a9.1466,9.1466,0,0,0,1.4223-.3492.8384.8384,0,0,0,.5249-.4416c.1612-.3519.2979-.715.4463-1.0728a.1329.1329,0,0,0-.0593-.173q-.43-.2661-.8672-.52a1.2567,1.2567,0,0,0-1.0258-.0992,2.7233,2.7233,0,0,0-1.413.9306,5.5635,5.5635,0,0,0-.9436,1.8885C155.6262,67.2837,155.6482,67.3189,155.6537,67.34Z"/><path class="cls-2" d="M51.4162,71.4791a1.1626,1.1626,0,0,1-.0584.1706c-.6472,1.0009-.4622.85-1.5932,1.1514a6.0748,6.0748,0,0,1-1.5.2176,3.5477,3.5477,0,0,1-2.7573-1.1634,3.13,3.13,0,0,1-.8772-1.9488A7.03,7.03,0,0,1,46.2266,64.72a4.652,4.652,0,0,1,3.8252-1.7415,3.8118,3.8118,0,0,1,1.0445.1749,2.028,2.028,0,0,1,1.4523,1.5423A3.5125,3.5125,0,0,1,52.643,65.9a2.0911,2.0911,0,0,1-1.2352,1.7842,6.161,6.161,0,0,1-1.1024.3652c-.9455.256-1.9115.4156-2.8714.6041-.2978.0585-.5947.1215-.892.1827a.1855.1855,0,0,0-.1642.215,5.738,5.738,0,0,0,.1717,1.3,1.5351,1.5351,0,0,0,.9191,1.0148,3.0575,3.0575,0,0,0,.9825.226,14.46,14.46,0,0,0,2.2764-.0518C50.943,71.5188,51.1589,71.5018,51.4162,71.4791Zm-4.79-4.1606a1.6322,1.6322,0,0,0,.2145.01c.5854-.075,1.1725-.14,1.7552-.2331.4323-.0687.8612-.1633,1.2872-.2651a1.7641,1.7641,0,0,0,.8744-.4823.92.92,0,0,0-.1238-1.4817,2.5133,2.5133,0,0,0-.8239-.3746,1.8488,1.8488,0,0,0-1.1887.0608,2.6675,2.6675,0,0,0-1.2373.9268A4.6093,4.6093,0,0,0,46.6259,67.3185Z"/><path class="cls-3" d="M119.89,71.4033a2.6532,2.6532,0,0,1-.56,1.0242.581.581,0,0,1-.259.15,8.155,8.155,0,0,1-2.2763.44,3.57,3.57,0,0,1-2.7317-1.1033,3.2859,3.2859,0,0,1-.9559-2.279,7.2455,7.2455,0,0,1,1.5186-4.7712,4.7648,4.7648,0,0,1,2.5048-1.714,4.4241,4.4241,0,0,1,2.4455.0048,2.0039,2.0039,0,0,1,1.5239,1.7032,3.274,3.274,0,0,1-.0123,1.4048,2.0719,2.0719,0,0,1-1.09,1.3864,3.93,3.93,0,0,1-.8059.2937c-.9279.2526-1.8711.4356-2.816.61q-.6214.1147-1.2413.2374a.234.234,0,0,0-.21.238,3.4467,3.4467,0,0,0,.1661,1.3953,1.5323,1.5323,0,0,0,.8218.9148,2.95,2.95,0,0,0,1.1747.271,12.3614,12.3614,0,0,0,2.5209-.1661C119.6906,71.43,119.7726,71.42,119.89,71.4033Zm-4.8012-4.0842a1.5835,1.5835,0,0,0,.2116.01c.6361-.08,1.2731-.1536,1.9074-.2461a9.3153,9.3153,0,0,0,1.2416-.2393,1.8477,1.8477,0,0,0,.7125-.37,1.0984,1.0984,0,0,0,.39-1.0415,1.2715,1.2715,0,0,0-1.4488-1.1621,3.01,3.01,0,0,0-2.0184,1.0412A4.848,4.848,0,0,0,115.0892,67.3191Z"/><path class="cls-3" d="M67.8174,72.7276c-.5143.0017-1.0324.0249-1.5845-.0206.0734-.452.1352-.8807.2133-1.3064.4322-2.3568.8609-4.7143,1.3064-7.0686.22-1.16.4748-2.3137.71-3.471a2.0222,2.0222,0,0,1,.5884-1.0966.9217.9217,0,0,1,.5814-.2629c.6738-.0643,1.349-.0642,2.0234-.07,1.0979-.01,2.196.0155,3.2939.0078a.42.42,0,0,1,.4646.2941,1.4563,1.4563,0,0,0,.0964.1779.1521.1521,0,0,1-.0488.2186c-.18.1255-.362.2484-.5425.3733a2.0573,2.0573,0,0,1-1.2871.37c-.6408-.0228-1.283-.0137-1.9245-.0049a4.8245,4.8245,0,0,0-.6526.0727,1.1949,1.1949,0,0,0-.9952.8282,7.986,7.986,0,0,0-.334,1.324c-.1228.6467-.2341,1.2955-.3473,1.944a1.9386,1.9386,0,0,0-.0132.2394,1.1,1.1,0,0,0,.5157.0484c1.1489.0034,2.2981.016,3.4466-.0076a.5421.5421,0,0,1,.5775.3687.2028.2028,0,0,1-.0656.2663c-.2732.2258-.5481.45-.8167.6811a.5155.5155,0,0,1-.3753.1136q-.7342-.0169-1.4686-.0255-.4306-.0053-.8612.0007a2.5126,2.5126,0,0,0-.3531.03,1.3777,1.3777,0,0,0-1.1742.9816,4.8246,4.8246,0,0,0-.232,1.0868,36.4707,36.4707,0,0,1-.67,3.683A2.3266,2.3266,0,0,1,67.8174,72.7276Z"/><path class="cls-3" d="M113.1633,63.4116c-.2076.375-.3959.7136-.5828,1.0529-1.4,2.5424-2.801,5.0843-4.2623,7.5926a1.2694,1.2694,0,0,1-.9277.6936c-.346.0592-.6867.1487-1.0637.2323-.0849-.4688-.1686-.9133-.2456-1.359q-.4393-2.544-.875-5.0886c-.1655-.9647-.3255-1.93-.4977-2.8938-.0418-.2341-.0051-.2536.2015-.3252a2.3357,2.3357,0,0,1,.492-.1135.8458.8458,0,0,1,1.0153.63,3.4641,3.4641,0,0,1,.1493.6388q.3539,2.3531.697,4.7078c.0468.3173.0933.6346.1372.9524a1.0372,1.0372,0,0,0,.1169.4263c.0809-.0169.1043-.0852.1341-.1426q1.48-2.8526,2.9571-5.7067c.0775-.15.1366-.3093.2186-.4562a3.9977,3.9977,0,0,1,.346-.5576,1.2643,1.2643,0,0,1,1.0579-.5A2.1007,2.1007,0,0,1,113.1633,63.4116Z"/><path class="cls-3" d="M37.11,76.73a4.1537,4.1537,0,0,1,.6-1.0006.3913.3913,0,0,1,.2185-.1162q.1748-.0275.35-.0521a1.6336,1.6336,0,0,0,1.2753-.8889,3.0738,3.0738,0,0,0,.3086-.8527c.2346-1.1567.4715-2.3131.6966-3.4716.26-1.3405.5114-2.6829.7625-4.0252.124-.663.2413-1.3273.3574-1.9918a2.3282,2.3282,0,0,1,.2393-.7163.7873.7873,0,0,1,.7475-.4306,1.7346,1.7346,0,0,1,.3969.0667c.4821.1212.48.123.3894.61-.39,2.1055-.7729,4.2122-1.1686,6.3165-.2648,1.4086-.5456,2.8141-.9,4.2038a4.8622,4.8622,0,0,1-.3311.9536,2.5249,2.5249,0,0,1-1.9439,1.4518A5.5876,5.5876,0,0,1,37.11,76.73Z"/><path class="cls-2" d="M90.9616,62.7687a4.456,4.456,0,0,1,.5436.7144,2.7567,2.7567,0,0,1-.5085.6144,1.7787,1.7787,0,0,1-.6778.5168,4.2562,4.2562,0,0,0-2.4031,2.7788,22.1485,22.1485,0,0,0-.5966,2.5094c-.1771.8763-.3419,1.7552-.5067,2.634-.0216.115-.0624.19-.1855.1915-.47.0046-.9394.0123-1.4418-.006.0434-.302.0752-.5651.12-.8261q.5015-2.9441,1.0092-5.8871c.1157-.6646.26-1.3242.3779-1.9885a.7015.7015,0,0,1,.3109-.4974c.35-.228.7041-.4486,1.0447-.6647.1174.0806.0837.1712.0846.2481.0042.3547.0007.71.0037,1.0642.0011.1292.0811.1739.2.1061.6737-.3854,1.3452-.7744,2.0177-1.1617C90.5418,63.0061,90.7316,62.8994,90.9616,62.7687Z"/><path class="cls-2" d="M125.01,62.8322a8.36,8.36,0,0,0,.144,1.4489l2.7457-1.4818a1.4006,1.4006,0,0,1,.3916.4491c.1618.208.1561.2129-.0328.4163-.1147.1236-.2317.245-.3456.3694a3.0556,3.0556,0,0,1-.9705.7117,3.76,3.76,0,0,0-1.7388,1.7078,8.2375,8.2375,0,0,0-.6779,1.9533c-.3158,1.3126-.5348,2.6445-.7968,3.9679-.0131.0662-.0214.1333-.0326.2a.1686.1686,0,0,1-.172.153c-.47.0044-.94.0021-1.438.0021a4.8363,4.8363,0,0,1,.1453-1.0708q.3754-2.246.7807-4.4869c.1758-.9792.3784-1.9536.55-2.9333a1.0961,1.0961,0,0,1,.4649-.748c.3025-.2149.5986-.4388.8985-.6574C124.9357,62.8257,124.956,62.8322,125.01,62.8322Z"/><path class="cls-8" d="M89.4271,14.8014a.6271.6271,0,0,1-.4135-.1064c-.1274-.0823-.2493-.1738-.3682-.2683A9.8989,9.8989,0,0,0,84.06,12.4024a11.7806,11.7806,0,0,0-6.1342.5472,8.0629,8.0629,0,0,0-2.2123,1.2111,1.7939,1.7939,0,0,1-.2483.1742.6512.6512,0,0,1-.8831-.24.4651.4651,0,0,1,.0285-.5253,1.4157,1.4157,0,0,1,.4547-.3958,15.6524,15.6524,0,0,1,2.5878-1.2712,13.2947,13.2947,0,0,1,3.2824-.8211,10.968,10.968,0,0,1,4.407.3793,13.0747,13.0747,0,0,1,4.1085,2.0363,1.2651,1.2651,0,0,1,.42.43.7019.7019,0,0,1-.3264.855A.3007.3007,0,0,1,89.4271,14.8014Z"/><path class="cls-5" d="M85.7377,46.4544H90.65c.1013,0,.2026-.0021.3038.0008.3.0086.3459.0619.3251.3632-.008.115-.053.1948-.177.2021-.1178.0069-.236.0088-.354.0088q-5.0384.0007-10.0769,0c-.0675,0-.1351.0017-.2025-.0009a.3058.3058,0,0,1-.2676-.4843.18.18,0,0,1,.12-.077c.1339-.0127.2693-.0126.4041-.0127Q83.2311,46.4538,85.7377,46.4544Z"/><path class="cls-8" d="M87.1694,43.203q-1.0139,0-2.0279,0c-.1013,0-.2027-.0024-.3039-.0058-.1244-.0042-.1762-.0788-.1819-.1945-.0025-.0506-.0046-.1014-.0032-.152.0056-.1962.048-.2446.2291-.2554.0842-.005.1689-.0029.2534-.003q2.0786,0,4.1571,0,.1518,0,.3036.0095c.1015.0063.1439.0723.1535.166.0017.0168.0022.0337.0026.0506.0073.344-.0025.3865-.3518.3852C88.6565,43.2009,87.9129,43.2029,87.1694,43.203Z"/><path class="cls-6" d="M90.0615,44.5031a.3812.3812,0,0,1-.001.4416c-.1343-.0063-.2686-.0178-.403-.0179q-3.156-.0017-6.312,0c-.1343,0-.2686.0117-.4029.018a.54.54,0,0,1,0-.4415l.1281-.0265,6.8625,0Z"/><path class="cls-3" d="M44.6225,60.4769c-.2987.2525-.5554.47-.8129.6868a1.4582,1.4582,0,0,1-.1218.09c-.3974.2692-.5914.2554-.9234-.096-.1958-.2073-.37-.4353-.562-.6643.2056-.2194.3965-.4318.5977-.634a2.0153,2.0153,0,0,1,.3145-.2521.4174.4174,0,0,1,.5945.02,1.9912,1.9912,0,0,1,.1525.1323C44.1062,59.989,44.35,60.22,44.6225,60.4769Z"/><path class="cls-4" d="M82.9426,44.9448c.1343-.0063.2686-.0179.4029-.018q3.156-.0017,6.312,0c.1343,0,.2686.0116.403.0179-.1249.1255-.2847.0792-.4307.08-.7736.0042-1.5473.002-2.3209.002-1.295,0-2.59.0019-3.8851-.0024C83.2619,45.0237,83.0847,45.08,82.9426,44.9448Z"/><path class="cls-4" d="M83.07,44.4768l-.1281.0265C82.9722,44.433,83.0156,44.4274,83.07,44.4768Z"/><path class="cls-4" d="M90.0615,44.5031l-.1287-.0262C89.9876,44.4273,90.0311,44.4332,90.0615,44.5031Z"/><path class="cls-9" d="M7.6148,61.4017,8.35,67.088a6.3372,6.3372,0,0,1-1.22.0451c-.3879.0089-.7762.0027-1.1643.0017-.4-.001-.8005.0043-1.212-.0035a.5814.5814,0,0,1,.0108-.18q1.374-2.7817,2.7532-5.5608Z"/><path class="cls-10" d="M50.196,29.7587a14.6716,14.6716,0,0,1-1.2081,6.0067,9.5312,9.5312,0,0,1-1.6255,2.55,5.9216,5.9216,0,0,1-1.8342,1.4114,4.3363,4.3363,0,0,1-4.083-.0779,6.71,6.71,0,0,1-2.3816-2.2257,11.5545,11.5545,0,0,1-1.644-3.7306,15.409,15.409,0,0,1-.4743-4.664,14.6223,14.6223,0,0,1,1.0824-4.9667,9.6015,9.6015,0,0,1,1.8579-2.9344A5.7255,5.7255,0,0,1,42.04,19.6567a4.28,4.28,0,0,1,3.4374.1642,6.16,6.16,0,0,1,2.0811,1.6614,10.2444,10.2444,0,0,1,1.8226,3.3053A15.011,15.011,0,0,1,50.196,29.7587Z"/><path class="cls-11" d="M97.65,37.0076a2.8,2.8,0,0,1,1.988.6023,6.565,6.565,0,0,1,1.6992,1.7178,3.5226,3.5226,0,0,1,.5929,2.3065,3.3426,3.3426,0,0,1-.3784,1.2515,5.8609,5.8609,0,0,1-1.441,1.8126,4.0688,4.0688,0,0,1-3.935.8328,4.6048,4.6048,0,0,1-2.3327-1.5348,3.81,3.81,0,0,1-.8456-3.0312,5.3253,5.3253,0,0,1,1.0657-2.5386c.1265-.1678.2017-.1707.31-.0151q.4346.623.858,1.2539c.1114.1658.1124.1768-.047.34a2.27,2.27,0,0,0-.58,1.4212,1.871,1.871,0,0,0,.4659,1.4477,4.16,4.16,0,0,0,1.1848,1.0147,2.4821,2.4821,0,0,0,3.2033-.58A2.8638,2.8638,0,0,0,100.11,40.71a1.9184,1.9184,0,0,0-1.6014-1.5614c-.397-.0764-.7984-.1324-1.1993-.1857a.3563.3563,0,0,1-.2833-.1791c-.2735-.4461-.554-.888-.8263-1.3349-.11-.18-.0678-.2659.1481-.3111A4.4824,4.4824,0,0,1,97.65,37.0076Z"/><path class="cls-11" d="M81.0959,28.0325a10.3481,10.3481,0,0,1,.7263-3.194c.013-.0312.0228-.0639.0381-.0939.2264-.4443.3633-.4841.7731-.1866a10.5191,10.5191,0,0,1,.8711.6953,5.2738,5.2738,0,0,0,2.0213,1.1188q1.2579.3877,2.5079.8009c.3842.1269.766.2661,1.1364.4282a.6169.6169,0,0,1,.2717.9256.1793.1793,0,0,1-.1187.0756c-.2515.0259-.5038.056-.7562.06-.98.0155-1.9579.0542-2.9341.1419a5.41,5.41,0,0,0-1.1837.263c-.8036.26-1.5867.5762-2.3709.8885-.11.0437-.217.0945-.3283.1339a.1445.1445,0,0,1-.2016-.0943A5.1769,5.1769,0,0,1,81.0959,28.0325Z"/><path class="cls-11" d="M75.1828,41.5034a.8725.8725,0,0,1,.0117.1772,16.11,16.11,0,0,1-.3886,1.6744,2.7885,2.7885,0,0,1-1.3785,1.6737,4.2139,4.2139,0,0,1-1.3779.4844,7.6632,7.6632,0,0,1-3.0646-.0848,3.8032,3.8032,0,0,1-.8558-.3055,2.7845,2.7845,0,0,1-1.2826-1.2489,5.925,5.925,0,0,1-.5052-1.5324q-.0749-.3716-.1255-.7478c-.0224-.1677.0253-.2261.1821-.2277.4557-.0047.9114-.001,1.3671-.0007a.1975.1975,0,0,1,.21.1755c.0538.2469.114.4927.159.7412a1.8067,1.8067,0,0,0,1.4842,1.5306,4.6144,4.6144,0,0,0,1.61.0638,5.3835,5.3835,0,0,0,.9453-.1678A1.3628,1.3628,0,0,0,73.2163,42.48q.0518-.4013.0977-.8034a.182.182,0,0,1,.1993-.18C74.068,41.4941,74.6229,41.4829,75.1828,41.5034Z"/><path class="cls-11" d="M66.1172,40.12a6.9913,6.9913,0,0,1,1.122-2.2294,2.7406,2.7406,0,0,1,1.1808-.8423,5.7826,5.7826,0,0,1,2.6873-.3255c.18.0155.2346.0848.1955.2713-.1073.5113-.225,1.02-.3439,1.5291a.1433.1433,0,0,1-.1968.1052,1.9213,1.9213,0,0,0-1.6237.3481,1.6619,1.6619,0,0,0-.6058.6675.9276.9276,0,0,1-.9982.5076c-.42-.0279-.8432.0033-1.265.0064A.87.87,0,0,1,66.1172,40.12Z"/><path class="cls-11" d="M73.2474,37.3416a3.9325,3.9325,0,0,1,2.0757,2.4869.6752.6752,0,0,1,.0169.1.1794.1794,0,0,1-.1455.2252q-.8376.1918-1.6751.384a.22.22,0,0,1-.2518-.12q-.3262-.5121-.6543-1.023a.2972.2972,0,0,1-.0257-.2869C72.803,38.5412,73.0124,37.9726,73.2474,37.3416Z"/><path class="cls-12" d="M32.493,71.6089a3.6553,3.6553,0,0,1-2.6115-1.0874,3.5086,3.5086,0,0,1-.8747-1.8463,7.0227,7.0227,0,0,1-.1141-1.3085.2516.2516,0,0,0-.1256-.2487c-.2149-.1333-.2106-.1476-.1285-.3441.4222-1.0105.8421-2.0221,1.272-3.0294a9.871,9.871,0,0,1,.7215-1.3328,3.9475,3.9475,0,0,1,4.6034-1.617,2.9819,2.9819,0,0,1,1.6756,1.39,3.9349,3.9349,0,0,1,.5405,2.4729,13.5408,13.5408,0,0,1-1.3328,4.6386A4.0192,4.0192,0,0,1,33.1253,71.55,6.1663,6.1663,0,0,1,32.493,71.6089Z"/><path class="cls-13" d="M177.5293,64.2931a1.8564,1.8564,0,0,1,.6473.0853.86.86,0,0,1,.5894.75,1.582,1.582,0,0,1-.0324.6027,21.5254,21.5254,0,0,1-1.7007,4.6339,1.6771,1.6771,0,0,1-.97.8291,3.4662,3.4662,0,0,1-1.2384.2035.9938.9938,0,0,1-.7948-.37,3.5313,3.5313,0,0,1-.2982-.4068c-.2008-.3311-.3891-.67-.5851-1.0039a.4856.4856,0,0,1-.08-.3324,6.3118,6.3118,0,0,1,2.19-4.1429A3.4739,3.4739,0,0,1,177.5293,64.2931Z"/><path class="cls-13" d="M76.655,68.7219a5.1394,5.1394,0,0,1,1.4569-3.51,3.2612,3.2612,0,0,1,.9479-.746,1.6812,1.6812,0,0,1,2.0119.2549,3.2566,3.2566,0,0,1,.4686.5278c.281.3815.49.806.7306,1.2113a.427.427,0,0,1,.061.2888,8.6253,8.6253,0,0,1-.8174,3.0058,3.7132,3.7132,0,0,1-1.753,1.69,1.994,1.994,0,0,1-2.2252-.278,2.1944,2.1944,0,0,1-.6751-1.0491A4.4386,4.4386,0,0,1,76.655,68.7219Z"/><path class="cls-9" d="M164.5575,67.4459a6.2551,6.2551,0,0,1,.84-1.898,2.6782,2.6782,0,0,1,1.5181-1.1033,1.2572,1.2572,0,0,1,.9786.0862c.3251.1765.6412.3694.9635.5513.1149.0649.1135.1505.0659.2533-.1061.229-.2159.4563-.3166.6877a1.337,1.337,0,0,1-.9166.7954c-.6.1688-1.2093.2915-1.8216.4018C165.4578,67.2945,165.0455,67.3622,164.5575,67.4459Z"/><path class="cls-9" d="M155.6537,67.34c-.0055-.0212-.0275-.0564-.02-.0826a5.5635,5.5635,0,0,1,.9436-1.8885,2.7233,2.7233,0,0,1,1.413-.9306,1.2567,1.2567,0,0,1,1.0258.0992q.4371.2541.8672.52a.1329.1329,0,0,1,.0593.173c-.1484.3578-.2851.7209-.4463,1.0728a.8384.8384,0,0,1-.5249.4416,9.1466,9.1466,0,0,1-1.4223.3492c-.5814.1018-1.1666.1816-1.75.271C155.75,67.3725,155.7,67.3911,155.6537,67.34Z"/><path class="cls-9" d="M46.6259,67.3185a4.6093,4.6093,0,0,1,.7575-1.84,2.6675,2.6675,0,0,1,1.2373-.9268,1.8488,1.8488,0,0,1,1.1887-.0608,2.5133,2.5133,0,0,1,.8239.3746.92.92,0,0,1,.1238,1.4817,1.7641,1.7641,0,0,1-.8744.4823c-.426.1017-.8549.1964-1.2872.2651-.5827.0926-1.17.158-1.7552.2331A1.6322,1.6322,0,0,1,46.6259,67.3185Z"/><path class="cls-9" d="M115.0892,67.3191a4.848,4.848,0,0,1,.9962-2.0078,3.01,3.01,0,0,1,2.0184-1.0412,1.2715,1.2715,0,0,1,1.4488,1.1621,1.0984,1.0984,0,0,1-.39,1.0415,1.8477,1.8477,0,0,1-.7125.37,9.3153,9.3153,0,0,1-1.2416.2393c-.6343.0925-1.2713.1663-1.9074.2461A1.5835,1.5835,0,0,1,115.0892,67.3191Z"/></g></g></svg>