<?xml version="1.0" encoding="utf-8"?>
<!-- Generator: Adobe Illustrator 21.0.0, SVG Export Plug-In . SVG Version: 6.00 Build 0)  -->
<svg version="1.1" id="Layer_1" xmlns="http://www.w3.org/2000/svg" xmlns:xlink="http://www.w3.org/1999/xlink" x="0px" y="0px"
	 viewBox="0 0 600 344" style="enable-background:new 0 0 600 344;" xml:space="preserve">
<style type="text/css">
	.st0{fill:url(#BACKGROUND_1_);}
	.st1{opacity:8.000000e-02;}
	.st2{fill:#BCBCBC;}
	.st3{opacity:0.5;}
	.st4{fill:none;stroke:#396E8A;stroke-miterlimit:10;}
	.st5{fill:url(#SVGID_1_);}
	.st6{fill:#3A6F8B;}
	.st7{opacity:0.3;}
	.st8{opacity:0.37;fill:#BCBCBC;}
	.st9{fill:#B4CAD1;}
	.st10{fill:#4D4D4D;}
	.st11{opacity:0.2;fill:url(#XMLID_2_);}
	.st12{opacity:0.3;fill:url(#XMLID_3_);}
	.st13{opacity:0.6;fill:#FFFFFF;}
	.st14{fill:#A0CAD6;}
	.st15{fill:#A0CAD8;}
	.st16{fill:#4E96AA;}
	.st17{fill:#458699;}
	.st18{fill:#4D96AA;}
	.st19{fill:#A1CAD7;}
	.st20{fill:#70AAB7;}
	.st21{fill:#408089;}
	.st22{fill:#3C8080;}
	.st23{fill:#367480;}
	.st24{fill:#4F9CB0;}
	.st25{fill:#3F8087;}
	.st26{fill:#3D8084;}
	.st27{fill:#7FB9C6;}
	.st28{fill:#6C9CA8;}
	.st29{opacity:0.32;}
	.st30{opacity:0.2;}
	.st31{fill:url(#SVGID_2_);}
	.st32{opacity:0.7;fill:url(#SVGID_3_);}
	.st33{opacity:0.8;}
	.st34{fill:#92D6E6;}
	.st35{opacity:0.25;}
	.st36{fill:#807F7F;}
	.st37{fill:#727372;}
	.st38{opacity:0.7;fill:url(#SVGID_4_);}
	.st39{fill:url(#SVGID_5_);}
	.st40{fill:#3F5A29;}
	.st41{fill:#22A573;}
	.st42{fill:#525B81;}
	.st43{fill:#353B59;}
	.st44{fill:#E1B9CD;}
	.st45{fill:#444A77;}
	.st46{fill:#7E6289;}
	.st47{fill:#E7B77F;}
	.st48{fill:#875852;}
	.st49{fill:#875851;}
	.st50{fill:#7B809A;}
	.st51{fill:#4D5281;}
	.st52{fill:#98D5E5;}
	.st53{opacity:0.8;fill:url(#SVGID_6_);}
	.st54{fill:#107797;}
</style>
<g id="home_x5F_BG">
	<linearGradient id="BACKGROUND_1_" gradientUnits="userSpaceOnUse" x1="300.9442" y1="1" x2="300.9442" y2="345.7032">
		<stop  offset="0" style="stop-color:#794D8E"/>
		<stop  offset="0.418" style="stop-color:#805B85"/>
		<stop  offset="0.6668" style="stop-color:#8B8A83"/>
		<stop  offset="1" style="stop-color:#00968C"/>
	</linearGradient>
	<rect id="BACKGROUND" x="-2" y="1" class="st0" width="605.9" height="344.7"/>
	<g class="st1">
		<polygon class="st2" points="-0.7,1.3 108,257.3 151.4,257.3 47.1,1.3 		"/>
		<polygon class="st2" points="245.6,1.3 354.3,257.3 397.7,257.3 293.3,1.3 		"/>
		<polygon class="st2" points="403.6,1.3 512.3,257.3 555.7,257.3 451.3,1.3 		"/>
		<polygon class="st2" points="204.6,1.3 313.3,257.3 324.8,257.3 213.9,1.3 		"/>
		<polygon class="st2" points="341.1,1.3 449.8,257.3 461.4,257.3 350.4,1.3 		"/>
		<polygon class="st2" points="60.9,1.3 169.5,257.3 189.1,257.3 84.7,1.3 		"/>
		<polygon class="st2" points="476,1.3 584.6,257.3 604.2,257.3 499.8,1.3 		"/>
		<polygon class="st2" points="166.7,1.3 275.4,257.3 295,257.3 190.6,1.3 		"/>
	</g>
	<g class="st3">
		<g>
			<circle class="st4" cx="246.3" cy="211.3" r="13.4"/>
			<circle class="st4" cx="246.3" cy="211.3" r="3"/>
			<g>
				<line class="st4" x1="246.3" y1="211.3" x2="246.3" y2="224.6"/>
				<line class="st4" x1="246.3" y1="211.3" x2="252.1" y2="223.3"/>
				<line class="st4" x1="246.3" y1="211.3" x2="256.8" y2="219.6"/>
				<line class="st4" x1="246.3" y1="211.3" x2="259.3" y2="214.3"/>
				<line class="st4" x1="246.3" y1="211.3" x2="259.3" y2="208.3"/>
				<line class="st4" x1="246.3" y1="211.3" x2="256.8" y2="203"/>
				<line class="st4" x1="246.3" y1="211.3" x2="252.1" y2="199.3"/>
				<line class="st4" x1="246.3" y1="211.3" x2="246.3" y2="197.9"/>
				<line class="st4" x1="246.3" y1="211.3" x2="240.5" y2="199.3"/>
				<line class="st4" x1="246.3" y1="211.3" x2="235.9" y2="203"/>
				<line class="st4" x1="246.3" y1="211.3" x2="233.3" y2="208.3"/>
				<line class="st4" x1="246.3" y1="211.3" x2="233.3" y2="214.3"/>
				<line class="st4" x1="246.3" y1="211.3" x2="235.9" y2="219.6"/>
				<line class="st4" x1="246.3" y1="211.3" x2="240.5" y2="223.3"/>
			</g>
			<g>
				<polygon class="st4" points="260.5,211.3 256.6,213.6 259.1,217.4 254.5,217.8 255.1,222.4 250.9,220.8 249.5,225.1 
					246.3,221.8 243.2,225.1 241.8,220.8 237.5,222.4 238.1,217.8 233.6,217.4 236.1,213.6 232.2,211.3 236.1,209 233.6,205.2 
					238.1,204.7 237.5,200.2 241.8,201.8 243.2,197.5 246.3,200.8 249.5,197.5 250.9,201.8 255.1,200.2 254.5,204.7 259.1,205.2 
					256.6,209 				"/>
			</g>
			<circle class="st4" cx="246.3" cy="211.3" r="11.4"/>
		</g>
		<g>
			<polygon class="st4" points="245.8,197.9 245.2,196.9 245.8,195.9 246.9,195.9 247.5,196.9 246.9,197.9 			"/>
			<polygon class="st4" points="240,199.4 239,198.8 239.1,197.7 240.2,197.2 241.1,197.8 241,199 			"/>
			<polygon class="st4" points="235.5,203.4 234.3,203.2 233.9,202.1 234.6,201.3 235.8,201.4 236.2,202.5 			"/>
			<polygon class="st4" points="233.1,208.9 232,209.2 231.2,208.4 231.4,207.3 232.5,207 233.4,207.8 			"/>
			<polygon class="st4" points="233.4,214.8 232.5,215.6 231.4,215.3 231.2,214.2 232,213.4 233.1,213.7 			"/>
			<polygon class="st4" points="236.2,220.1 235.8,221.2 234.6,221.3 233.9,220.4 234.3,219.4 235.5,219.2 			"/>
			<polygon class="st4" points="241,223.6 241.1,224.8 240.2,225.4 239.1,224.9 239,223.8 240,223.2 			"/>
			<polygon class="st4" points="246.9,224.7 247.5,225.7 246.9,226.7 245.8,226.7 245.2,225.7 245.8,224.7 			"/>
			<polygon class="st4" points="252.7,223.2 253.6,223.8 253.5,224.9 252.5,225.4 251.6,224.8 251.6,223.6 			"/>
			<polygon class="st4" points="257.2,219.2 258.3,219.4 258.7,220.5 258,221.3 256.9,221.2 256.5,220.1 			"/>
			<polygon class="st4" points="259.5,213.7 260.6,213.4 261.5,214.2 261.2,215.3 260.1,215.6 259.3,214.8 			"/>
			<polygon class="st4" points="259.3,207.8 260.1,207 261.2,207.3 261.5,208.4 260.6,209.2 259.5,208.9 			"/>
			<polygon class="st4" points="256.5,202.5 256.9,201.4 258,201.3 258.7,202.1 258.3,203.2 257.2,203.4 			"/>
			<polygon class="st4" points="251.6,199 251.6,197.8 252.5,197.2 253.5,197.7 253.6,198.8 252.7,199.4 			"/>
			<polygon class="st4" points="245.8,197.9 245.2,196.9 245.8,195.9 246.9,195.9 247.5,196.9 246.9,197.9 			"/>
			<polygon class="st4" points="240,199.4 239.1,198.8 239.1,197.7 240.2,197.2 241.1,197.8 241,199 			"/>
			<polygon class="st4" points="235.5,203.4 234.4,203.2 233.9,202.1 234.6,201.3 235.8,201.4 236.2,202.5 			"/>
			<polygon class="st4" points="233.1,208.9 232,209.2 231.2,208.4 231.4,207.3 232.5,207 233.4,207.8 			"/>
			<polygon class="st4" points="233.4,214.8 232.5,215.6 231.4,215.3 231.2,214.2 232,213.4 233.1,213.7 			"/>
			<polygon class="st4" points="236.2,220.1 235.8,221.2 234.6,221.3 233.9,220.4 234.3,219.4 235.5,219.2 			"/>
		</g>
		<circle class="st4" cx="246.3" cy="211.3" r="2.4"/>
		<circle class="st4" cx="246.3" cy="211.3" r="1.4"/>
	</g>
	<linearGradient id="SVGID_1_" gradientUnits="userSpaceOnUse" x1="205.9632" y1="261.5461" x2="205.9632" y2="286.6533">
		<stop  offset="0.1678" style="stop-color:#2CAEC7"/>
		<stop  offset="0.2759" style="stop-color:#299BD2"/>
		<stop  offset="0.5622" style="stop-color:#00839E"/>
		<stop  offset="0.652" style="stop-color:#037393"/>
		<stop  offset="0.7535" style="stop-color:#04698D"/>
		<stop  offset="0.8833" style="stop-color:#05668B"/>
		<stop  offset="0.8945" style="stop-color:#0A6683"/>
		<stop  offset="0.9323" style="stop-color:#18656C"/>
		<stop  offset="0.9682" style="stop-color:#20655F"/>
		<stop  offset="1" style="stop-color:#23655A"/>
	</linearGradient>
	<path class="st5" d="M390.7,281c0,3.1-2.5,5.7-5.7,5.7H26.9c-3.1,0-5.7-2.5-5.7-5.7v-13.7c0-3.1,2.5-5.7,5.7-5.7H385
		c3.1,0,5.7,2.5,5.7,5.7V281z"/>
	<g class="st3">
		<g>
			<rect x="289" y="213.2" class="st6" width="0.2" height="1.8"/>
			<rect x="292.1" y="213.2" class="st6" width="0.2" height="1.8"/>
			<rect x="289" y="216.1" class="st6" width="0.2" height="1.8"/>
			<rect x="292.1" y="216.1" class="st6" width="0.2" height="1.8"/>
			<rect x="289" y="219.1" class="st6" width="0.2" height="1.8"/>
			<rect x="292.1" y="219.1" class="st6" width="0.2" height="1.8"/>
			<rect x="295.3" y="213.2" class="st6" width="0.2" height="1.8"/>
			<rect x="298.4" y="213.2" class="st6" width="0.2" height="1.8"/>
			<rect x="295.3" y="216.1" class="st6" width="0.2" height="1.8"/>
			<rect x="298.4" y="216.1" class="st6" width="0.2" height="1.8"/>
			<rect x="295.3" y="219.1" class="st6" width="0.2" height="1.8"/>
			<rect x="298.4" y="219.1" class="st6" width="0.2" height="1.8"/>
			<rect x="301.5" y="213.2" class="st6" width="0.2" height="1.8"/>
			<g>
				<path class="st6" d="M287.9,212v18.5h15.9V212H287.9z M290.3,220.9H289v-1.8h1.2V220.9z M290.3,217.9H289v-1.8h1.2V217.9z
					 M290.3,215H289v-1.8h1.2V215z M293.4,220.9h-1.2v-1.8h1.2V220.9z M293.4,217.9h-1.2v-1.8h1.2V217.9z M293.4,215h-1.2v-1.8h1.2
					V215z M296.6,220.9h-1.2v-1.8h1.2V220.9z M296.6,217.9h-1.2v-1.8h1.2V217.9z M296.6,215h-1.2v-1.8h1.2V215z M299.7,220.9h-1.2
					v-1.8h1.2V220.9z M299.7,217.9h-1.2v-1.8h1.2V217.9z M299.7,215h-1.2v-1.8h1.2V215z M302.8,220.9h-1.2v-1.8h1.2V220.9z
					 M302.8,217.9h-1.2v-1.8h1.2V217.9z M302.8,215h-1.2v-1.8h1.2V215z"/>
			</g>
			<rect x="301.5" y="216.1" class="st6" width="0.2" height="1.8"/>
			<rect x="301.5" y="219.1" class="st6" width="0.2" height="1.8"/>
		</g>
		<rect x="269.9" y="229.1" class="st6" width="10" height="19.4"/>
		<rect x="314.2" y="229.1" class="st6" width="10" height="19.4"/>
		<rect x="329.9" y="229.1" class="st6" width="10" height="19.4"/>
		<rect x="293.6" y="229.1" class="st6" width="10.2" height="19.4"/>
		<g>
			<path class="st6" d="M269.9,216.2v13.4h10v-13.4H269.9z M271.5,223.2h-0.8V222h0.8V223.2z M271.5,221.2h-0.8v-1.1h0.8V221.2z
				 M271.5,219.4h-0.8v-1.1h0.8V219.4z M273,223.2h-0.8V222h0.8V223.2z M273,221.2h-0.8v-1.1h0.8V221.2z M273,219.4h-0.8v-1.1h0.8
				V219.4z M274.4,223.2h-0.8V222h0.8V223.2z M274.4,221.2h-0.8v-1.1h0.8V221.2z M274.4,219.4h-0.8v-1.1h0.8V219.4z M276,223.2h-0.8
				V222h0.8V223.2z M276,221.2h-0.8v-1.1h0.8V221.2z M276,219.4h-0.8v-1.1h0.8V219.4z M277.5,223.2h-0.8V222h0.8V223.2z
				 M277.5,221.2h-0.8v-1.1h0.8V221.2z M277.5,219.4h-0.8v-1.1h0.8V219.4z M279.1,223.2h-0.8V222h0.8V223.2z M279.1,221.2h-0.8v-1.1
				h0.8V221.2z M279.1,219.4h-0.8v-1.1h0.8V219.4z"/>
		</g>
		<g>
			<path class="st6" d="M314.2,216.8v13.4h10v-13.4H314.2z M315.8,223.8H315v-1.1h0.8V223.8z M315.8,221.9H315v-1.1h0.8V221.9z
				 M315.8,220H315v-1.1h0.8V220z M317.4,223.8h-0.8v-1.1h0.8V223.8z M317.4,221.9h-0.8v-1.1h0.8V221.9z M317.4,220h-0.8v-1.1h0.8
				V220z M318.7,223.8H318v-1.1h0.8V223.8z M318.7,221.9H318v-1.1h0.8V221.9z M318.7,220H318v-1.1h0.8V220z M320.3,223.8h-0.8v-1.1
				h0.8V223.8z M320.3,221.9h-0.8v-1.1h0.8V221.9z M320.3,220h-0.8v-1.1h0.8V220z M321.9,223.8h-0.8v-1.1h0.8V223.8z M321.9,221.9
				h-0.8v-1.1h0.8V221.9z M321.9,220h-0.8v-1.1h0.8V220z M323.4,223.8h-0.8v-1.1h0.8V223.8z M323.4,221.9h-0.8v-1.1h0.8V221.9z
				 M323.4,220h-0.8v-1.1h0.8V220z"/>
		</g>
		<g>
			<path class="st6" d="M329.9,216.8v13.4h10v-13.4H329.9z M331.5,223.8h-0.8v-1.1h0.8V223.8z M331.5,221.9h-0.8v-1.1h0.8V221.9z
				 M331.5,220h-0.8v-1.1h0.8V220z M333,223.8h-0.8v-1.1h0.8V223.8z M333,221.9h-0.8v-1.1h0.8V221.9z M333,220h-0.8v-1.1h0.8V220z
				 M334.4,223.8h-0.8v-1.1h0.8V223.8z M334.4,221.9h-0.8v-1.1h0.8V221.9z M334.4,220h-0.8v-1.1h0.8V220z M335.9,223.8h-0.8v-1.1
				h0.8V223.8z M335.9,221.9h-0.8v-1.1h0.8V221.9z M335.9,220h-0.8v-1.1h0.8V220z M337.5,223.8h-0.8v-1.1h0.8V223.8z M337.5,221.9
				h-0.8v-1.1h0.8V221.9z M337.5,220h-0.8v-1.1h0.8V220z M339.1,223.8h-0.8v-1.1h0.8V223.8z M339.1,221.9h-0.8v-1.1h0.8V221.9z
				 M339.1,220h-0.8v-1.1h0.8V220z"/>
		</g>
		<g>
			<rect x="260.2" y="227.2" class="st6" width="10.5" height="40.1"/>
			<g>
				<rect x="262" y="229.4" class="st6" width="1.6" height="5.3"/>
				<rect x="262" y="229.4" class="st6" width="0.3" height="5.3"/>
			</g>
			<g>
				<rect x="265.9" y="229.4" class="st6" width="1.6" height="5.3"/>
				<rect x="265.9" y="229.4" class="st6" width="0.3" height="5.3"/>
			</g>
			<g>
				<rect x="262" y="238.2" class="st6" width="1.6" height="5.3"/>
				<rect x="262" y="238.2" class="st6" width="0.3" height="5.3"/>
			</g>
			<g>
				<rect x="265.9" y="238.2" class="st6" width="1.6" height="5.3"/>
				<rect x="265.9" y="238.2" class="st6" width="0.3" height="5.3"/>
			</g>
			<g>
				<rect x="262" y="247.3" class="st6" width="1.6" height="5.3"/>
				<rect x="262" y="247.3" class="st6" width="0.3" height="5.3"/>
			</g>
			<g>
				<rect x="265.9" y="247.3" class="st6" width="1.6" height="5.3"/>
				<rect x="265.9" y="247.3" class="st6" width="0.3" height="5.3"/>
			</g>
		</g>
		<g>
			<g>
				<rect x="303.9" y="209.1" class="st6" width="10.5" height="23.2"/>
				<g>
					<rect x="305.7" y="210.4" class="st6" width="1.6" height="3.1"/>
					<rect x="305.7" y="210.4" class="st6" width="0.3" height="3.1"/>
				</g>
				<g>
					<rect x="309.6" y="210.4" class="st6" width="1.6" height="3.1"/>
					<rect x="309.6" y="210.4" class="st6" width="0.3" height="3.1"/>
				</g>
				<g>
					<rect x="305.7" y="215.5" class="st6" width="1.6" height="3.1"/>
					<rect x="305.7" y="215.5" class="st6" width="0.3" height="3.1"/>
				</g>
				<g>
					<rect x="309.6" y="215.5" class="st6" width="1.6" height="3.1"/>
					<rect x="309.6" y="215.5" class="st6" width="0.3" height="3.1"/>
				</g>
				<g>
					<rect x="305.7" y="220.7" class="st6" width="1.6" height="3.1"/>
					<rect x="305.7" y="220.7" class="st6" width="0.3" height="3.1"/>
				</g>
				<g>
					<rect x="309.6" y="220.7" class="st6" width="1.6" height="3.1"/>
					<rect x="309.6" y="220.7" class="st6" width="0.3" height="3.1"/>
				</g>
			</g>
			<g>
				<rect x="303.9" y="225.4" class="st6" width="10.5" height="23.2"/>
				<g>
					<rect x="305.7" y="226.7" class="st6" width="1.6" height="3.1"/>
					<rect x="305.7" y="226.7" class="st6" width="0.3" height="3.1"/>
				</g>
				<g>
					<rect x="309.6" y="226.7" class="st6" width="1.6" height="3.1"/>
					<rect x="309.6" y="226.7" class="st6" width="0.3" height="3.1"/>
				</g>
				<g>
					<rect x="305.7" y="231.7" class="st6" width="1.6" height="3.1"/>
					<rect x="305.7" y="231.7" class="st6" width="0.3" height="3.1"/>
				</g>
				<g>
					<rect x="309.6" y="231.7" class="st6" width="1.6" height="3.1"/>
					<rect x="309.6" y="231.7" class="st6" width="0.3" height="3.1"/>
				</g>
				<g>
					<rect x="305.7" y="237" class="st6" width="1.6" height="3.1"/>
					<rect x="305.7" y="237" class="st6" width="0.3" height="3.1"/>
				</g>
				<g>
					<rect x="309.6" y="237" class="st6" width="1.6" height="3.1"/>
					<rect x="309.6" y="237" class="st6" width="0.3" height="3.1"/>
				</g>
			</g>
		</g>
		<g>
			<g>
				<path class="st6" d="M279.1,225.4v23.2h20v-23.2H279.1z M282.1,229.1h-1.6v-2.2h1.6V229.1z M285.9,232.8h-1.6v-2.2h1.6V232.8z
					 M289.9,236.5h-1.6v-2.2h1.6V236.5z M289.9,232.8h-1.6v-2.2h1.6V232.8z M293.8,229.1h-1.6v-2.2h1.6V229.1z M297.7,236.5h-1.6
					v-2.2h1.6V236.5z M297.7,229.1h-1.6v-2.2h1.6V229.1z"/>
			</g>
			<rect x="280.5" y="226.9" class="st6" width="0.3" height="2.2"/>
			<rect x="284.4" y="226.9" class="st6" width="1.6" height="2.2"/>
			<rect x="284.4" y="226.9" class="st6" width="0.3" height="2.2"/>
			<rect x="280.5" y="230.6" class="st6" width="1.6" height="2.2"/>
			<rect x="280.5" y="230.6" class="st6" width="0.3" height="2.2"/>
			<rect x="284.4" y="230.6" class="st6" width="0.3" height="2.2"/>
			<rect x="280.5" y="234.3" class="st6" width="1.6" height="2.2"/>
			<rect x="280.5" y="234.3" class="st6" width="0.3" height="2.2"/>
			<rect x="284.4" y="234.3" class="st6" width="1.6" height="2.2"/>
			<rect x="284.4" y="234.3" class="st6" width="0.3" height="2.2"/>
			<rect x="288.4" y="226.9" class="st6" width="1.6" height="2.2"/>
			<rect x="288.4" y="226.9" class="st6" width="0.3" height="2.2"/>
			<rect x="292.3" y="226.9" class="st6" width="0.3" height="2.2"/>
			<rect x="288.4" y="230.6" class="st6" width="0.3" height="2.2"/>
			<rect x="292.3" y="230.6" class="st6" width="1.6" height="2.2"/>
			<rect x="292.3" y="230.6" class="st6" width="0.3" height="2.2"/>
			<rect x="288.4" y="234.3" class="st6" width="0.3" height="2.2"/>
			<rect x="292.3" y="234.3" class="st6" width="1.6" height="2.2"/>
			<rect x="292.3" y="234.3" class="st6" width="0.3" height="2.2"/>
			<rect x="296.1" y="226.9" class="st6" width="0.3" height="2.2"/>
			<rect x="296.1" y="230.6" class="st6" width="1.6" height="2.2"/>
			<rect x="296.1" y="230.6" class="st6" width="0.3" height="2.2"/>
			<rect x="296.1" y="234.3" class="st6" width="0.3" height="2.2"/>
		</g>
		<g>
			<g>
				<path class="st6" d="M335.1,225.4v23.2h20v-23.2H335.1z M352.1,226.9h1.6v2.2h-1.6V226.9z M348.2,230.6h1.6v2.2h-1.6V230.6z
					 M344.2,234.3h1.6v2.2h-1.6V234.3z M344.2,230.6h1.6v2.2h-1.6V230.6z M340.3,226.9h1.6v2.2h-1.6V226.9z M336.5,234.3h1.6v2.2
					h-1.6V234.3z M336.5,226.9h1.6v2.2h-1.6V226.9z"/>
			</g>
			
				<rect x="353.4" y="226.9" transform="matrix(-1 -1.224647e-16 1.224647e-16 -1 707.0024 456.0928)" class="st6" width="0.3" height="2.2"/>
			
				<rect x="348.2" y="226.9" transform="matrix(-1 -1.224647e-16 1.224647e-16 -1 697.9216 456.0928)" class="st6" width="1.6" height="2.2"/>
			
				<rect x="349.5" y="226.9" transform="matrix(-1 -1.224647e-16 1.224647e-16 -1 699.2318 456.0928)" class="st6" width="0.3" height="2.2"/>
			
				<rect x="352.1" y="230.6" transform="matrix(-1 -1.224647e-16 1.224647e-16 -1 705.6923 463.3527)" class="st6" width="1.6" height="2.2"/>
			
				<rect x="353.4" y="230.6" transform="matrix(-1 -1.224647e-16 1.224647e-16 -1 707.0024 463.3527)" class="st6" width="0.3" height="2.2"/>
			
				<rect x="349.5" y="230.6" transform="matrix(-1 -1.224647e-16 1.224647e-16 -1 699.2318 463.3527)" class="st6" width="0.3" height="2.2"/>
			
				<rect x="352.1" y="234.3" transform="matrix(-1 -1.224647e-16 1.224647e-16 -1 705.6923 470.8617)" class="st6" width="1.6" height="2.2"/>
			
				<rect x="353.4" y="234.3" transform="matrix(-1 -1.224647e-16 1.224647e-16 -1 707.0024 470.8617)" class="st6" width="0.3" height="2.2"/>
			
				<rect x="348.2" y="234.3" transform="matrix(-1 -1.224647e-16 1.224647e-16 -1 697.9216 470.8617)" class="st6" width="1.6" height="2.2"/>
			
				<rect x="349.5" y="234.3" transform="matrix(-1 -1.224647e-16 1.224647e-16 -1 699.2318 470.8617)" class="st6" width="0.3" height="2.2"/>
			
				<rect x="344.2" y="226.9" transform="matrix(-1 -1.224647e-16 1.224647e-16 -1 689.9254 456.0928)" class="st6" width="1.6" height="2.2"/>
			
				<rect x="345.5" y="226.9" transform="matrix(-1 -1.224647e-16 1.224647e-16 -1 691.2346 456.0928)" class="st6" width="0.3" height="2.2"/>
			
				<rect x="341.6" y="226.9" transform="matrix(-1 -1.224647e-16 1.224647e-16 -1 683.4639 456.0928)" class="st6" width="0.3" height="2.2"/>
			
				<rect x="345.5" y="230.6" transform="matrix(-1 -1.224647e-16 1.224647e-16 -1 691.2346 463.3527)" class="st6" width="0.3" height="2.2"/>
			
				<rect x="340.3" y="230.6" transform="matrix(-1 -1.224647e-16 1.224647e-16 -1 682.1547 463.3527)" class="st6" width="1.6" height="2.2"/>
			
				<rect x="341.6" y="230.6" transform="matrix(-1 -1.224647e-16 1.224647e-16 -1 683.4639 463.3527)" class="st6" width="0.3" height="2.2"/>
			
				<rect x="345.5" y="234.3" transform="matrix(-1 -1.224647e-16 1.224647e-16 -1 691.2346 470.8617)" class="st6" width="0.3" height="2.2"/>
			
				<rect x="340.3" y="234.3" transform="matrix(-1 -1.224647e-16 1.224647e-16 -1 682.1547 470.8617)" class="st6" width="1.6" height="2.2"/>
			
				<rect x="341.6" y="234.3" transform="matrix(-1 -1.224647e-16 1.224647e-16 -1 683.4639 470.8617)" class="st6" width="0.3" height="2.2"/>
			
				<rect x="337.8" y="226.9" transform="matrix(-1 -1.224647e-16 1.224647e-16 -1 675.8063 456.0928)" class="st6" width="0.3" height="2.2"/>
			
				<rect x="336.5" y="230.6" transform="matrix(-1 -1.224647e-16 1.224647e-16 -1 674.4965 463.3527)" class="st6" width="1.6" height="2.2"/>
			
				<rect x="337.8" y="230.6" transform="matrix(-1 -1.224647e-16 1.224647e-16 -1 675.8063 463.3527)" class="st6" width="0.3" height="2.2"/>
			
				<rect x="337.8" y="234.3" transform="matrix(-1 -1.224647e-16 1.224647e-16 -1 675.8063 470.8617)" class="st6" width="0.3" height="2.2"/>
		</g>
		<g>
			<rect x="270.7" y="233" class="st6" width="8.4" height="1.4"/>
			<rect x="270.7" y="231.5" class="st6" width="8.4" height="0.5"/>
			<g>
				
					<rect x="278.1" y="232.3" transform="matrix(-1.836970e-16 1 -1 -1.836970e-16 511.4106 -46.3343)" class="st6" width="1.6" height="0.5"/>
				<rect x="277.3" y="231.7" class="st6" width="0.5" height="1.6"/>
				<rect x="276" y="231.7" class="st6" width="0.5" height="1.6"/>
				<rect x="274.6" y="231.7" class="st6" width="0.5" height="1.6"/>
				<rect x="273.3" y="231.7" class="st6" width="0.5" height="1.6"/>
				<rect x="272" y="231.7" class="st6" width="0.5" height="1.6"/>
				
					<rect x="270.1" y="232.3" transform="matrix(-1.836970e-16 1 -1 -1.836970e-16 503.4258 -38.3495)" class="st6" width="1.6" height="0.5"/>
			</g>
		</g>
		<g>
			<g>
				<rect x="279.2" y="223.5" class="st6" width="5.6" height="0.9"/>
				<rect x="279.2" y="222.6" class="st6" width="5.6" height="0.3"/>
				<g>
					
						<rect x="284.2" y="223.1" transform="matrix(-1.836970e-16 1 -1 -1.836970e-16 507.9984 -61.4674)" class="st6" width="1.1" height="0.3"/>
					<rect x="283.7" y="222.7" class="st6" width="0.3" height="1.1"/>
					<rect x="282.8" y="222.7" class="st6" width="0.3" height="1.1"/>
					<rect x="281.9" y="222.7" class="st6" width="0.3" height="1.1"/>
					<rect x="281" y="222.7" class="st6" width="0.3" height="1.1"/>
					<rect x="280.1" y="222.7" class="st6" width="0.3" height="1.1"/>
					
						<rect x="278.9" y="223.1" transform="matrix(-1.836970e-16 1 -1 -1.836970e-16 502.6566 -56.1257)" class="st6" width="1.1" height="0.3"/>
				</g>
			</g>
			<g>
				<rect x="284.6" y="223.5" class="st6" width="5.6" height="0.9"/>
				<rect x="284.6" y="222.6" class="st6" width="5.6" height="0.3"/>
				<g>
					
						<rect x="289.5" y="223.1" transform="matrix(-1.836970e-16 1 -1 -1.836970e-16 513.3402 -66.8093)" class="st6" width="1.1" height="0.3"/>
					<rect x="289" y="222.7" class="st6" width="0.3" height="1.1"/>
					<rect x="288.1" y="222.7" class="st6" width="0.3" height="1.1"/>
					<rect x="287.3" y="222.7" class="st6" width="0.3" height="1.1"/>
					<rect x="286.4" y="222.7" class="st6" width="0.3" height="1.1"/>
					<rect x="285.5" y="222.7" class="st6" width="0.3" height="1.1"/>
					
						<rect x="284.2" y="223.1" transform="matrix(-1.836970e-16 1 -1 -1.836970e-16 507.9984 -61.4674)" class="st6" width="1.1" height="0.3"/>
				</g>
			</g>
		</g>
		<g>
			<rect x="272.3" y="216.2" class="st6" width="5.6" height="0.9"/>
			<rect x="272.3" y="215.3" class="st6" width="5.6" height="0.3"/>
			<g>
				
					<rect x="277.2" y="215.8" transform="matrix(-1.836970e-16 1 -1 -1.836970e-16 493.7376 -61.8244)" class="st6" width="1.1" height="0.3"/>
				<rect x="276.7" y="215.4" class="st6" width="0.3" height="1.1"/>
				<rect x="275.8" y="215.4" class="st6" width="0.3" height="1.1"/>
				<rect x="275" y="215.4" class="st6" width="0.3" height="1.1"/>
				<rect x="274.1" y="215.4" class="st6" width="0.3" height="1.1"/>
				<rect x="273.2" y="215.4" class="st6" width="0.3" height="1.1"/>
				
					<rect x="271.9" y="215.8" transform="matrix(-1.836970e-16 1 -1 -1.836970e-16 488.3956 -56.4824)" class="st6" width="1.1" height="0.3"/>
			</g>
		</g>
		<g>
			<rect x="324.2" y="219.2" class="st6" width="5.7" height="0.9"/>
			<rect x="324.2" y="218.2" class="st6" width="5.7" height="0.3"/>
			<g>
				
					<rect x="329.2" y="218.8" transform="matrix(-1.836970e-16 1 -1 -1.836970e-16 548.6148 -110.7963)" class="st6" width="1.1" height="0.3"/>
				<rect x="328.7" y="218.4" class="st6" width="0.3" height="1.1"/>
				<rect x="327.8" y="218.4" class="st6" width="0.3" height="1.1"/>
				<rect x="326.9" y="218.4" class="st6" width="0.3" height="1.1"/>
				<rect x="326" y="218.4" class="st6" width="0.3" height="1.1"/>
				<rect x="325.1" y="218.4" class="st6" width="0.3" height="1.1"/>
				
					<rect x="323.8" y="218.8" transform="matrix(-1.836970e-16 1 -1 -1.836970e-16 543.2725 -105.454)" class="st6" width="1.1" height="0.3"/>
			</g>
		</g>
		<g>
			<rect x="324.2" y="222.5" class="st6" width="5.7" height="0.9"/>
			<rect x="324.2" y="221.5" class="st6" width="5.7" height="0.3"/>
			<g>
				
					<rect x="329.2" y="222.1" transform="matrix(-1.836970e-16 1 -1 -1.836970e-16 551.9381 -107.473)" class="st6" width="1.1" height="0.3"/>
				<rect x="328.7" y="221.7" class="st6" width="0.3" height="1.1"/>
				<rect x="327.8" y="221.7" class="st6" width="0.3" height="1.1"/>
				<rect x="326.9" y="221.7" class="st6" width="0.3" height="1.1"/>
				<rect x="326" y="221.7" class="st6" width="0.3" height="1.1"/>
				<rect x="325.1" y="221.7" class="st6" width="0.3" height="1.1"/>
				
					<rect x="323.8" y="222.1" transform="matrix(-1.836970e-16 1 -1 -1.836970e-16 546.5958 -102.1307)" class="st6" width="1.1" height="0.3"/>
			</g>
		</g>
		<g>
			<rect x="324.2" y="225.9" class="st6" width="5.7" height="0.9"/>
			<rect x="324.2" y="224.9" class="st6" width="5.7" height="0.3"/>
			<g>
				
					<rect x="329.2" y="225.5" transform="matrix(-1.836970e-16 1 -1 -1.836970e-16 555.3162 -104.0949)" class="st6" width="1.1" height="0.3"/>
				<rect x="328.7" y="225.1" class="st6" width="0.3" height="1.1"/>
				<rect x="327.8" y="225.1" class="st6" width="0.3" height="1.1"/>
				<rect x="326.9" y="225.1" class="st6" width="0.3" height="1.1"/>
				<rect x="326" y="225.1" class="st6" width="0.3" height="1.1"/>
				<rect x="325.1" y="225.1" class="st6" width="0.3" height="1.1"/>
				
					<rect x="323.8" y="225.5" transform="matrix(-1.836970e-16 1 -1 -1.836970e-16 549.9738 -98.7526)" class="st6" width="1.1" height="0.3"/>
			</g>
		</g>
		<g>
			<rect x="265.1" y="210.9" class="st6" width="0.2" height="1.8"/>
			<rect x="268.2" y="210.9" class="st6" width="0.2" height="1.8"/>
			<rect x="265.1" y="213.8" class="st6" width="0.2" height="1.8"/>
			<rect x="268.2" y="213.8" class="st6" width="0.2" height="1.8"/>
			<rect x="265.1" y="216.8" class="st6" width="0.2" height="1.8"/>
			<rect x="268.2" y="216.8" class="st6" width="0.2" height="1.8"/>
			<rect x="271.4" y="210.9" class="st6" width="0.2" height="1.8"/>
			<rect x="274.5" y="210.9" class="st6" width="0.2" height="1.8"/>
			<rect x="271.4" y="213.8" class="st6" width="0.2" height="1.8"/>
			<rect x="274.5" y="213.8" class="st6" width="0.2" height="1.8"/>
			<rect x="271.4" y="216.8" class="st6" width="0.2" height="1.8"/>
			<rect x="274.5" y="216.8" class="st6" width="0.2" height="1.8"/>
			<rect x="277.6" y="210.9" class="st6" width="0.2" height="1.8"/>
			<g>
				<path class="st6" d="M264,209.7v18.5H280v-18.5H264z M266.4,218.6h-1.2v-1.8h1.2V218.6z M266.4,215.6h-1.2v-1.8h1.2V215.6z
					 M266.4,212.7h-1.2v-1.8h1.2V212.7z M269.5,218.6h-1.2v-1.8h1.2V218.6z M269.5,215.6h-1.2v-1.8h1.2V215.6z M269.5,212.7h-1.2
					v-1.8h1.2V212.7z M272.7,218.6h-1.2v-1.8h1.2V218.6z M272.7,215.6h-1.2v-1.8h1.2V215.6z M272.7,212.7h-1.2v-1.8h1.2V212.7z
					 M275.8,218.6h-1.2v-1.8h1.2V218.6z M275.8,215.6h-1.2v-1.8h1.2V215.6z M275.8,212.7h-1.2v-1.8h1.2V212.7z M278.9,218.6h-1.2
					v-1.8h1.2V218.6z M278.9,215.6h-1.2v-1.8h1.2V215.6z M278.9,212.7h-1.2v-1.8h1.2V212.7z"/>
			</g>
			<rect x="277.6" y="213.8" class="st6" width="0.2" height="1.8"/>
			<rect x="277.6" y="216.8" class="st6" width="0.2" height="1.8"/>
		</g>
		<rect x="198.8" y="226.7" class="st6" width="10" height="19.4"/>
		<rect x="214.4" y="226.7" class="st6" width="10" height="19.4"/>
		<rect x="178.2" y="226.7" class="st6" width="10.2" height="19.4"/>
		<g>
			<path class="st6" d="M198.8,214.4v13.4h10v-13.4H198.8z M200.4,221.3h-0.8v-1.1h0.8V221.3z M200.4,219.4h-0.8v-1.1h0.8V219.4z
				 M200.4,217.6h-0.8v-1.1h0.8V217.6z M201.9,221.3h-0.8v-1.1h0.8V221.3z M201.9,219.4h-0.8v-1.1h0.8V219.4z M201.9,217.6h-0.8
				v-1.1h0.8V217.6z M203.3,221.3h-0.8v-1.1h0.8V221.3z M203.3,219.4h-0.8v-1.1h0.8V219.4z M203.3,217.6h-0.8v-1.1h0.8V217.6z
				 M204.9,221.3h-0.8v-1.1h0.8V221.3z M204.9,219.4h-0.8v-1.1h0.8V219.4z M204.9,217.6h-0.8v-1.1h0.8V217.6z M206.4,221.3h-0.8
				v-1.1h0.8V221.3z M206.4,219.4h-0.8v-1.1h0.8V219.4z M206.4,217.6h-0.8v-1.1h0.8V217.6z M208,221.3h-0.8v-1.1h0.8V221.3z
				 M208,219.4h-0.8v-1.1h0.8V219.4z M208,217.6h-0.8v-1.1h0.8V217.6z"/>
		</g>
		<g>
			<path class="st6" d="M214.4,214.4v13.4h10v-13.4H214.4z M216.1,221.3h-0.8v-1.1h0.8V221.3z M216.1,219.4h-0.8v-1.1h0.8V219.4z
				 M216.1,217.6h-0.8v-1.1h0.8V217.6z M217.6,221.3h-0.8v-1.1h0.8V221.3z M217.6,219.4h-0.8v-1.1h0.8V219.4z M217.6,217.6h-0.8
				v-1.1h0.8V217.6z M219,221.3h-0.8v-1.1h0.8V221.3z M219,219.4h-0.8v-1.1h0.8V219.4z M219,217.6h-0.8v-1.1h0.8V217.6z
				 M220.5,221.3h-0.8v-1.1h0.8V221.3z M220.5,219.4h-0.8v-1.1h0.8V219.4z M220.5,217.6h-0.8v-1.1h0.8V217.6z M222.1,221.3h-0.8
				v-1.1h0.8V221.3z M222.1,219.4h-0.8v-1.1h0.8V219.4z M222.1,217.6h-0.8v-1.1h0.8V217.6z M223.6,221.3h-0.8v-1.1h0.8V221.3z
				 M223.6,219.4h-0.8v-1.1h0.8V219.4z M223.6,217.6h-0.8v-1.1h0.8V217.6z"/>
		</g>
		<g>
			<rect x="236.3" y="223.2" class="st6" width="10.5" height="40.1"/>
			<g>
				<rect x="238.1" y="225.5" class="st6" width="1.6" height="5.3"/>
				<rect x="238.1" y="225.5" class="st6" width="0.3" height="5.3"/>
			</g>
			<g>
				<rect x="242" y="225.5" class="st6" width="1.6" height="5.3"/>
				<rect x="242" y="225.5" class="st6" width="0.3" height="5.3"/>
			</g>
			<g>
				<rect x="238.1" y="234.2" class="st6" width="1.6" height="5.3"/>
				<rect x="238.1" y="234.2" class="st6" width="0.3" height="5.3"/>
			</g>
			<g>
				<rect x="242" y="234.2" class="st6" width="1.6" height="5.3"/>
				<rect x="242" y="234.2" class="st6" width="0.3" height="5.3"/>
			</g>
			<g>
				<rect x="238.1" y="243.3" class="st6" width="1.6" height="5.3"/>
				<rect x="238.1" y="243.3" class="st6" width="0.3" height="5.3"/>
			</g>
			<g>
				<rect x="242" y="243.3" class="st6" width="1.6" height="5.3"/>
				<rect x="242" y="243.3" class="st6" width="0.3" height="5.3"/>
			</g>
		</g>
		<g>
			<g>
				<rect x="188.4" y="206.6" class="st6" width="10.5" height="23.2"/>
				<g>
					<rect x="190.3" y="207.9" class="st6" width="1.6" height="3.1"/>
					<rect x="190.3" y="207.9" class="st6" width="0.3" height="3.1"/>
				</g>
				<g>
					<rect x="194.2" y="207.9" class="st6" width="1.6" height="3.1"/>
					<rect x="194.2" y="207.9" class="st6" width="0.3" height="3.1"/>
				</g>
				<g>
					<rect x="190.3" y="213" class="st6" width="1.6" height="3.1"/>
					<rect x="190.3" y="213" class="st6" width="0.3" height="3.1"/>
				</g>
				<g>
					<rect x="194.2" y="213" class="st6" width="1.6" height="3.1"/>
					<rect x="194.2" y="213" class="st6" width="0.3" height="3.1"/>
				</g>
				<g>
					<rect x="190.3" y="218.2" class="st6" width="1.6" height="3.1"/>
					<rect x="190.3" y="218.2" class="st6" width="0.3" height="3.1"/>
				</g>
				<g>
					<rect x="194.2" y="218.2" class="st6" width="1.6" height="3.1"/>
					<rect x="194.2" y="218.2" class="st6" width="0.3" height="3.1"/>
				</g>
			</g>
			<g>
				<rect x="188.4" y="222.9" class="st6" width="10.5" height="23.2"/>
				<g>
					<rect x="190.3" y="224.2" class="st6" width="1.6" height="3.1"/>
					<rect x="190.3" y="224.2" class="st6" width="0.3" height="3.1"/>
				</g>
				<g>
					<rect x="194.2" y="224.2" class="st6" width="1.6" height="3.1"/>
					<rect x="194.2" y="224.2" class="st6" width="0.3" height="3.1"/>
				</g>
				<g>
					<rect x="190.3" y="229.3" class="st6" width="1.6" height="3.1"/>
					<rect x="190.3" y="229.3" class="st6" width="0.3" height="3.1"/>
				</g>
				<g>
					<rect x="194.2" y="229.3" class="st6" width="1.6" height="3.1"/>
					<rect x="194.2" y="229.3" class="st6" width="0.3" height="3.1"/>
				</g>
				<g>
					<rect x="190.3" y="234.5" class="st6" width="1.6" height="3.1"/>
					<rect x="190.3" y="234.5" class="st6" width="0.3" height="3.1"/>
				</g>
				<g>
					<rect x="194.2" y="234.5" class="st6" width="1.6" height="3.1"/>
					<rect x="194.2" y="234.5" class="st6" width="0.3" height="3.1"/>
				</g>
			</g>
		</g>
		<g>
			<g>
				<path class="st6" d="M255.2,223.2v40.1h20v-40.1H255.2z M258.2,229.7h-1.6v-3.8h1.6V229.7z M262.1,236h-1.6v-3.8h1.6V236z
					 M266,242.5h-1.6v-3.8h1.6V242.5z M266,236h-1.6v-3.8h1.6V236z M269.9,229.7h-1.6v-3.8h1.6V229.7z M273.8,242.5h-1.6v-3.8h1.6
					V242.5z M273.8,229.7h-1.6v-3.8h1.6V229.7z"/>
			</g>
			<rect x="256.6" y="225.9" class="st6" width="0.3" height="3.8"/>
			<rect x="260.5" y="225.9" class="st6" width="1.6" height="3.8"/>
			<rect x="260.5" y="225.9" class="st6" width="0.3" height="3.8"/>
			<rect x="256.6" y="232.2" class="st6" width="1.6" height="3.8"/>
			<rect x="256.6" y="232.2" class="st6" width="0.3" height="3.8"/>
			<rect x="260.5" y="232.2" class="st6" width="0.3" height="3.8"/>
			<rect x="256.6" y="238.7" class="st6" width="1.6" height="3.8"/>
			<rect x="256.6" y="238.7" class="st6" width="0.3" height="3.8"/>
			<rect x="260.5" y="238.7" class="st6" width="1.6" height="3.8"/>
			<rect x="260.5" y="238.7" class="st6" width="0.3" height="3.8"/>
			<rect x="264.5" y="225.9" class="st6" width="1.6" height="3.8"/>
			<rect x="264.5" y="225.9" class="st6" width="0.3" height="3.8"/>
			<rect x="268.4" y="225.9" class="st6" width="0.3" height="3.8"/>
			<rect x="264.5" y="232.2" class="st6" width="0.3" height="3.8"/>
			<rect x="268.4" y="232.2" class="st6" width="1.6" height="3.8"/>
			<rect x="268.4" y="232.2" class="st6" width="0.3" height="3.8"/>
			<rect x="264.5" y="238.7" class="st6" width="0.3" height="3.8"/>
			<rect x="268.4" y="238.7" class="st6" width="1.6" height="3.8"/>
			<rect x="268.4" y="238.7" class="st6" width="0.3" height="3.8"/>
			<rect x="272.2" y="225.9" class="st6" width="0.3" height="3.8"/>
			<rect x="272.2" y="232.2" class="st6" width="1.6" height="3.8"/>
			<rect x="272.2" y="232.2" class="st6" width="0.3" height="3.8"/>
			<rect x="272.2" y="238.7" class="st6" width="0.3" height="3.8"/>
		</g>
		<g>
			<rect x="360.1" y="213.2" class="st6" width="0.2" height="1.8"/>
			<rect x="363.2" y="213.2" class="st6" width="0.2" height="1.8"/>
			<rect x="360.1" y="216.1" class="st6" width="0.2" height="1.8"/>
			<rect x="363.2" y="216.1" class="st6" width="0.2" height="1.8"/>
			<rect x="360.1" y="219.1" class="st6" width="0.2" height="1.8"/>
			<rect x="363.2" y="219.1" class="st6" width="0.2" height="1.8"/>
			<rect x="366.4" y="213.2" class="st6" width="0.2" height="1.8"/>
			<rect x="369.5" y="213.2" class="st6" width="0.2" height="1.8"/>
			<rect x="366.4" y="216.1" class="st6" width="0.2" height="1.8"/>
			<rect x="369.5" y="216.1" class="st6" width="0.2" height="1.8"/>
			<rect x="366.4" y="219.1" class="st6" width="0.2" height="1.8"/>
			<rect x="369.5" y="219.1" class="st6" width="0.2" height="1.8"/>
			<rect x="372.6" y="213.2" class="st6" width="0.2" height="1.8"/>
			<g>
				<path class="st6" d="M359,212v18.5H375V212H359z M361.4,220.9h-1.2v-1.8h1.2V220.9z M361.4,217.9h-1.2v-1.8h1.2V217.9z
					 M361.4,215h-1.2v-1.8h1.2V215z M364.5,220.9h-1.2v-1.8h1.2V220.9z M364.5,217.9h-1.2v-1.8h1.2V217.9z M364.5,215h-1.2v-1.8h1.2
					V215z M367.7,220.9h-1.2v-1.8h1.2V220.9z M367.7,217.9h-1.2v-1.8h1.2V217.9z M367.7,215h-1.2v-1.8h1.2V215z M370.8,220.9h-1.2
					v-1.8h1.2V220.9z M370.8,217.9h-1.2v-1.8h1.2V217.9z M370.8,215h-1.2v-1.8h1.2V215z M373.8,220.9h-1.2v-1.8h1.2V220.9z
					 M373.8,217.9h-1.2v-1.8h1.2V217.9z M373.8,215h-1.2v-1.8h1.2V215z"/>
			</g>
			<rect x="372.6" y="216.1" class="st6" width="0.2" height="1.8"/>
			<rect x="372.6" y="219.1" class="st6" width="0.2" height="1.8"/>
		</g>
		<rect x="341" y="229.1" class="st6" width="10" height="19.4"/>
		<rect x="385.3" y="229.1" class="st6" width="10" height="19.4"/>
		<rect x="400.9" y="229.1" class="st6" width="10" height="19.4"/>
		<rect x="364.7" y="229.1" class="st6" width="10.2" height="19.4"/>
		<g>
			<path class="st6" d="M341,216.2v13.4h10v-13.4H341z M342.6,223.2h-0.8V222h0.8V223.2z M342.6,221.2h-0.8v-1.1h0.8V221.2z
				 M342.6,219.4h-0.8v-1.1h0.8V219.4z M344.1,223.2h-0.8V222h0.8V223.2z M344.1,221.2h-0.8v-1.1h0.8V221.2z M344.1,219.4h-0.8v-1.1
				h0.8V219.4z M345.5,223.2h-0.8V222h0.8V223.2z M345.5,221.2h-0.8v-1.1h0.8V221.2z M345.5,219.4h-0.8v-1.1h0.8V219.4z M347,223.2
				h-0.8V222h0.8V223.2z M347,221.2h-0.8v-1.1h0.8V221.2z M347,219.4h-0.8v-1.1h0.8V219.4z M348.6,223.2h-0.8V222h0.8V223.2z
				 M348.6,221.2h-0.8v-1.1h0.8V221.2z M348.6,219.4h-0.8v-1.1h0.8V219.4z M350.2,223.2h-0.8V222h0.8V223.2z M350.2,221.2h-0.8v-1.1
				h0.8V221.2z M350.2,219.4h-0.8v-1.1h0.8V219.4z"/>
		</g>
		<g>
			<path class="st6" d="M385.3,216.8v13.4h10v-13.4H385.3z M386.9,223.8h-0.8v-1.1h0.8V223.8z M386.9,221.9h-0.8v-1.1h0.8V221.9z
				 M386.9,220h-0.8v-1.1h0.8V220z M388.5,223.8h-0.8v-1.1h0.8V223.8z M388.5,221.9h-0.8v-1.1h0.8V221.9z M388.5,220h-0.8v-1.1h0.8
				V220z M389.8,223.8H389v-1.1h0.8V223.8z M389.8,221.9H389v-1.1h0.8V221.9z M389.8,220H389v-1.1h0.8V220z M391.4,223.8h-0.8v-1.1
				h0.8V223.8z M391.4,221.9h-0.8v-1.1h0.8V221.9z M391.4,220h-0.8v-1.1h0.8V220z M393,223.8h-0.8v-1.1h0.8V223.8z M393,221.9h-0.8
				v-1.1h0.8V221.9z M393,220h-0.8v-1.1h0.8V220z M394.5,223.8h-0.8v-1.1h0.8V223.8z M394.5,221.9h-0.8v-1.1h0.8V221.9z M394.5,220
				h-0.8v-1.1h0.8V220z"/>
		</g>
		<g>
			<path class="st6" d="M400.9,216.8v13.4h10v-13.4H400.9z M402.6,223.8h-0.8v-1.1h0.8V223.8z M402.6,221.9h-0.8v-1.1h0.8V221.9z
				 M402.6,220h-0.8v-1.1h0.8V220z M404.1,223.8h-0.8v-1.1h0.8V223.8z M404.1,221.9h-0.8v-1.1h0.8V221.9z M404.1,220h-0.8v-1.1h0.8
				V220z M405.5,223.8h-0.8v-1.1h0.8V223.8z M405.5,221.9h-0.8v-1.1h0.8V221.9z M405.5,220h-0.8v-1.1h0.8V220z M407,223.8h-0.8v-1.1
				h0.8V223.8z M407,221.9h-0.8v-1.1h0.8V221.9z M407,220h-0.8v-1.1h0.8V220z M408.6,223.8h-0.8v-1.1h0.8V223.8z M408.6,221.9h-0.8
				v-1.1h0.8V221.9z M408.6,220h-0.8v-1.1h0.8V220z M410.1,223.8h-0.8v-1.1h0.8V223.8z M410.1,221.9h-0.8v-1.1h0.8V221.9z
				 M410.1,220h-0.8v-1.1h0.8V220z"/>
		</g>
		<g>
			<rect x="331.3" y="225.4" class="st6" width="10.5" height="23.2"/>
			<g>
				<rect x="333.1" y="226.7" class="st6" width="1.6" height="3.1"/>
				<rect x="333.1" y="226.7" class="st6" width="0.3" height="3.1"/>
			</g>
			<g>
				<rect x="337" y="226.7" class="st6" width="1.6" height="3.1"/>
				<rect x="337" y="226.7" class="st6" width="0.3" height="3.1"/>
			</g>
			<g>
				<rect x="333.1" y="231.7" class="st6" width="1.6" height="3.1"/>
				<rect x="333.1" y="231.7" class="st6" width="0.3" height="3.1"/>
			</g>
			<g>
				<rect x="337" y="231.7" class="st6" width="1.6" height="3.1"/>
				<rect x="337" y="231.7" class="st6" width="0.3" height="3.1"/>
			</g>
			<g>
				<rect x="333.1" y="237" class="st6" width="1.6" height="3.1"/>
				<rect x="333.1" y="237" class="st6" width="0.3" height="3.1"/>
			</g>
			<g>
				<rect x="337" y="237" class="st6" width="1.6" height="3.1"/>
				<rect x="337" y="237" class="st6" width="0.3" height="3.1"/>
			</g>
		</g>
		<g>
			<g>
				<rect x="375" y="209.1" class="st6" width="10.5" height="23.2"/>
				<g>
					<rect x="376.8" y="210.4" class="st6" width="1.6" height="3.1"/>
					<rect x="376.8" y="210.4" class="st6" width="0.3" height="3.1"/>
				</g>
				<g>
					<rect x="380.7" y="210.4" class="st6" width="1.6" height="3.1"/>
					<rect x="380.7" y="210.4" class="st6" width="0.3" height="3.1"/>
				</g>
				<g>
					<rect x="376.8" y="215.5" class="st6" width="1.6" height="3.1"/>
					<rect x="376.8" y="215.5" class="st6" width="0.3" height="3.1"/>
				</g>
				<g>
					<rect x="380.7" y="215.5" class="st6" width="1.6" height="3.1"/>
					<rect x="380.7" y="215.5" class="st6" width="0.3" height="3.1"/>
				</g>
				<g>
					<rect x="376.8" y="220.7" class="st6" width="1.6" height="3.1"/>
					<rect x="376.8" y="220.7" class="st6" width="0.3" height="3.1"/>
				</g>
				<g>
					<rect x="380.7" y="220.7" class="st6" width="1.6" height="3.1"/>
					<rect x="380.7" y="220.7" class="st6" width="0.3" height="3.1"/>
				</g>
			</g>
			<g>
				<rect x="375" y="225.4" class="st6" width="10.5" height="23.2"/>
				<g>
					<rect x="376.8" y="226.7" class="st6" width="1.6" height="3.1"/>
					<rect x="376.8" y="226.7" class="st6" width="0.3" height="3.1"/>
				</g>
				<g>
					<rect x="380.7" y="226.7" class="st6" width="1.6" height="3.1"/>
					<rect x="380.7" y="226.7" class="st6" width="0.3" height="3.1"/>
				</g>
				<g>
					<rect x="376.8" y="231.7" class="st6" width="1.6" height="3.1"/>
					<rect x="376.8" y="231.7" class="st6" width="0.3" height="3.1"/>
				</g>
				<g>
					<rect x="380.7" y="231.7" class="st6" width="1.6" height="3.1"/>
					<rect x="380.7" y="231.7" class="st6" width="0.3" height="3.1"/>
				</g>
				<g>
					<rect x="376.8" y="237" class="st6" width="1.6" height="3.1"/>
					<rect x="376.8" y="237" class="st6" width="0.3" height="3.1"/>
				</g>
				<g>
					<rect x="380.7" y="237" class="st6" width="1.6" height="3.1"/>
					<rect x="380.7" y="237" class="st6" width="0.3" height="3.1"/>
				</g>
			</g>
		</g>
		<g>
			<g>
				<path class="st6" d="M350.2,225.4v23.2h20v-23.2H350.2z M353.1,229.1h-1.6v-2.2h1.6V229.1z M357,232.8h-1.6v-2.2h1.6V232.8z
					 M361,236.5h-1.6v-2.2h1.6V236.5z M361,232.8h-1.6v-2.2h1.6V232.8z M364.9,229.1h-1.6v-2.2h1.6V229.1z M368.7,236.5h-1.6v-2.2
					h1.6V236.5z M368.7,229.1h-1.6v-2.2h1.6V229.1z"/>
			</g>
			<rect x="351.6" y="226.9" class="st6" width="0.3" height="2.2"/>
			<rect x="355.5" y="226.9" class="st6" width="1.6" height="2.2"/>
			<rect x="355.5" y="226.9" class="st6" width="0.3" height="2.2"/>
			<rect x="351.6" y="230.6" class="st6" width="1.6" height="2.2"/>
			<rect x="351.6" y="230.6" class="st6" width="0.3" height="2.2"/>
			<rect x="355.5" y="230.6" class="st6" width="0.3" height="2.2"/>
			<rect x="351.6" y="234.3" class="st6" width="1.6" height="2.2"/>
			<rect x="351.6" y="234.3" class="st6" width="0.3" height="2.2"/>
			<rect x="355.5" y="234.3" class="st6" width="1.6" height="2.2"/>
			<rect x="355.5" y="234.3" class="st6" width="0.3" height="2.2"/>
			<rect x="359.5" y="226.9" class="st6" width="1.6" height="2.2"/>
			<rect x="359.5" y="226.9" class="st6" width="0.3" height="2.2"/>
			<rect x="363.4" y="226.9" class="st6" width="0.3" height="2.2"/>
			<rect x="359.5" y="230.6" class="st6" width="0.3" height="2.2"/>
			<rect x="363.4" y="230.6" class="st6" width="1.6" height="2.2"/>
			<rect x="363.4" y="230.6" class="st6" width="0.3" height="2.2"/>
			<rect x="359.5" y="234.3" class="st6" width="0.3" height="2.2"/>
			<rect x="363.4" y="234.3" class="st6" width="1.6" height="2.2"/>
			<rect x="363.4" y="234.3" class="st6" width="0.3" height="2.2"/>
			<rect x="367.2" y="226.9" class="st6" width="0.3" height="2.2"/>
			<rect x="367.2" y="230.6" class="st6" width="1.6" height="2.2"/>
			<rect x="367.2" y="230.6" class="st6" width="0.3" height="2.2"/>
			<rect x="367.2" y="234.3" class="st6" width="0.3" height="2.2"/>
		</g>
		<g>
			<g>
				<path class="st6" d="M406.2,225.4v23.2h20v-23.2H406.2z M423.1,226.9h1.6v2.2h-1.6V226.9z M419.3,230.6h1.6v2.2h-1.6V230.6z
					 M415.3,234.3h1.6v2.2h-1.6V234.3z M415.3,230.6h1.6v2.2h-1.6V230.6z M411.4,226.9h1.6v2.2h-1.6V226.9z M407.5,234.3h1.6v2.2
					h-1.6V234.3z M407.5,226.9h1.6v2.2h-1.6V226.9z"/>
			</g>
			
				<rect x="424.5" y="226.9" transform="matrix(-1 -1.224647e-16 1.224647e-16 -1 849.1666 456.0928)" class="st6" width="0.3" height="2.2"/>
			
				<rect x="419.3" y="226.9" transform="matrix(-1 -1.224647e-16 1.224647e-16 -1 840.0863 456.0928)" class="st6" width="1.6" height="2.2"/>
			
				<rect x="420.6" y="226.9" transform="matrix(-1 -1.224647e-16 1.224647e-16 -1 841.396 456.0928)" class="st6" width="0.3" height="2.2"/>
			
				<rect x="423.1" y="230.6" transform="matrix(-1 -1.224647e-16 1.224647e-16 -1 847.8574 463.3527)" class="st6" width="1.6" height="2.2"/>
			
				<rect x="424.5" y="230.6" transform="matrix(-1 -1.224647e-16 1.224647e-16 -1 849.1666 463.3527)" class="st6" width="0.3" height="2.2"/>
			
				<rect x="420.6" y="230.6" transform="matrix(-1 -1.224647e-16 1.224647e-16 -1 841.396 463.3527)" class="st6" width="0.3" height="2.2"/>
			
				<rect x="423.1" y="234.3" transform="matrix(-1 -1.224647e-16 1.224647e-16 -1 847.8574 470.8617)" class="st6" width="1.6" height="2.2"/>
			
				<rect x="424.5" y="234.3" transform="matrix(-1 -1.224647e-16 1.224647e-16 -1 849.1666 470.8617)" class="st6" width="0.3" height="2.2"/>
			
				<rect x="419.3" y="234.3" transform="matrix(-1 -1.224647e-16 1.224647e-16 -1 840.0863 470.8617)" class="st6" width="1.6" height="2.2"/>
			
				<rect x="420.6" y="234.3" transform="matrix(-1 -1.224647e-16 1.224647e-16 -1 841.396 470.8617)" class="st6" width="0.3" height="2.2"/>
			
				<rect x="415.3" y="226.9" transform="matrix(-1 -1.224647e-16 1.224647e-16 -1 832.0909 456.0928)" class="st6" width="1.6" height="2.2"/>
			
				<rect x="416.6" y="226.9" transform="matrix(-1 -1.224647e-16 1.224647e-16 -1 833.3997 456.0928)" class="st6" width="0.3" height="2.2"/>
			
				<rect x="412.7" y="226.9" transform="matrix(-1 -1.224647e-16 1.224647e-16 -1 825.6295 456.0928)" class="st6" width="0.3" height="2.2"/>
			
				<rect x="416.6" y="230.6" transform="matrix(-1 -1.224647e-16 1.224647e-16 -1 833.3997 463.3527)" class="st6" width="0.3" height="2.2"/>
			
				<rect x="411.4" y="230.6" transform="matrix(-1 -1.224647e-16 1.224647e-16 -1 824.3199 463.3527)" class="st6" width="1.6" height="2.2"/>
			
				<rect x="412.7" y="230.6" transform="matrix(-1 -1.224647e-16 1.224647e-16 -1 825.6295 463.3527)" class="st6" width="0.3" height="2.2"/>
			
				<rect x="416.6" y="234.3" transform="matrix(-1 -1.224647e-16 1.224647e-16 -1 833.3997 470.8617)" class="st6" width="0.3" height="2.2"/>
			
				<rect x="411.4" y="234.3" transform="matrix(-1 -1.224647e-16 1.224647e-16 -1 824.3199 470.8617)" class="st6" width="1.6" height="2.2"/>
			
				<rect x="412.7" y="234.3" transform="matrix(-1 -1.224647e-16 1.224647e-16 -1 825.6295 470.8617)" class="st6" width="0.3" height="2.2"/>
			
				<rect x="408.9" y="226.9" transform="matrix(-1 -1.224647e-16 1.224647e-16 -1 817.9705 456.0928)" class="st6" width="0.3" height="2.2"/>
			
				<rect x="407.5" y="230.6" transform="matrix(-1 -1.224647e-16 1.224647e-16 -1 816.6617 463.3527)" class="st6" width="1.6" height="2.2"/>
			
				<rect x="408.9" y="230.6" transform="matrix(-1 -1.224647e-16 1.224647e-16 -1 817.9705 463.3527)" class="st6" width="0.3" height="2.2"/>
			
				<rect x="408.9" y="234.3" transform="matrix(-1 -1.224647e-16 1.224647e-16 -1 817.9705 470.8617)" class="st6" width="0.3" height="2.2"/>
		</g>
		<g>
			<rect x="341.7" y="233" class="st6" width="8.4" height="1.4"/>
			<rect x="341.7" y="231.5" class="st6" width="8.4" height="0.5"/>
			<g>
				
					<rect x="349.2" y="232.3" transform="matrix(-1.836970e-16 1 -1 -1.836970e-16 582.4927 -117.4164)" class="st6" width="1.6" height="0.5"/>
				<rect x="348.4" y="231.7" class="st6" width="0.5" height="1.6"/>
				<rect x="347.1" y="231.7" class="st6" width="0.5" height="1.6"/>
				<rect x="345.7" y="231.7" class="st6" width="0.5" height="1.6"/>
				<rect x="344.4" y="231.7" class="st6" width="0.5" height="1.6"/>
				<rect x="343.1" y="231.7" class="st6" width="0.5" height="1.6"/>
				
					<rect x="341.2" y="232.3" transform="matrix(-1.836970e-16 1 -1 -1.836970e-16 574.5082 -109.4318)" class="st6" width="1.6" height="0.5"/>
			</g>
		</g>
		<g>
			<g>
				<rect x="350.3" y="223.5" class="st6" width="5.6" height="0.9"/>
				<rect x="350.3" y="222.6" class="st6" width="5.6" height="0.3"/>
				<g>
					
						<rect x="355.3" y="223.1" transform="matrix(-1.836970e-16 1 -1 -1.836970e-16 579.0812 -132.5502)" class="st6" width="1.1" height="0.3"/>
					<rect x="354.8" y="222.7" class="st6" width="0.3" height="1.1"/>
					<rect x="353.9" y="222.7" class="st6" width="0.3" height="1.1"/>
					<rect x="353" y="222.7" class="st6" width="0.3" height="1.1"/>
					<rect x="352.1" y="222.7" class="st6" width="0.3" height="1.1"/>
					<rect x="351.2" y="222.7" class="st6" width="0.3" height="1.1"/>
					
						<rect x="349.9" y="223.1" transform="matrix(-1.836970e-16 1 -1 -1.836970e-16 573.7393 -127.2084)" class="st6" width="1.1" height="0.3"/>
				</g>
			</g>
			<g>
				<rect x="355.7" y="223.5" class="st6" width="5.6" height="0.9"/>
				<rect x="355.7" y="222.6" class="st6" width="5.6" height="0.3"/>
				<g>
					
						<rect x="360.6" y="223.1" transform="matrix(-1.836970e-16 1 -1 -1.836970e-16 584.423 -137.892)" class="st6" width="1.1" height="0.3"/>
					<rect x="360.1" y="222.7" class="st6" width="0.3" height="1.1"/>
					<rect x="359.2" y="222.7" class="st6" width="0.3" height="1.1"/>
					<rect x="358.3" y="222.7" class="st6" width="0.3" height="1.1"/>
					<rect x="357.4" y="222.7" class="st6" width="0.3" height="1.1"/>
					<rect x="356.6" y="222.7" class="st6" width="0.3" height="1.1"/>
					
						<rect x="355.3" y="223.1" transform="matrix(-1.836970e-16 1 -1 -1.836970e-16 579.0812 -132.5502)" class="st6" width="1.1" height="0.3"/>
				</g>
			</g>
		</g>
		<g>
			<rect x="343.4" y="216.2" class="st6" width="5.6" height="0.9"/>
			<rect x="343.4" y="215.3" class="st6" width="5.6" height="0.3"/>
			<g>
				
					<rect x="348.3" y="215.8" transform="matrix(-1.836970e-16 1 -1 -1.836970e-16 564.8198 -132.9066)" class="st6" width="1.1" height="0.3"/>
				<rect x="347.8" y="215.4" class="st6" width="0.3" height="1.1"/>
				<rect x="346.9" y="215.4" class="st6" width="0.3" height="1.1"/>
				<rect x="346" y="215.4" class="st6" width="0.3" height="1.1"/>
				<rect x="345.1" y="215.4" class="st6" width="0.3" height="1.1"/>
				<rect x="344.3" y="215.4" class="st6" width="0.3" height="1.1"/>
				
					<rect x="343" y="215.8" transform="matrix(-1.836970e-16 1 -1 -1.836970e-16 559.4785 -127.5653)" class="st6" width="1.1" height="0.3"/>
			</g>
		</g>
		<g>
			<rect x="395.3" y="219.2" class="st6" width="5.6" height="0.9"/>
			<rect x="395.3" y="218.2" class="st6" width="5.6" height="0.3"/>
			<g>
				
					<rect x="400.3" y="218.8" transform="matrix(-1.836970e-16 1 -1 -1.836970e-16 619.6969 -181.8784)" class="st6" width="1.1" height="0.3"/>
				<rect x="399.7" y="218.4" class="st6" width="0.3" height="1.1"/>
				<rect x="398.9" y="218.4" class="st6" width="0.3" height="1.1"/>
				<rect x="398" y="218.4" class="st6" width="0.3" height="1.1"/>
				<rect x="397.1" y="218.4" class="st6" width="0.3" height="1.1"/>
				<rect x="396.2" y="218.4" class="st6" width="0.3" height="1.1"/>
				
					<rect x="394.9" y="218.8" transform="matrix(-1.836970e-16 1 -1 -1.836970e-16 614.355 -176.5366)" class="st6" width="1.1" height="0.3"/>
			</g>
		</g>
		<g>
			<rect x="395.3" y="222.5" class="st6" width="5.6" height="0.9"/>
			<rect x="395.3" y="221.5" class="st6" width="5.6" height="0.3"/>
			<g>
				
					<rect x="400.3" y="222.1" transform="matrix(-1.836970e-16 1 -1 -1.836970e-16 623.0202 -178.5551)" class="st6" width="1.1" height="0.3"/>
				<rect x="399.7" y="221.7" class="st6" width="0.3" height="1.1"/>
				<rect x="398.9" y="221.7" class="st6" width="0.3" height="1.1"/>
				<rect x="398" y="221.7" class="st6" width="0.3" height="1.1"/>
				<rect x="397.1" y="221.7" class="st6" width="0.3" height="1.1"/>
				<rect x="396.2" y="221.7" class="st6" width="0.3" height="1.1"/>
				
					<rect x="394.9" y="222.1" transform="matrix(-1.836970e-16 1 -1 -1.836970e-16 617.6783 -173.2132)" class="st6" width="1.1" height="0.3"/>
			</g>
		</g>
		<g>
			<rect x="395.3" y="225.9" class="st6" width="5.6" height="0.9"/>
			<rect x="395.3" y="224.9" class="st6" width="5.6" height="0.3"/>
			<g>
				
					<rect x="400.3" y="225.5" transform="matrix(-1.836970e-16 1 -1 -1.836970e-16 626.3983 -175.177)" class="st6" width="1.1" height="0.3"/>
				<rect x="399.7" y="225.1" class="st6" width="0.3" height="1.1"/>
				<rect x="398.9" y="225.1" class="st6" width="0.3" height="1.1"/>
				<rect x="398" y="225.1" class="st6" width="0.3" height="1.1"/>
				<rect x="397.1" y="225.1" class="st6" width="0.3" height="1.1"/>
				<rect x="396.2" y="225.1" class="st6" width="0.3" height="1.1"/>
				
					<rect x="394.9" y="225.5" transform="matrix(-1.836970e-16 1 -1 -1.836970e-16 621.0564 -169.8352)" class="st6" width="1.1" height="0.3"/>
			</g>
		</g>
		<g>
			<rect x="336.2" y="210.9" class="st6" width="0.2" height="1.8"/>
			<rect x="339.3" y="210.9" class="st6" width="0.2" height="1.8"/>
			<rect x="336.2" y="213.8" class="st6" width="0.2" height="1.8"/>
			<rect x="339.3" y="213.8" class="st6" width="0.2" height="1.8"/>
			<rect x="336.2" y="216.8" class="st6" width="0.2" height="1.8"/>
			<rect x="339.3" y="216.8" class="st6" width="0.2" height="1.8"/>
			<rect x="342.5" y="210.9" class="st6" width="0.2" height="1.8"/>
			<rect x="345.6" y="210.9" class="st6" width="0.2" height="1.8"/>
			<rect x="342.5" y="213.8" class="st6" width="0.2" height="1.8"/>
			<rect x="345.6" y="213.8" class="st6" width="0.2" height="1.8"/>
			<rect x="342.5" y="216.8" class="st6" width="0.2" height="1.8"/>
			<rect x="345.6" y="216.8" class="st6" width="0.2" height="1.8"/>
			<rect x="348.7" y="210.9" class="st6" width="0.2" height="1.8"/>
			<g>
				<path class="st6" d="M335.1,209.7v18.5h15.9v-18.5H335.1z M337.5,218.6h-1.2v-1.8h1.2V218.6z M337.5,215.6h-1.2v-1.8h1.2V215.6z
					 M337.5,212.7h-1.2v-1.8h1.2V212.7z M340.6,218.6h-1.2v-1.8h1.2V218.6z M340.6,215.6h-1.2v-1.8h1.2V215.6z M340.6,212.7h-1.2
					v-1.8h1.2V212.7z M343.8,218.6h-1.2v-1.8h1.2V218.6z M343.8,215.6h-1.2v-1.8h1.2V215.6z M343.8,212.7h-1.2v-1.8h1.2V212.7z
					 M346.9,218.6h-1.2v-1.8h1.2V218.6z M346.9,215.6h-1.2v-1.8h1.2V215.6z M346.9,212.7h-1.2v-1.8h1.2V212.7z M349.9,218.6h-1.2
					v-1.8h1.2V218.6z M349.9,215.6h-1.2v-1.8h1.2V215.6z M349.9,212.7h-1.2v-1.8h1.2V212.7z"/>
			</g>
			<rect x="348.7" y="213.8" class="st6" width="0.2" height="1.8"/>
			<rect x="348.7" y="216.8" class="st6" width="0.2" height="1.8"/>
		</g>
		<g>
			<g>
				<path class="st6" d="M326.3,223.1v23.2h20v-23.2H326.3z M329.2,226.9h-1.6v-2.2h1.6V226.9z M333.1,230.5h-1.6v-2.2h1.6V230.5z
					 M337.1,234.2h-1.6V232h1.6V234.2z M337.1,230.5h-1.6v-2.2h1.6V230.5z M341,226.9h-1.6v-2.2h1.6V226.9z M344.8,234.2h-1.6V232
					h1.6V234.2z M344.8,226.9h-1.6v-2.2h1.6V226.9z"/>
			</g>
			<rect x="327.7" y="224.6" class="st6" width="0.3" height="2.2"/>
			<rect x="331.6" y="224.6" class="st6" width="1.6" height="2.2"/>
			<rect x="331.6" y="224.6" class="st6" width="0.3" height="2.2"/>
			<rect x="327.7" y="228.3" class="st6" width="1.6" height="2.2"/>
			<rect x="327.7" y="228.3" class="st6" width="0.3" height="2.2"/>
			<rect x="331.6" y="228.3" class="st6" width="0.3" height="2.2"/>
			<rect x="327.7" y="232" class="st6" width="1.6" height="2.2"/>
			<rect x="327.7" y="232" class="st6" width="0.3" height="2.2"/>
			<rect x="331.6" y="232" class="st6" width="1.6" height="2.2"/>
			<rect x="331.6" y="232" class="st6" width="0.3" height="2.2"/>
			<rect x="335.6" y="224.6" class="st6" width="1.6" height="2.2"/>
			<rect x="335.6" y="224.6" class="st6" width="0.3" height="2.2"/>
			<rect x="339.5" y="224.6" class="st6" width="0.3" height="2.2"/>
			<rect x="335.6" y="228.3" class="st6" width="0.3" height="2.2"/>
			<rect x="339.5" y="228.3" class="st6" width="1.6" height="2.2"/>
			<rect x="339.5" y="228.3" class="st6" width="0.3" height="2.2"/>
			<rect x="335.6" y="232" class="st6" width="0.3" height="2.2"/>
			<rect x="339.5" y="232" class="st6" width="1.6" height="2.2"/>
			<rect x="339.5" y="232" class="st6" width="0.3" height="2.2"/>
			<rect x="343.3" y="224.6" class="st6" width="0.3" height="2.2"/>
			<rect x="343.3" y="228.3" class="st6" width="1.6" height="2.2"/>
			<rect x="343.3" y="228.3" class="st6" width="0.3" height="2.2"/>
			<rect x="343.3" y="232" class="st6" width="0.3" height="2.2"/>
		</g>
		<g>
			<g>
				<path class="st6" d="M219.6,222.9V263h20v-40.1H219.6z M236.6,225.6h1.6v3.8h-1.6V225.6z M232.8,231.9h1.6v3.8h-1.6V231.9z
					 M228.8,238.4h1.6v3.8h-1.6V238.4z M228.8,231.9h1.6v3.8h-1.6V231.9z M224.9,225.6h1.6v3.8h-1.6V225.6z M221,238.4h1.6v3.8H221
					V238.4z M221,225.6h1.6v3.8H221V225.6z"/>
			</g>
			
				<rect x="237.9" y="225.6" transform="matrix(-1 -1.224647e-16 1.224647e-16 -1 476.1463 455.0271)" class="st6" width="0.3" height="3.8"/>
			
				<rect x="232.8" y="225.6" transform="matrix(-1 -1.224647e-16 1.224647e-16 -1 467.0659 455.0271)" class="st6" width="1.6" height="3.8"/>
			
				<rect x="234.1" y="225.6" transform="matrix(-1 -1.224647e-16 1.224647e-16 -1 468.3748 455.0271)" class="st6" width="0.3" height="3.8"/>
			
				<rect x="236.6" y="231.9" transform="matrix(-1 -1.224647e-16 1.224647e-16 -1 474.8369 467.6021)" class="st6" width="1.6" height="3.8"/>
			
				<rect x="237.9" y="231.9" transform="matrix(-1 -1.224647e-16 1.224647e-16 -1 476.1463 467.6021)" class="st6" width="0.3" height="3.8"/>
			
				<rect x="234.1" y="231.9" transform="matrix(-1 -1.224647e-16 1.224647e-16 -1 468.3748 467.6021)" class="st6" width="0.3" height="3.8"/>
			
				<rect x="236.6" y="238.4" transform="matrix(-1 -1.224647e-16 1.224647e-16 -1 474.8369 480.6092)" class="st6" width="1.6" height="3.8"/>
			
				<rect x="237.9" y="238.4" transform="matrix(-1 -1.224647e-16 1.224647e-16 -1 476.1463 480.6092)" class="st6" width="0.3" height="3.8"/>
			
				<rect x="232.8" y="238.4" transform="matrix(-1 -1.224647e-16 1.224647e-16 -1 467.0659 480.6092)" class="st6" width="1.6" height="3.8"/>
			
				<rect x="234.1" y="238.4" transform="matrix(-1 -1.224647e-16 1.224647e-16 -1 468.3748 480.6092)" class="st6" width="0.3" height="3.8"/>
			
				<rect x="228.8" y="225.6" transform="matrix(-1 -1.224647e-16 1.224647e-16 -1 459.0707 455.0271)" class="st6" width="1.6" height="3.8"/>
			
				<rect x="230.1" y="225.6" transform="matrix(-1 -1.224647e-16 1.224647e-16 -1 460.3799 455.0271)" class="st6" width="0.3" height="3.8"/>
			
				<rect x="226.2" y="225.6" transform="matrix(-1 -1.224647e-16 1.224647e-16 -1 452.6086 455.0271)" class="st6" width="0.3" height="3.8"/>
			
				<rect x="230.1" y="231.9" transform="matrix(-1 -1.224647e-16 1.224647e-16 -1 460.3799 467.6021)" class="st6" width="0.3" height="3.8"/>
			
				<rect x="224.9" y="231.9" transform="matrix(-1 -1.224647e-16 1.224647e-16 -1 451.2989 467.6021)" class="st6" width="1.6" height="3.8"/>
			
				<rect x="226.2" y="231.9" transform="matrix(-1 -1.224647e-16 1.224647e-16 -1 452.6086 467.6021)" class="st6" width="0.3" height="3.8"/>
			
				<rect x="230.1" y="238.4" transform="matrix(-1 -1.224647e-16 1.224647e-16 -1 460.3799 480.6092)" class="st6" width="0.3" height="3.8"/>
			
				<rect x="224.9" y="238.4" transform="matrix(-1 -1.224647e-16 1.224647e-16 -1 451.2989 480.6092)" class="st6" width="1.6" height="3.8"/>
			
				<rect x="226.2" y="238.4" transform="matrix(-1 -1.224647e-16 1.224647e-16 -1 452.6086 480.6092)" class="st6" width="0.3" height="3.8"/>
			
				<rect x="222.3" y="225.6" transform="matrix(-1 -1.224647e-16 1.224647e-16 -1 444.9497 455.0271)" class="st6" width="0.3" height="3.8"/>
			
				<rect x="221" y="231.9" transform="matrix(-1 -1.224647e-16 1.224647e-16 -1 443.641 467.6021)" class="st6" width="1.6" height="3.8"/>
			
				<rect x="222.3" y="231.9" transform="matrix(-1 -1.224647e-16 1.224647e-16 -1 444.9497 467.6021)" class="st6" width="0.3" height="3.8"/>
			
				<rect x="222.3" y="238.4" transform="matrix(-1 -1.224647e-16 1.224647e-16 -1 444.9497 480.6092)" class="st6" width="0.3" height="3.8"/>
		</g>
		<g>
			<rect x="246.8" y="230.7" class="st6" width="8.4" height="1.4"/>
			<rect x="246.8" y="229.2" class="st6" width="8.4" height="0.5"/>
			<g>
				
					<rect x="254.2" y="230" transform="matrix(-1.836970e-16 1 -1 -1.836970e-16 485.2169 -24.7343)" class="st6" width="1.6" height="0.5"/>
				<rect x="253.4" y="229.4" class="st6" width="0.5" height="1.6"/>
				<rect x="252.1" y="229.4" class="st6" width="0.5" height="1.6"/>
				<rect x="250.8" y="229.4" class="st6" width="0.5" height="1.6"/>
				<rect x="249.4" y="229.4" class="st6" width="0.5" height="1.6"/>
				<rect x="248.1" y="229.4" class="st6" width="0.5" height="1.6"/>
				
					<rect x="246.2" y="230" transform="matrix(-1.836970e-16 1 -1 -1.836970e-16 477.2321 -16.7495)" class="st6" width="1.6" height="0.5"/>
			</g>
		</g>
		<g>
			<rect x="208.8" y="216.7" class="st6" width="5.6" height="0.9"/>
			<rect x="208.8" y="215.7" class="st6" width="5.6" height="0.3"/>
			<g>
				
					<rect x="213.7" y="216.3" transform="matrix(-1.836970e-16 1 -1 -1.836970e-16 430.7034 2.1484)" class="st6" width="1.1" height="0.3"/>
				<rect x="213.2" y="215.9" class="st6" width="0.3" height="1.1"/>
				<rect x="212.3" y="215.9" class="st6" width="0.3" height="1.1"/>
				<rect x="211.5" y="215.9" class="st6" width="0.3" height="1.1"/>
				<rect x="210.6" y="215.9" class="st6" width="0.3" height="1.1"/>
				<rect x="209.7" y="215.9" class="st6" width="0.3" height="1.1"/>
				
					<rect x="208.4" y="216.3" transform="matrix(-1.836970e-16 1 -1 -1.836970e-16 425.3618 7.49)" class="st6" width="1.1" height="0.3"/>
			</g>
		</g>
		<g>
			<rect x="208.8" y="220" class="st6" width="5.6" height="0.9"/>
			<rect x="208.8" y="219.1" class="st6" width="5.6" height="0.3"/>
			<g>
				
					<rect x="213.7" y="219.6" transform="matrix(-1.836970e-16 1 -1 -1.836970e-16 434.0269 5.4718)" class="st6" width="1.1" height="0.3"/>
				<rect x="213.2" y="219.2" class="st6" width="0.3" height="1.1"/>
				<rect x="212.3" y="219.2" class="st6" width="0.3" height="1.1"/>
				<rect x="211.5" y="219.2" class="st6" width="0.3" height="1.1"/>
				<rect x="210.6" y="219.2" class="st6" width="0.3" height="1.1"/>
				<rect x="209.7" y="219.2" class="st6" width="0.3" height="1.1"/>
				
					<rect x="208.4" y="219.6" transform="matrix(-1.836970e-16 1 -1 -1.836970e-16 428.6852 10.8134)" class="st6" width="1.1" height="0.3"/>
			</g>
		</g>
		<g>
			<rect x="208.8" y="223.4" class="st6" width="5.6" height="0.9"/>
			<rect x="208.8" y="222.4" class="st6" width="5.6" height="0.3"/>
			<g>
				
					<rect x="213.7" y="223" transform="matrix(-1.836970e-16 1 -1 -1.836970e-16 437.4049 8.8499)" class="st6" width="1.1" height="0.3"/>
				<rect x="213.2" y="222.6" class="st6" width="0.3" height="1.1"/>
				<rect x="212.3" y="222.6" class="st6" width="0.3" height="1.1"/>
				<rect x="211.5" y="222.6" class="st6" width="0.3" height="1.1"/>
				<rect x="210.6" y="222.6" class="st6" width="0.3" height="1.1"/>
				<rect x="209.7" y="222.6" class="st6" width="0.3" height="1.1"/>
				
					<rect x="208.4" y="223" transform="matrix(-1.836970e-16 1 -1 -1.836970e-16 432.0633 14.1915)" class="st6" width="1.1" height="0.3"/>
			</g>
		</g>
	</g>
	<g id="AWAN" class="st7">
		<path class="st8" d="M71.3,86.4c0,0,28.9,3.3,56.5,3.3c27.6,0,73.8,6.6,83.4,5.8c9.6-0.8-50.7,5-66.7,4.2
			c-16-0.8-66.1,3.3-71.2,3.3C68.1,103,71.3,86.4,71.3,86.4z"/>
		<path class="st8" d="M585.1,46.3c0,0-26.7,2.6-36.6,2.6c-9.9,0-38.2,3.6-44.6,4.1c-6.4,0.5-28.2,5.7-31,5.7
			c-2.8,0,42.2,3.1,54.1,2.1c11.9-1,56.5,1,58.5,1C587.5,61.8,585.1,46.3,585.1,46.3z"/>
		<path class="st8" d="M429,67.4c0,0-28.9-0.6-39.9,0c-11.1,0.6-32.2,3.7-39.5,4.4c-7.2,0.6,34.2,5,46.7,4.4
			C408.8,75.5,429,78,429,78V67.4z"/>
		<path class="st8" d="M10.8,37.5c0,0,179.8-4.5,240.2-2.7c60.4,1.8,225.8-0.9,248.8-1.8c23-0.9,71.9,0.9,84.9,0.9
			c12.9,0-222.9,21.3-254.5,16.9C298.5,46.3,123,66.7,100,65.8C77,64.9,60.5,65,60.5,65L25,54.5c0,0,40.5,1.5,75-1.1
			c34.5-2.7,90.6-8.9,90.6-8.9s-124.2,2-142.9,2L10.8,37.5z"/>
		<path class="st8" d="M188,71.4c-2.1-1.5,44.8-3.7,60.2-6.2c15.4-2.5,73.2,3.1,76,3.7c2.9,0.6-65,4.4-75.1,5.6
			C239,75.8,195.2,76.4,188,71.4z"/>
		<path class="st8" d="M436.3,105.6c5-4.1-68.8-3.1-82.3-4.4c-13.5-1.2-61.1,5-65.9,5.6c-4.8,0.6,56.8,4.4,66.9,3.7
			C365.1,109.9,431.1,109.9,436.3,105.6z"/>
		<path class="st8" d="M255,118.5c1.9-1.9-47.2-3.1-54.9-4.4c-7.7-1.2-37.1,6.2-40.9,8.7c-3.9,2.5,27.4,0,36.6,0
			C204.9,122.8,250.2,123.5,255,118.5z"/>
	</g>
	<g id="BINTANG">
		<circle class="st9" cx="211.7" cy="54.6" r="1"/>
		<circle class="st9" cx="356.7" cy="67.5" r="0.7"/>
		<circle class="st9" cx="336.5" cy="77.5" r="0.7"/>
		<circle class="st9" cx="356" cy="140.5" r="0.7"/>
		<circle class="st9" cx="351.1" cy="123.4" r="0.7"/>
		<circle class="st9" cx="236.7" cy="76.2" r="1.3"/>
		<circle class="st9" cx="435" cy="63.4" r="1.3"/>
		<circle class="st9" cx="199.2" cy="130.8" r="1"/>
		<circle class="st9" cx="413.7" cy="116.7" r="0.9"/>
		<circle class="st9" cx="425.6" cy="67.3" r="0.9"/>
		<circle class="st9" cx="179.9" cy="180.5" r="1.3"/>
		<circle class="st9" cx="282.2" cy="120" r="1.3"/>
		<circle class="st9" cx="320.5" cy="35.9" r="1.3"/>
		<circle class="st9" cx="284.2" cy="66.9" r="1.3"/>
		<circle class="st9" cx="239.3" cy="119.4" r="0.5"/>
		<circle class="st9" cx="194.3" cy="152.5" r="0.5"/>
		<circle class="st9" cx="239.3" cy="181.8" r="0.5"/>
		<circle class="st9" cx="414.7" cy="33.1" r="0.5"/>
		<circle class="st9" cx="404" cy="38.4" r="0.5"/>
		<circle class="st9" cx="350" cy="96.3" r="0.5"/>
		<circle class="st9" cx="199.2" cy="122.4" r="0.5"/>
		<circle class="st9" cx="188.5" cy="81.2" r="0.5"/>
		<circle class="st9" cx="210.7" cy="40.8" r="0.5"/>
		<circle class="st9" cx="289.7" cy="59.6" r="0.5"/>
		<circle class="st9" cx="350.5" cy="32" r="0.5"/>
		<circle class="st9" cx="297" cy="95.7" r="0.5"/>
		<circle class="st9" cx="356.7" cy="125.8" r="0.5"/>
		<circle class="st9" cx="410" cy="90.3" r="0.7"/>
		<circle class="st9" cx="210.7" cy="64.8" r="0.7"/>
		<circle class="st9" cx="193.8" cy="45.2" r="0.7"/>
		<circle class="st9" cx="227.2" cy="75.5" r="0.7"/>
		<circle class="st9" cx="254.9" cy="52.9" r="0.3"/>
		<circle class="st9" cx="229.4" cy="38.2" r="0.7"/>
		<circle class="st9" cx="224.9" cy="45.9" r="0.5"/>
		<g>
			<circle class="st9" cx="492.4" cy="58.7" r="0.7"/>
			<circle class="st9" cx="526.6" cy="38.4" r="0.7"/>
			<circle class="st9" cx="500.2" cy="99" r="1.3"/>
			<circle class="st9" cx="483.3" cy="65.5" r="1.3"/>
			<circle class="st9" cx="554.7" cy="79.6" r="1.3"/>
			<circle class="st9" cx="486.5" cy="96.4" r="0.5"/>
			<circle class="st9" cx="460.6" cy="71.2" r="0.5"/>
			<circle class="st9" cx="568.4" cy="11.5" r="0.5"/>
			<circle class="st9" cx="550.4" cy="64.7" r="0.5"/>
			<circle class="st9" cx="564.9" cy="70.7" r="0.5"/>
			<circle class="st9" cx="521.1" cy="117.2" r="0.5"/>
			<circle class="st9" cx="487.1" cy="123.3" r="0.5"/>
			<circle class="st9" cx="531.6" cy="58.3" r="0.5"/>
			<circle class="st9" cx="550.4" cy="55.7" r="0.7"/>
			<circle class="st9" cx="545.9" cy="63.4" r="0.5"/>
		</g>
		<g>
			<circle class="st9" cx="73.8" cy="73" r="0.7"/>
			<circle class="st9" cx="108" cy="52.7" r="0.7"/>
			<circle class="st9" cx="81.6" cy="113.3" r="1.3"/>
			<circle class="st9" cx="64.7" cy="79.8" r="1.3"/>
			<circle class="st9" cx="136.1" cy="93.8" r="1.3"/>
			<circle class="st9" cx="68" cy="110.7" r="0.5"/>
			<circle class="st9" cx="42" cy="85.5" r="0.5"/>
			<circle class="st9" cx="149.8" cy="25.8" r="0.5"/>
			<circle class="st9" cx="131.8" cy="79" r="0.5"/>
			<circle class="st9" cx="146.3" cy="85" r="0.5"/>
			<circle class="st9" cx="102.5" cy="131.5" r="0.5"/>
			<circle class="st9" cx="68.5" cy="137.6" r="0.5"/>
			<circle class="st9" cx="113.1" cy="72.6" r="0.5"/>
			<circle class="st9" cx="131.8" cy="70" r="0.7"/>
			<circle class="st9" cx="127.3" cy="77.6" r="0.5"/>
		</g>
		<circle class="st9" cx="287" cy="43" r="0.5"/>
		<circle class="st9" cx="268.3" cy="36.6" r="0.5"/>
		<circle class="st9" cx="287.1" cy="34" r="0.7"/>
		<circle class="st9" cx="282.6" cy="41.7" r="0.5"/>
		<circle class="st9" cx="427.7" cy="111.8" r="0.7"/>
		<circle class="st9" cx="418.9" cy="103.4" r="0.5"/>
	</g>
	<g>
		<g>
			<g>
				<path class="st10" d="M379.2,154c-2,0-4.1,0.1-6.1,0.5c-0.4,0.1-0.8,0.2-1.1,0.4c-0.3,0.3-0.4,0.6-0.5,1c-0.3,1-0.2,2.4-0.5,3.4
					c-1.1-0.7-2.3-1.3-3.5-1.8c-0.4-0.2-0.9-0.3-1.3-0.1c-0.2,0.1-0.4,0.4-0.5,0.6c-0.6,1.2-1,2.5-1.1,3.9c0.3-1.4,1.6-2.1,3-2.3
					c1.4-0.2,2.8,0.2,4.1,0.7c0.2-2.5,2.3-4.8,4.7-5.4C377.7,154.7,378.3,154.9,379.2,154z"/>
			</g>
			<g>
				<path class="st10" d="M353.6,179.8c-0.8-0.6-1.7-1.1-2.7-1.5c-0.2-0.1-0.4-0.2-0.6-0.1c-0.2,0-0.3,0.2-0.5,0.3
					c-0.4,0.3-0.8,0.9-1.1,1.3c-0.3-0.6-0.6-1.2-1-1.7c-0.1-0.2-0.3-0.4-0.5-0.4c-0.1,0-0.3,0.1-0.4,0.1c-0.6,0.3-1.1,0.8-1.5,1.3
					c0.5-0.5,1.3-0.4,1.9-0.1c0.6,0.3,1.1,0.9,1.5,1.4c0.8-1,2.3-1.4,3.5-1C352.8,179.6,353,179.9,353.6,179.8z"/>
			</g>
			<g>
				<path class="st10" d="M226.9,175.4c-1-0.9-2-1.6-3.2-2.3c-0.2-0.1-0.5-0.3-0.7-0.3c-0.2,0-0.5,0.1-0.7,0.3
					c-0.6,0.4-1.1,1.1-1.6,1.5c-0.2-0.8-0.6-1.6-0.9-2.3c-0.1-0.3-0.3-0.5-0.6-0.6c-0.2,0-0.3,0-0.5,0.1c-0.8,0.3-1.6,0.8-2.1,1.5
					c0.7-0.5,1.7-0.3,2.4,0.2c0.8,0.5,1.3,1.3,1.7,2.1c1.2-1.1,3.1-1.4,4.6-0.7C225.9,175.1,226.1,175.5,226.9,175.4z"/>
			</g>
			<g>
				<path class="st10" d="M189.3,156.4c1-0.9,2.2-1.7,3.4-2.5c0.2-0.1,0.5-0.3,0.8-0.3c0.3,0,0.5,0.2,0.7,0.3
					c0.6,0.4,1.2,1.1,1.8,1.6c0.3-0.9,0.6-1.7,1-2.5c0.1-0.3,0.3-0.6,0.6-0.6c0.2,0,0.4,0,0.5,0.1c0.9,0.3,1.7,0.9,2.3,1.6
					c-0.8-0.6-1.8-0.4-2.6,0.2c-0.8,0.5-1.4,1.4-1.8,2.2c-1.2-1.2-3.4-1.5-4.9-0.7C190.3,156.1,190.1,156.5,189.3,156.4z"/>
			</g>
		</g>
	</g>
	
		<linearGradient id="XMLID_2_" gradientUnits="userSpaceOnUse" x1="84.477" y1="97.419" x2="84.477" y2="124.8315" gradientTransform="matrix(-1 0 0 1 602 0)">
		<stop  offset="0" style="stop-color:#FFFFFF"/>
		<stop  offset="0.8867" style="stop-color:#FFFFFF;stop-opacity:0.1133"/>
		<stop  offset="1" style="stop-color:#FFFFFF;stop-opacity:0"/>
	</linearGradient>
	<path id="XMLID_86_" class="st11" d="M603.7,93.6c-3-9.8-22.2-3.1-27.3,1.3c-3.8,3.2-7.9,8-12.6,6.5c-1.7-0.5-3-1.8-4.4-2.8
		c-5.5-3.8-13.4-3.5-18.7,0.6c-3.3,2.6-6,6.6-10.2,6.8c-2.3,0.1-4.5-1.1-6.8-1.2c-5.5-0.2-9.2,5.3-13.8,8.3
		c-5.1,3.3-9.6,2.3-15.2,1.4c-4.9-0.8-10.1-0.1-15,0.4c-6.9,0.7-14.4,3.3-21.3,3.3c-1.3,0-27.6,4.3-27.6,4.3s20.6,3.5,31.5,2.4
		c10.9-1.1,5.5-1.2,15.4,0c9.9,1.2,21,4.1,25.4,3.7c4.4-0.4-2.3,0.1,13.7,0c15.9,0,17.1,2.4,32.8,2.2c15.7-0.1,17.3-4.5,26.9-6
		c9.6-1.5,27.7,0.6,27.7,0.6c0-5.8,0-11.7,0-17.5C604,104.8,605,98,603.7,93.6C603.7,93.6,603.7,93.6,603.7,93.6z"/>
	<linearGradient id="XMLID_3_" gradientUnits="userSpaceOnUse" x1="141.6677" y1="151.7181" x2="141.6677" y2="209.0676">
		<stop  offset="0" style="stop-color:#FFFFFF"/>
		<stop  offset="1" style="stop-color:#FFFFFF;stop-opacity:0"/>
	</linearGradient>
	<path id="XMLID_37_" class="st12" d="M-1.8,137.2c0,0,12.6-11.4,31.6-4.1c18.9,7.3,17.9,16.4,22.7,20.4c4.8,4,8.1,11.3,22.8,4.9
		c14.7-6.3,21.6-8.3,30.7,2.5c9.1,10.8-1,19.3,12.1,25.9s17.9-3.8,29.2,0c11.3,3.8,20.6,19.9,28.7,18.5c8.2-1.4,28.1-5,31.8-4.1
		c3.7,1,77.6,9.2,77.6,9.2s-101.3-1-114.1,8c-12.8,9-17.1,18.3-27.6,9c-10.6-9.3-21-21.8-43.7-17c-22.7,4.8-16.2,7.4-33.7,8
		C48.7,219,32.4,199.6,23,197c-9.4-2.6-25,4.2-25,4.2L-1.8,137.2z"/>
	<path class="st13" d="M526.3,38.5L526.3,38.5l-52.8,27.2c-0.5,0.2-1.1,0-1.4-0.5l0,0c-0.2-0.5,0-1.1,0.5-1.4L526.3,38.5L526.3,38.5
		L526.3,38.5z"/>
	<path class="st13" d="M478.8,85.8L478.8,85.8l-20.3,10.5c-0.2,0.1-0.4,0-0.5-0.2l0,0c-0.1-0.2,0-0.4,0.2-0.5L478.8,85.8L478.8,85.8
		L478.8,85.8z"/>
	<g id="GUNUNG">
		<path class="st14" d="M109,239.3c0,0,14.8-20.5,42.9-29c12.6-3.8,23-5.7,23-5.7s-17.8,16.2-24.9,19.7
			C142.8,227.8,109,239.3,109,239.3z"/>
		<path class="st15" d="M65.3,182.8c2.8,1.5,6.3,4.5,8.3,9.6c2,5,4.8,14.6,4.8,14.6s-11.8-6-13.6-9.9c-1.8-3.9-5.1-16.3-5.1-16.3
			S64,182.1,65.3,182.8z"/>
		<path class="st16" d="M442.9,146.2l64.8,15.7c0,0-51.9-6.7-57.1-7.1C442.2,154,442.9,146.2,442.9,146.2z"/>
		<polygon class="st17" points="337.5,243.7 323.7,255.1 330,262.7 332.5,264.9 352.8,266.3 460.2,235.6 481.7,207.4 375.7,218.4 		
			"/>
		<path class="st18" d="M526.4,168.3c0,0,11.4-6.5,19.3-11.5c10-6.4,32.4-16.3,32.4-16.3s-27,24.7-37.3,29.8
			c-10.3,5-22.4,4.8-22.4,4.8L526.4,168.3z"/>
		<path class="st15" d="M271.7,216.4c0,0,35.4,5.8,40.3,11.8c4.9,5.9,8.2,12.3,11.9,13.1c3.7,0.8,11.8,1.8,13.6,2.5
			c1.8,0.7-16.6,9-16.6,9s-11.4-14.7-19.3-20C293.6,227.4,271.7,216.4,271.7,216.4z"/>
		<path class="st19" d="M218.8,234.2l40.5-22.1c0,0,5,7.4,3.8,9.8C258,232.2,218.8,234.2,218.8,234.2z"/>
		<path class="st20" d="M28.6,194.3c0,0,29.5-14.5,31.2-13.6c3.3,1.8,7.4,13.8,9.8,17.4c5.3,7.8,27.9,16.1,34.7,22.7
			c6.8,6.5,10.9,17,17.9,10.8c23.2-20.7,45.5-22.7,52.3-26.9c2.8-1.7,20.1,21.9,22.1,23.2c10,6.1,19.5,6.8,25.1,5.3
			c8.3-2.3,38.2-10.1,39.5-14.6c1.3-4.5-11.1-10.3,8.8-2.8c19.9,7.6,32.9,13.6,38.2,19.9c5.3,6.3,25.1,30.7,25.1,30.7l-304.8-1.8
			V194.3z"/>
		<path class="st21" d="M-2,190.3c0,0,57,3.8,79.6,21.6c5,4,20.4,22.1,31.9,25.4c11.6,3.3,24.1,1.3,30.4,4.5
			c6.3,3.3,21.9,13.6,23.9,14.6c2,1,72.9,5,79.7,4.5c6.8-0.5,35.4,2,40.2,5c4.8,3-285.8,1.1-285.8,1.1V190.3z"/>
		<path class="st22" d="M25,213.2c0,0,24.8,3.9,29.3,7.9c4.5,4,28.4,30.7,43,35.8c7,2.5,14,10.5,14,10.5s-30.5-10-39.9-16.4
			c-8.9-6-17.9-23.3-33-30.1C34.9,219.4,25,213.2,25,213.2z"/>
		<polygon class="st23" points="603.9,301.7 604.4,222.6 520.3,175.7 507.5,161.6 452.6,235.2 348.3,266.3 		"/>
		<path class="st23" d="M-2,202.9c0,0,48.7,18.1,52,21.4c7.9,7.9,22.9,24.2,40.2,32.7c17.4,8.6,20.3,10.1,20.3,10.1H-2V202.9z"/>
		<path class="st21" d="M321,251.1c0,0,28.4-14.3,34.5-20.7c8.3-8.7,12.3-30.4,14.5-31.1c13.5-4.6,59.7-23,67.2-39.9
			c7.5-16.9,4-14.6,7.8-9.3c3.8,5.3,58.9,7.5,62.7,11.8c3.8,4.3,5.7,22.9,6,25.9c0.3,3,17.1,20.4,17.1,20.4s-18.6-13.1-31.2-11.6
			c-12.6,1.5-48.8,12.8-64.9,12.8c-16.1,0-27.2-0.5-33.7,2.7c-6.5,3.1-76.8,43-76.8,43L321,251.1z"/>
		<path class="st21" d="M519.5,174.8c0,0,10.1-1.8,21.9-8.4c11.8-6.5,33.3-27.4,39.3-27.2c6,0.3,23.6,8.8,23.6,8.8v75.6
			c0,0-67.2-31.1-83.6-45.7C519.6,176.8,519.5,174.8,519.5,174.8z"/>
		<path class="st24" d="M337.5,258.3c7.1-5.7,14.8-16.9,30.7-19.4c15.8-2.5,62.5-4.7,73.9-6c1.6-0.2,10.6,2.3,10.6,2.3l-103.4,31.2
			h-26.7C322.6,266.3,334.2,260.9,337.5,258.3z"/>
		<path class="st16" d="M370.1,199.2c0,0,51.9-24.5,57.4-32.6c3.9-5.7,14.9-19.8,14.9-19.8s-4,14.4-9.1,19.1
			C408.2,188.9,370.1,199.2,370.1,199.2z"/>
		<path class="st25" d="M442,232.8c0,0,5.2-15.7,9.5-18.7c3.8-2.6,18.3-2,18.3-2l-17.3,23L442,232.8z"/>
		<path class="st16" d="M376.3,225.7c0,0,40.6-9.2,51.7-10.8c11.1-1.5,37.5,1.9,55.1-8.3c17.6-10.2,17.6-10.2,17.6-10.2
			s-45,9.8-60.4,10.9c-8.8,0.6-27,0-35.6,2.2C396.7,211.6,376.3,225.7,376.3,225.7z"/>
		<path class="st26" d="M530.2,207.4c0,0-32,11.6-37.6,15.9c-5.5,4.3,10.6-1.3,21.6-2.8c11.1-1.5,27.9-2,27.9-2l6.3-6.4L530.2,207.4
			z"/>
		<path class="st27" d="M165.1,256.7c0,0,65-7.8,77.4-10.6c12.4-2.8,24.7-5.3,24.7-5.3s-9.6,19-15.7,21
			C235.7,267,165.1,256.7,165.1,256.7z"/>
		<path class="st28" d="M267.3,240.8c1.8-0.8,6.3,0.6,7.7,2c4.7,4.4,8.8,23.3,8.8,23.3l-31.5-4.5
			C252.4,261.5,261.5,243.4,267.3,240.8z"/>
	</g>
	<g class="st29">
		<image style="overflow:visible;" width="58" height="21" xlink:href="28F6CA94.png"  transform="matrix(1 0 0 1 141 259)">
		</image>
	</g>
	<g class="st30">
		<image style="overflow:visible;" width="58" height="21" xlink:href="28F6CA95.png"  transform="matrix(1 0 0 1 258 258)">
		</image>
	</g>
	
		<linearGradient id="SVGID_2_" gradientUnits="userSpaceOnUse" x1="142.329" y1="271.5365" x2="221.9913" y2="263.2281" gradientTransform="matrix(0.9999 1.310000e-02 -1.310000e-02 0.9999 -16.7266 0.7148)">
		<stop  offset="0.1582" style="stop-color:#3CADAF"/>
		<stop  offset="0.8316" style="stop-color:#98D5E5"/>
	</linearGradient>
	<path class="st31" d="M87.9,272.5c2.7-0.1,5.4-0.5,8.3-0.6c10-0.4,19.9,0,30,0.3c5.6,0.2,11.3,0.3,16.7-0.1
		c7.7-0.6,13.7-1.2,21.7-1.5c5.4-0.2,13.9-0.8,20.6,0.3c0,0,13.3,1.3-7.1,0.9c0,0-4.7,0.4,0.4,1.1c0,0,6.6,1.3-8.2,0.6
		c-10.7-0.5-21.3,0-31.8,0.3c-7.1,0.2-16.7,0.6-23.4-0.5C114.9,273.3,99.7,271.9,87.9,272.5z"/>
	<linearGradient id="SVGID_3_" gradientUnits="userSpaceOnUse" x1="293.3293" y1="270.4217" x2="362.3275" y2="270.4217">
		<stop  offset="0.1582" style="stop-color:#3CADAF"/>
		<stop  offset="0.8316" style="stop-color:#98D5E5"/>
	</linearGradient>
	<path class="st32" d="M296,269.7c4.3,1,11.1,0.7,17.9,0.9c5.8,0.2,7.8,0.8,13.8,0.8c5.8,0,11.4-0.5,17.2-0.7
		c5.6-0.1,12.8-0.1,17.5-0.7c-6.7,0.2-14,0.2-20.8,0.4c-7.5,0.2-9.2-0.2-15.9-0.5c-4.7-0.2-11.6,0-16.5,0c-6.6,0-10-0.2-15.9-0.5"/>
	<g class="st33">
		<path class="st34" d="M235.6,269.4c0.3,0,0.6,0,0.9,0c-4.8,0-9.9,0-14.5,0c-0.3,0-0.9,0-1.1,0c-2.3,0-5.1,0-7.4,0c-1.1,0-2,0-2,0
			c-0.3,0-0.6,0-0.3,0c0.6,0,2,0,2,0c0,0-0.3,0-0.6,0c0,0-0.8,0-1.1,0c-0.3,0-2,0-2.3,0c-0.9,0,1.7,0,2.8,0c0.6,0,0,0,0,0
			c0.6,0,0.9,0,1.4,0c0,0,0,0,0.1,0c0,0,0.1,0,0.2,0c0.2,0,0.4,0,0.7,0c0.5,0,1.2,0,1.6,0c0,0,0.3,0,1.1,0c0.3,0,0.3,0,0.3,0
			c0,0,0,0,0,0c0.3,0,0.9,0,1.1,0c0,0,0,0,0,0c0.6,0,1.1,0,1.7,0c0,0,0,0,0,0c0.3,0,0.6,0,0.6,0c0,0,0,0,0,0c0.3,0,0.9,0,0.9,0
			c0,0,0,0,0,0c1.1,0,2,0,2.8,0c2.3,0,5.1,0,7.6,0c0.3,0,0.6,0,0.3,0c0.3,0,0.6,0,0.9,0c0.6,0,0.3,0,0.8,0c2.3,0,4.5,0,6.8,0
			c1.1,0,2.3,0,3.4,0c0.6,0,1.1,0,1.7,0c0.3,0,0.6,0,0.8,0c0.1,0,0.3,0,0.4,0c0.1,0,0.2,0,0.3,0c-0.2,0-0.5,0-0.7,0
			c-0.3,0-0.5,0-0.7,0c-0.5,0-1,0-1.5,0c0,0,0,0-0.3,0c-1.7,0-3.7,0-4.5,0c-0.3,0-0.6,0-1.4,0c0.3,0,0.6,0,0.9,0c0,0,0,0,0,0
			C238.2,269.5,236.8,269.5,235.6,269.4C235.6,269.5,235.6,269.5,235.6,269.4l-0.6,0.1c-0.6,0,2.6,0,4,0c0,0,0,0,0,0l-0.6,0v0
			c1.7,0,3.1,0,4.8,0c-0.3,0-0.9,0-1.1,0c0,0,0,0-0.3,0c1.1,0,2.5,0,3.7,0c0.3,0,0,0-0.8,0c-0.9,0-1.4,0-2.3,0v0c0.6,0,1.4,0,2,0
			c0.3,0-0.6,0-0.3,0c0.3,0,0.6,0,0.9,0c-0.9,0-2,0-2.8,0c-0.3,0-0.6,0-0.6,0c-1.4,0-2.6,0-3.4,0
			C237.9,269.4,236.5,269.4,235.6,269.4z"/>
	</g>
	<g>
		<g class="st35">
			<path class="st36" d="M239,273.7c0.6,0-4.7,1.5-6.2,1.7c-1.5,0.2-4.4-0.4-5.5-0.4c-1.1,0-3.9-1.3-3.5-1.3
				C226.4,273.8,233.4,273.7,239,273.7z"/>
			<path class="st37" d="M234.4,273.7c-1.1,0.1-5.6,0.5-5.5,0.7c0.1,0.2-0.7,0.3-0.3,0.4c0.3,0.1,1.5,0.4,2.2,0.6
				c-1.4-0.1-2.8-0.4-3.5-0.4c-1.1,0-3.9-1.3-3.5-1.3C225.7,273.8,230.1,273.8,234.4,273.7C234.5,273.7,234.4,273.7,234.4,273.7z"/>
		</g>
		<g>
			<path class="st36" d="M239,273.8c0.6,0-4.7-3-6.2-3.5c-1.5-0.5-4.4,0.9-5.5,0.9c-1.1,0.1-3.9,2.6-3.5,2.6
				C226.4,273.8,233.4,273.8,239,273.8z"/>
			<path class="st37" d="M234.4,273.8c-1.1-0.2-5.6-1-5.5-1.3c0.1-0.3-0.7-0.6-0.3-0.9c0.3-0.2,1.5-0.8,2.2-1.3
				c-1.4,0.3-2.8,0.8-3.5,0.9c-1.1,0.1-3.9,2.6-3.5,2.6C225.7,273.8,230.1,273.8,234.4,273.8C234.5,273.8,234.5,273.8,234.4,273.8z"
				/>
		</g>
	</g>
	<linearGradient id="SVGID_4_" gradientUnits="userSpaceOnUse" x1="342.5723" y1="273.1877" x2="254.9313" y2="269.2846">
		<stop  offset="0" style="stop-color:#0A6D8E"/>
		<stop  offset="0.1582" style="stop-color:#3CADAF"/>
		<stop  offset="0.9796" style="stop-color:#05668B"/>
	</linearGradient>
	<path class="st38" d="M271,270.8c1.5-0.5,4.8-0.4,4.8-0.4c3.9-0.3,20.7,0.2,20.7,0.2l19,0.5l9.2,0.3h5.3c4.1,0.3,15.8,0.3,15.8,0.3
		c-2.1,0.5-16,0.1-16,0.1c-6.7,0.2-29.1-0.5-29.1-0.5c-4.3-0.3-15.8-0.4-15.8-0.4c-2.8-0.1-6-0.3-8.8,0c-0.5,0-3.3,0.3-3.1,0.6
		c0.1,0.1,0.9,0.2,1.3,0.2C274.4,271.7,269.4,271.4,271,270.8z"/>
	<g>
		<linearGradient id="SVGID_5_" gradientUnits="userSpaceOnUse" x1="359.1249" y1="268.7678" x2="358.2209" y2="277.6716">
			<stop  offset="0.1582" style="stop-color:#3CADAF"/>
			<stop  offset="0.7857" style="stop-color:#05668B"/>
		</linearGradient>
		<path class="st39" d="M353,269.7c0,0,0.6,0.9,4.6,0.8c0,0,6.1,0.1,5.4,0.9c-0.9,1-4.5,0.6-5.5,1.5c0,0-1.1,1.9-4.9,2.5
			c0,0,4.7-0.2,5.9-2c0,0,0.8-0.6,3.8-0.9c0,0,4.3-0.6,1.7-1.7c0,0-1.7-0.8-5.9-0.6c0,0-2.7,0.1-3.6-0.3
			C354.6,269.9,354.1,269.7,353,269.7z"/>
		<g>
			<path class="st40" d="M345.7,269.1c1.5,0,2.9,0.1,4.4,0.2c1.5,0.1,2.9,0.2,4.4,0.5l0,0c0.8,0.2,1.7,0.2,2.6,0.3
				c0.9,0,1.8,0,2.7,0c0.9,0,1.8,0.1,2.7,0.3c0.4,0.1,0.9,0.2,1.3,0.4c0.4,0.2,0.9,0.4,1.1,0.8c-0.2-0.4-0.7-0.5-1.1-0.7
				c-0.4-0.1-0.9-0.2-1.3-0.3c-0.9-0.1-1.8-0.2-2.7-0.2c-0.9,0-1.8,0-2.7,0c-0.9,0-1.8-0.1-2.7-0.3l0,0c-1.4-0.3-2.9-0.4-4.3-0.5
				L345.7,269.1z"/>
		</g>
	</g>
	<g>
		<path class="st41" d="M464.1,273.2c0,1.4-1.1,2.6-2.6,2.6h-18.1c-1.4,0-2.6-1.1-2.6-2.6v-3.4c0-1.4,1.1-2.6,2.6-2.6h18.1
			c1.4,0,2.6,1.1,2.6,2.6V273.2z"/>
		<path class="st41" d="M467.5,272.7c0,1.4-1.1,2.6-2.6,2.6h-5.8c-1.4,0-2.6-1.1-2.6-2.6v-0.1c0-1.4,1.1-2.6,2.6-2.6h5.8
			c1.4,0,2.6,1.1,2.6,2.6V272.7z"/>
		<path class="st41" d="M471.7,277.5c0,1.4-1.1,2.5-2.5,2.5h-24.8c-1.4,0-2.5-1.1-2.5-2.5v-0.2c0-1.4,1.1-2.5,2.5-2.5h24.8
			c1.4,0,2.5,1.1,2.5,2.5V277.5z"/>
		<path class="st41" d="M387.9,272.4c0,1.7-0.8,2.9-1.9,2.9h-13.8c-1,0-1.9-1.2-1.9-2.9v-0.1c0-1.7,0.8-3.1,1.9-3.1H386
			c1,0,1.9,1.5,1.9,3.1V272.4z"/>
		<path class="st41" d="M387.9,276c0,1.2-0.6,2.2-1.3,2.2h-20.1c-0.7,0-1.3-1-1.3-2.2v-0.3c0-1.2,0.6-2.3,1.3-2.3h20.1
			c0.7,0,1.3,1.1,1.3,2.3V276z"/>
	</g>
	<g>
		<g>
			
				<rect x="404.3" y="236.5" transform="matrix(-1 -1.224647e-16 1.224647e-16 -1 811.3962 477.6198)" class="st42" width="2.9" height="4.7"/>
			
				<rect x="407" y="236.5" transform="matrix(-1 -1.224647e-16 1.224647e-16 -1 817.6285 477.6198)" class="st43" width="3.5" height="4.7"/>
			
				<rect x="404.3" y="236.5" transform="matrix(-1 -1.224647e-16 1.224647e-16 -1 814.8552 473.8804)" class="st44" width="6.3" height="1"/>
			
				<rect x="406.6" y="235.6" transform="matrix(-1 -1.224647e-16 1.224647e-16 -1 817.6285 472.1207)" class="st43" width="4.5" height="1"/>
			
				<rect x="403.7" y="235.6" transform="matrix(-1 -1.224647e-16 1.224647e-16 -1 810.9377 472.1207)" class="st42" width="3.4" height="1"/>
		</g>
		<g>
			<polygon class="st42" points="381,252.1 396,241.6 412.4,252.1 			"/>
			<rect x="378.4" y="253.5" class="st43" width="34.6" height="24.6"/>
			<rect x="376" y="252.1" class="st45" width="38.4" height="1.4"/>
			<rect x="377.4" y="253.5" class="st42" width="0.9" height="24.6"/>
			<rect x="413" y="253.5" class="st45" width="1.4" height="24.6"/>
			<rect x="414.4" y="253.5" class="st43" width="0.9" height="24.6"/>
			<rect x="415.3" y="259.7" class="st45" width="24.2" height="18.5"/>
			<rect x="415.3" y="253.5" class="st42" width="25.6" height="1.4"/>
			<rect x="439.5" y="253.5" class="st45" width="16.6" height="1.4"/>
			<rect x="415.3" y="254.9" class="st43" width="40.7" height="4.7"/>
			<rect x="439.5" y="259.7" class="st43" width="14.2" height="18.5"/>
			<rect x="444.7" y="262" class="st46" width="5.2" height="7.1"/>
			<rect x="444.7" y="263" class="st47" width="3.3" height="6.2"/>
			<rect x="414.4" y="252.1" class="st45" width="27.9" height="1.4"/>
			<polygon class="st45" points="376.2,252.1 394.5,239.3 395.8,239.3 414.1,252.1 411.8,252.1 394.8,240.9 378.9,252.1 			"/>
			<polygon class="st43" points="378.9,252.1 381.8,252.1 396,241.6 394.8,240.9 			"/>
			<polygon class="st43" points="395.8,239.3 423.7,239.3 442.5,252.1 414.1,252.1 			"/>
			<rect x="379.8" y="254.9" class="st42" width="33.2" height="23.2"/>
			<rect x="389.8" y="255.9" class="st43" width="11.4" height="22.3"/>
			<rect x="391.7" y="258.2" class="st45" width="9.5" height="19.9"/>
			<rect x="381.7" y="258.2" class="st46" width="5.7" height="8.1"/>
			<rect x="383.1" y="259.7" class="st47" width="4.3" height="6.6"/>
			<rect x="404.5" y="258.2" class="st46" width="5.7" height="8.1"/>
			<rect x="405.4" y="259.7" class="st47" width="4.7" height="6.6"/>
			<rect x="417.2" y="262" class="st46" width="20.4" height="7.1"/>
			<rect x="417.2" y="263.4" class="st47" width="18.5" height="5.7"/>
		</g>
	</g>
	<g>
		<path class="st41" d="M491.6,249.1c0,1.7-1.3,3.4-3.2,3.4h-20.5c-1.9,0-3.3-1.7-3.3-3.4v-0.3c0-1.7,1.4-2.5,3.3-2.5h20.5
			c1.9,0,3.2,0.8,3.2,2.5V249.1z"/>
		<path class="st41" d="M494.5,245.5c0,2.2-1.7,3.7-4.2,3.7h-13.7c-2.4,0-4.4-1.5-4.4-3.7v-0.3c0-2.2,2-4.5,4.4-4.5h13.7
			c2.4,0,4.2,2.2,4.2,4.5V245.5z"/>
		<path class="st41" d="M480.8,241.6c0,2-1.9,3.8-4.3,3.8h-6.6c-2.4,0-4.3-1.8-4.3-3.8l0,0c0-2,1.9-3.8,4.3-3.8h6.6
			C478.8,237.9,480.8,239.6,480.8,241.6L480.8,241.6z"/>
		<path class="st41" d="M487.8,253.8c0,1.4-1.1,2.5-2.4,2.5h-12.2c-1.3,0-2.4-1.1-2.4-2.5v-0.9c0-1.4,1.1-2.7,2.4-2.7h12.2
			c1.3,0,2.4,1.3,2.4,2.7V253.8z"/>
	</g>
	<path class="st48" d="M477.9,250V282l2.2,0.1l0.2-13.9l1.9-2l-0.4-0.4l-1.9,1v-13.7l-0.5-1.2c0,0-0.2-0.9-0.3-1.2
		C478.6,248.5,477.9,250,477.9,250z"/>
	<g>
		<path class="st41" d="M481.7,262.8c0,1.4-1.1,2.5-2.5,2.5h-4.5c-1.4,0-2.5-1.1-2.5-2.5v-0.2c0-1.4,1.1-2.5,2.5-2.5h4.5
			c1.4,0,2.5,1.1,2.5,2.5V262.8z"/>
		<path class="st41" d="M484.5,260.5c0,1.4-1.1,2.5-2.5,2.5h-4.5c-1.4,0-2.5-1.1-2.5-2.5v-0.2c0-1.4,1.1-2.5,2.5-2.5h4.5
			c1.4,0,2.5,1.1,2.5,2.5V260.5z"/>
	</g>
	<g>
		<g>
			<path class="st41" d="M507.2,269.7c0,1.4-1,2.8-2.3,2.8h-8c-1.3,0-2.1-1.4-2.1-2.8v-0.2c0-1.4,0.8-2.7,2.1-2.7h8
				c1.3,0,2.3,1.3,2.3,2.7V269.7z"/>
			<path class="st41" d="M511.5,265.3c0,1-0.8,1.9-1.9,1.9h-16.1c-1,0-1.9-0.8-1.9-1.9l0,0c0-1,0.8-1.9,1.9-1.9h16.1
				C510.7,263.4,511.5,264.3,511.5,265.3L511.5,265.3z"/>
			<path class="st41" d="M515,260.4c0,2.6-1.6,4.5-3.5,4.5h-19.6c-2,0-3.5-1.9-3.5-4.5l0,0c0-2.6,1.6-4.5,3.5-4.5h19.6
				C513.4,255.9,515,257.8,515,260.4L515,260.4z"/>
			<path class="st41" d="M508.2,255.9c0,1-0.8,1.8-1.8,1.8h-10.5c-1,0-1.8-0.8-1.8-1.8v-0.1c0-1,0.8-1.8,1.8-1.8h10.5
				C507.4,254,508.2,254.8,508.2,255.9L508.2,255.9z"/>
			<path class="st41" d="M504.9,254.4c0,2.1-1.7,3.8-3.8,3.8h-5.2c-2.1,0-3.8-1.7-3.8-3.8l0,0c0-2.1,1.7-3.8,3.8-3.8h5.2
				C503.2,250.7,504.9,252.3,504.9,254.4L504.9,254.4z"/>
		</g>
		<path class="st49" d="M499.8,260.5c-0.1,1-0.7,4.9-1.5,5.8c-0.7,0.8-0.6,2.2-0.6,2.2l0.2,15.6l3.5,0.2l-0.2-14.8l8.4-10l-0.4-0.2
			l-3.2,3.2l0.4-3.6l-0.6-0.1c0,0-0.2,3.9-0.9,5c-4.6,6-4.4,3.8-4.4,3.8l0.5-8.2C500.9,259.3,500,258.1,499.8,260.5z"/>
	</g>
	<g id="LAND">
		<path class="st50" d="M-2,264.4c0,0,134,19,180.4,18.5c55.7-0.7,190.9-8.7,249.6-6.3c110.9,4.5,176.3,24.4,176.3,24.4l-0.4,15.8
			c0,0-136.1-23.1-185-25.4C324.9,287.1-2,329-2,329V264.4z"/>
		<path class="st51" d="M604.4,325.3c0,0-131.8-22-176.3-22.8C319.9,300.6-2,341.1-2,341.1V272l173.8,19.5L49.7,316.8
			c82.2-8.7,157.7-37.4,380.5-32.4c85.7,1.9,174.1,27.8,174.1,27.8L604.4,325.3z"/>
		<path class="st45" d="M604.4,324.9l0,19L-2,344.9v-19.6c0,0,224.8-25.5,422.2-23.5C534.8,302.9,604.4,324.9,604.4,324.9z"/>
	</g>
	<g>
		<path class="st51" d="M34.5,284l5.4,1.2c0,0-3.9-8.3-5.3-10.2c-3.1-4.1-12.7-7.2-12.7-7.2s6.7,4.1,9.8,8
			C34.1,278.9,34.5,284,34.5,284z"/>
		<path class="st51" d="M68.4,285.6l7.1,1.6c0,0-5.6-9-7.7-11.4c-6.7-7.9-18.1-3.3-18.1-3.3s9.8-1.3,13.8,3.8
			C66.7,280.3,68.4,285.6,68.4,285.6z"/>
		<path class="st51" d="M92.3,286.2l3.4,0.5c0,0,0.1-6.6-0.2-8.9c-0.5-3.9-3-7-3-7s1.7,4.7,1.4,8.6
			C93.8,283.2,92.3,286.2,92.3,286.2z"/>
		<path class="st51" d="M71.7,284.8l3.3,0.4c0,0-1.9-6.6-2.7-9.2c-2.1-6.7-8.5-9.6-8.5-9.6s5.2,4.8,6.7,9.9
			C71.6,280.5,71.7,284.8,71.7,284.8z"/>
		<path class="st51" d="M97.1,286.7l-3.4-0.3c0,0,3.8-2.6,5.9-3.6c4.2-2,9.3-0.9,9.3-0.9s-5.9,0.8-8.3,2.2
			C97.3,286,97.1,286.7,97.1,286.7z"/>
		<path class="st51" d="M35.1,285l-5.5-0.9c0,0,6.1-7.8,8.5-10.2c9-9.4,19.2-4.5,19.2-4.5s-10.8-2.2-15.8,5.5
			C39.6,277.8,35.1,285,35.1,285z"/>
		<path class="st51" d="M67,285.6l-5.1-0.9c0,0,5-7.7,7.4-9.7c9.6-8,18.3,1.2,18.3,1.2s-10-6.2-17,1.4C68.4,279.9,67,285.6,67,285.6
			z"/>
	</g>
	<g>
		<g class="st35">
			<path class="st36" d="M281.3,273.4c-0.7,0.2,1.2,1.6,1.7,1.8c0.5,0.2,2,1.4,2.9,1.6c1,0.2,3.2-0.3,3.7-0.5c0.5-0.3,1.4-1,2-1.2
				c0.6-0.2,1-1.5,0.8-1.6c-0.1-0.2-4.9-0.3-5.6-0.3C286.1,273.1,281.7,273.3,281.3,273.4z"/>
			<path class="st37" d="M285.9,276.8c-1-0.2-2.4-1.4-2.9-1.6c-0.5-0.2-2.4-1.5-1.7-1.8c0.4-0.2,4.8-0.3,5.5-0.3
				c0.3,0,1.4,0.1,2.6,0.1c-1.2,0-3.9,0.5-4.2,0.6c-0.3,0.1-1.1,0.7-1,1C284.4,275.2,285.9,276.8,285.9,276.8z"/>
		</g>
		<g>
			<path class="st36" d="M281.3,273.8c-0.7-0.4,1.2-2.3,1.7-2.6c0.5-0.2,2-2.1,2.9-2.3c1-0.2,3.2,0.4,3.7,0.7c0.5,0.4,1.4,1.5,2,1.8
				c0.6,0.3,1,1.8,0.8,2.1c-0.1,0.2-4.9,0.7-5.6,0.7C286.1,274.2,281.7,274,281.3,273.8z"/>
			<path class="st37" d="M285.9,269c-1,0.2-2.4,2.1-2.9,2.3c-0.5,0.2-2.4,2.2-1.7,2.6c0.4,0.2,4.8,0.4,5.5,0.4
				c0.3,0,1.4-0.1,2.6-0.2c-1.2,0-3.9-0.7-4.2-0.8c-0.3-0.1-1.1-1-1-1.4C284.4,271.3,285.9,269,285.9,269z"/>
		</g>
	</g>
	<path class="st52" d="M215.7,278.4c0.5,0,1.1,0,1.6,0c-9,0-18.5,0-26.9-0.1c-0.5,0-1.6,0-2.1,0c-4.2,0-9.5,0-13.7,0
		c-2.1,0-3.7,0.1-3.7,0.1c-0.5,0-1.1,0-0.5,0c1.1,0,3.7,0,3.7,0c0,0-0.5,0-1.1,0c0,0-1.6,0.1-2.1,0.1c-0.5,0-3.7,0-4.2,0.1
		c-1.6,0,3.2,0.1,5.3,0.1c1.1,0,0,0,0,0c1.1,0,1.6,0,2.6,0c0,0,0,0,0.1,0c0.1,0,0.2,0,0.4,0c0.3,0,0.8,0,1.3,0c1,0,2.2,0,3,0
		c0,0,0.5,0,2.1,0c0.5,0,0.5,0,0.5,0c0,0,0,0,0,0c0.5,0,1.6,0,2.1,0c0,0,0,0,0,0c1.1,0,2.1,0,3.2,0c0,0,0,0,0,0c0.5,0,1.1,0,1.1,0
		c0,0,0,0,0,0c0.5,0,1.6,0,1.6,0c0,0,0,0,0,0c2.1,0,3.7,0,5.3,0c4.2,0,9.5,0,14.2,0c0.5,0,1.1,0,0.5,0c0.5,0,1.1,0,1.6,0
		c1.1,0,0.5,0,1.6,0c4.2,0,8.4,0,12.6,0c2.1,0,4.2,0,6.3,0c1,0,2.1,0,3.1,0c0.5,0,1,0,1.6,0c0.3,0,0.5,0,0.8,0c0.3,0,0.4,0,0.6,0
		c-0.3,0-0.8,0-1.3,0c-0.5,0-0.9,0-1.4,0c-0.9,0-1.8,0-2.9,0c0,0,0,0-0.5,0c-3.2,0-6.8,0-8.4-0.1c-0.5,0-1.1,0-2.6,0
		c0.5,0,1.1,0,1.6,0c0,0,0,0,0,0c-2.1,0-4.7,0-6.9,0c0,0,0,0,0,0l-1.1,0c-1.1,0,4.7,0,7.4,0c0,0,0,0,0,0l-1.1,0v0c3.2,0,5.8,0,9,0
		c-0.5,0-1.6,0-2.1,0c0,0,0,0-0.5,0c2.1,0,4.7,0,6.9,0c0.5,0,0,0-1.6,0c-1.6,0-2.6,0-4.2,0l0,0c1.1,0,2.6,0,3.7,0c0.5,0-1.1,0-0.5,0
		c0.5,0,1.1,0,1.6,0c-1.6,0-3.7,0-5.3,0c-0.5,0-1.1,0-1.1,0c-2.6,0-4.7,0-6.3-0.1C219.9,278.4,217.3,278.4,215.7,278.4z"/>
	<linearGradient id="SVGID_6_" gradientUnits="userSpaceOnUse" x1="249.8141" y1="277.7226" x2="305.6804" y2="277.7226">
		<stop  offset="0.1582" style="stop-color:#3CADAF"/>
		<stop  offset="0.8316" style="stop-color:#98D5E5"/>
	</linearGradient>
	<path class="st53" d="M252,277c3.5,1,9,0.7,14.5,0.9c4.7,0.2,6.4,0.8,11.2,0.8c4.7,0,9.2-0.5,13.9-0.7c4.6-0.1,10.4-0.1,14.1-0.7
		c-5.4,0.2-11.3,0.2-16.8,0.4c-6.1,0.2-7.4-0.2-12.9-0.5c-3.8-0.2-9.4,0-13.3,0c-5.4,0-8.1-0.2-12.8-0.5"/>
	<path class="st34" d="M287.9,274.5c0.2,0,0.5,0,0.7,0c-4.2,0-8.6,0-12.5,0c-0.2,0-0.7,0-1,0c-2,0-4.4,0-6.4,0c-1,0-1.7,0-1.7,0
		c-0.2,0-0.5,0-0.2,0c0.5,0,1.7,0,1.7,0c0,0-0.2,0-0.5,0c0,0-0.7,0-1,0c-0.2,0-1.7,0-2,0c-0.7,0,1.5,0,2.5,0c0.5,0,0,0,0,0
		c0.5,0,0.7,0,1.2,0c0,0,0,0,0.1,0c0,0,0.1,0,0.2,0c0.1,0,0.4,0,0.6,0c0.5,0,1,0,1.4,0c0,0,0.2,0,1,0c0.2,0,0.2,0,0.2,0c0,0,0,0,0,0
		c0.2,0,0.7,0,1,0c0,0,0,0,0,0c0.5,0,1,0,1.5,0c0,0,0,0,0,0c0.2,0,0.5,0,0.5,0s0,0,0,0c0.2,0,0.7,0,0.7,0c0,0,0,0,0,0
		c1,0,1.7,0,2.5,0c2,0,4.4,0,6.6,0c0.2,0,0.5,0,0.2,0c0.2,0,0.5,0,0.7,0c0.5,0,0.2,0,0.7,0c2,0,3.9,0,5.9,0c1,0,2,0,2.9,0
		c0.5,0,1,0,1.5,0c0.2,0,0.5,0,0.7,0c0.1,0,0.2,0,0.4,0c0.1,0,0.2,0,0.3,0c-0.1,0-0.4,0-0.6,0c-0.2,0-0.4,0-0.6,0
		c-0.4,0-0.9,0-1.3,0c0,0,0,0-0.2,0c-1.5,0-3.2,0-3.9,0c-0.2,0-0.5,0-1.2,0c0.2,0,0.5,0,0.7,0c0,0,0,0,0,0
		C290.1,274.6,288.8,274.6,287.9,274.5C287.9,274.6,287.9,274.6,287.9,274.5l-0.5,0.1c-0.5,0,2.2,0,3.4,0c0,0,0,0,0,0l-0.5,0v0
		c1.5,0,2.7,0,4.2,0c-0.2,0-0.7,0-1,0c0,0,0,0-0.2,0c1,0,2.2,0,3.2,0c0.2,0,0,0-0.7,0c-0.7,0-1.2,0-2,0v0c0.5,0,1.2,0,1.7,0
		c0.2,0-0.5,0-0.2,0c0.2,0,0.5,0,0.7,0c-0.7,0-1.7,0-2.5,0c-0.2,0-0.5,0-0.5,0c-1.2,0-2.2,0-2.9,0
		C289.8,274.5,288.6,274.5,287.9,274.5z"/>
	<path class="st54" d="M244.6,272.9c0.6,0,1.4,0,1.9,0C245.8,272.9,245.2,272.9,244.6,272.9z"/>
	<path class="st54" d="M254.2,273.4c-0.5,0-1,0-1.5,0c-1,0-2,0-3.2-0.1c0,0,0,0-0.6,0c-3.5-0.1-7.7-0.1-9.4-0.1
		c-0.6,0-1.2,0-2.9-0.1c0.6,0,1.2,0,1.8,0c0,0,0,0,0,0c-2.4,0-5.3,0-7.7-0.1c0,0,0,0,0,0l-1.2,0c-1.2-0.1,5.3-0.1,8.3,0c0,0,0,0,0,0
		l-1.2,0l0,0c2.9,0,5.4,0,8.2,0c-0.2,0-0.4,0-0.5,0c0,0,0,0-0.6,0c2.4,0,5.3,0,7.7,0.1c0.6,0,0,0-1.8-0.1c-1.8,0-3,0-4.7,0l0,0
		c1.2,0,3,0,4.1,0c0.6,0-1.2,0-0.6,0c0.6,0,1.2,0,1.8,0c-1.8,0-4.1,0-5.9-0.1c-0.6,0-1.2,0-1.2,0c-3,0-5.3,0-7.1-0.1
		c-0.4,0-2.2,0-3.8,0c-10-0.1-20.5,0-29.9-0.1c-0.6,0-1.8,0-2.4,0c-2.1,0-4.4,0-6.7,0v0.8c0.6,0,1.5,0,2,0c0,0,0,0,0,0
		c1.2,0,2.4,0,3.5,0c0,0,0,0,0,0c0.6,0,1.2,0,1.2,0c0,0,0,0,0,0c0.6,0,1.8,0,1.8,0c0,0,0,0,0,0c2.4,0,4.1,0,5.9,0
		c4.7,0,10.6,0,15.9,0c0.6,0,1.2,0,0.6,0c0.6,0,1.2,0,1.8,0c1.2,0,0.6,0,1.8,0c4.7,0,9.4,0,14.2,0c2.4,0,4.7,0,7.1,0.1
		c1.2,0,2.4,0,3.5,0.1C252.9,273.4,253.5,273.4,254.2,273.4c0.2,0,0.5,0,0.8,0c0.3,0,0.5,0,0.7,0
		C255.3,273.5,254.7,273.4,254.2,273.4z"/>
	<path class="st34" d="M255.8,271.7c0.3,0,0.6,0,0.9,0c-4.8,0-9.9,0-14.5,0c-0.3,0-0.9,0-1.1,0c-2.3,0-5.1,0-7.4,0c-1.1,0-2,0-2,0
		c-0.3,0-0.6,0-0.3,0c0.6,0,2,0,2,0c0,0-0.3,0-0.6,0c0,0-0.8,0-1.1,0c-0.3,0-2,0-2.3,0c-0.8,0,1.7,0,2.8,0c0.6,0,0,0,0,0
		c0.6,0,0.9,0,1.4,0c0,0,0,0,0.1,0c0,0,0.1,0,0.2,0c0.2,0,0.4,0,0.7,0c0.5,0,1.2,0,1.6,0c0,0,0.3,0,1.1,0c0.3,0,0.3,0,0.3,0
		c0,0,0,0,0,0c0.3,0,0.9,0,1.1,0c0,0,0,0,0,0c0.6,0,1.1,0,1.7,0c0,0,0,0,0,0c0.3,0,0.6,0,0.6,0c0,0,0,0,0,0c0.3,0,0.9,0,0.9,0
		c0,0,0,0,0,0c1.1,0,2,0,2.8,0c2.3,0,5.1,0,7.6,0c0.3,0,0.6,0,0.3,0c0.3,0,0.6,0,0.9,0c0.6,0,0.3,0,0.8,0c2.3,0,4.5,0,6.8,0
		c1.1,0,2.3,0,3.4,0c0.6,0,1.1,0,1.7,0c0.3,0,0.6,0,0.8,0c0.1,0,0.3,0,0.4,0c0.2,0,0.2,0,0.3,0c-0.2,0-0.5,0-0.7,0
		c-0.3,0-0.5,0-0.7,0c-0.5,0-1,0-1.5,0c0,0,0,0-0.3,0c-1.7,0-3.7,0-4.5,0c-0.3,0-0.6,0-1.4,0c0.3,0,0.6,0,0.9,0c0,0,0,0,0,0
		C258.4,271.8,256.9,271.8,255.8,271.7C255.8,271.8,255.8,271.8,255.8,271.7l-0.6,0.1c-0.6,0,2.6,0,4,0c0,0,0,0,0,0l-0.6,0v0
		c1.7,0,3.1,0,4.8,0c-0.3,0-0.9,0-1.1,0c0,0,0,0-0.3,0c1.1,0,2.5,0,3.7,0c0.3,0,0,0-0.8,0c-0.9,0-1.4,0-2.3,0v0c0.6,0,1.4,0,2,0
		c0.3,0-0.6,0-0.3,0c0.3,0,0.6,0,0.9,0c-0.9,0-2,0-2.8,0c-0.3,0-0.6,0-0.6,0c-1.4,0-2.6,0-3.4,0
		C258.1,271.7,256.7,271.7,255.8,271.7z"/>
	<path class="st45" d="M470.2,312.4l-6.7-0.9c0,0,3.2-12.4,4.8-16.5c2.9-7.1,9.1-11.6,9.1-11.6s-5.6,7.8-7.1,15.3
		C468.9,305.9,470.2,312.4,470.2,312.4z"/>
	<path class="st45" d="M460.9,310.8l6.6,1.1c0,0-5.8-6.8-9.2-9.7c-6.8-5.8-16.9-6.4-16.9-6.4s10.5,4.6,14.3,8.4
		C460.8,309.4,460.9,310.8,460.9,310.8z"/>
	<path class="st45" d="M483.5,312.9l-10.8,1.2c0,0,9.8-12.3,13.2-15.5c11.2-10.6,27.2-1.9,27.2-1.9s-14.2-3.5-20.9,3.4
		C486.8,305.5,483.5,312.9,483.5,312.9z"/>
	<path class="st45" d="M478.7,311.3l-4.9,0.1c0,0,3.9-9.5,5.5-13.1c4.2-9.5,14.2-12.8,14.2-12.8s-8.4,6.2-11.5,13.6
		C479.5,305,478.7,311.3,478.7,311.3z"/>
	<path class="st45" d="M485.5,313.2l7.7-0.5c0,0-6.1-12.2-9.3-15.5c-12.8-13.4-27.1-1.3-27.1-1.3s15.7-7.6,24.8,4.8
		C484.4,304.7,485.5,313.2,485.5,313.2z"/>
	<path class="st36" d="M341,279.8c0,0-1.8-4.1-2.3-4.7c-0.5-0.6-3.9-1.5-5-1.6c-1.1-0.2-3.1,0.6-4.7,0.7c-1.6,0.1-3.5,2.5-3.9,2.6
		c-0.4,0.1-0.9,3-0.9,3S339.6,279.9,341,279.8z"/>
	<path class="st37" d="M330.2,279.8c-0.1-0.9-0.7-3.1,0.3-3.8c1-0.7,3.1-2.4,3.2-2.5c-1.1-0.2-3.1,0.6-4.7,0.7
		c-1.6,0.1-3.5,2.5-3.9,2.6c-0.4,0.1-0.9,3-0.9,3S326.9,279.8,330.2,279.8C330.1,279.9,330.2,279.8,330.2,279.8z"/>
	<path class="st36" d="M521.4,285.6c0,0,4.7-6.3,5.6-6.5c0.9-0.2,4.1-0.8,5.3-0.5c1.2,0.3,2.6,4,4.1,4.9c1.6,0.9,2.4,3.9,2.8,4.2
		c0.4,0.4-0.4,2.3-0.3,2.7C539.2,291,524,287.5,521.4,285.6z"/>
	<path class="st37" d="M528.4,288.2c-3.1-0.9-6-1.8-7-2.6c0,0,4.7-6.3,5.6-6.5c0.9-0.2,4.1-0.8,5.3-0.5c0,0-3.1,2.7-4.3,3.5
		C527.1,282.9,528.1,286.3,528.4,288.2z"/>
	<g class="st35">
		<path class="st36" d="M305,275.4c-0.4-0.2-5.5-0.1-6.5-0.1c-1,0,0.3,0.9,0.9,1.2c0.6,0.3,2.2,0.4,2.8,0.6
			C302.8,277.3,306.1,276,305,275.4z"/>
		<path class="st37" d="M301.7,275.5c-0.4,0-1.7,0.3-1.6,0.4c0.1,0.1,0.1,0.5,0.4,0.6c0.3,0.1,1.4,0.4,1.4,0.4l0,0
			c-0.7-0.1-1.9-0.3-2.3-0.5c-0.6-0.3-1.9-1.2-0.9-1.2c0.8,0,4.2,0,5.7,0C303.2,275.4,302,275.5,301.7,275.5z"/>
	</g>
	<g>
		<path class="st36" d="M305,275.5c-0.4,0.4-5.5,0.2-6.5,0.2c-1,0,0.3-1.8,0.9-2.3c0.6-0.5,2.2-0.8,2.8-1.2
			C302.8,271.8,306.1,274.4,305,275.5z"/>
		<path class="st37" d="M301.7,275.3c-0.4,0-1.7-0.6-1.6-0.8s0.1-0.9,0.4-1.1c0.3-0.3,1.4-0.8,1.4-0.8l0,0c-0.7,0.3-1.9,0.5-2.3,0.9
			c-0.6,0.5-1.9,2.3-0.9,2.3c0.8,0,4.2,0.1,5.7,0C303.2,275.6,302,275.3,301.7,275.3z"/>
	</g>
	<polygon class="st51" points="431.4,310.9 433.7,311.2 435.6,309 437.3,310.8 440.9,307 445.2,307.1 446.3,305.8 450.2,306 
		455.7,310.9 454,312.3 465.1,312.8 469.7,317 472.4,317 465.6,310.4 456.9,310.5 451.3,304.5 437.8,304.4 	"/>
	<polygon class="st51" points="491.5,316.2 493.9,316.4 495.7,314.2 497.4,316 501.1,312.2 505.4,312.3 506.4,311 510.4,311.2 
		515.9,316.1 514.2,317.5 525.3,318 529.9,322.2 532.5,322.2 525.7,315.6 517,315.7 511.5,309.7 498,309.6 	"/>
	<polygon class="st51" points="446.6,314.2 449,311.8 452.5,311.7 452.9,312.8 449.8,312.7 448.6,314.6 	"/>
	<polygon class="st51" points="371,316.5 366.6,315.8 367.9,314.3 368.2,312.3 370.5,311.2 374.5,311.7 379.2,307.9 381.3,310.9 
		385.8,312.1 388,315 394,310.1 401,311.7 403.9,309.9 408.5,310.5 411.9,307.8 419.6,307.9 421.1,311.2 420.8,311.8 414.3,320.8 
		410,320.4 405.1,316.9 396.2,319 	"/>
	<path class="st45" d="M369.7,314.9l0.1-1.2l2.3-1.5l3.8,0.5l3.8-2.9l1.9,2.5l4.1,0.6l2.6,3.9l1.2-1.6l4.2,0.8l1.5,2.1l0.2-0.8
		l-1.5-2.2l1.1-0.8l3,0.4l1.4-1.5l4.6,0.5l3-2l4.2,0.7l5.2-3.8l2.7,0.2l2,3.4l-2.7,4.4l-0.1,4.9l-2.7-0.4c0,0-2.7,1.4-3.7,1.3
		c-1-0.1-3.1-2.5-3.1-2.5l-3-0.7l-5.8-0.1l-4.9,1.1l-13.4-0.9l-5.9-1l-1.8-1.4l-4.7-0.1L369.7,314.9z"/>
	<polygon class="st50" points="19.3,302.6 14.2,301.9 15.7,300.1 16,297.8 18.6,296.6 23.3,297.1 28.6,292.8 31,296.2 36.2,297.7 
		38.7,301 45.6,295.4 53.6,297.1 57,295.1 62.2,295.9 66.1,292.7 75,292.8 76.7,296.6 76.4,297.3 68.9,307.7 64,307.1 58.3,303.1 
		48.1,305.6 	"/>
	<path class="st51" d="M17.8,300.9l0.1-1.3l2.7-1.7l4.3,0.5l4.3-3.3l2.2,2.8l4.7,0.7l3,4.4l1.4-1.8l4.8,0.9l1.8,2.4l0.3-1l-1.8-2.5
		l1.3-0.9l3.4,0.5l1.6-1.8l5.3,0.6l3.5-2.3l4.8,0.8l5.9-4.4l3.1,0.2l2.3,3.9l-3.1,5.1l-0.1,5.7l-3.1-0.5c0,0-3.1,1.6-4.2,1.4
		c-1.1-0.2-3.6-2.9-3.6-2.9l-3.5-0.8l-6.6-0.1L47,307L31.6,306l-6.8-1.1l-2-1.6l-5.4-0.1L17.8,300.9z"/>
</g>
</svg>
