<svg xmlns="http://www.w3.org/2000/svg" viewBox="0 0 74.4732 51.9288"><defs><style>.cls-1{fill:#fb3f47;}.cls-2{fill:#be171f;}.cls-3{fill:#cb1e26;}.cls-4{fill:#d6272f;}.cls-5{fill:#e02c34;}.cls-6{fill:#bf1820;}.cls-7{fill:#f23840;}.cls-8{fill:#e63139;}.cls-9{fill:#ed353d;}.cls-10{fill:#db2931;}.cls-11{fill:#d3232b;}.cls-12{fill:#fa424a;}.cls-13{fill:#c91d25;}.cls-14{fill:#ed1f27;}</style></defs><title>Asset 16</title><g id="Layer_2" data-name="Layer 2"><g id="CLIENT"><path class="cls-1" d="M57.3964,8.1c-.0787.0074-.1574.0213-.2361.0213-1.2222,0-2.4445-.0056-3.6667-.0008a3.5557,3.5557,0,0,1-1.3853-.2883c-.0412-.017-.1021-.0347-.1277.0165a.1667.1667,0,0,0,.0021.1282c.1681.3589.3529.71.5106,1.0736a14.0748,14.0748,0,0,1,1.1116,4.0672,2.5716,2.5716,0,0,1,.0668.7063c-.0271.0553-.0777.1106-.0774.1656a2.2134,2.2134,0,0,1-.1865.7791A3.5281,3.5281,0,0,1,49.9,17.0815a3.1439,3.1439,0,0,1-1.3723-.3072,1.1351,1.1351,0,0,0-.0153-.3309,2.5956,2.5956,0,0,1-.0814-.8933q-.0014-5.5425-.003-11.085a2.2879,2.2879,0,0,1,.0969-.7477,8.4564,8.4564,0,0,1,1.117,1.0215c.0847.0858.1441.2038.2922.2523a.964.964,0,0,0,.0291-.4211A3.6,3.6,0,0,1,52.8837,1.028a4.4255,4.4255,0,0,1,.8476-.08q.5931.0072,1.1862.0164a1.2411,1.2411,0,0,0,.1168.905c.2631.6247.4937,1.2629.7413,1.8942.3281.8369.661,1.6719.9893,2.5087.1786.4551.3574.91.5246,1.37A.9452.9452,0,0,1,57.3964,8.1Z"/><path class="cls-2" d="M23.506,18.8826c.0068.1106.0195.2212.02.3317q.0023,3.1205.0014,6.2411a3.5385,3.5385,0,0,1-.8441,2.3692,3.6221,3.6221,0,0,1-3.9282,1.1083,3.5516,3.5516,0,0,1-2.4853-3.2736c-.0064-.1586-.0043-.3176-.0043-.4763q0-3.0252-.0007-6.05c0-.1746-.007-.3491-.0108-.5237l2.2228-.006c.0352.0493.0689.0473.1014-.0027a1.77,1.77,0,0,0,.4147-.0653,4.646,4.646,0,0,0,1.5813-.8008,16.7717,16.7717,0,0,1,1.6538.6828A5.0408,5.0408,0,0,0,23.506,18.8826Z"/><path class="cls-3" d="M.1,25.4611c-.0067-.126-.0191-.252-.0192-.378q-.0027-4.2-.002-8.4c0-.1259.0139-.2517.0213-.3776a.2541.2541,0,0,0,.2761-.1381c.1183-.26.2488-.5137.363-.7749.2218-.5077.396-1.0348.6463-1.5317.1563-.31.2725-.6406.4079-.9614q.314-.7438.63-1.4868c.2349-.5537.4715-1.1068.705-1.6612.19-.4522.3768-.9062.5661-1.359.226-.54.4543-1.08.68-1.62.2558-.6137.5039-1.2307.7653-1.842.33-.7716.6753-1.5368,1.0025-2.31a1.079,1.079,0,0,0,.1248-.5982A3.3151,3.3151,0,0,1,7.3412,4.22a3.2236,3.2236,0,0,1,.0147.3788Q7.3568,6.8042,7.3544,9.01c0,.11-.0155.22-.0238.3295a.449.449,0,0,0-.2425.2788c-.2088.462-.4222.9219-.6231,1.3873s-.3868.9364-.5823,1.4037c-.1589.38-.3243.7565-.4833,1.1361-.2569.6134-.5094,1.2286-.7666,1.8418-.2143.511-.434,1.02-.6486,1.5305-.2024.4816-.3974.9663-.6027,1.4466-.2365.5534-.486,1.1013-.72,1.6556-.3886.9184-.7659,1.8415-1.1551,2.76C1.16,23.5955.7973,24.405.458,25.2242A.3262.3262,0,0,1,.1,25.4611Z"/><path class="cls-4" d="M.1,25.4611a.3262.3262,0,0,0,.3582-.2369c.3393-.8191.7018-1.6286,1.0479-2.445.3892-.9181.7665-1.8412,1.1551-2.76.2345-.5543.484-1.1022.72-1.6556.2053-.48.4-.965.6027-1.4466.2147-.5108.4344-1.02.6486-1.5305.2572-.6133.51-1.2284.7666-1.8418.159-.38.3244-.7565.4833-1.1361.1956-.4673.3816-.9386.5823-1.4037s.4143-.9254.6231-1.3873a.449.449,0,0,1,.2425-.2788,1.19,1.19,0,0,1,.0337.47c.0044.46.0018.9193.002,1.3789,0,.1151.01.2245.1462.2645.0555.0267.1107.0758.1666.0766q.6424.01,1.285,0c.056-.0008.1114-.0494.1671-.0759a2.8815,2.8815,0,0,1,.6676,0,1.324,1.324,0,0,1-.1066.6c-.36.8452-.6955,1.7-1.0772,2.5368-.3349.7343-.6238,1.49-.9336,2.2355q-.3462.8335-.6942,1.6662-.276.6572-.5578,1.312c-.2431.5679-.4891,1.1345-.7313,1.7028-.2173.51-.3952,1.0357-.6449,1.5331-.156.3106-.2742.64-.4083.9618-.189.4531-.3746.9076-.5662,1.36-.2163.5105-.4377,1.0189-.6567,1.5283-.2877.6693-.5252,1.36-.87,2.0049a.3.3,0,0,1-.2083-.0724.0553.0553,0,0,0-.06-.0229,3.444,3.444,0,0,1-2.13-2.6379A1.62,1.62,0,0,1,.1,25.4611Z"/><path class="cls-2" d="M30.3992,2.4775a.3341.3341,0,0,1,.188-.11c.29.269.29.269.2925.6418.0006.0792,0,.1584,0,.2376q0,4.2769,0,8.5538c0,.1267-.0038.2537.0023.38a.4892.4892,0,0,0,.2026.4085,1.12,1.12,0,0,1-.0246.1878,6.8624,6.8624,0,0,0-.31,1.7717,2.6242,2.6242,0,0,1-.0511.327l-.2894-.0024a4.6268,4.6268,0,0,0-.8968-1.0356,1.4378,1.4378,0,0,0-.6325-.3972.694.694,0,0,0-.3255-.1833,4.1852,4.1852,0,0,0-1.5414-.2047,3.281,3.281,0,0,0-2.1953.88,3.459,3.459,0,0,0-1.0984,1.7959,1.4324,1.4324,0,0,1-.1851-.95c-.0279-.2013.1309-.374.0884-.5776l.0045-.8449a13.2223,13.2223,0,0,1,.54-2.652,15.1192,15.1192,0,0,1,4.36-6.817,6.92,6.92,0,0,1,.9246-.7455.0888.0888,0,0,0,.0942-.0745l.3345-.2433a.1128.1128,0,0,0,.127-.0815l.1084-.08a.1544.1544,0,0,0,.1765-.1094l-.001.0009A.1051.1051,0,0,0,30.3992,2.4775Z"/><path class="cls-5" d="M2.5517,28.8954c.345-.6445.5824-1.3356.87-2.0049.219-.5094.44-1.0178.6567-1.5283.1915-.452.3772-.9066.5662-1.36.1341-.3215.2524-.6512.4083-.9618.25-.4973.4276-1.0231.6449-1.5331.2422-.5683.4882-1.1349.7313-1.7028q.2806-.6553.5578-1.312.3494-.8321.6942-1.6662c.31-.7458.5987-1.5012.9336-2.2355.3816-.8367.7172-1.6917,1.0772-2.5368a1.324,1.324,0,0,0,.1066-.6c.3138-.0059.6276-.0176.9413-.0167.9581.0029,1.9162.0107,2.8742.0166-.0181.1588.1869.2393.1565.3818a2.3345,2.3345,0,0,1-.1857.4337c-.0192.0433-.0371.0873-.0549.1313a23.6761,23.6761,0,0,1-.9575,2.271,2.1354,2.1354,0,0,0-.0936.2179c-.3666.9256-.7413,1.8473-1.1472,2.7569a1.8945,1.8945,0,0,0-.2919.9395q-1.1173.01-2.2346.0188c-.4123.0028-.8246,0-1.2368.0042-.1582.0018-.1984.042-.2064.1957-.0074.1424-.0046.2853-.0047.428-.0013,2.0615-.0054,4.1229-.0013,6.1844A3.6091,3.6091,0,0,1,3.989,29.094a3.6822,3.6822,0,0,1-1.273-.1133A.839.839,0,0,1,2.5517,28.8954Z"/><path class="cls-1" d="M23.7191,15.7285a3.46,3.46,0,0,1,1.0985-1.7958,3.281,3.281,0,0,1,2.1953-.88,4.1852,4.1852,0,0,1,1.5414.2047.6935.6935,0,0,1,.3255.1834.7435.7435,0,0,0,.0075.2365,2.4707,2.4707,0,0,1,.0844.8932q.0009,5.6648,0,11.33c0,.2219-.0111.4438-.0171.6658a12.8563,12.8563,0,0,1-2.2354-2.2678,14.6625,14.6625,0,0,1-2.3481-4.2831,13.1107,13.1107,0,0,1-.6713-2.77.731.731,0,0,0-.0678-.1727,2.1514,2.1514,0,0,0-.003-.2289c-.0281-.2441-.0618-.4876-.0933-.7314A.3826.3826,0,0,0,23.7191,15.7285Z"/><path class="cls-6" d="M6.2663,2.0223a1.079,1.079,0,0,1-.1248.5982c-.3272.7728-.6724,1.538-1.0025,2.31-.2615.6113-.51,1.2283-.7653,1.842-.2253.5405-.4536,1.08-.68,1.62-.1893.4527-.3756.9067-.5661,1.359-.2335.5544-.47,1.1074-.705,1.6612q-.3153.7432-.63,1.4868c-.1355.3208-.2517.6512-.4079.9614-.25.4969-.4244,1.024-.6463,1.5317-.1142.2613-.2447.5154-.363.7749A.2541.2541,0,0,1,.1,16.3051c-.0067-.1265-.0193-.253-.0194-.3795Q.0782,10.3028.0788,4.68A3.6289,3.6289,0,0,1,.753,2.4887,3.588,3.588,0,0,1,3.0173,1.0332a3.5756,3.5756,0,0,1,3.0685.7932.7243.7243,0,0,1,.0921.1078l.0709.07Z"/><path class="cls-3" d="M47.7065,27.0676a8.8191,8.8191,0,0,1-1.532,1.0352,14.65,14.65,0,0,1-3.1831,1.3535.3706.3706,0,0,1-.0942.0028q-.0017-3.8654-.0034-7.7308a.112.112,0,0,1,.102-.081.1631.1631,0,0,0,.1794-.11l-.0041.0027a.11.11,0,0,0,.1083-.0822c.1449-.1215.2913-.2411.4344-.3646a7.83,7.83,0,0,0,2.83-5.8894c.0049-.1422.0093-.2845.0139-.4267a.2506.2506,0,0,1,.1735.1419,3.749,3.749,0,0,0,.6271.9794,2.0848,2.0848,0,0,0,.3227.3315c.0436.0312.0572.1044.0845.1585a1.0217,1.0217,0,0,0-.2.6138q.0137,4.736.0038,9.4721A1.1257,1.1257,0,0,0,47.7065,27.0676Z"/><path class="cls-6" d="M47.7065,27.0676a1.1257,1.1257,0,0,1-.137-.5928q.005-4.7361-.0038-9.4721a1.0212,1.0212,0,0,1,.2-.6137,1.1538,1.1538,0,0,1,.4067.19c.1146.0712.2364.1306.3551.1952a3.1439,3.1439,0,0,0,1.3723.3072,3.5281,3.5281,0,0,0,3.5077-2.313,2.2134,2.2134,0,0,0,.1865-.7791c0-.0551.05-.11.0774-.1656a9.407,9.407,0,0,1,.0523,2.0445,14.8517,14.8517,0,0,1-4.2873,9.7139A10.1731,10.1731,0,0,1,47.7065,27.0676Z"/><path class="cls-7" d="M28.9542,26.5656c.0059-.2219.017-.4438.0171-.6658q.0016-5.6648,0-11.33a2.4707,2.4707,0,0,0-.0844-.8932.7435.7435,0,0,1-.0075-.2365,1.4373,1.4373,0,0,1,.6325.3972,4.6246,4.6246,0,0,1,.8967,1.0357c.0345.0989.0632.2.1052.2959.047.1071.0734.234.2092.2751a.6886.6886,0,0,1,.0353.1361,7.62,7.62,0,0,0,1.4161,4.0147c.2535.3649.5677.6772.8365,1.0278a2.4251,2.4251,0,0,0-.1318.8857q.009,3.4036.0027,6.8072c0,.2062-.0077.4123-.0119.6185a9.9164,9.9164,0,0,1-1.666-.7954A12.5973,12.5973,0,0,1,28.9542,26.5656Z"/><path class="cls-7" d="M48.5277,16.7743c-.1186-.0646-.2405-.124-.3551-.1952a1.1538,1.1538,0,0,0-.4067-.19c-.0273-.0542-.0409-.1274-.0845-.1586a2.0848,2.0848,0,0,1-.3227-.3315,3.749,3.749,0,0,1-.6271-.9794.25.25,0,0,0-.1735-.1418,1.7825,1.7825,0,0,1-.03-.1858,7.7557,7.7557,0,0,0-1.6931-4.4405c-.1167-.1483-.2349-.2955-.3523-.4431a2.4935,2.4935,0,0,0,.1349-.9313c-.0053-2.0123-.0022-4.0245-.003-6.0368A6.2213,6.2213,0,0,0,44.52,1.2321a5.4084,5.4084,0,0,1,1.207.5437A14.7775,14.7775,0,0,1,48.4729,3.64a.3467.3467,0,0,1,.052.077,2.2878,2.2878,0,0,0-.0969.7477q.0051,5.5425.003,11.085a2.5956,2.5956,0,0,0,.0814.8933A1.1351,1.1351,0,0,1,48.5277,16.7743Z"/><path class="cls-8" d="M32.87,28.9344c.0041-.2062.0118-.4123.0119-.6185q.0013-3.4036-.0027-6.8072a2.4252,2.4252,0,0,1,.1318-.8857c.0972.08.1976.1564.2912.24a8.07,8.07,0,0,0,2.57,1.5644,10.0111,10.0111,0,0,0,1.9716.4767l-.0022,7.1323a5.7706,5.7706,0,0,1-1.371-.1017A13.78,13.78,0,0,1,32.87,28.9344Z"/><path class="cls-9" d="M57.3964,8.1a.9452.9452,0,0,0-.1068-.4575c-.1671-.4593-.346-.9145-.5246-1.37-.3283-.8368-.6612-1.6718-.9893-2.5087-.2475-.6313-.4782-1.27-.7413-1.8942a1.2411,1.2411,0,0,1-.1168-.905c.3149-.005.63-.0137.9447-.0143Q57.73.9473,59.5971.9489c.1572,0,.3144.01.4715.016a2.49,2.49,0,0,0,.2694,1.1872c.2286.5877.4668,1.1717.6953,1.7595.1542.3968.2825.8044.452,1.1943.1764.4055.3312.8185.494,1.2289s.2825.837.4837,1.2333a3.6935,3.6935,0,0,1,.1793.5359l-3.5247.0034c-.1632.0143-.3439-.0663-.4812.0887a.2969.2969,0,0,1-.08.0031c-.0835-.1-.2-.0759-.3078-.0791C57.9643,8.1119,57.68,8.1064,57.3964,8.1Z"/><path class="cls-10" d="M37.8421,30.0369q.0011-3.5661.0022-7.1323l1.2425.0225c.0323.0364.0618.0324.0888-.0063.0623-.0106.1243-.0264.1871-.0309a7.8141,7.8141,0,0,0,3.1545-.9663,1.25,1.25,0,0,1,.3767-.1954q.0017,3.8654.0034,7.7308a4.8966,4.8966,0,0,1-1.0021.2821,16.1609,16.1609,0,0,1-3.0123.3476A5.0313,5.0313,0,0,1,37.8421,30.0369Z"/><path class="cls-5" d="M36.0595,41.8693c-.0072-.3125-.0213-.625-.02-.9374.0026-.6727.013-1.3454.02-2.0182q2.2323-.0009,4.4645-.0011a1.1285,1.1285,0,0,1,.3766.0231,1.9751,1.9751,0,0,0,.7035.0707c.9182.0019,1.8365-.0026,2.7547.0026a2.7221,2.7221,0,0,1,.94.0732c.1121.04.161-.0664.1751-.17a2.408,2.408,0,0,1,1.8629.9924,2.3752,2.3752,0,0,1,.493,1.9647Z"/><path class="cls-9" d="M11.04,18.586a1.8945,1.8945,0,0,1,.2919-.9395c.4059-.91.7806-1.8314,1.1472-2.7569a2.1354,2.1354,0,0,1,.0936-.2179,23.6761,23.6761,0,0,0,.9575-2.271c.0178-.044.0356-.088.0549-.1313a2.3345,2.3345,0,0,0,.1857-.4337c.03-.1425-.1746-.223-.1565-.3818q.8243-.0089,1.6485-.0176c.33-.003.66-.0033.99-.0048.2041.0033.4082.0088.6123.0093.55.0013,1.0993,0,1.649.0012.123,0,.2552-.0236.347.0947a.4563.4563,0,0,0-.55.3311c-.0638.1775-.1484.3475-.2229.5212-.118.2751-.2363.55-.3528.8258-.2328.5513-.4627,1.104-.6971,1.6546-.3085.7248-.63,1.4443-.9272,2.1736a12.524,12.524,0,0,0-.5881,1.5434c-.22.0059-.44.0164-.66.0168q-1.6762.0036-3.3525.002C11.3536,18.6049,11.1968,18.5927,11.04,18.586Z"/><path class="cls-5" d="M62.6424,8.1041a3.6935,3.6935,0,0,0-.1793-.5359c-.2012-.3964-.3209-.8231-.4837-1.2333s-.3176-.8234-.494-1.2289c-.17-.39-.2978-.7975-.452-1.1943-.2285-.5878-.4667-1.1717-.6953-1.7595A2.49,2.49,0,0,1,60.0686.9649L61.5948.964c.0628.0872.1256.0863.1883,0,.0944-.0049.1888-.0139.2831-.014Q64.8829.9475,67.7.9476c.0943,0,.1886.01.2828.0157-.1172.1173-.267.0787-.4055.0792-.8394.0031-1.6788.0019-2.5182.0023-.1267,0-.2534.0013-.38.0016-.1481,0-.2217.0684-.1534.2472.1746.4568.33.9209.5057,1.3773.2152.5595.4467,1.1126.6643,1.6712q.4381,1.1245.8644,2.2536A13.0258,13.0258,0,0,1,67.1247,8.1a9.7081,9.7081,0,0,1-1.3172.0082c-.5654-.001-1.1309-.0036-1.6963-.0022a3.8171,3.8171,0,0,0-.6991.06A.9331.9331,0,0,1,62.6424,8.1041Z"/><path class="cls-8" d="M44.52,1.2321A6.2213,6.2213,0,0,1,44.6146,2.74c.0008,2.0123-.0023,4.0245.003,6.0368a2.4934,2.4934,0,0,1-.1349.9313c-.0937-.0837-.1915-.1633-.2806-.2518a7.9051,7.9051,0,0,0-2.9394-1.83c-.25-.09-.5052-.1667-.758-.25a5.8275,5.8275,0,0,0,.1033-1.56q.0033-2.1924,0-4.3849A3.0966,3.0966,0,0,0,40.522.395a.8008.8008,0,0,1-.0076-.237,11.8088,11.8088,0,0,1,2.9572.65A4.5788,4.5788,0,0,1,44.52,1.2321Z"/><path class="cls-4" d="M36.0595,41.8693H47.83a2.2066,2.2066,0,0,1-.707,1.4625,2.6619,2.6619,0,0,1-1.9769.7984c-1.0008.01-2.0017.0025-3.0026.0025q-.1906,0-.3813,0c-.4335-.0005-.4192-.0171-.42.4126a.9142.9142,0,0,1-.0339.3764l-5.2488,0c-.0074-.25-.022-.5-.0208-.75C36.0422,43.4043,36.052,42.6368,36.0595,41.8693Z"/><path class="cls-11" d="M67.1247,8.1A13.0258,13.0258,0,0,0,66.56,6.5957q-.4243-1.13-.8644-2.2536c-.2176-.5586-.4491-1.1117-.6643-1.6712-.1755-.4564-.3311-.9205-.5057-1.3773-.0683-.1788.0053-.2468.1534-.2472.1267,0,.2534-.0016.38-.0016.8394,0,1.6788.0009,2.5182-.0023.1384-.0005.2883.0381.4055-.0792q1.4553-.0056,2.9105-.01a.7773.7773,0,0,1,.138.0243c-.1083.094-.24.0655-.3645.066-.5713.0022-1.1427-.0013-1.714.0021-.4148.0025-.4362.0378-.2978.441.01.03.0178.0609.03.09.3283.8223.6632,1.6421.9843,2.4672.4758,1.2228.94,2.45,1.414,3.6736a1.0429,1.0429,0,0,1,.0487.3737c-.1407.01-.2815.0291-.4222.0293q-1.675.0028-3.35-.0013C67.2808,8.1193,67.2027,8.1067,67.1247,8.1Z"/><path class="cls-1" d="M15.5227,18.5863a12.524,12.524,0,0,1,.5881-1.5434c.2975-.7292.6187-1.4488.9272-2.1736.2344-.5507.4643-1.1033.6971-1.6546.1165-.2758.2348-.5507.3528-.8258.0745-.1737.159-.3437.2229-.5212a.4563.4563,0,0,1,.55-.3311l.0952.0036c.0706.1088.182.09.2867.0916a3.4415,3.4415,0,0,1,1.8924,1.398,2.8242,2.8242,0,0,1,.3743.7573,1.4351,1.4351,0,0,0,.21.5164c.0025.2856.0081.5712.0069.8567a3.1164,3.1164,0,0,1-.6833,1.9795q-.2353.2966-.4692.5941a4.6449,4.6449,0,0,1-1.5812.8008,1.7676,1.7676,0,0,1-.4147.0653l-.1014.0028-2.2228.006Z"/><path class="cls-12" d="M65.7421,24.4126a7.53,7.53,0,0,1-.0375,1.7531,3.5894,3.5894,0,0,1-3.247,2.9285,3.5473,3.5473,0,0,1-3.342-1.6134,3.1144,3.1144,0,0,1-.57-1.8328c.0057-.4119.0139-.8237.021-1.2356Z"/><path class="cls-3" d="M69.0471,43.68q-.0108-.7933-.0218-1.5865a1.1166,1.1166,0,0,0-.0112-.2324c-.0193-.0837-.0932-.05-.15-.0435a.46.46,0,0,0-.2251-.34c-.5139-.34-1.0175-.6957-1.5255-1.0447q-1.0151-.6974-2.0315-1.393a.893.893,0,0,0-.6524-.2313,10.4172,10.4172,0,0,1,.7922-1.1011c.2-.2779.4229-.54.6356-.8086a1.0453,1.0453,0,0,1,.4705.21q.8353.5779,1.6773,1.1459.9809.6624,1.9677,1.3161c.15.0989.2925.1921.3.3942a.3537.3537,0,0,1-.081.2169,2.3179,2.3179,0,0,0-.2025.26c-.11.1766-.0624.2993.144.3445a1.9987,1.9987,0,0,0,.4221.0324q1.9423.0029,3.8847,0c.0071.3436.021.6872.02,1.0308-.002.61-.0131,1.22-.02,1.8293Z"/><path class="cls-13" d="M31.0847,12.5893a.4892.4892,0,0,1-.2026-.4085c-.0061-.1264-.0023-.2534-.0023-.38q0-4.2769,0-8.5538c0-.0792,0-.1584,0-.2376-.0026-.3729-.0027-.3729-.2925-.6418a2.5358,2.5358,0,0,1,.67-.426,6.8721,6.8721,0,0,1,1.3137-.6243.1765.1765,0,0,0,.2121-.0909l-.0046-.0018A.1662.1662,0,0,0,32.975,1.14a.04.04,0,0,1,.0541-.0173.197.197,0,0,0,.2332-.0844l-.006-.0035a.18.18,0,0,0,.1962-.0815.0821.0821,0,0,1,.08-.0112c.3682.0628.3881.0809.3991.3941.0044.1263.0009.253.001.3795q.0029,3.4866.0058,6.9733c-.0927.0852-.1814.1753-.2788.2547a7.9932,7.9932,0,0,0-2.3811,3.2188A1.1375,1.1375,0,0,1,31.0847,12.5893Z"/><path class="cls-1" d="M9.6408,38.9016a1.55,1.55,0,0,1,.0395.7521,4.9465,4.9465,0,0,1-.5762,1.9013Q7.89,43.7423,6.6891,45.9365c-.2682.4869-.5324.976-.8067,1.4594A1.7315,1.7315,0,0,1,2.6369,46.72a1.9369,1.9369,0,0,1,.2584-1.0946c.2593-.4553.5084-.9164.76-1.3758a.6553.6553,0,0,0,.1313-.351,1.3153,1.3153,0,0,0,.3961-.5952.8.8,0,0,0,.5858-.2661c.4588-.4538.9667-.8515,1.452-1.275s.9888-.829,1.4554-1.2706c.4007-.3792.8381-.7151,1.23-1.1036A1.4974,1.4974,0,0,1,9.6408,38.9016Z"/><path class="cls-13" d="M71.1312,8.0914a1.0429,1.0429,0,0,0-.0487-.3737c-.4736-1.2237-.9382-2.4508-1.414-3.6736-.321-.8252-.6559-1.6449-.9843-2.4672-.0117-.0293-.0193-.06-.03-.09-.1384-.4032-.117-.4385.2978-.441.5713-.0034,1.1427,0,1.714-.0021.1244,0,.2562.0281.3645-.066a3.5155,3.5155,0,0,1,2.8832,1.905,3.5659,3.5659,0,0,1-2.18,5.1073A1.2009,1.2009,0,0,1,71.1312,8.0914Z"/><path class="cls-2" d="M62.6424,8.1041a.9331.9331,0,0,0,.77.0622,3.8171,3.8171,0,0,1,.6991-.06c.5654-.0014,1.1309.0012,1.6963.0022a1.4574,1.4574,0,0,0-.0406.5109c-.0085.5309-.0142,1.0618-.021,1.5927a.4888.4888,0,0,0-.0554.3211c-.0053.3652-.0086.73-.0126,1.0956l-7.11.0024c-.0071-.3015-.02-.6029-.02-.9044,0-.8424.0054-1.6848.0087-2.5272a.2986.2986,0,0,0,.08-.0031c.162-.021.3425.0584.4812-.0888Z"/><path class="cls-11" d="M33.9381,8.6892q-.0029-3.4866-.0058-6.9733c0-.1265.0034-.2531-.001-.3795-.011-.3131-.0309-.3313-.3991-.3941a5.37,5.37,0,0,1,1.24-.4164A13.249,13.249,0,0,1,36.99.1218a.3444.3444,0,0,1,.2828.4158A2.1679,2.1679,0,0,0,37.27.87q.0018,3.2065.0037,6.4129a1.4119,1.4119,0,0,1-.1779.0593,8.059,8.059,0,0,0-2.675,1.0562A1.7,1.7,0,0,1,33.9381,8.6892Z"/><path class="cls-5" d="M23.5058,8.0094c.0071.6739.0185,1.3478.02,2.0217.0009.4385-.0127.877-.02,1.3155a2.35,2.35,0,0,1-.7994-.2794c-.8442-.3575-1.6743-.7484-2.52-1.1032-.9327-.3915-1.87-.7712-2.7849-1.2046-.2284-.1082-.4674-.194-.6949-.3039a.9234.9234,0,0,0-.4172-.0662c-.0082-.1247-.0232-.2495-.0234-.3742q-.002-1.2948.0021-2.59c0-.1249.014-.25.0215-.3747a.7683.7683,0,0,1,.4073.1072c.1426.0673.29.1249.4346.1876q.8261.3576,1.652.7158.8044.3482,1.6092.6954.9352.4031,1.871.8048A5.0064,5.0064,0,0,0,23.5058,8.0094Z"/><path class="cls-10" d="M37.2741,7.2826Q37.2723,4.0761,37.27.87a2.1679,2.1679,0,0,1,.0028-.3321A.3444.3444,0,0,0,36.99.1218a12.0638,12.0638,0,0,1,1.3337-.09.5807.5807,0,0,0,.5653-.0027,11.7572,11.7572,0,0,1,1.3394.0794A.145.145,0,0,0,40.3912.15a.0848.0848,0,0,1,.1232.0078.8.8,0,0,0,.0076.237,3.0966,3.0966,0,0,1,.0862,1.0372q.0024,2.1924,0,4.3849a5.8271,5.8271,0,0,1-.1033,1.56c-.17-.0281-.34-.062-.5107-.0832a8.1553,8.1553,0,0,0-1.6884-.1087C37.9615,7.2136,37.6179,7.25,37.2741,7.2826Z"/><path class="cls-1" d="M52.4644,35.4791c-.006-.6976-.0537-1.3978-.0094-2.0922a2.6816,2.6816,0,0,1,2.6894-2.5583,2.558,2.558,0,0,1,1.9646.813,4.9913,4.9913,0,0,1,.7488.9776.2492.2492,0,0,0-.0544.3042,1.3961,1.3961,0,0,1,.0711.5123q-.0045.9248-.0064,1.85c-.197.0006-.3112.2128-.5218.1948-.1882-.0161-.3789-.0028-.5685-.0027Z"/><path class="cls-13" d="M58.5674,11.6309l7.11-.0024q.0009,1.5247.0016,3.0494l-7.1121.0048c-.0073-.7673-.0169-1.5345-.02-2.3018C58.5457,12.131,58.56,11.8809,58.5674,11.6309Z"/><path class="cls-9" d="M45.4739,38.9121c-.0141.1038-.063.2105-.1751.17a2.7221,2.7221,0,0,0-.94-.0732c-.9182-.0052-1.8365-.0008-2.7547-.0026a1.9751,1.9751,0,0,1-.7035-.0707,1.1285,1.1285,0,0,0-.3766-.0231q-2.2323-.0009-4.4645.0011c-.0075-.1093-.0214-.2186-.0215-.3279q-.0012-1.579.0025-3.1581c0-.11.0122-.219.0186-.3285l5.2952-.0079q.0079.48.0155.96a4.8822,4.8822,0,0,0-.0262.8985c-.0059.5375-.0039,1.0752.0013,1.6128.0027.28.0245.3037.2917.3061.5534.005,1.1068.0019,1.66.0022.6325,0,1.265-.0007,1.8974.0032A2.0948,2.0948,0,0,1,45.4739,38.9121Z"/><path class="cls-9" d="M23.5058,8.0094a5.0064,5.0064,0,0,1-1.2418-.4477q-.9361-.4011-1.871-.8048-.8049-.347-1.6092-.6954-.8261-.3576-1.652-.7158c-.1448-.0627-.2919-.12-.4346-.1876a.7683.7683,0,0,0-.4073-.1072,3.6044,3.6044,0,0,1,.6783-2.6267,1.5838,1.5838,0,0,1,.1634-.1654.486.486,0,0,0,.3146.2691c.6105.2587,1.2167.5291,1.8358.7654.2248.0858.4073.237.6316.3183,1.0552.3824,2.0651.8721,3.0918,1.3218a.9877.9877,0,0,0,.5.1183c.0075.7359.0175,1.4718.0211,2.2077C23.5281,7.5093,23.5133,7.7594,23.5058,8.0094Z"/><path class="cls-12" d="M41.3541,35.0913l-5.295.0079a12.4155,12.4155,0,0,1-.01-1.8085,2.626,2.626,0,0,1,2.6572-2.47c.6828-.0152,1.3661-.0129,2.0491-.0131q2.5022-.0007,5.0045.0048c.1581,0,.3161.0157.4741.0241-.107.0921-.2368.0637-.3594.0647-.5161.0045-1.0323.0058-1.5484.0084H42.4193a14.89,14.89,0,0,0-2.852.0569c.1027.0461.2046.0868.3019.1364A2.6432,2.6432,0,0,1,41.36,33.4724C41.39,34.01,41.3581,34.5516,41.3541,35.0913Z"/><path class="cls-4" d="M16.29,8.3893a.9234.9234,0,0,1,.4172.0662c.2275.11.4665.1957.6949.3039.9147.4333,1.8521.813,2.7849,1.2046.8453.3548,1.6754.7458,2.52,1.1032a2.35,2.35,0,0,0,.7994.2794l.0185,2.0094a1.055,1.055,0,0,0-.052.7588c.0079.0681.09.0741.15.0861.0425.2035-.1163.3763-.0884.5776a1.1563,1.1563,0,0,1-.8085-.0877,4.034,4.034,0,0,0-1.0062-.3874,1.435,1.435,0,0,1-.21-.5164,2.8242,2.8242,0,0,0-.3743-.7573,3.4415,3.4415,0,0,0-1.8924-1.398c-.0695-.1122-.1811-.0926-.2867-.0916l-.0952-.0036c-.0919-.1184-.224-.0944-.3471-.0947-.55-.0016-1.0993,0-1.649-.0012-.2041,0-.4082-.006-.6123-.0093.0046-.84.0081-1.6806.0148-2.5209C16.2688,8.7367,16.2821,8.5631,16.29,8.3893Z"/><path class="cls-4" d="M58.5673,14.6827,65.68,14.678q.0063,1.2376.0121,2.4751a.8131.8131,0,0,1-.0046.095c-.0156.1378-.0668.1877-.2168.1973-.1107.007-.222.0051-.3331.0051q-3.285,0-6.57-.001C58.5346,16.5272,58.528,15.605,58.5673,14.6827Z"/><path class="cls-9" d="M52.4644,35.4791l4.3135-.0016c.19,0,.38-.0134.5685.0027.2106.018.3247-.1942.5218-.1948q.0014,1.86.0027,3.7208a4.7165,4.7165,0,0,1-1.3179.0958q-2.0442.0021-4.0883.0015c-.0074-.1093-.0212-.2185-.0213-.3278q-.0014-1.4841.0021-2.9682C52.4458,35.698,52.4579,35.5885,52.4644,35.4791Z"/><path class="cls-6" d="M57.8605,47.8784c.006.5222.0483,1.0471.0109,1.5662a2.6754,2.6754,0,0,1-2.2278,2.4406,2.71,2.71,0,0,1-3.19-2.5349c-.036-.4874.0059-.9806.012-1.4712Z"/><path class="cls-6" d="M41.3068,47.5a7.0559,7.0559,0,0,1,.0069,1.5666,2.6567,2.6567,0,0,1-2.08,2.2618,2.6919,2.6919,0,0,1-3.0588-1.7512,2.46,2.46,0,0,1-.1288-.7c-.0087-.46.0076-.92.0135-1.38Z"/><path class="cls-5" d="M52.4648,39.1034q2.0442-.0005,4.0883-.0015a4.7173,4.7173,0,0,0,1.3179-.0958q.0035.3811.0069.7622.0041.953.0084,1.906l-.0126.101-.0132.38-5.395,0c-.0074-.2814-.0219-.5628-.0207-.8442C52.4478,40.5756,52.4577,39.84,52.4648,39.1034Z"/><path class="cls-11" d="M52.4655,42.1559l5.395,0q.0108,1.2914.02,2.5828c.0007.1246-.0134.2493-.0207.3739l-5.3948,0c-.0072-.3126-.0213-.6252-.02-.9377C52.4479,43.5018,52.4583,42.8289,52.4655,42.1559Z"/><path class="cls-7" d="M65.7421,24.4126l-7.1758,0c-.0316-.731-.0371-1.4619,0-2.1929l7.1746.0006A19.0532,19.0532,0,0,1,65.7421,24.4126Z"/><path class="cls-2" d="M74.4406,40.8186q-1.9423,0-3.8847,0a1.9987,1.9987,0,0,1-.4221-.0324c-.2064-.0452-.2538-.1679-.144-.3445a2.3179,2.3179,0,0,1,.2025-.26.3537.3537,0,0,0,.081-.2169.5716.5716,0,0,0,.2424-.2164c.4149-.6609.9306-1.2481,1.3747-1.8875.4425-.6059.9291-1.1793,1.3355-1.8119.2532-.3315.51-.6606.7581-.9956a1.4278,1.4278,0,0,0,.2947-.6244l0,0,.1689-.0036c.0045.0471.0129.0942.0129.1413q.0006,3.0324-.0011,6.0648A1.81,1.81,0,0,1,74.4406,40.8186Z"/><path class="cls-6" d="M64.43,38.8079a.893.893,0,0,1,.6524.2313q1.0173.6942,2.0315,1.393c.508.349,1.0116.7046,1.5255,1.0447a.46.46,0,0,1,.2251.34,2.57,2.57,0,0,1-.402.5794c-.7214.9762-1.45,1.947-2.1774,2.919-.0555.0742-.0975.1639-.1966.1948a1.3516,1.3516,0,0,1,.0144-.3243,2.4521,2.4521,0,0,0-.1232-1.5048,1.875,1.875,0,0,0-.0859-.2654,5.95,5.95,0,0,0-.9559-1.2645.5966.5966,0,0,0-.06-.177c-.3924-.5144-.79-1.025-1.1854-1.5367-.0656-.1432-.2261-.246-.1852-.4346A14.2243,14.2243,0,0,1,64.43,38.8079Z"/><path class="cls-13" d="M52.4655,45.1125l5.3948,0c.0319.922.0372,1.8441,0,2.7661l-5.3951.0007c-.0071-.375-.0206-.75-.02-1.1249C52.4468,46.2069,52.4584,45.66,52.4655,45.1125Z"/><path class="cls-5" d="M58.5672,17.4495q3.285.0006,6.57.001c.1111,0,.2224.002.3331-.0051.15-.01.2012-.06.2168-.1973a.8131.8131,0,0,0,.0046-.095q-.0057-1.2375-.0121-2.4751-.0009-1.5247-.0017-3.0494c.0039-.3652.0072-.73.0125-1.0957a.4888.4888,0,0,1,.0554-.3211c.0091.1261.0261.2521.0261.3782q-.0011,4.1936-.0067,8.3873c0,.1262-.0161.2525-.0246.3787l-7.1735.0014A17.3725,17.3725,0,0,1,58.5672,17.4495Z"/><path class="cls-10" d="M69.0471,43.68l5.393-.0011c.0074.3747.0213.7494.0206,1.1241-.001.5157-.0131,1.0313-.02,1.547l-5.3933.0009C69.0149,45.46,69.0087,44.57,69.0471,43.68Z"/><path class="cls-1" d="M15.7137,42.7992a2.18,2.18,0,0,0-.6039-.0735,1.7076,1.7076,0,0,1-1.4037-.74.3388.3388,0,0,1-.0857-.2138.558.558,0,0,0,.35-.11,13.5215,13.5215,0,0,0,1.2816-1.1189c.5985-.5105,1.1889-1.0354,1.7644-1.572.45-.42.94-.7966,1.3632-1.2452a1.4683,1.4683,0,0,1,.661-.436,2.1323,2.1323,0,0,1,.2072.8171,4.1089,4.1089,0,0,1-.4733,2.4214.6074.6074,0,0,0-.1207.3033.5216.5216,0,0,0-.11.0887,4.76,4.76,0,0,1-1.78,1.5251c-.27.0715-.5413.1374-.8084.2177A1.2344,1.2344,0,0,0,15.7137,42.7992Z"/><path class="cls-7" d="M23.5057,5.0517a.9877.9877,0,0,1-.5-.1183c-1.0267-.45-2.0366-.9394-3.0918-1.3218-.2243-.0813-.4068-.2326-.6316-.3183-.6191-.2362-1.2253-.5067-1.8358-.7654a.486.486,0,0,1-.3146-.2691,3.2218,3.2218,0,0,1,1.8826-1.1943,3.6509,3.6509,0,0,1,3.9349,1.5388,3.5828,3.5828,0,0,1,.5724,1.7858C23.5342,4.6089,23.512,4.8307,23.5057,5.0517Z"/><path class="cls-7" d="M30.3417,38.0718c-.0832-.044-.167-.0868-.2494-.1323a1.2726,1.2726,0,0,0-1.5043.1381,6.8814,6.8814,0,0,0-.5085.4967,1.9279,1.9279,0,0,1-1.0741.5567,1.6975,1.6975,0,0,1-1.8439-1.0952.9531.9531,0,0,1-.0958-.46c.3971-.1048.7952-.2059,1.1911-.3152.64-.1767,1.2747-.3732,1.9181-.5357,1.2263-.31,2.441-.66,3.6579-1.0037a2.7549,2.7549,0,0,0,.666-.2415,3.2841,3.2841,0,0,1,1.2325,1.6215c-.7709.2105-1.54.4294-2.3137.628A9.4882,9.4882,0,0,0,30.3417,38.0718Z"/><path class="cls-8" d="M46.8053,30.8417c.6717-.0071,1.3434-.0169,2.0152-.02.218-.0009.436.0168.6541.0261q.0021,2.5938.0043,5.1876c-.89.0254-1.78.03-2.67,0Z"/><path class="cls-13" d="M41.3068,47.5,36.06,47.4977c-.0383-.8585-.0308-1.717-.0005-2.5755l5.2488,0c.01.1085.03.2169.03.3254q.005.9641.0013,1.9283A3.2575,3.2575,0,0,1,41.3068,47.5Z"/><path class="cls-10" d="M71.89,37.8605c-.4441.6394-.96,1.2266-1.3747,1.8875a.5716.5716,0,0,1-.2424.2164c-.0078-.202-.1506-.2952-.3-.3941q-.9876-.6524-1.9677-1.3161-.8418-.5684-1.6773-1.1459a1.0453,1.0453,0,0,0-.4705-.21,4.9946,4.9946,0,0,1,.57-.8,10.8816,10.8816,0,0,1,.8622-1.1078c.2491-.03.4161.1405.5954.26q1.7753,1.1872,3.54,2.3907A.98.98,0,0,0,71.89,37.8605Z"/><path class="cls-6" d="M57.878,39.7684l-.0069-.7622q-.0014-1.86-.0028-3.7208.0029-.9248.0064-1.85a1.3961,1.3961,0,0,0-.0711-.5123.2492.2492,0,0,1,.0544-.3042c.4307.5667.8638,1.1317,1.2917,1.7006q1.0137,1.3476,2.021,2.7c.056.075.099.16.148.24a.4066.4066,0,0,1-.1849.31c-.8484.623-1.6865,1.26-2.5391,1.8773A1.0371,1.0371,0,0,1,57.878,39.7684Z"/><path class="cls-14" d="M24.6869,46.28a2.0227,2.0227,0,1,1-4.0452-.0248,2.0407,2.0407,0,0,1,2.04-2.0173A2.019,2.019,0,0,1,24.6869,46.28Z"/><path class="cls-6" d="M6.4083,34.8745a.0575.0575,0,0,1,.0572.0246.1562.1562,0,0,0,.2038.0789l-.0073.0086a.486.486,0,0,1-.113.3527c-.1726.1635-.3376.3356-.5167.4917-.3569.3111-.7393.5952-1.0775.9251-.3634.3544-.78.6454-1.1355,1.01-.15.1536-.3442.275-.5121.42a.4981.4981,0,0,1-.1771.0572c-.1087-.0913-.2165-.1838-.3264-.2736a1.6868,1.6868,0,0,0-1.1486-.3607A1.7414,1.7414,0,0,0,.32,38.3294q-.1175.1484-.2347.297a3.1175,3.1175,0,0,1,.3659-1.2637,4.71,4.71,0,0,1,3.3878-2.642,4.4328,4.4328,0,0,1,2.34.0908A.1915.1915,0,0,0,6.4083,34.8745Z"/><path class="cls-4" d="M46.8053,30.8417l.0033,5.1946c-.8266.0252-1.6532.03-2.48,0L44.3258,30.91c.5161-.0025,1.0323-.0039,1.5484-.0084.1226-.0011.2524.0274.3594-.0647A2.0008,2.0008,0,0,1,46.8053,30.8417Z"/><path class="cls-6" d="M25.9113,44.9166c.4555-.5042.9064-1.0126,1.3689-1.51a3.8944,3.8944,0,0,1,.5571-.5793,1.48,1.48,0,0,0,.4613-.0818c.602-.1787,1.2088-.3413,1.814-.5091.7412-.2055,1.4821-.4126,2.2244-.6143a2.3126,2.3126,0,0,1,.9752-.1245,7.986,7.986,0,0,1-1.2006,1.57q-.7672.8329-1.5305,1.6693a1.6465,1.6465,0,0,1-.7511.09l-2.0026.0009c-.1877-.0018-.3755-.0065-.5632-.0048a2.4721,2.4721,0,0,0-1.24.1579C26.0043,44.9916,25.95,44.9394,25.9113,44.9166Z"/><path class="cls-1" d="M32.4988,35.4793a2.7549,2.7549,0,0,1-.666.2415c-1.2168.3436-2.4315.694-3.6579,1.0037-.6434.1625-1.2782.359-1.9181.5357-.3959.1093-.794.21-1.1911.3152a1.3035,1.3035,0,0,1,.2509-1.1612,4.8024,4.8024,0,0,1,2.1436-1.606,5.0744,5.0744,0,0,1,2.567-.31,5.49,5.49,0,0,1,1.9408.5926A1.7035,1.7035,0,0,1,32.4988,35.4793Z"/><path class="cls-8" d="M71.89,37.8605a.98.98,0,0,1-.4661-.2187q-1.7662-1.2007-3.54-2.3907c-.1793-.12-.3463-.2907-.5954-.26a3.8948,3.8948,0,0,1,.486-.69c.2806-.3775.5744-.7452.8627-1.117a.7347.7347,0,0,1,.4277.19,4.7159,4.7159,0,0,0,.58.41c.5008.33,1.0142.6443,1.4928,1.0044.519.3905,1.0778.7194,1.6031,1.0986a.7014.7014,0,0,0,.4849.162C72.82,36.6812,72.333,37.2546,71.89,37.8605Z"/><path class="cls-8" d="M69.047,46.3508,74.44,46.35a20.8315,20.8315,0,0,1,0,2.0985l-5.3935.0009C69.0149,47.75,69.01,47.05,69.047,46.3508Z"/><path class="cls-4" d="M63.5066,40.0033c-.041.1886.12.2914.1852.4346q-1.0581.752-2.1156,1.5049c-.1535.11-.2977.2323-.449.3452-.4917.3667-.987.7286-1.4756,1.0994a.5481.5481,0,0,1-.3536.1063,11.13,11.13,0,0,1-1.086-1.4518.8763.8763,0,0,1,.3051-.3541c.31-.216.6123-.442.9148-.6679.744-.5555,1.494-1.1034,2.2252-1.6754.2562-.2.5805-.3379.7226-.6659a10.4264,10.4264,0,0,1,.7715.9823C63.2547,39.7879,63.31,39.9706,63.5066,40.0033Z"/><path class="cls-8" d="M59.298,43.4936a.5481.5481,0,0,0,.3536-.1063c.4886-.3708.9838-.7327,1.4756-1.0994.1513-.1128.2955-.2355.449-.3452q1.056-.7549,2.1156-1.5049c.3959.5117.793,1.0224,1.1854,1.5367a.5948.5948,0,0,1,.06.177c-.25-.0312-.4162.14-.5879.2669q-1.7288,1.2758-3.442,2.5729a.6843.6843,0,0,1-.3934.1329A15.1579,15.1579,0,0,1,59.298,43.4936Z"/><path class="cls-7" d="M73.226,36.0486a.7014.7014,0,0,1-.4849-.162c-.5253-.3792-1.0841-.7081-1.6031-1.0986-.4785-.36-.992-.6742-1.4928-1.0044a4.7159,4.7159,0,0,1-.58-.41.7347.7347,0,0,0-.4277-.19,9.8619,9.8619,0,0,1,1.1677-1.5173,4.0226,4.0226,0,0,1,.941.5335q1.5312,1.0341,3.0446,2.0943a.7332.7332,0,0,0,.4877.1345,1.4278,1.4278,0,0,1-.2947.6244C73.7356,35.388,73.4791,35.7171,73.226,36.0486Z"/><path class="cls-9" d="M65.7412,22.22l-7.1746-.0006a9.8532,9.8532,0,0,1,0-1.4308l7.1739.0006A7.9707,7.9707,0,0,1,65.7412,22.22Z"/><path class="cls-8" d="M65.7407,20.7893l-7.1739-.0006a9.762,9.762,0,0,1,0-1.4314l7.1735-.0014A7.9738,7.9738,0,0,1,65.7407,20.7893Z"/><path class="cls-7" d="M60.5141,45.1243a.6843.6843,0,0,0,.3934-.1329q1.7141-1.2955,3.442-2.5729c.1717-.1267.338-.2981.5879-.2669a5.9474,5.9474,0,0,1,.956,1.2645,1.8774,1.8774,0,0,1,.0859.2654.9129.9129,0,0,0-.46.2205c-.4469.3443-.8987.6824-1.3515,1.0189-.5411.4021-1.0829.8033-1.6293,1.1982a3.99,3.99,0,0,1-.7752.53.7764.7764,0,0,1-.2878-.2392A10.839,10.839,0,0,1,60.5141,45.1243Z"/><path class="cls-1" d="M49.4788,36.0358q-.0021-2.5938-.0043-5.1876a2.5987,2.5987,0,0,1,1.45,4.6686A2.25,2.25,0,0,1,49.4788,36.0358Z"/><path class="cls-11" d="M33.3122,41.4972a2.3126,2.3126,0,0,0-.9752.1245c-.7423.2016-1.4831.4087-2.2244.6143-.6052.1678-1.212.33-1.814.5091a1.48,1.48,0,0,1-.4613.0818c.3159-.4327.7045-.8015,1.06-1.1989.4722-.5275.9536-1.0465,1.4311-1.5692a1.9716,1.9716,0,0,0,.7018-.09c.24-.0788.4866-.1346.73-.2009.6094-.1659,1.2209-.3248,1.8267-.5029a1.35,1.35,0,0,1,.4661-.0611,3.779,3.779,0,0,1-.3277,1.5055A2.9291,2.9291,0,0,1,33.3122,41.4972Z"/><path class="cls-3" d="M44.3258,30.91l.0031,5.1264c-.6357.025-1.2715.0294-1.9073,0L42.4193,30.91Z"/><path class="cls-8" d="M11.2266,43.3838a1.6168,1.6168,0,0,1,2.11.6607,2.534,2.534,0,0,0,.5688.6747.82.82,0,0,0,.1762.62,1.703,1.703,0,0,1,.1259.1993c.4293.7518.8508,1.5083,1.2925,2.2527a.7714.7714,0,0,1,.1185.4434,4.349,4.349,0,0,1-2.0022-.1,1.52,1.52,0,0,0-.3222-.88c-.4036-.7175-.831-1.4217-1.2467-2.1324-.2319-.3964-.4553-.7979-.6907-1.1922A.9574.9574,0,0,1,11.2266,43.3838Z"/><path class="cls-6" d="M16.7642,42.4451a4.76,4.76,0,0,0,1.78-1.5251.5216.5216,0,0,1,.11-.0887,4.2915,4.2915,0,0,1,.566,5.1572,1.48,1.48,0,0,1-.1492.1808.4027.4027,0,0,1-.3994-.1956c-.2654-.4844-.5414-.9631-.8166-1.4421-.1807-.3145-.3745-.6218-.55-.9394A3.3316,3.3316,0,0,1,16.7642,42.4451Z"/><path class="cls-9" d="M9.6408,38.9016a1.4974,1.4974,0,0,0-.7343.4859c-.3923.3885-.83.7245-1.23,1.1036-.4666.4416-.97.847-1.4554,1.2706s-.9932.8212-1.452,1.275a.8.8,0,0,1-.5859.2661c.0576-.0938.119-.1854.1724-.2816.3372-.6074.6748-1.2147,1.0073-1.8247.1059-.1942.1995-.3954.2929-.596.0428-.0919-.02-.1456-.0914-.1885a1.5161,1.5161,0,0,0,.656-1.0239.51.51,0,0,0,.4668-.1727,2.91,2.91,0,0,1,.3142-.2863c.3353-.2846.6755-.5634,1.0076-.8517a6.43,6.43,0,0,1,.5352-.4627,1.5725,1.5725,0,0,0,.5126-.5494,3.218,3.218,0,0,1,.538,1.3732A3.6929,3.6929,0,0,1,9.6408,38.9016Z"/><path class="cls-10" d="M14.7615,37.7737a1.5148,1.5148,0,0,1-.1833.0453,1.5188,1.5188,0,0,0-.9718.5276,1.6773,1.6773,0,0,1-1.8618.457.6232.6232,0,0,1-.3186-.1941c.0185-.0594.02-.1343.0584-.1755a3.9514,3.9514,0,0,1,.5052-.5026c.5081-.38.9482-.8356,1.4152-1.259a14.9032,14.9032,0,0,0,1.2985-1.1812.3471.3471,0,0,1,.1128-.086,1.9413,1.9413,0,0,0,.4-.3328.5821.5821,0,0,0,.211-.5488,3.253,3.253,0,0,1,1.4391.3759,1.3321,1.3321,0,0,1,.4778.2876,3.3349,3.3349,0,0,1-.2444.2844c-.4607.4317-.9261.8585-1.39,1.2868a.2249.2249,0,0,1-.0394.0263,4.8676,4.8676,0,0,0-.833.7708A.2985.2985,0,0,0,14.7615,37.7737Z"/><path class="cls-7" d="M69.0468,48.4493l5.3935-.0009a4.1221,4.1221,0,0,1-.0792,1.4574,2.171,2.171,0,0,1-.1069.26l-5.027,0a1.4191,1.4191,0,0,1-.1944-.7212C69.0227,49.1134,69.0408,48.7812,69.0468,48.4493Z"/><path class="cls-11" d="M15.4274,34.5235a.5821.5821,0,0,1-.211.5488,1.9413,1.9413,0,0,1-.4.3328.3471.3471,0,0,0-.1128.086,14.9032,14.9032,0,0,1-1.2985,1.1812c-.467.4234-.9071.8793-1.4152,1.259a3.9514,3.9514,0,0,0-.5052.5026c-.0382.0412-.04.1161-.0584.1755A1.6422,1.6422,0,0,1,11,36.2214a4.5168,4.5168,0,0,1,1.789-1.3627,4.7678,4.7678,0,0,1,1.8847-.3909.3.3,0,0,0,.365.0008A.5921.5921,0,0,1,15.4274,34.5235Z"/><path class="cls-13" d="M62.38,38.6786c-.1421.328-.4664.4654-.7226.6659-.7312.5719-1.4812,1.12-2.2252,1.6754-.3025.2259-.6052.4519-.9148.6679a.8763.8763,0,0,0-.3051.3541q-.1238-.147-.247-.2943l-.0786-.0731q-.0042-.953-.0084-1.906a1.0372,1.0372,0,0,0,.7167-.321c.8525-.6172,1.6907-1.2542,2.5391-1.8773a.4066.4066,0,0,0,.1849-.31A11.5784,11.5784,0,0,1,62.38,38.6786Z"/><path class="cls-12" d="M74.2788,34.4286a.7332.7332,0,0,1-.4877-.1345Q72.2773,33.2348,70.7465,32.2a4.0226,4.0226,0,0,0-.941-.5335,2.1227,2.1227,0,0,1,1.276-.7549,2.6483,2.6483,0,0,1,2.8517,1.0309,2.5591,2.5591,0,0,1,.5274,1.4955c.0072.1731-.0092.3471-.0149.5207a.6184.6184,0,0,0-.1667.47Z"/><path class="cls-5" d="M29.83,44.8267a1.6466,1.6466,0,0,0,.7511-.09,8.142,8.142,0,0,0,1.1756.037,1.6831,1.6831,0,0,1,.56.0366.6816.6816,0,0,1-.0657.3214,1.7629,1.7629,0,0,0-.1582.4918c-.1412.58-.31,1.1534-.4392,1.7356a4.3018,4.3018,0,0,0-.2025.9175,1.4908,1.4908,0,0,1-.2288.0354q-.96.0026-1.9194-.0034a1.6614,1.6614,0,0,1-.23-.0326c.1068-.475.2059-.9519.3228-1.4243.0945-.3821.219-.7567.314-1.1386A2.4068,2.4068,0,0,0,29.83,44.8267Z"/><path class="cls-13" d="M21.7193,14.3035a4.0339,4.0339,0,0,1,1.0062.3874,1.1563,1.1563,0,0,0,.8085.0877,1.4323,1.4323,0,0,0,.1851.95.3805.3805,0,0,1-.1827.382c.0083-.0151.0251-.0358.021-.0415-.0368-.0517.0015-.0457.0362.0033a.1829.1829,0,0,1,.0252.1716,2.0858,2.0858,0,0,0-.069.8251c-.0073.3722-.0137.7443-.0224,1.1165-.0054.2324-.0143.4647-.0216.6971a5.0408,5.0408,0,0,1-1.2785-.4659,16.7724,16.7724,0,0,0-1.6538-.6828q.2345-.2971.4692-.5942a3.1164,3.1164,0,0,0,.6833-1.9795C21.7274,14.8747,21.7218,14.5891,21.7193,14.3035Z"/><path class="cls-11" d="M31.451,48.2763a4.3018,4.3018,0,0,1,.2025-.9175c.13-.5822.298-1.1558.4392-1.7356a1.7629,1.7629,0,0,1,.1582-.4918.6816.6816,0,0,0,.0657-.3214,1.997,1.997,0,0,1,.7058.0044,1.7286,1.7286,0,0,1,1.4716,1.41,1.7081,1.7081,0,0,1-.9971,1.9055.9615.9615,0,0,1-.45.1274,7.6705,7.6705,0,0,0-1.1867.027A.7.7,0,0,1,31.451,48.2763Z"/><path class="cls-7" d="M19.0406,37.29a1.4683,1.4683,0,0,0-.661.436c-.4235.4486-.913.8254-1.3632,1.2452-.5755.5366-1.1659,1.0615-1.7644,1.572A13.5215,13.5215,0,0,1,13.97,41.6617a.558.558,0,0,1-.35.11,1.6255,1.6255,0,0,1,1.2087-2.3679c.0771-.0138.157-.0115.2354-.0189a.828.828,0,0,0,.83-.8488,1.2083,1.2083,0,0,0-.0159-.188.5111.5111,0,0,0,.2609-.1018c.527-.3813.9547-.8757,1.464-1.2778a5.4725,5.4725,0,0,1,.676-.5954c.0893-.05.103-.1548.1145-.2509A2.5741,2.5741,0,0,1,19.0406,37.29Z"/><path class="cls-1" d="M61.7632,46.6486a3.99,3.99,0,0,0,.7752-.53c.5464-.3949,1.0881-.7961,1.6293-1.1982.4529-.3365.9046-.6746,1.3515-1.0189a.9129.9129,0,0,1,.46-.2205,2.4522,2.4522,0,0,1,.1232,1.5048,1.3516,1.3516,0,0,0-.0144.3243l.0029-.0132c-.0563.0132-.0764.0413-.0386.0934a4.3959,4.3959,0,0,1-.6894.8921,2.7248,2.7248,0,0,1-3.5767.2067A.1341.1341,0,0,1,61.7632,46.6486Z"/><path class="cls-12" d="M25.9113,44.9166c.0384.0228.093.075.1129.0641a2.4721,2.4721,0,0,1,1.24-.1579c.1877-.0017.3755.003.5632.0048a1.0076,1.0076,0,0,1,.0079.6434c-.19.6683-.3592,1.3429-.5262,2.0176-.0642.2593-.1.5255-.1494.7886a1.7631,1.7631,0,0,1-1.804-.7026,1.6359,1.6359,0,0,1-.0518-1.9989A2.3294,2.3294,0,0,1,25.9113,44.9166Z"/><path class="cls-3" d="M16.7642,42.4451a3.3316,3.3316,0,0,0,.541,1.1471c.175.3176.3688.6248.55.9394.2752.479.5512.9577.8166,1.4421a.4027.4027,0,0,0,.3994.1956,3.4454,3.4454,0,0,1-1.4223,1.3429.4483.4483,0,0,1-.2079-.185c-.1851-.31-.3758-.6175-.5593-.9289-.2153-.3655-.43-.7318-.6359-1.1025a1.1646,1.1646,0,0,1-.2422-.6535c.0721-.0823.1493-.1607.2156-.2474a.9734.9734,0,0,0-.2153-1.4411,2.6031,2.6031,0,0,0-.29-.1545,1.2306,1.2306,0,0,1,.242-.1364C16.223,42.5825,16.4945,42.5166,16.7642,42.4451Z"/><path class="cls-5" d="M34.0535,39.2036a1.35,1.35,0,0,0-.4661.0611c-.6058.1781-1.2173.3371-1.8267.5029-.2436.0663-.4907.1221-.73.2009a1.9716,1.9716,0,0,1-.7018.09c.071-.1031.1427-.2058.213-.3094a1.1533,1.1533,0,0,0,.0005-1.4137c-.0615-.0915-.1333-.1761-.2005-.2639a9.492,9.492,0,0,1,1.0758-.343c.774-.1986,1.5428-.4175,2.3137-.628A3.6138,3.6138,0,0,1,34.0535,39.2036Z"/><path class="cls-7" d="M11.2266,43.3838a.9574.9574,0,0,0,.13.5465c.2354.3943.4588.7958.6907,1.1922.4157.7108.8431,1.4149,1.2467,2.1324a1.52,1.52,0,0,1,.3222.88,4.6531,4.6531,0,0,1-3.195-2.3941,1.64,1.64,0,0,1-.1406-1.3747A1.4194,1.4194,0,0,1,11.2266,43.3838Z"/><path class="cls-10" d="M16.0031,44.6423a1.1646,1.1646,0,0,0,.2422.6535c.2061.3708.4205.737.6359,1.1025.1835.3114.3742.6185.5593.9289a.4483.4483,0,0,0,.2079.185,3.9892,3.9892,0,0,1-1.6074.6608,4.1462,4.1462,0,0,1-.4222.0616.7715.7715,0,0,0-.1185-.4434c-.4417-.7445-.8632-1.5009-1.2925-2.2527a1.703,1.703,0,0,0-.1259-.1993.82.82,0,0,1-.1762-.62,2.3327,2.3327,0,0,0,1.2963.2073A3.2249,3.2249,0,0,0,16.0031,44.6423Z"/><path class="cls-7" d="M27.16,48.2771c.049-.2631.0852-.5293.1494-.7886.1669-.6747.3357-1.3493.5262-2.0176a1.0076,1.0076,0,0,0-.0079-.6434l2.0026-.0009a2.407,2.407,0,0,1-.12.886c-.0951.3819-.22.7566-.314,1.1386-.1169.4725-.216.9494-.3228,1.4243a1.6647,1.6647,0,0,1-.2758.0375A14.3493,14.3493,0,0,1,27.16,48.2771Z"/><path class="cls-6" d="M42.4193,30.91l.0023,5.1265-1.0517.0144q-.0077-.48-.0155-.96c.0037-.54.0354-1.081.0057-1.6189a2.6432,2.6432,0,0,0-1.4907-2.3692c-.0973-.05-.1992-.09-.3019-.1364A14.89,14.89,0,0,1,42.4193,30.91Z"/><path class="cls-1" d="M69.2272,50.166l5.027,0a2.3266,2.3266,0,0,1-1.1548,1.3895,2.71,2.71,0,0,1-3.8087-1.1641A1.3729,1.3729,0,0,1,69.2272,50.166Z"/><path class="cls-3" d="M3.13,38.2427a.4981.4981,0,0,0,.1771-.0572c.1679-.1445.3624-.2659.5121-.42.3554-.3646.7721-.6556,1.1355-1.01.3382-.33.7206-.6139,1.0775-.9251.179-.1561.344-.3282.5167-.4917a.486.486,0,0,0,.113-.3527,2.9817,2.9817,0,0,1,1.2244.6971.5285.5285,0,0,1-.1889.459c-.4245.3727-.8431.752-1.2662,1.1262-.0582.0515-.1334.0835-.1924.1343a3.1687,3.1687,0,0,0-.7395.7823c-.0912-.0259-.1819-.0542-.2738-.0774a1.383,1.383,0,0,0-1.6111.6829c-.0309.054-.0664.1054-.1.1581-.1206-.2085-.1548-.4712-.384-.6115Q3.1282,38.29,3.13,38.2427Z"/><path class="cls-6" d="M5.564,40.4122c.0719.0429.1342.0966.0914.1885-.0935.2007-.1871.4018-.2929.596-.3325.61-.67,1.2172-1.0073,1.8247-.0534.0961-.1148.1878-.1724.2816a1.3143,1.3143,0,0,1-.396.5953A4.1826,4.1826,0,0,1,1.6,42.7594a1.6017,1.6017,0,0,0,.4194-.22,9.7487,9.7487,0,0,1,.8146-.5678c.5634-.325,1.0808-.7185,1.6323-1.06a.648.648,0,0,0,.2864-.3068.1235.1235,0,0,1,.1351.0116c.15.0074.31.0615.43-.0833A.4648.4648,0,0,1,5.564,40.4122Z"/><path class="cls-5" d="M5.4994,38.1856a3.168,3.168,0,0,1,.7395-.7823c.059-.0507.1342-.0828.1924-.1343.4231-.3743.8418-.7536,1.2662-1.1262a.5285.5285,0,0,0,.1889-.459,3.39,3.39,0,0,1,1.17,1.3816,1.5725,1.5725,0,0,1-.5126.5494,6.43,6.43,0,0,0-.5352.4627c-.3321.2882-.6723.5671-1.0076.8517a2.91,2.91,0,0,0-.3142.2863.51.51,0,0,1-.4668.1727A1.38,1.38,0,0,0,5.4994,38.1856Z"/><path class="cls-9" d="M18.394,36.1225c-.0115.0962-.0252.2012-.1145.2509a5.4725,5.4725,0,0,0-.676.5954c-.5093.4021-.937.8965-1.464,1.2778a.5111.5111,0,0,1-.2609.1018,1.3309,1.3309,0,0,0-1.1171-.5746.2986.2986,0,0,1,.076-.2185,4.8676,4.8676,0,0,1,.833-.7708.2249.2249,0,0,0,.0394-.0263c.464-.4282.9293-.855,1.39-1.2868a3.3349,3.3349,0,0,0,.2444-.2844A2.7473,2.7473,0,0,1,18.394,36.1225Z"/><path class="cls-12" d="M3.13,38.2427q-.0018.0474.0006.0949c-.1391.1007-.2753.2055-.4176.3013-.611.4114-1.2188.828-1.8386,1.226a2.3066,2.3066,0,0,1-.7407.3926,3.1512,3.1512,0,0,1-.048-1.6311q.1173-.1484.2347-.2969a1.7414,1.7414,0,0,1,1.3346-.7211,1.6868,1.6868,0,0,1,1.1486.3607C2.9136,38.0589,3.0213,38.1514,3.13,38.2427Z"/><path class="cls-11" d="M4.7531,40.6048a.6483.6483,0,0,1-.2865.3068c-.5515.3417-1.0689.7352-1.6323,1.06A9.7487,9.7487,0,0,0,2.02,42.54a1.6017,1.6017,0,0,1-.4194.22,2.2814,2.2814,0,0,1-.7089-.7817c.16-.0472.2475-.1917.3779-.28.5609-.3777,1.1339-.7371,1.6955-1.1139a1.9433,1.9433,0,0,1,.83-.4333A2.2185,2.2185,0,0,0,4.7531,40.6048Z"/><path class="cls-5" d="M3.7947,40.1511a1.9433,1.9433,0,0,0-.83.4333c-.5616.3768-1.1346.7362-1.6955,1.1139-.13.0878-.2183.2323-.3779.28a2.0294,2.0294,0,0,1-.4433-.77.773.773,0,0,1,.2946-.298q1.0842-.7158,2.161-1.443a.84.84,0,0,1,.5751-.1723A1.637,1.637,0,0,0,3.7947,40.1511Z"/><path class="cls-7" d="M3.4788,39.2944a.84.84,0,0,0-.5751.1723q-1.0765.7275-2.161,1.443a.773.773,0,0,0-.2946.298,2.1685,2.1685,0,0,1-.3143-.95,2.3066,2.3066,0,0,0,.7407-.3926c.62-.3979,1.2276-.8145,1.8386-1.226.1423-.0958.2785-.2006.4176-.3013.2292.14.2635.403.3841.6114Z"/><path class="cls-7" d="M23.6224,14.201c-.06-.012-.1422-.018-.15-.0861a1.055,1.055,0,0,1,.052-.7588h.1026Z"/><path class="cls-5" d="M9.1311,11.4535c-.0557.0265-.111.0751-.1671.0759q-.6424.0095-1.285,0c-.0559-.0009-.1111-.05-.1666-.0766A15.1428,15.1428,0,0,1,9.1311,11.4535Z"/><path class="cls-12" d="M31.86,48.2849a7.6705,7.6705,0,0,1,1.1867-.027A2.8137,2.8137,0,0,1,31.86,48.2849Z"/><path class="cls-7" d="M74.279,34.4283a.6184.6184,0,0,1,.1667-.47,1.0536,1.0536,0,0,1,.0022.4664Z"/><path class="cls-12" d="M38.8894.0289a.5807.5807,0,0,1-.5653.0027A1.3345,1.3345,0,0,1,38.8894.0289Z"/><path class="cls-10" d="M15.0383,34.4686a.3.3,0,0,1-.365-.0008A.6436.6436,0,0,1,15.0383,34.4686Z"/><path class="cls-12" d="M32.975,1.14a.1662.1662,0,0,1-.1965.0842A.2.2,0,0,1,32.975,1.14Z"/><path class="cls-12" d="M6.4083,34.8745a.1915.1915,0,0,1-.2291-.063A.227.227,0,0,1,6.4083,34.8745Z"/><path class="cls-12" d="M6.6692,34.9781a.1562.1562,0,0,1-.2038-.0789A.2071.2071,0,0,1,6.6692,34.9781Z"/><path class="cls-12" d="M30.2923,2.5526a.1544.1544,0,0,1-.1765.1094A.1946.1946,0,0,1,30.2923,2.5526Z"/><path class="cls-9" d="M32.783,1.2263a.1765.1765,0,0,1-.2121.0909A.23.23,0,0,1,32.783,1.2263Z"/><path class="cls-5" d="M33.2623,1.0385a.197.197,0,0,1-.2332.0844A.2526.2526,0,0,1,33.2623,1.0385Z"/><path class="cls-9" d="M61.7831.9639c-.0627.0864-.1255.0874-.1883,0Z"/><path class="cls-12" d="M33.4525.9535a.18.18,0,0,1-.1962.0815A.1794.1794,0,0,1,33.4525.9535Z"/><path class="cls-4" d="M57.8863,41.6744l.0786.0731-.0912.0279Z"/><path class="cls-12" d="M30.3992,2.4775a.1051.1051,0,0,1-.1079.076A.0955.0955,0,0,1,30.3992,2.4775Z"/><path class="cls-3" d="M6.2488,2.0039l-.0709-.07A.0623.0623,0,0,1,6.2488,2.0039Z"/><path class="cls-8" d="M40.3912.15a.145.145,0,0,1-.1623-.0419A.1465.1465,0,0,1,40.3912.15Z"/><path class="cls-6" d="M66.0524,45.5908c-.0378-.0521-.0177-.08.0386-.0934Z"/><path class="cls-12" d="M2.2837,28.8a.0553.0553,0,0,1,.06.0229l-.0364.0088Z"/><path class="cls-12" d="M30.0074,2.7423a.1128.1128,0,0,1-.127.0815A.1414.1414,0,0,1,30.0074,2.7423Z"/><path class="cls-12" d="M29.5459,3.0672a.0888.0888,0,0,1-.0942.0745A.0835.0835,0,0,1,29.5459,3.0672Z"/><path class="cls-10" d="M18.4763,18.6027l.1014-.0028C18.5453,18.65,18.5115,18.652,18.4763,18.6027Z"/><path class="cls-13" d="M30.6984,14.8758a1.7576,1.7576,0,0,1,.025.5686c-.1358-.0411-.1622-.168-.2092-.2751-.042-.0956-.0707-.1971-.1052-.2959Z"/><path class="cls-12" d="M42.9958,21.6474a.1873.1873,0,0,1,.1794-.11A.1631.1631,0,0,1,42.9958,21.6474Z"/><path class="cls-12" d="M43.171,21.5405a.1123.1123,0,0,1,.1083-.0822A.11.11,0,0,1,43.171,21.5405Z"/><path class="cls-5" d="M59.1177,8.1075c-.1387.1472-.3192.0678-.4812.0888C58.7738,8.0413,58.9545,8.1218,59.1177,8.1075Z"/><path class="cls-8" d="M39.0868,22.9272a.0729.0729,0,0,1,.0888-.0063C39.1486,22.96,39.1191,22.9636,39.0868,22.9272Z"/><path class="cls-9" d="M18.9561,11.54c.1057-.001.2172-.0206.2867.0916C19.1381,11.63,19.0267,11.649,18.9561,11.54Z"/><path class="cls-11" d="M4.8881,40.6164a.7306.7306,0,0,1,.43-.0833C5.1977,40.6779,5.0384,40.6238,4.8881,40.6164Z"/></g></g></svg>