<svg xmlns="http://www.w3.org/2000/svg" viewBox="0 0 323.27 88.79"><defs><style>.cls-1{opacity:0.2;}.cls-2,.cls-4,.cls-5{stroke:#000;}.cls-2,.cls-3,.cls-4,.cls-5,.cls-6,.cls-7{stroke-miterlimit:10;}.cls-2,.cls-3{stroke-width:1.1px;}.cls-3,.cls-6,.cls-7{fill:#fff;stroke:#fff;}.cls-4,.cls-6{stroke-width:1.38px;}.cls-5,.cls-7{stroke-width:1.44px;}</style></defs><title>Asset 14</title><g id="Layer_2" data-name="Layer 2"><g id="CONTACT_US" data-name="CONTACT US"><g class="cls-1"><path class="cls-2" d="M6.79,2.61q0,5.1-.35,11L5.68,26.44Q5.3,32.86,5.3,37.2a84.82,84.82,0,0,0,.73,12c-.23.11-1,.38-2.25.82A5.46,5.46,0,0,0,1.6,51.31a83.36,83.36,0,0,1-1-15.06q0-9.78,1.08-23.86Q1.88,9.13,2.61,1a5.65,5.65,0,0,1,.82,0A5.49,5.49,0,0,1,6.79,2.61Z"/><path class="cls-2" d="M40.42,44.54a2,2,0,0,1,.89,1.84,4.11,4.11,0,0,1-.54,1.93c-.4.8-.87,1.22-1.42,1.27a40,40,0,0,1-9.08,1.27,15.3,15.3,0,0,1-3.07-.25q-11.8-2.5-14.87-11.36a14.86,14.86,0,0,1-.82-4.9,17.68,17.68,0,0,1,3.05-9.94,17.51,17.51,0,0,1,8-6.68,11.68,11.68,0,0,1,4.59-1q5.89,0,9.87,6.39,1.8,2.91,2.21,9.4,0,.57.13,2.21a3.21,3.21,0,0,1-2.44,1,2,2,0,0,1-2-1Q33.9,30.9,33,27,31.47,22.83,28,22.32a5.26,5.26,0,0,0-.6-.06h-.54q-4.68,0-8.16,5.63A11.62,11.62,0,0,0,16.85,34a12.42,12.42,0,0,0,1.87,6.3q2.62,4.52,9.05,5.19,1.83.19,5.95.19a21.52,21.52,0,0,0,4.3-.57Q38.9,44.95,40.42,44.54Z"/><path class="cls-2" d="M79.53,46.56q0,.41-4.65,1.58a69.22,69.22,0,0,1-16.52,1.71H55.07q-5.85,0-10.92-5.6a12.38,12.38,0,0,1-2.21-7.59q0-11.93,10.76-16.74A27.49,27.49,0,0,1,64,17.45a9.54,9.54,0,0,1,7,3.16A15.89,15.89,0,0,1,74.41,26a4.42,4.42,0,0,0,.19.7,5.71,5.71,0,0,0,.06.7,3,3,0,0,1-.44.41,92.16,92.16,0,0,1-27.09,9.84A.45.45,0,0,0,47,38a6.46,6.46,0,0,0,1,3,5,5,0,0,0,2.07,2.25,23.07,23.07,0,0,0,8.8,1.68,35.23,35.23,0,0,0,6.36-.66l7.15-1.33a38.75,38.75,0,0,1,6.08-.79q.6,0,.73.38s0,.33.06.92ZM66.62,25.71q-.63-3.58-5-3.58a13.27,13.27,0,0,0-3,.44,17.67,17.67,0,0,0-9.54,5.79,5.34,5.34,0,0,0-1.55,3.35A1.51,1.51,0,0,0,48.17,33a32.28,32.28,0,0,0,6.22-2.06q1.68-.76,6.73-3l3.95-1.68A12.47,12.47,0,0,1,66.62,25.71Z"/><path class="cls-2" d="M155.26,40.49q0,3.23-1.2,4.05a23.69,23.69,0,0,1-2.59,1.17,71.87,71.87,0,0,1-27.69,5.38q-12,0-15.6-10.32a21.75,21.75,0,0,1-1.2-7.28,29.17,29.17,0,0,1,7.25-19.21A28.36,28.36,0,0,1,137,3.78a36.77,36.77,0,0,1,8,.92,4.28,4.28,0,0,0,1.68.38,3.17,3.17,0,0,0,2.44-1.42q2.47-3.1,4-3.1a4.45,4.45,0,0,1,.89.1q.09,1.11.51,4a26.27,26.27,0,0,1,.32,3.54,20.34,20.34,0,0,1-1.08,6.17l-3.64-1.08a33.31,33.31,0,0,1-5.92-2.75,19.89,19.89,0,0,0-6-.85,23.73,23.73,0,0,0-15.06,5.25q-9.68,7.63-9.68,17.5a21.4,21.4,0,0,0,.79,5.7q2,7.28,11.93,7.28a55.37,55.37,0,0,0,9.59-1.11q1.68-.32,10.16-2.18A76.89,76.89,0,0,1,155.26,40.49Z"/><path class="cls-2" d="M192.34,23.65a9.08,9.08,0,0,0-5.1-2.25,15.07,15.07,0,0,0-7.44.63,22.16,22.16,0,0,0-6.34,4.18,28.29,28.29,0,0,0-6.87,8.32,31.52,31.52,0,0,0-.1,6.24q.13,1.83.87,7.59.39,3,.52,4.52l-4.2.29q-.28-3.45-.92-8l-1.39-9.87a99.92,99.92,0,0,1-1.17-14l.76,0,.51-.09a5.18,5.18,0,0,1,1.9-.82,1.32,1.32,0,0,1,1,.38l.48,6.49q7.12-10.69,18-11.45a36.91,36.91,0,0,1,5.54.22q4.18.41,5,1.2a17,17,0,0,1,.32,3.2Q193.73,23.5,192.34,23.65Z"/><path class="cls-2" d="M231.2,46.56q0,.41-4.65,1.58A69.23,69.23,0,0,1,210,49.85h-3.29q-5.85,0-10.92-5.6a12.38,12.38,0,0,1-2.21-7.59q0-11.93,10.76-16.74a27.49,27.49,0,0,1,11.3-2.47,9.54,9.54,0,0,1,7,3.16A15.9,15.9,0,0,1,226.07,26a4.45,4.45,0,0,0,.19.7,5.79,5.79,0,0,0,.06.7,3.06,3.06,0,0,1-.44.41,92.17,92.17,0,0,1-27.09,9.84.45.45,0,0,0-.13.38,6.46,6.46,0,0,0,1,3,5,5,0,0,0,2.07,2.25,23.07,23.07,0,0,0,8.8,1.68,35.23,35.23,0,0,0,6.36-.66l7.15-1.33a38.76,38.76,0,0,1,6.08-.79q.6,0,.73.38s0,.33.06.92ZM218.29,25.71q-.63-3.58-5-3.58a13.27,13.27,0,0,0-3,.44,17.67,17.67,0,0,0-9.54,5.79,5.35,5.35,0,0,0-1.55,3.35,1.51,1.51,0,0,0,.57,1.26,32.29,32.29,0,0,0,6.22-2.06q1.67-.76,6.73-3l3.95-1.68A12.5,12.5,0,0,1,218.29,25.71Z"/><path class="cls-2" d="M242.18,50.52h-1.23a6.52,6.52,0,0,1-6.39-4,23.86,23.86,0,0,1-1.46-5.38,6.15,6.15,0,0,1-.1-1.08q0-3.7,6.2-8.45A12.43,12.43,0,0,1,247,29.25a42.17,42.17,0,0,1,4.37.32q3,.35,4.37.38a8,8,0,0,0-4.37-7.53,5.28,5.28,0,0,0-2.5-.6,8.55,8.55,0,0,0-4.4,1.58l-4.68,3a2,2,0,0,1-1.65-1,3.2,3.2,0,0,1-.7-1.9,2,2,0,0,1,.41-1.2q6.55-5.47,11.64-5.47a9.29,9.29,0,0,1,9.18,5.82q1.36,3,2.22,10.09a56.17,56.17,0,0,0,2,10.44Q256.39,48.46,242.18,50.52Zm12.18-15.85a20.23,20.23,0,0,0-5.73-1,11.2,11.2,0,0,0-9.43,4.87,5.3,5.3,0,0,0-1.14,3.16,3.2,3.2,0,0,0,2.53,3.39,7.58,7.58,0,0,0,2.44.29q2.28-.13,9.71-1.52a8.91,8.91,0,0,0,3.83-2.12l-.38-3.86A4.8,4.8,0,0,0,254.36,34.66Z"/><path class="cls-2" d="M318.37,52.26a3.3,3.3,0,0,1-2.94,1.14h-.66l-.67,0a26.53,26.53,0,0,1-.16-2.94q0-1.61.16-4.81t.16-4.81a21.68,21.68,0,0,0-1-7.66,5.87,5.87,0,0,0-5.89-4q-4.21,0-6.77,4-.28.44-3.86,8.48Q294.36,47,291.23,49q-.51,0-2.69.35-1.27,0-2.44-1.8l-2-9.37a62.51,62.51,0,0,0-2.85-10.16q-2-4.78-4.27-4.78h-.51a1.38,1.38,0,0,0-.35.13Q272,25,272,33.56q0,1.9.16,4.62.38,6.58.38,8.26a34.76,34.76,0,0,1-.44,5.82h-4a152.85,152.85,0,0,1-.73-18.54V21A5.49,5.49,0,0,0,271,19.32q.79-.79,3.2-3.13a4.92,4.92,0,0,1,3.32-1.65,3.61,3.61,0,0,1,1.08.19q4.84,1.52,8.45,13.86l2.85,9.78q1.55-1.71,4.94-6.27a46.15,46.15,0,0,1,5.26-6.17q4.37-4.08,8.74-4.08,5.79,0,9.06,7.31a29.73,29.73,0,0,1,2.53,12.28A27.2,27.2,0,0,1,318.37,52.26Z"/></g><path class="cls-3" d="M9,3.19q0,5.09-.35,11L7.93,27q-.38,6.42-.38,10.76a84.88,84.88,0,0,0,.73,12q-.35.16-2.25.82a5.47,5.47,0,0,0-2.18,1.33,83.16,83.16,0,0,1-1-15.06Q2.81,27,3.88,13q.25-3.26,1-11.39a5.13,5.13,0,0,1,.82,0A5.49,5.49,0,0,1,9,3.19Z"/><path class="cls-3" d="M42.68,45.11a2,2,0,0,1,.89,1.83A4.12,4.12,0,0,1,43,48.88q-.6,1.2-1.42,1.27a39.92,39.92,0,0,1-9.08,1.27,15.38,15.38,0,0,1-3.07-.25q-11.8-2.5-14.87-11.36a14.86,14.86,0,0,1-.82-4.91A17.69,17.69,0,0,1,16.81,25a17.51,17.51,0,0,1,8-6.68,11.68,11.68,0,0,1,4.59-1q5.88,0,9.87,6.39,1.8,2.91,2.22,9.4,0,.57.13,2.21a3.21,3.21,0,0,1-2.44,1,2,2,0,0,1-2-1q-1-3.86-1.93-7.75-1.49-4.18-4.94-4.68a5.27,5.27,0,0,0-.6-.06h-.54q-4.68,0-8.16,5.63a11.61,11.61,0,0,0-1.87,6.14A12.43,12.43,0,0,0,21,40.91q2.63,4.53,9,5.19,1.84.19,5.95.19a21.47,21.47,0,0,0,4.3-.57Q41.16,45.53,42.68,45.11Z"/><path class="cls-3" d="M81.79,47.14q0,.41-4.65,1.58a69.22,69.22,0,0,1-16.52,1.71H57.33q-5.85,0-10.92-5.6a12.37,12.37,0,0,1-2.22-7.59Q44.2,25.31,55,20.5A27.49,27.49,0,0,1,66.25,18a9.54,9.54,0,0,1,7,3.17,15.9,15.9,0,0,1,3.45,5.35,4.47,4.47,0,0,0,.19.7,6,6,0,0,0,.06.7,3,3,0,0,1-.44.41,92.17,92.17,0,0,1-27.09,9.84.45.45,0,0,0-.13.38,6.45,6.45,0,0,0,1,3,5,5,0,0,0,2.07,2.25,23.07,23.07,0,0,0,8.8,1.68,35.13,35.13,0,0,0,6.36-.66l7.15-1.33a38.64,38.64,0,0,1,6.08-.79c.4,0,.64.13.73.38,0,0,0,.33.06.92ZM68.88,26.29q-.63-3.58-5-3.58a13.28,13.28,0,0,0-3,.44,17.65,17.65,0,0,0-9.54,5.79,5.34,5.34,0,0,0-1.55,3.35,1.51,1.51,0,0,0,.57,1.27,32.35,32.35,0,0,0,6.22-2.06q1.67-.76,6.73-3l3.95-1.68A12.6,12.6,0,0,1,68.88,26.29Z"/><path class="cls-3" d="M157.51,41.06q0,3.23-1.2,4.05a24.27,24.27,0,0,1-2.59,1.17A71.86,71.86,0,0,1,126,51.66q-12,0-15.6-10.31a21.78,21.78,0,0,1-1.2-7.28,29.16,29.16,0,0,1,7.25-19.21,28.35,28.35,0,0,1,22.75-10.5,36.82,36.82,0,0,1,8,.92,4.27,4.27,0,0,0,1.68.38,3.18,3.18,0,0,0,2.44-1.42q2.47-3.1,4-3.1a4.45,4.45,0,0,1,.89.1q.09,1.11.51,4a26.41,26.41,0,0,1,.32,3.54A20.34,20.34,0,0,1,156,14.93l-3.64-1.08a33.36,33.36,0,0,1-5.92-2.75,19.9,19.9,0,0,0-6-.85,23.73,23.73,0,0,0-15.06,5.25q-9.68,7.62-9.68,17.5a21.44,21.44,0,0,0,.79,5.7q2,7.28,11.93,7.28A55.43,55.43,0,0,0,138,44.86q1.68-.31,10.16-2.18A76.69,76.69,0,0,1,157.51,41.06Z"/><path class="cls-3" d="M194.59,24.23a9.07,9.07,0,0,0-5.1-2.25,15.06,15.06,0,0,0-7.44.63,22.2,22.2,0,0,0-6.33,4.18,28.29,28.29,0,0,0-6.87,8.32,31.53,31.53,0,0,0-.1,6.23q.13,1.84.87,7.59.39,3,.52,4.52l-4.2.29q-.28-3.45-.92-8l-1.39-9.87a99.9,99.9,0,0,1-1.17-14l.76,0,.51-.09a5.16,5.16,0,0,1,1.9-.82,1.32,1.32,0,0,1,1,.38l.48,6.49q7.12-10.7,18-11.46a37,37,0,0,1,5.54.22q4.18.41,5,1.2a16.93,16.93,0,0,1,.32,3.2Q196,24.07,194.59,24.23Z"/><path class="cls-3" d="M233.45,47.14q0,.41-4.65,1.58a69.22,69.22,0,0,1-16.52,1.71H209q-5.85,0-10.92-5.6a12.37,12.37,0,0,1-2.21-7.59q0-11.93,10.76-16.74A27.49,27.49,0,0,1,217.92,18a9.54,9.54,0,0,1,7,3.17,15.9,15.9,0,0,1,3.45,5.35,4.39,4.39,0,0,0,.19.7,5.83,5.83,0,0,0,.06.7,3,3,0,0,1-.44.41,92.16,92.16,0,0,1-27.09,9.84.45.45,0,0,0-.13.38,6.45,6.45,0,0,0,1,3A5,5,0,0,0,204,43.82a23.08,23.08,0,0,0,8.8,1.68,35.14,35.14,0,0,0,6.36-.66l7.15-1.33a38.67,38.67,0,0,1,6.08-.79c.4,0,.64.13.73.38,0,0,0,.33.06.92ZM220.54,26.29q-.63-3.58-5-3.58a13.28,13.28,0,0,0-3,.44,17.66,17.66,0,0,0-9.54,5.79,5.35,5.35,0,0,0-1.55,3.35,1.51,1.51,0,0,0,.57,1.27,32.3,32.3,0,0,0,6.22-2.06q1.67-.76,6.73-3L219,26.86A12.67,12.67,0,0,1,220.54,26.29Z"/><path class="cls-3" d="M244.43,51.09H243.2a6.52,6.52,0,0,1-6.39-4,23.86,23.86,0,0,1-1.46-5.38,6.11,6.11,0,0,1-.1-1.08q0-3.7,6.2-8.45a12.44,12.44,0,0,1,7.78-2.37,41.85,41.85,0,0,1,4.37.32q3,.35,4.37.38A8,8,0,0,0,253.61,23a5.28,5.28,0,0,0-2.5-.6,8.54,8.54,0,0,0-4.4,1.58L242,27a2,2,0,0,1-1.65-1,3.2,3.2,0,0,1-.7-1.9,2,2,0,0,1,.41-1.2q6.55-5.48,11.64-5.47a9.29,9.29,0,0,1,9.18,5.82q1.36,3,2.22,10.09a56.16,56.16,0,0,0,2,10.44Q258.64,49,244.43,51.09Zm12.18-15.85a20.23,20.23,0,0,0-5.73-1,11.2,11.2,0,0,0-9.43,4.87,5.3,5.3,0,0,0-1.14,3.16,3.21,3.21,0,0,0,2.53,3.39,7.6,7.6,0,0,0,2.44.28q2.28-.13,9.71-1.52a8.9,8.9,0,0,0,3.83-2.12l-.38-3.86A4.81,4.81,0,0,0,256.62,35.24Z"/><path class="cls-3" d="M320.63,52.84A3.3,3.3,0,0,1,317.69,54H317l-.66,0A26.49,26.49,0,0,1,316.2,51q0-1.61.16-4.81t.16-4.81a21.66,21.66,0,0,0-1-7.66,5.87,5.87,0,0,0-5.89-4q-4.21,0-6.77,4.05-.28.44-3.86,8.48-2.37,5.32-5.51,7.31-.51,0-2.69.35-1.27,0-2.44-1.8l-2-9.37a62.62,62.62,0,0,0-2.85-10.16q-2-4.78-4.27-4.78h-.51a1.41,1.41,0,0,0-.35.13q-4.08,1.58-4.08,10.16,0,1.9.16,4.62.38,6.58.38,8.26a34.78,34.78,0,0,1-.44,5.82h-4a152.83,152.83,0,0,1-.73-18.54V21.57a5.49,5.49,0,0,0,3.67-1.68q.79-.79,3.2-3.13a4.93,4.93,0,0,1,3.32-1.65,3.61,3.61,0,0,1,1.08.19q4.84,1.52,8.45,13.86l2.85,9.78q1.55-1.71,4.94-6.27a46.28,46.28,0,0,1,5.26-6.17q4.37-4.08,8.74-4.08,5.79,0,9.06,7.31A29.72,29.72,0,0,1,322.72,42,27.2,27.2,0,0,1,320.63,52.84Z"/><g class="cls-1"><path class="cls-2" d="M177.4,85a5.51,5.51,0,0,1-3.8,1.61,24.11,24.11,0,0,1-2.48.11l-1.7,0h-1.2a9.25,9.25,0,0,1-2.83-.59l-2.95-1q-1.17-.26-1.17-.76a.92.92,0,0,1,.43-.67,2.19,2.19,0,0,1,.72-.41.94.94,0,0,1,.3-.05,4.14,4.14,0,0,1,1.48.48q1.62.76,1.94.89a5.76,5.76,0,0,0,2.08.49q.57,0,1.42,0,1.93.1,2.36.1a6.1,6.1,0,0,0,2.5-.4A2.26,2.26,0,0,0,175.8,83a1.12,1.12,0,0,0,0-.2q0-1-2.73-2.39l-3.24-1.57a20.69,20.69,0,0,1-3.49-2.07,5.53,5.53,0,0,1-2.1-2.62,1.67,1.67,0,0,1,0-.21q0-.94,1.58-1.87a10.78,10.78,0,0,1,3.13-1.17l1.7-.36a23.54,23.54,0,0,1,4.42-.6q1,0,1,1a9.9,9.9,0,0,1-3.48,1.09l-4,.72q-1.87.34-1.87,1.33v.13a.68.68,0,0,0,0,.18q.18.86,2.1,1.91L173,78.39a21.87,21.87,0,0,1,3.84,2.46,2.23,2.23,0,0,1,.81,1.16,4,4,0,0,1,.28,1.42A2.33,2.33,0,0,1,177.4,85Z"/><path class="cls-2" d="M190.2,75.83q.21.08.21.62,0,1-.65,1l-4.42.77q0,.42,0,1.08-.09,1.5-.09,1.93a4.93,4.93,0,0,0,1.37,3.81.9.9,0,0,0,.63.25,7.41,7.41,0,0,0,1.37-.38,3,3,0,0,1,.92-.18l.29,0a3.78,3.78,0,0,1,.31,1.07A4.36,4.36,0,0,1,186.67,87a2.12,2.12,0,0,1-1.33-.56q-1.46-1.21-1.78-5.14-.1-1.18-.1-2.8a24.17,24.17,0,0,0-2.61.42,11.21,11.21,0,0,0-2.45.91A2.7,2.7,0,0,1,178,79l-.3-.82a3.84,3.84,0,0,1,1.69-.79q.58-.14,2.14-.33a12,12,0,0,0,2.12-.42q.3-1.07.48-1.86.26-1.12.4-2.11.19-.36.86-.36a1.62,1.62,0,0,1,.7.14,12.15,12.15,0,0,1-.47,2.11,5.35,5.35,0,0,0-.23,1.38,3.72,3.72,0,0,0,0,.48,28.25,28.25,0,0,0,3.37-.42A9.17,9.17,0,0,1,190.2,75.83Z"/><path class="cls-2" d="M202.08,86.46a11.9,11.9,0,0,1-.83-.91,5.54,5.54,0,0,1-.81-1.42q-.32.18-1.56,1a11.59,11.59,0,0,1-1.68.92,5.21,5.21,0,0,1-2,.42h-.34l-.18,0q-2.83,0-2.83-8.2v-1q0-1,1.61-1A9.2,9.2,0,0,1,193.8,79q.07,2.44.15,3a3.84,3.84,0,0,0,1.12,2.43.92.92,0,0,0,.51.14,5.25,5.25,0,0,0,3.34-1.81,5.77,5.77,0,0,0,1.54-4.36q0-.94,0-1.19t-.08-.78q0-.25.38-.45a1.33,1.33,0,0,1,.61-.18,1.28,1.28,0,0,1,.51.11q.46.3.46,1.69a15.66,15.66,0,0,1-.13,1.76q-.28,2.38-.28,2.6a1.65,1.65,0,0,0,0,.23,4.87,4.87,0,0,0,.28,1.67,3.24,3.24,0,0,0,.76,1,8.92,8.92,0,0,1,1,1.06A2.29,2.29,0,0,1,202.08,86.46Z"/><path class="cls-2" d="M213.29,86.66a3.42,3.42,0,0,0-1.47.6V85.88a8.26,8.26,0,0,1-1.79.47q-2.18.29-2.37.29A3,3,0,0,1,205,85.13a5.58,5.58,0,0,1-.85-3.11,5.09,5.09,0,0,1,2.37-4.63,8.75,8.75,0,0,1,4.58-1.19,29.55,29.55,0,0,1-.35-4.3.66.66,0,0,1,.55-.2,1.37,1.37,0,0,1,1.11.52l.61,6q.36,3.59.36,6Q213.38,85.45,213.29,86.66ZM211.56,80a4.74,4.74,0,0,0-.31-1.62,7.13,7.13,0,0,0-1.11-.1,6.54,6.54,0,0,0-3.32,1,2.21,2.21,0,0,0-.84,1.32,5.82,5.82,0,0,0-.25,1.67,2.28,2.28,0,0,0,1,2,2.13,2.13,0,0,0,1.19.46,5.11,5.11,0,0,0,3.72-1.39Q211.63,81.76,211.56,80Z"/><path class="cls-2" d="M216.86,72.57a2.36,2.36,0,0,1-1.7-.61.31.31,0,0,1-.06-.22,1,1,0,0,1,.34-.75,1.19,1.19,0,0,1,.81-.29q.3,0,1,.81.37.46.32.73C217.48,72.46,217.26,72.57,216.86,72.57Zm1.41,14a1.1,1.1,0,0,1-1,.35,3.73,3.73,0,0,1-.76-.09q-.31-2.86-.58-6-.16-1.85-.16-3.23a11.54,11.54,0,0,1,.19-2.4,1.15,1.15,0,0,1,.76-.43,1.19,1.19,0,0,1,.77.42l.3,2.76q.53,4.84.52,7.13A11.44,11.44,0,0,1,218.27,86.58Z"/><path class="cls-2" d="M234.75,83.37q-.78,3.39-5,3.38a16,16,0,0,1-4.32-.47,5.34,5.34,0,0,1-3.07-2.21,6.46,6.46,0,0,1-1-3.67,4.5,4.5,0,0,1,.84-2.69,6,6,0,0,1,5.05-2.84,11.13,11.13,0,0,1,4.24,1,5.39,5.39,0,0,1,2.61,2.34,6.73,6.73,0,0,1,.88,3.43A7.54,7.54,0,0,1,234.75,83.37Zm-1.6-.5a2.28,2.28,0,0,0,.27-1.12,4.18,4.18,0,0,0-.85-2.4,5.65,5.65,0,0,0-1.7-1.63,7.3,7.3,0,0,0-3.79-1.16,3.09,3.09,0,0,0-3.26,2.06,8.36,8.36,0,0,0-.61,2.55,3.9,3.9,0,0,0,.24,1.34A3,3,0,0,0,226,84.35l.94.13.34,0q2.14.27,2.48.27A3.61,3.61,0,0,0,233.16,82.87Z"/><path class="cls-2" d="M88.44,86.47a.42.42,0,0,1-.37.19,3.3,3.3,0,0,1-1-.32,19.36,19.36,0,0,1-1.19-3.73q-.76-3.25-1-4a8.87,8.87,0,0,0-1.89-3.39q-.39.58-1.45,2.52a21.89,21.89,0,0,1-1.65,2.67,10.4,10.4,0,0,1-2.4,2.36,7.16,7.16,0,0,1-2-2.15A23.51,23.51,0,0,1,74,77.93q-.92-1.91-1.38-2.71-.36,1.06-.91,3.17t-.89,3.18a16.52,16.52,0,0,1-1.4,3.23l-.65-.11a.86.86,0,0,1-.49-.28q.4-2,1.16-4.42.25-.82,1.46-4.66.93-3,1.34-4.59.22-.53.63-.54a.47.47,0,0,1,.52.54,11.89,11.89,0,0,0,1.16,4.85,20.18,20.18,0,0,0,2.14,3.67,7.42,7.42,0,0,0,1.17,1.45,10.12,10.12,0,0,0,2.38-3,27.9,27.9,0,0,0,1.5-3.56q.93-2.58,1.36-3.53a.82.82,0,0,1,.27,0,.61.61,0,0,1,.63.56l1.76,5.37q1,3.07,1.55,5Q88.06,84.28,88.44,86.47Z"/><path class="cls-2" d="M103.76,83.37q-.78,3.39-5,3.38a16,16,0,0,1-4.32-.47,5.35,5.35,0,0,1-3.07-2.21,6.46,6.46,0,0,1-1-3.67,4.5,4.5,0,0,1,.84-2.69,6,6,0,0,1,5.05-2.84,11.14,11.14,0,0,1,4.24,1,5.4,5.4,0,0,1,2.61,2.34,6.73,6.73,0,0,1,.88,3.43A7.45,7.45,0,0,1,103.76,83.37Zm-1.59-.5a2.28,2.28,0,0,0,.27-1.12,4.18,4.18,0,0,0-.85-2.4,5.65,5.65,0,0,0-1.7-1.63,7.3,7.3,0,0,0-3.79-1.16,3.09,3.09,0,0,0-3.26,2.06,8.39,8.39,0,0,0-.61,2.55,3.91,3.91,0,0,0,.24,1.34A3,3,0,0,0,95,84.35l.94.13.34,0q2.14.27,2.48.27A3.61,3.61,0,0,0,102.16,82.87Z"/><path class="cls-2" d="M116.28,75.83c.14.05.21.26.21.62q0,1-.65,1l-4.42.77c0,.28,0,.64,0,1.08q-.09,1.5-.08,1.93a4.93,4.93,0,0,0,1.37,3.81.9.9,0,0,0,.63.25,7.41,7.41,0,0,0,1.37-.38,3,3,0,0,1,.92-.18l.29,0a3.76,3.76,0,0,1,.31,1.07A4.36,4.36,0,0,1,112.75,87a2.11,2.11,0,0,1-1.33-.56q-1.46-1.21-1.78-5.14-.1-1.18-.1-2.8a24.24,24.24,0,0,0-2.61.42,11.2,11.2,0,0,0-2.45.91,2.68,2.68,0,0,1-.36-.83l-.3-.82a3.83,3.83,0,0,1,1.69-.79q.58-.14,2.14-.33a12,12,0,0,0,2.12-.42q.3-1.07.48-1.86.26-1.12.4-2.11c.13-.24.41-.36.86-.36a1.62,1.62,0,0,1,.7.14,12.15,12.15,0,0,1-.47,2.11,5.37,5.37,0,0,0-.23,1.38,3.72,3.72,0,0,0,0,.48,28.27,28.27,0,0,0,3.37-.42A9.16,9.16,0,0,1,116.28,75.83Z"/><path class="cls-2" d="M119.49,72.57a2.35,2.35,0,0,1-1.7-.61.31.31,0,0,1-.06-.22,1,1,0,0,1,.34-.75,1.19,1.19,0,0,1,.81-.29q.3,0,1,.81a1,1,0,0,1,.32.73C120.11,72.46,119.89,72.57,119.49,72.57Zm1.41,14a1.1,1.1,0,0,1-1,.35,3.73,3.73,0,0,1-.76-.09q-.31-2.86-.58-6-.16-1.85-.16-3.23a11.51,11.51,0,0,1,.19-2.4,1.15,1.15,0,0,1,.76-.43,1.19,1.19,0,0,1,.77.42l.3,2.76q.53,4.84.52,7.13A11.44,11.44,0,0,1,120.9,86.58Z"/><path class="cls-2" d="M137.38,83.37q-.78,3.39-5,3.38a16,16,0,0,1-4.32-.47A5.34,5.34,0,0,1,125,84.08a6.46,6.46,0,0,1-1-3.67,4.5,4.5,0,0,1,.83-2.69,6,6,0,0,1,5.06-2.84,11.14,11.14,0,0,1,4.24,1,5.4,5.4,0,0,1,2.61,2.34,6.73,6.73,0,0,1,.88,3.43A7.47,7.47,0,0,1,137.38,83.37Zm-1.59-.5a2.28,2.28,0,0,0,.27-1.12,4.18,4.18,0,0,0-.85-2.4,5.65,5.65,0,0,0-1.7-1.63,7.3,7.3,0,0,0-3.79-1.16,3.09,3.09,0,0,0-3.26,2.06,8.38,8.38,0,0,0-.61,2.55,3.92,3.92,0,0,0,.23,1.34,3,3,0,0,0,2.52,1.84l.94.13.34,0q2.14.27,2.48.27A3.62,3.62,0,0,0,135.79,82.87Z"/><path class="cls-2" d="M152.94,85.85a.53.53,0,0,1,.06.23q0,.51-.93.51a1.05,1.05,0,0,1-.91-.33A11.6,11.6,0,0,1,149.89,83a16.58,16.58,0,0,0-1.3-3.61,3.82,3.82,0,0,0-2.91-2l-.42,0a3.64,3.64,0,0,0-3.17,2.11A7.51,7.51,0,0,0,141,83.3a7.71,7.71,0,0,0,.12,1.32,2.29,2.29,0,0,1-1,.2,1.26,1.26,0,0,1-.93-.31c0-.39,0-.89,0-1.5q-.1-2-.1-2.57a8.26,8.26,0,0,1,1-4.5,1.84,1.84,0,0,1,.69.2,1.13,1.13,0,0,1,.54.4.35.35,0,0,1,.05.19,2.65,2.65,0,0,1-.16.55,1.26,1.26,0,0,0-.09.39.82.82,0,0,0,.19.51,4.09,4.09,0,0,1,1.64-1.88,4.61,4.61,0,0,1,2.45-.67,5.15,5.15,0,0,1,1.93.36q2.41,1,4.34,6.05Q152.1,83.2,152.94,85.85Z"/></g><g class="cls-1"><path class="cls-4" d="M55.6,78.69a1.4,1.4,0,0,0,.07.35,3.7,3.7,0,0,1,.17.74.51.51,0,0,1-.4.54,18.71,18.71,0,0,1-2.48.16q-7-.16-10.72-.16-.82,0-.82-.48c0-.34.24-.66.72-1q3.15-.25,6.57-.25l3.7,0Z"/></g><g class="cls-1"><path class="cls-5" d="M260.75,79.8a1.32,1.32,0,0,0,.07.35,3.45,3.45,0,0,1,.18.74.52.52,0,0,1-.44.54,22,22,0,0,1-2.68.16q-7.6-.16-11.62-.16-.89,0-.89-.48t.78-1q3.41-.25,7.13-.25l4,0Z"/></g><path class="cls-3" d="M178.63,85.36a5.51,5.51,0,0,1-3.8,1.61,24.1,24.1,0,0,1-2.48.11l-1.7,0h-1.2a9.26,9.26,0,0,1-2.83-.59l-2.95-1q-1.17-.26-1.17-.77a.93.93,0,0,1,.43-.67,2.23,2.23,0,0,1,.72-.41.94.94,0,0,1,.3-.05,4.14,4.14,0,0,1,1.48.48q1.62.76,1.94.89a5.78,5.78,0,0,0,2.08.49q.57,0,1.42,0,1.93.1,2.36.1a6.12,6.12,0,0,0,2.5-.4A2.26,2.26,0,0,0,177,83.37a1.13,1.13,0,0,0,0-.21q0-1-2.73-2.39l-3.24-1.57a20.77,20.77,0,0,1-3.49-2.07,5.52,5.52,0,0,1-2.1-2.62,1.7,1.7,0,0,1,0-.21q0-.94,1.59-1.87a10.78,10.78,0,0,1,3.13-1.17l1.7-.36a23.39,23.39,0,0,1,4.42-.6q1,0,1,1a10,10,0,0,1-3.48,1.09l-4,.72Q168,73.4,168,74.38v.13a.69.69,0,0,0,0,.18q.18.86,2.1,1.91l4.07,2.18A21.9,21.9,0,0,1,178,81.25a2.24,2.24,0,0,1,.81,1.16,4,4,0,0,1,.28,1.42A2.32,2.32,0,0,1,178.63,85.36Z"/><path class="cls-3" d="M191.42,76.23q.21.07.21.62,0,1-.65,1l-4.42.77c0,.28,0,.64,0,1.08-.06,1-.09,1.64-.09,1.93a4.94,4.94,0,0,0,1.37,3.81.9.9,0,0,0,.63.25,7.36,7.36,0,0,0,1.37-.39,3,3,0,0,1,.92-.18l.29,0a3.77,3.77,0,0,1,.31,1.07q-1,1.11-3.43,1.11a2.1,2.1,0,0,1-1.33-.56q-1.46-1.21-1.78-5.14-.1-1.18-.1-2.79a23.75,23.75,0,0,0-2.61.42,11.11,11.11,0,0,0-2.45.91,2.7,2.7,0,0,1-.36-.82l-.3-.83a3.84,3.84,0,0,1,1.69-.79q.58-.14,2.14-.33a12.08,12.08,0,0,0,2.12-.42q.3-1.07.48-1.86.26-1.12.4-2.11.19-.36.86-.36a1.64,1.64,0,0,1,.7.14,12.21,12.21,0,0,1-.47,2.11,5.36,5.36,0,0,0-.22,1.38,3.7,3.7,0,0,0,0,.48,28.19,28.19,0,0,0,3.37-.42A9.13,9.13,0,0,1,191.42,76.23Z"/><path class="cls-3" d="M203.3,86.85a12.14,12.14,0,0,1-.83-.91,5.5,5.5,0,0,1-.81-1.42q-.32.18-1.56,1a11.45,11.45,0,0,1-1.68.92,5.19,5.19,0,0,1-2,.42h-.34l-.18,0q-2.83,0-2.83-8.2v-1q0-1,1.61-1a9.19,9.19,0,0,1,.36,2.73c0,1.63.1,2.62.15,3a3.83,3.83,0,0,0,1.12,2.43.92.92,0,0,0,.51.14,5.25,5.25,0,0,0,3.34-1.81,5.76,5.76,0,0,0,1.54-4.36q0-.94,0-1.19c0-.19-.05-.45-.08-.78q0-.25.38-.45a1.33,1.33,0,0,1,.61-.18,1.27,1.27,0,0,1,.51.11q.46.3.46,1.69a15.67,15.67,0,0,1-.13,1.76q-.28,2.38-.28,2.6a1.63,1.63,0,0,0,0,.23,4.88,4.88,0,0,0,.28,1.67,3.27,3.27,0,0,0,.76,1,9,9,0,0,1,1,1.06A2.3,2.3,0,0,1,203.3,86.85Z"/><path class="cls-3" d="M214.51,87.05a3.43,3.43,0,0,0-1.47.6V86.27a8.14,8.14,0,0,1-1.79.47q-2.18.29-2.37.29a3,3,0,0,1-2.68-1.51,5.59,5.59,0,0,1-.85-3.11,5.09,5.09,0,0,1,2.37-4.63,8.75,8.75,0,0,1,4.58-1.19,29.53,29.53,0,0,1-.35-4.3.65.65,0,0,1,.55-.2,1.37,1.37,0,0,1,1.11.53q0,.19.61,6,.36,3.59.36,6Q214.6,85.84,214.51,87.05Zm-1.73-6.65a4.74,4.74,0,0,0-.31-1.62,7,7,0,0,0-1.11-.1,6.53,6.53,0,0,0-3.32,1A2.2,2.2,0,0,0,207.2,81a5.82,5.82,0,0,0-.25,1.67,2.28,2.28,0,0,0,1,2,2.12,2.12,0,0,0,1.19.46,5.11,5.11,0,0,0,3.72-1.39Q212.85,82.15,212.78,80.4Z"/><path class="cls-3" d="M218.08,73a2.36,2.36,0,0,1-1.7-.61.31.31,0,0,1-.06-.22,1,1,0,0,1,.34-.75,1.19,1.19,0,0,1,.81-.29q.3,0,1,.81a1,1,0,0,1,.32.74Q218.68,73,218.08,73Zm1.41,14a1.1,1.1,0,0,1-1,.35,3.73,3.73,0,0,1-.76-.09q-.31-2.86-.58-6Q217,79.39,217,78a11.54,11.54,0,0,1,.19-2.4,1.15,1.15,0,0,1,.76-.43,1.19,1.19,0,0,1,.77.42l.3,2.76q.52,4.84.52,7.13A11.44,11.44,0,0,1,219.49,87Z"/><path class="cls-3" d="M236,83.77q-.78,3.38-5,3.38a15.94,15.94,0,0,1-4.32-.47,5.34,5.34,0,0,1-3.07-2.21,6.46,6.46,0,0,1-1-3.67,4.5,4.5,0,0,1,.83-2.69,6,6,0,0,1,5.05-2.84,11.13,11.13,0,0,1,4.24,1,5.39,5.39,0,0,1,2.61,2.33,6.74,6.74,0,0,1,.88,3.43A7.53,7.53,0,0,1,236,83.77Zm-1.6-.5a2.29,2.29,0,0,0,.27-1.12,4.18,4.18,0,0,0-.85-2.4,5.67,5.67,0,0,0-1.7-1.63A7.3,7.3,0,0,0,228.31,77,3.09,3.09,0,0,0,225.05,79a8.36,8.36,0,0,0-.61,2.55,3.92,3.92,0,0,0,.24,1.34,3,3,0,0,0,2.52,1.84l.94.13.34,0q2.14.27,2.48.27A3.62,3.62,0,0,0,234.38,83.26Z"/><path class="cls-3" d="M89.67,86.86a.42.42,0,0,1-.37.19,3.28,3.28,0,0,1-1-.32A19.31,19.31,0,0,1,87.08,83q-.76-3.26-1-4a8.9,8.9,0,0,0-1.89-3.4q-.39.58-1.45,2.52a21.72,21.72,0,0,1-1.65,2.67,10.4,10.4,0,0,1-2.4,2.36,7.12,7.12,0,0,1-2-2.15,23.71,23.71,0,0,1-1.46-2.68q-.92-1.9-1.38-2.71-.36,1.06-.91,3.17T72,82a16.67,16.67,0,0,1-1.4,3.23L70,85.09a.87.87,0,0,1-.49-.28q.41-2,1.16-4.42.25-.81,1.46-4.66.93-3,1.34-4.59c.15-.36.36-.54.63-.54a.47.47,0,0,1,.52.54A11.91,11.91,0,0,0,75.76,76a20.18,20.18,0,0,0,2.14,3.67,7.44,7.44,0,0,0,1.17,1.45,10.11,10.11,0,0,0,2.38-3,27.56,27.56,0,0,0,1.5-3.56Q83.87,72,84.3,71a.82.82,0,0,1,.27,0,.62.62,0,0,1,.63.56L87,76.89q1,3.07,1.55,5Q89.28,84.68,89.67,86.86Z"/><path class="cls-3" d="M105,83.77q-.78,3.38-5,3.38a15.92,15.92,0,0,1-4.32-.47,5.34,5.34,0,0,1-3.07-2.21,6.46,6.46,0,0,1-1-3.67,4.5,4.5,0,0,1,.83-2.69,6,6,0,0,1,5.06-2.84,11.14,11.14,0,0,1,4.24,1,5.4,5.4,0,0,1,2.61,2.33,6.74,6.74,0,0,1,.88,3.43A7.53,7.53,0,0,1,105,83.77Zm-1.6-.5a2.29,2.29,0,0,0,.27-1.12,4.18,4.18,0,0,0-.85-2.4,5.67,5.67,0,0,0-1.7-1.63A7.3,7.3,0,0,0,97.31,77,3.09,3.09,0,0,0,94.06,79a8.38,8.38,0,0,0-.61,2.55,3.93,3.93,0,0,0,.24,1.34,3,3,0,0,0,2.52,1.84l.94.13.34,0q2.14.27,2.48.27A3.62,3.62,0,0,0,103.39,83.26Z"/><path class="cls-3" d="M117.5,76.23q.21.07.21.62,0,1-.65,1l-4.42.77c0,.28,0,.64,0,1.08-.06,1-.09,1.64-.09,1.93a4.94,4.94,0,0,0,1.37,3.81.9.9,0,0,0,.63.25,7.37,7.37,0,0,0,1.37-.39,3,3,0,0,1,.92-.18l.29,0a3.76,3.76,0,0,1,.31,1.07q-1,1.11-3.43,1.11a2.11,2.11,0,0,1-1.33-.56q-1.46-1.21-1.78-5.14-.1-1.18-.1-2.79a23.71,23.71,0,0,0-2.61.42,11.1,11.1,0,0,0-2.45.91,2.71,2.71,0,0,1-.36-.82l-.3-.83a3.83,3.83,0,0,1,1.69-.79q.58-.14,2.14-.33A12.07,12.07,0,0,0,111,77q.3-1.07.48-1.86.26-1.12.4-2.11.19-.36.86-.36a1.64,1.64,0,0,1,.7.14,12.19,12.19,0,0,1-.47,2.11,5.29,5.29,0,0,0-.23,1.38,3.72,3.72,0,0,0,0,.48,28.2,28.2,0,0,0,3.37-.42A9.14,9.14,0,0,1,117.5,76.23Z"/><path class="cls-3" d="M120.72,73a2.36,2.36,0,0,1-1.7-.61.31.31,0,0,1-.06-.22,1,1,0,0,1,.34-.75,1.19,1.19,0,0,1,.81-.29q.3,0,1,.81a1,1,0,0,1,.32.74Q121.31,73,120.72,73Zm1.41,14a1.1,1.1,0,0,1-1,.35,3.75,3.75,0,0,1-.76-.09q-.31-2.86-.58-6-.16-1.85-.16-3.23a11.54,11.54,0,0,1,.19-2.4,1.15,1.15,0,0,1,.76-.43,1.19,1.19,0,0,1,.77.42l.3,2.76q.52,4.84.52,7.13A11.47,11.47,0,0,1,122.13,87Z"/><path class="cls-3" d="M138.61,83.77q-.78,3.38-5,3.38a15.94,15.94,0,0,1-4.32-.47,5.35,5.35,0,0,1-3.07-2.21,6.47,6.47,0,0,1-1-3.67,4.5,4.5,0,0,1,.84-2.69,6,6,0,0,1,5.05-2.84,11.14,11.14,0,0,1,4.24,1,5.4,5.4,0,0,1,2.61,2.33,6.74,6.74,0,0,1,.88,3.43A7.48,7.48,0,0,1,138.61,83.77Zm-1.6-.5a2.28,2.28,0,0,0,.27-1.12,4.18,4.18,0,0,0-.85-2.4,5.66,5.66,0,0,0-1.7-1.63A7.29,7.29,0,0,0,130.94,77,3.09,3.09,0,0,0,127.69,79a8.38,8.38,0,0,0-.61,2.55,3.92,3.92,0,0,0,.24,1.34,3,3,0,0,0,2.52,1.84l.94.13.34,0q2.14.27,2.49.27A3.62,3.62,0,0,0,137,83.26Z"/><path class="cls-3" d="M154.16,86.24a.54.54,0,0,1,.06.24q0,.51-.93.51a1.05,1.05,0,0,1-.91-.33,11.6,11.6,0,0,1-1.26-3.29,16.53,16.53,0,0,0-1.3-3.61,3.82,3.82,0,0,0-2.91-2l-.42,0a3.64,3.64,0,0,0-3.17,2.11,7.5,7.5,0,0,0-1,3.87,7.72,7.72,0,0,0,.12,1.32,2.3,2.3,0,0,1-1,.2,1.27,1.27,0,0,1-.93-.31q0-.59,0-1.5-.1-2-.1-2.57a8.25,8.25,0,0,1,1-4.5,1.84,1.84,0,0,1,.69.2,1.13,1.13,0,0,1,.54.4.35.35,0,0,1,.05.19,2.71,2.71,0,0,1-.16.55,1.25,1.25,0,0,0-.09.39.83.83,0,0,0,.19.51,4.1,4.1,0,0,1,1.64-1.88,4.61,4.61,0,0,1,2.45-.67,5.15,5.15,0,0,1,1.93.36q2.41,1,4.34,6.05Q153.33,83.59,154.16,86.24Z"/><path class="cls-6" d="M56.39,79.43a1.43,1.43,0,0,0,.07.35,3.76,3.76,0,0,1,.17.74.51.51,0,0,1-.4.54,19.12,19.12,0,0,1-2.48.16q-7-.16-10.72-.16-.82,0-.82-.48t.72-1q3.14-.25,6.57-.25l3.7,0Z"/><path class="cls-7" d="M261.4,80.57a1.33,1.33,0,0,0,.07.35,3.44,3.44,0,0,1,.18.74.52.52,0,0,1-.44.54,22.29,22.29,0,0,1-2.68.16q-7.6-.16-11.62-.16-.89,0-.89-.48t.78-1q3.41-.25,7.13-.25l4,0Z"/></g></g></svg>