<svg xmlns="http://www.w3.org/2000/svg" viewBox="0 0 78.12 71.41"><defs><style>.cls-1{fill:#c2c3c9;}.cls-1,.cls-2,.cls-3,.cls-4,.cls-5{fill-rule:evenodd;}.cls-2{fill:#aeadb3;}.cls-3{fill:#edeef0;}.cls-4{fill:#d8d9dd;}.cls-5{fill:#f7f7f8;}.cls-6{fill:#333;}</style></defs><title>Asset 11</title><g id="Layer_2" data-name="Layer 2"><g id="CONTACT_US" data-name="CONTACT US"><path class="cls-1" d="M6.56,18.23C2.38,10.38,3.5,6.45,13.06,2.64s51.5-3.23,48.42,0S62.12,4.88,61,5.8c-3.25,2.06-6.91,1.93-10.54,2-8.39.1-16.79,0-25.19.05C18.93,7.92,13.9,10,11,16,9.86,17.43,8.55,18.53,6.56,18.23Z"/><path class="cls-2" d="M59.5,5.36q0-1.1,0-2.19h2.2c1.75,3.12,5.36,1.48,7.68,3,2.9,1.87,2.14,3.17-.91,3.75-2,1.74-.67,4.67-2.31,6.54q0,2.15,0,4.31c-6,.13-7.21-5.19-9.95-8.78C55.3,8.76,57,6.88,59.5,5.36Z"/><path class="cls-3" d="M6.56,18.23l2.32-2.4C18,5.49,31,7.48,40.89,10.28S60.22,19.59,69.61,25c5.16,5.1,5.8,11,3,17.46-.11,1.79-.65,3.33-2.41,4.18-2.17,2.3-1.76,5.62-3.22,8.21-3.31,3.49-8.75,5.27-11.84,3.47-8.55-5-11-.13-13.41,6.3C25,73.19,26.07,71.82,12.58,57.7.29,44.84-.27,32.73,6.56,18.23Z"/><path class="cls-4" d="M68.11,26.84c-2.72.52-2.48-10.22-7.89-1.7-2.09,3.29-4.32-1.87-6.22-3.62-11.92-11-32.11-13.59-45.13-5.7,1.57-8,6.66-11.25,14.6-11,9,.24,18,.18,27,.25,2.89,2.19,4.45,6.25,8.86,6.31,4.4,1.51,5.36,6.43,8.82,8.86l2.29,2.1C71.78,24.92,69.64,25.72,68.11,26.84Z"/><path class="cls-4" d="M41.76,64.58c3.23-6-4.36-3.55-5.53-7.42a22.15,22.15,0,0,0,18-8.38c4,3.67-.51,5.31.19,8.27,4.32.67,7.93-1.29,11.39-3.74C70,53,69.42,55.17,68.1,57.68Z"/><path class="cls-1" d="M68.11,26.84l2.32-4.52c6,6.12,12.68,12.17,2.21,20.1C71.23,37.19,72.9,31.08,68.11,26.84Z"/><path class="cls-1" d="M68.1,57.68c-.14-1.76-.43-3.45-2.24-4.36,0-3.18,1.19-5.61,4.38-6.72C67.86,50,76.26,55.42,68.1,57.68Z"/><path class="cls-1" d="M66.16,17C65,14.08,62,9.45,68.11,9.14c3.07-1.11,5,6.52,5,6.52S67.14,20,66.16,17Z"/><path class="cls-1" d="M59.31,11.35a24.6,24.6,0,0,1-1.95,3.28c-4.21-1.75-7.19-4.55-6.91-9.59l11-.2Z"/><path class="cls-5" d="M15.43,69.39l-2.09-.65C4.59,66.45,1.92,58.27.62,51.64S.36,37.57.72,30.48c1.46-4.53,4.72-6.65,9.33-6.94a2.91,2.91,0,0,1,3.16.17c2,.59,3.81-.63,5.76-.54,3,.9,5.67,3.56,5.54,5.91-.38,6.48,3.18,6.48,7.65,6,10,7.25,8.87,7,4.6,19.12C32.87,65.19,25.94,69.1,15.43,69.39Z"/><path class="cls-5" d="M6.42,64.25q-2-.16-3.9-.37L2.9,60c5.84-2.58,3.53-9.27,6.57-13.14,3.8-4.84,6-3.26,6.51,2.25,2.74,3.9,8.18,2,11.23,5.21l7.65.75C34.07,65.76,24.41,67,17.57,71.22,11.74,72.28,8.7,68.88,6.42,64.25Z"/><path class="cls-6" d="M42.45,53.35h-15a12.06,12.06,0,0,1-12-12V28.12a12.06,12.06,0,0,1,12-12h15a12.06,12.06,0,0,1,12,12V41.31A12.06,12.06,0,0,1,42.45,53.35Zm-15-34.6a9.38,9.38,0,0,0-9.37,9.37V41.31a9.38,9.38,0,0,0,9.37,9.37h15a9.38,9.38,0,0,0,9.37-9.37V28.12a9.38,9.38,0,0,0-9.37-9.37Z"/><path class="cls-6" d="M35,45.43A10.72,10.72,0,1,1,45.69,34.71,10.73,10.73,0,0,1,35,45.43Zm0-18.76a8,8,0,1,0,8,8A8.05,8.05,0,0,0,35,26.67Z"/><circle class="cls-6" cx="45.52" cy="24.32" r="2.22"/></g></g></svg>