<svg xmlns="http://www.w3.org/2000/svg" xmlns:xlink="http://www.w3.org/1999/xlink" viewBox="0 0 69.1964 71.0629"><defs><style>.cls-1{fill:#652d80;}.cls-2{isolation:isolate;}.cls-3{fill:none;stroke:#fff;stroke-miterlimit:10;stroke-width:1.2526px;stroke-dasharray:1.9149;}.cls-4{fill:url(#linear-gradient);}.cls-5{opacity:0.1;}.cls-6{clip-path:url(#clip-path);}.cls-7{clip-path:url(#clip-path-2);}.cls-8{mix-blend-mode:overlay;}.cls-9{fill:#fff;}</style><linearGradient id="linear-gradient" x1="34.5988" y1="63.0437" x2="34.5988" y2="10.1068" gradientUnits="userSpaceOnUse"><stop offset="0" stop-color="#6775a7"/><stop offset="0.4494" stop-color="#32ab9e"/><stop offset="0.5901" stop-color="#3aa39f"/><stop offset="0.805" stop-color="#4e8ea3"/><stop offset="1" stop-color="#6775a7"/></linearGradient><clipPath id="clip-path"><path class="cls-1" d="M40.4226,37.2377a1.2024,1.2024,0,0,1-1.1948-.7308,1.836,1.836,0,0,1-.1273-.7541v-.0213a1.5078,1.5078,0,0,0-1.5089-1.507l-2.6409.0012a1.5076,1.5076,0,1,1-.0016-3.0151l8.6721-.0083A1.5094,1.5094,0,0,0,45.1243,29.8l.0051.0032a2.223,2.223,0,0,1,.1326-.8867,1.1981,1.1981,0,0,1,1.1927-.7328l3.1985-.0055a1.5078,1.5078,0,0,0-.0036-3.0155l-2.0813.0016a1.2016,1.2016,0,0,1-1.1939-.7308,1.6306,1.6306,0,0,1-.1243-.6578c.0032-.04.0047-.0777.0047-.1184a1.5084,1.5084,0,0,0-1.51-1.5062l-27.9054.0241a1.5086,1.5086,0,1,0,.003,3.0171l2.4518-.002a1.5089,1.5089,0,0,1,.0042,3.0179l-5.0939.0044a1.5076,1.5076,0,1,0,.0035,3.0151l4.5255-.0032a1.5084,1.5084,0,0,1,.003,3.0167l-10.56.01a1.5086,1.5086,0,1,0,.0045,3.0171l8.6735-.0083a1.5088,1.5088,0,0,1,.002,3.0175h.3352a1.5074,1.5074,0,1,0,.0018,3.0147h.6093a1.5084,1.5084,0,1,1,.0035,3.0167l.1867,0a1.5088,1.5088,0,0,0,.0023,3.0175L45.9,49.3006a1.5084,1.5084,0,1,0-.0028-3.0167l-.7545.0008a1.5084,1.5084,0,0,1-.0023-3.0168l4.9445-.0043a1.5082,1.5082,0,1,0-.0029-3.0163h-.2415a1.1475,1.1475,0,0,1-.9975-.7154,1.7712,1.7712,0,0,1-.1271-.717c.0024-.0244.0024-.0505.0024-.0761a1.51,1.51,0,0,0-1.51-1.507Z"/></clipPath><clipPath id="clip-path-2"><rect class="cls-1" x="5.1376" y="21.5977" width="51.9123" height="15.6495"/></clipPath></defs><title>Asset 1</title><g class="cls-2"><g id="Layer_2" data-name="Layer 2"><g id="Layer_1-2" data-name="Layer 1"><g id="LOGO"><circle class="cls-3" cx="34.5984" cy="36.4654" r="33.9715"/><circle class="cls-4" cx="34.5983" cy="35.9937" r="29.9838"/><g class="cls-5"><path class="cls-1" d="M52.4029,45.4789c-.1813,0-.2669-.1657-.3526-.3255-.0785-.1484-.1511-.29-.2912-.2893-.1417,0-.2147.1409-.292.29-.0838.161-.1695.3263-.3514.3271-.18,0-.2675-.1661-.3508-.3267-.0761-.1484-.1521-.2885-.293-.2885s-.2137.14-.2908.2885c-.0845.1606-.17.3279-.35.3279-.1815,0-.2677-.1665-.3514-.3263-.0781-.15-.1512-.29-.2914-.29s-.2152.1409-.2924.2908c-.084.159-.17.3252-.35.3252-.1819,0-.2674-.1653-.3524-.3252-.0768-.15-.15-.29-.2906-.29s-.2142.14-.292.29c-.0838.1606-.17.3263-.35.3263s-.2681-.1658-.3514-.3263c-.0773-.1488-.1521-.29-.2924-.2885-.1411-.0016-.2141.14-.292.29-.0838.1606-.1689.3248-.3506.3248-.1792,0-.2666-.1642-.3492-.3248-.0785-.15-.1509-.29-.293-.29v-.0659c.18,0,.2664.1645.35.3252.08.1491.1535.29.2926.29s.215-.1417.2918-.2916c.0839-.1586.1707-.3243.3508-.3243.1825-.0008.2669.1653.3512.3243.0773.15.1512.29.2926.29s.2129-.14.2912-.29c.0827-.159.1695-.3263.35-.3263s.2668.1653.3506.3259c.0779.1484.1523.2889.2924.2889s.2155-.14.292-.2889c.0833-.1606.1695-.3267.3508-.3267s.2664.1653.35.3256c.0775.15.1517.29.2928.29s.2133-.1417.2918-.29c.0819-.1606.1689-.3263.3506-.3263.179,0,.2658.1653.3514.3252.0779.15.1523.29.2908.29.1409,0,.2145-.1424.292-.2908.0842-.16.1693-.3263.3514-.3263.18,0,.2656.1653.3506.3252.0771.15.1505.2908.2932.2908.14,0,.2133-.1413.2906-.2908.0832-.1606.1689-.3256.3508-.3256v.0659c-.14,0-.2146.1417-.2932.29C52.6687,45.3132,52.5818,45.4789,52.4029,45.4789Z"/><path class="cls-1" d="M8.7356,38.7628c.1813,0,.2675.1649.3514.3256.0779.1488.1521.2885.293.2885s.2129-.14.2908-.2885c.0839-.161.1707-.3271.3514-.3271s.2669.1662.35.326c.0785.148.1533.29.2924.29.1409-.0008.2141-.1417.2924-.29.0833-.16.1683-.3256.351-.3256.18-.0012.2662.1653.3494.3256.0791.1488.1535.2892.2932.2892s.2135-.1417.2924-.29c.0827-.1606.17-.326.35-.3271.18.0008.2658.1661.35.3256.0774.15.151.29.293.29.14,0,.2135-.14.29-.29.0827-.1594.17-.326.35-.3256.1813,0,.2675.1653.352.3243.0777.15.1509.29.2912.29s.215-.1413.2926-.29c.0837-.1594.1687-.3251.35-.3263.1809.0012.267.1658.351.3263.0765.148.1509.29.2918.29v.0647c-.1807,0-.2672-.1642-.35-.3252-.08-.15-.1521-.29-.293-.29s-.2129.14-.2914.2916c-.0833.1594-.1677.3259-.3508.3259-.1813,0-.2658-.1657-.35-.3259-.0784-.1492-.1515-.2909-.2936-.29-.14,0-.2141.1413-.2908.2908-.0837.159-.1687.3252-.35.3252s-.2681-.1661-.3518-.3252c-.0779-.15-.1511-.29-.2914-.29s-.2146.14-.2924.29c-.0832.1606-.1706.3252-.35.3252s-.2664-.1646-.352-.3236c-.0773-.15-.1517-.2908-.2906-.2908-.1411,0-.2149.1413-.292.2908-.0838.16-.1706.3255-.3514.3255s-.2669-.1653-.35-.3255c-.0785-.1488-.1529-.2908-.2926-.29s-.2147.1409-.292.29c-.0832.16-.17.3259-.35.3259s-.2673-.1661-.3514-.3248c-.0771-.15-.1521-.29-.293-.29s-.2133.14-.2912.29c-.0833.16-.17.3252-.349.3252l-.0012-.0647c.1415,0,.2144-.1409.292-.29C8.47,38.9285,8.5554,38.764,8.7356,38.7628Z"/><path class="cls-1" d="M40.4226,37.2377a1.2024,1.2024,0,0,1-1.1948-.7308,1.836,1.836,0,0,1-.1273-.7541v-.0213a1.5078,1.5078,0,0,0-1.5089-1.507l-2.6409.0012a1.5076,1.5076,0,1,1-.0016-3.0151l8.6721-.0083A1.5094,1.5094,0,0,0,45.1243,29.8l.0051.0032a2.223,2.223,0,0,1,.1326-.8867,1.1981,1.1981,0,0,1,1.1927-.7328l3.1985-.0055a1.5078,1.5078,0,0,0-.0036-3.0155l-2.0813.0016a1.2016,1.2016,0,0,1-1.1939-.7308,1.6306,1.6306,0,0,1-.1243-.6578c.0032-.04.0047-.0777.0047-.1184a1.5084,1.5084,0,0,0-1.51-1.5062l-27.9054.0241a1.5086,1.5086,0,1,0,.003,3.0171l2.4518-.002a1.5089,1.5089,0,0,1,.0042,3.0179l-5.0939.0044a1.5076,1.5076,0,1,0,.0035,3.0151l4.5255-.0032a1.5084,1.5084,0,0,1,.003,3.0167l-10.56.01a1.5086,1.5086,0,1,0,.0045,3.0171l8.6735-.0083a1.5088,1.5088,0,0,1,.002,3.0175h.3352a1.5074,1.5074,0,1,0,.0018,3.0147h.6093a1.5084,1.5084,0,1,1,.0035,3.0167l.1867,0a1.5088,1.5088,0,0,0,.0023,3.0175L45.9,49.3006a1.5084,1.5084,0,1,0-.0028-3.0167l-.7545.0008a1.5084,1.5084,0,0,1-.0023-3.0168l4.9445-.0043a1.5082,1.5082,0,1,0-.0029-3.0163h-.2415a1.1475,1.1475,0,0,1-.9975-.7154,1.7712,1.7712,0,0,1-.1271-.717c.0024-.0244.0024-.0505.0024-.0761a1.51,1.51,0,0,0-1.51-1.507Z"/><g class="cls-6"><rect class="cls-1" x="5.1376" y="21.5977" width="51.9123" height="15.6495"/><g class="cls-7"><g class="cls-8"><polygon class="cls-1" points="1.497 36.562 1.136 36.203 37.418 0 37.778 0.359 1.497 36.562"/><polygon class="cls-1" points="2.274 37.335 1.912 36.976 38.195 0.774 38.558 1.132 2.274 37.335"/><polygon class="cls-1" points="3.053 38.109 2.691 37.749 38.973 1.546 39.335 1.906 3.053 38.109"/><polygon class="cls-1" points="3.829 38.882 3.468 38.523 39.75 2.32 40.112 2.68 3.829 38.882"/><polygon class="cls-1" points="4.608 39.655 4.247 39.296 40.529 3.093 40.889 3.452 4.608 39.655"/><polygon class="cls-1" points="5.384 40.427 5.024 40.069 41.307 3.866 41.667 4.225 5.384 40.427"/><polygon class="cls-1" points="6.163 41.202 5.802 40.842 42.084 4.639 42.445 4.998 6.163 41.202"/><polygon class="cls-1" points="6.941 41.974 6.58 41.615 42.861 5.412 43.222 5.772 6.941 41.974"/><polygon class="cls-1" points="7.718 42.747 7.357 42.388 43.639 6.185 44 6.544 7.718 42.747"/><polygon class="cls-1" points="8.497 43.52 8.135 43.162 44.417 6.959 44.779 7.318 8.497 43.52"/><polygon class="cls-1" points="9.274 44.294 8.912 43.935 45.194 7.732 45.556 8.091 9.274 44.294"/><polygon class="cls-1" points="10.051 45.068 9.691 44.708 45.973 8.505 46.333 8.864 10.051 45.068"/><polygon class="cls-1" points="10.829 45.84 10.469 45.481 46.75 9.278 47.111 9.638 10.829 45.84"/><polygon class="cls-1" points="11.608 46.614 11.246 46.255 47.528 10.052 47.889 10.411 11.608 46.614"/><polygon class="cls-1" points="12.385 47.386 12.023 47.027 48.305 10.825 48.666 11.184 12.385 47.386"/><polygon class="cls-1" points="13.162 48.16 12.801 47.802 49.081 11.598 49.443 11.956 13.162 48.16"/><polygon class="cls-1" points="13.939 48.933 13.578 48.575 49.86 12.37 50.222 12.73 13.939 48.933"/><polygon class="cls-1" points="14.718 49.706 14.357 49.347 50.638 13.145 51 13.503 14.718 49.706"/><polygon class="cls-1" points="15.495 50.479 15.134 50.121 51.416 13.917 51.779 14.276 15.495 50.479"/><polygon class="cls-1" points="16.272 51.252 15.912 50.892 52.193 14.69 52.554 15.05 16.272 51.252"/><polygon class="cls-1" points="17.05 52.026 16.688 51.666 52.972 15.463 53.333 15.823 17.05 52.026"/><polygon class="cls-1" points="17.828 52.799 17.467 52.44 53.748 16.237 54.11 16.596 17.828 52.799"/><polygon class="cls-1" points="18.606 53.573 18.244 53.213 54.526 17.01 54.887 17.37 18.606 53.573"/><polygon class="cls-1" points="19.383 54.346 19.022 53.986 55.303 17.783 55.665 18.143 19.383 54.346"/><polygon class="cls-1" points="20.162 55.117 19.799 54.76 56.082 18.555 56.443 18.915 20.162 55.117"/><polygon class="cls-1" points="20.938 55.891 20.578 55.532 56.859 19.328 57.22 19.689 20.938 55.891"/><polygon class="cls-1" points="21.717 56.665 21.355 56.305 57.637 20.102 57.999 20.462 21.717 56.665"/><polygon class="cls-1" points="22.494 57.438 22.133 57.079 58.415 20.876 58.777 21.235 22.494 57.438"/><polygon class="cls-1" points="23.273 58.21 22.911 57.851 59.192 21.649 59.553 22.008 23.273 58.21"/></g></g><rect class="cls-1" x="13.2997" y="43.2486" width="37.5003" height="6.2436"/><g class="cls-8"><circle class="cls-1" cx="48.3135" cy="48.8954" r="0.281" transform="translate(-0.1054 0.1043) rotate(-0.1236)"/><circle class="cls-1" cx="47.566" cy="48.896" r="0.2806" transform="translate(-0.0668 0.0651) rotate(-0.0784)"/><circle class="cls-1" cx="46.8183" cy="48.8967" r="0.2807"/><circle class="cls-1" cx="46.0705" cy="48.8973" r="0.2804" transform="translate(-0.1021 0.0964) rotate(-0.1197)"/><circle class="cls-1" cx="45.3224" cy="48.898" r="0.2802"/><circle class="cls-1" cx="44.575" cy="48.8987" r="0.2794" transform="translate(-0.1377 0.1259) rotate(-0.1616)"/><circle class="cls-1" cx="43.8278" cy="48.8994" r="0.28"/><circle class="cls-1" cx="43.0801" cy="48.8996" r="0.2804"/><circle class="cls-1" cx="42.3322" cy="48.9006" r="0.2801"/><circle class="cls-1" cx="41.5845" cy="48.9013" r="0.2806" transform="translate(-0.0669 0.0569) rotate(-0.0784)"/><circle class="cls-1" cx="40.8371" cy="48.9015" r="0.2807"/><circle class="cls-1" cx="40.0893" cy="48.9029" r="0.2805"/><circle class="cls-1" cx="39.3412" cy="48.9035" r="0.2805"/><circle class="cls-1" cx="38.5941" cy="48.9038" r="0.2803" transform="translate(-0.0705 0.0557) rotate(-0.0826)"/><circle class="cls-1" cx="37.8462" cy="48.9046" r="0.2806" transform="translate(-0.1723 0.1338) rotate(-0.2022)"/><circle class="cls-1" cx="37.0987" cy="48.9059" r="0.2803" transform="translate(-0.0669 0.0509) rotate(-0.0785)"/><circle class="cls-1" cx="36.351" cy="48.9065" r="0.2802"/><circle class="cls-1" cx="35.603" cy="48.9067" r="0.2803"/><circle class="cls-1" cx="34.8555" cy="48.9073" r="0.2798"/><circle class="cls-1" cx="34.1088" cy="48.9073" r="0.2802"/><circle class="cls-1" cx="33.3604" cy="48.909" r="0.2802"/><circle class="cls-1" cx="32.6131" cy="48.9096" r="0.2801" transform="translate(-0.067 0.0447) rotate(-0.0785)"/><circle class="cls-1" cx="31.8651" cy="48.9101" r="0.2806" transform="translate(-0.1056 0.069) rotate(-0.1238)"/><circle class="cls-1" cx="31.1178" cy="48.9108" r="0.2802"/><circle class="cls-1" cx="30.3702" cy="48.9116" r="0.28"/><circle class="cls-1" cx="29.6224" cy="48.912" r="0.2806" transform="translate(-0.1372 0.0834) rotate(-0.1609)"/><circle class="cls-1" cx="28.8738" cy="48.9128" r="0.2809"/><circle class="cls-1" cx="28.1264" cy="48.9135" r="0.2804"/><circle class="cls-1" cx="27.3794" cy="48.9144" r="0.2805" transform="translate(-0.1021 0.0573) rotate(-0.1197)"/><circle class="cls-1" cx="26.6319" cy="48.9151" r="0.2802"/><circle class="cls-1" cx="25.884" cy="48.9162" r="0.2804" transform="translate(-0.067 0.0355) rotate(-0.0784)"/><circle class="cls-1" cx="25.136" cy="48.9166" r="0.2801"/><circle class="cls-1" cx="24.3887" cy="48.917" r="0.2812" transform="matrix(1, -0.0028, 0.0028, 1, -0.137, 0.0685)"/><circle class="cls-1" cx="23.6412" cy="48.9177" r="0.2804"/><circle class="cls-1" cx="22.8936" cy="48.9182" r="0.2804"/><circle class="cls-1" cx="22.1455" cy="48.9191" r="0.2807"/><circle class="cls-1" cx="21.3983" cy="48.9197" r="0.2806"/><circle class="cls-1" cx="20.65" cy="48.9201" r="0.2805" transform="translate(-0.0704 0.0298) rotate(-0.0825)"/><circle class="cls-1" cx="19.9028" cy="48.9209" r="0.2808" transform="translate(-0.0704 0.0287) rotate(-0.0824)"/><circle class="cls-1" cx="19.1552" cy="48.9214" r="0.2803" transform="translate(-0.0705 0.0277) rotate(-0.0826)"/><circle class="cls-1" cx="18.4072" cy="48.9224" r="0.2801" transform="translate(-0.1376 0.052) rotate(-0.1612)"/><circle class="cls-1" cx="17.66" cy="48.9229" r="0.2801"/><circle class="cls-1" cx="16.912" cy="48.9229" r="0.2803"/><circle class="cls-1" cx="16.1646" cy="48.9246" r="0.2801"/><circle class="cls-1" cx="48.3128" cy="48.1473" r="0.2806" transform="translate(-0.135 0.1358) rotate(-0.1609)"/><circle class="cls-1" cx="47.5656" cy="48.1485" r="0.2812" transform="translate(-0.0657 0.065) rotate(-0.0782)"/><circle class="cls-1" cx="46.8174" cy="48.1489" r="0.2806"/><circle class="cls-1" cx="46.0697" cy="48.1495" r="0.2803"/><circle class="cls-1" cx="45.3222" cy="48.1497" r="0.2805"/><circle class="cls-1" cx="44.5746" cy="48.1509" r="0.2797" transform="translate(-0.1355 0.1258) rotate(-0.1614)"/><circle class="cls-1" cx="43.8264" cy="48.1516" r="0.2806"/><circle class="cls-1" cx="43.0793" cy="48.1519" r="0.2805"/><circle class="cls-1" cx="42.3322" cy="48.1524" r="0.2809"/><circle class="cls-1" cx="41.5842" cy="48.1546" r="0.2806" transform="translate(-0.0693 0.0599) rotate(-0.0825)"/><circle class="cls-1" cx="40.8362" cy="48.1547" r="0.2813" transform="translate(-0.0691 0.0587) rotate(-0.0823)"/><circle class="cls-1" cx="40.0884" cy="48.1551" r="0.2803" transform="matrix(1, -0.0014, 0.0014, 1, -0.0659, 0.055)"/><circle class="cls-1" cx="39.341" cy="48.1558" r="0.2804" transform="translate(-0.0694 0.0567) rotate(-0.0826)"/><circle class="cls-1" cx="38.5928" cy="48.1567" r="0.2797"/><circle class="cls-1" cx="37.8458" cy="48.1571" r="0.2804"/><circle class="cls-1" cx="37.0983" cy="48.1581" r="0.2805"/><circle class="cls-1" cx="36.3503" cy="48.1587" r="0.2803" transform="matrix(1, -0.0014, 0.0014, 1, -0.0659, 0.0498)"/><circle class="cls-1" cx="35.6025" cy="48.1591" r="0.2806"/><circle class="cls-1" cx="34.855" cy="48.1599" r="0.2804" transform="translate(-0.0659 0.0478) rotate(-0.0784)"/><circle class="cls-1" cx="34.1072" cy="48.1611" r="0.2801" transform="translate(-0.0695 0.0493) rotate(-0.0827)"/><circle class="cls-1" cx="33.3597" cy="48.1613" r="0.2806"/><circle class="cls-1" cx="32.612" cy="48.1618" r="0.2805"/><circle class="cls-1" cx="31.8646" cy="48.1628" r="0.2807" transform="translate(-0.1039 0.0689) rotate(-0.1237)"/><circle class="cls-1" cx="31.1172" cy="48.1636" r="0.2803" transform="translate(-0.0659 0.0427) rotate(-0.0785)"/><circle class="cls-1" cx="30.3687" cy="48.164" r="0.2801"/><circle class="cls-1" cx="29.6214" cy="48.1644" r="0.2804"/><circle class="cls-1" cx="28.8737" cy="48.1653" r="0.2808"/><circle class="cls-1" cx="28.1264" cy="48.1663" r="0.28"/><circle class="cls-1" cx="27.3791" cy="48.1667" r="0.28" transform="translate(-0.1355 0.0772) rotate(-0.1613)"/><circle class="cls-1" cx="26.6316" cy="48.1675" r="0.2804"/><circle class="cls-1" cx="25.8836" cy="48.1677" r="0.28" transform="translate(-0.0695 0.0374) rotate(-0.0827)"/><circle class="cls-1" cx="25.1355" cy="48.1683" r="0.2806"/><circle class="cls-1" cx="24.3879" cy="48.1688" r="0.2805"/><circle class="cls-1" cx="23.6398" cy="48.1696" r="0.28"/><circle class="cls-1" cx="22.8926" cy="48.171" r="0.2801" transform="translate(-0.1354 0.0646) rotate(-0.1612)"/><circle class="cls-1" cx="22.1446" cy="48.1714" r="0.2805"/><circle class="cls-1" cx="21.398" cy="48.1721" r="0.2803" transform="matrix(1, -0.0028, 0.0028, 1, -0.1353, 0.0603)"/><circle class="cls-1" cx="20.6494" cy="48.1733" r="0.2805"/><circle class="cls-1" cx="19.9023" cy="48.1739" r="0.2804" transform="translate(-0.0659 0.0273) rotate(-0.0784)"/><circle class="cls-1" cx="19.1545" cy="48.1744" r="0.2803"/><circle class="cls-1" cx="18.4069" cy="48.1745" r="0.2805"/><circle class="cls-1" cx="17.6587" cy="48.1749" r="0.2802"/><circle class="cls-1" cx="16.9111" cy="48.1759" r="0.2801" transform="translate(-0.1702 0.0601) rotate(-0.2025)"/><circle class="cls-1" cx="16.1639" cy="48.1769" r="0.2807" transform="translate(-0.0659 0.0222) rotate(-0.0784)"/><circle class="cls-1" cx="48.3125" cy="47.4" r="0.2804"/><circle class="cls-1" cx="47.5647" cy="47.4005" r="0.2806" transform="translate(-0.0682 0.0685) rotate(-0.0825)"/><circle class="cls-1" cx="46.8168" cy="47.4009" r="0.2802"/><circle class="cls-1" cx="46.0696" cy="47.4013" r="0.2807" transform="translate(-0.0989 0.0963) rotate(-0.1196)"/><circle class="cls-1" cx="45.3217" cy="47.4025" r="0.2806" transform="translate(-0.0989 0.0947) rotate(-0.1196)"/><circle class="cls-1" cx="44.5745" cy="47.4033" r="0.2794" transform="translate(-0.0685 0.0645) rotate(-0.0829)"/><circle class="cls-1" cx="43.826" cy="47.4045" r="0.2803"/><circle class="cls-1" cx="43.0791" cy="47.4048" r="0.2802"/><circle class="cls-1" cx="42.3314" cy="47.4049" r="0.28"/><circle class="cls-1" cx="41.5839" cy="47.4062" r="0.28"/><circle class="cls-1" cx="40.8355" cy="47.4064" r="0.2806" transform="translate(-0.0648 0.0559) rotate(-0.0784)"/><circle class="cls-1" cx="40.088" cy="47.4074" r="0.2806" transform="translate(-0.0682 0.0578) rotate(-0.0825)"/><circle class="cls-1" cx="39.3408" cy="47.4077" r="0.2802"/><circle class="cls-1" cx="38.5924" cy="47.4082" r="0.2803"/><circle class="cls-1" cx="37.8455" cy="47.4092" r="0.28" transform="translate(-0.1333 0.1067) rotate(-0.1612)"/><circle class="cls-1" cx="37.0971" cy="47.4099" r="0.2813" transform="translate(-0.0681 0.0533) rotate(-0.0823)"/><circle class="cls-1" cx="36.3501" cy="47.4106" r="0.2804"/><circle class="cls-1" cx="35.6021" cy="47.4111" r="0.2803"/><circle class="cls-1" cx="34.8545" cy="47.4124" r="0.2804" transform="translate(-0.1024 0.0755) rotate(-0.1239)"/><circle class="cls-1" cx="34.1068" cy="47.4127" r="0.2804"/><circle class="cls-1" cx="33.359" cy="47.4131" r="0.2801"/><circle class="cls-1" cx="32.6113" cy="47.4142" r="0.2801"/><circle class="cls-1" cx="31.8642" cy="47.4148" r="0.2801" transform="translate(-0.1333 0.0898) rotate(-0.1612)"/><circle class="cls-1" cx="31.1166" cy="47.4156" r="0.281"/><circle class="cls-1" cx="30.3684" cy="47.4162" r="0.2804" transform="translate(-0.1331 0.0855) rotate(-0.161)"/><circle class="cls-1" cx="29.621" cy="47.4171" r="0.2805"/><circle class="cls-1" cx="28.8732" cy="47.4175" r="0.2803" transform="translate(-0.1332 0.0814) rotate(-0.1611)"/><circle class="cls-1" cx="28.1256" cy="47.4187" r="0.2804" transform="translate(-0.0683 0.0406) rotate(-0.0826)"/><circle class="cls-1" cx="27.378" cy="47.4193" r="0.2804"/><circle class="cls-1" cx="26.6299" cy="47.4194" r="0.2803"/><circle class="cls-1" cx="25.8824" cy="47.4201" r="0.2794" transform="translate(-0.0686 0.0375) rotate(-0.0829)"/><circle class="cls-1" cx="25.1349" cy="47.4209" r="0.2811"/><circle class="cls-1" cx="24.3872" cy="47.4213" r="0.2808"/><circle class="cls-1" cx="23.6398" cy="47.4222" r="0.2801" transform="translate(-0.1333 0.0667) rotate(-0.1612)"/><circle class="cls-1" cx="22.8919" cy="47.423" r="0.2798"/><circle class="cls-1" cx="22.1442" cy="47.4237" r="0.2806" transform="translate(-0.1331 0.0624) rotate(-0.1609)"/><circle class="cls-1" cx="21.3967" cy="47.4247" r="0.2795" transform="translate(-0.0994 0.045) rotate(-0.1201)"/><circle class="cls-1" cx="20.6487" cy="47.4251" r="0.2806"/><circle class="cls-1" cx="19.9012" cy="47.426" r="0.2806"/><circle class="cls-1" cx="19.1536" cy="47.4266" r="0.2801" transform="translate(-0.065 0.0263) rotate(-0.0785)"/><circle class="cls-1" cx="18.4066" cy="47.427" r="0.2805"/><circle class="cls-1" cx="17.6584" cy="47.4276" r="0.2804" transform="translate(-0.1674 0.0626) rotate(-0.2023)"/><circle class="cls-1" cx="16.9106" cy="47.4285" r="0.2803"/><circle class="cls-1" cx="16.1629" cy="47.4289" r="0.2802"/><circle class="cls-1" cx="48.3112" cy="46.6526" r="0.2802"/><circle class="cls-1" cx="47.564" cy="46.6528" r="0.2806"/><circle class="cls-1" cx="46.8159" cy="46.6535" r="0.2808"/><circle class="cls-1" cx="46.0689" cy="46.6539" r="0.2804" transform="translate(-0.0974 0.0964) rotate(-0.1197)"/><circle class="cls-1" cx="45.321" cy="46.6547" r="0.2798"/><circle class="cls-1" cx="44.5733" cy="46.6556" r="0.2806"/><circle class="cls-1" cx="43.8253" cy="46.6563" r="0.2808" transform="translate(-0.0671 0.0631) rotate(-0.0824)"/><circle class="cls-1" cx="43.0774" cy="46.6565" r="0.2808"/><circle class="cls-1" cx="42.3295" cy="46.6577" r="0.2806"/><circle class="cls-1" cx="41.5827" cy="46.6583" r="0.2803"/><circle class="cls-1" cx="40.8354" cy="46.6593" r="0.2804" transform="translate(-0.0672 0.0589) rotate(-0.0826)"/><circle class="cls-1" cx="40.0874" cy="46.6595" r="0.2808"/><circle class="cls-1" cx="39.3404" cy="46.6604" r="0.2808"/><circle class="cls-1" cx="38.5918" cy="46.6611" r="0.2803" transform="translate(-0.0672 0.0557) rotate(-0.0826)"/><circle class="cls-1" cx="37.8438" cy="46.6615" r="0.2809"/><circle class="cls-1" cx="37.0965" cy="46.6621" r="0.2808"/><circle class="cls-1" cx="36.3486" cy="46.6632" r="0.2798" transform="translate(-0.1649 0.1289) rotate(-0.2027)"/><circle class="cls-1" cx="35.6012" cy="46.6639" r="0.2813" transform="translate(-0.067 0.0512) rotate(-0.0823)"/><circle class="cls-1" cx="34.8534" cy="46.665" r="0.2803"/><circle class="cls-1" cx="34.1066" cy="46.6651" r="0.2798"/><circle class="cls-1" cx="33.3581" cy="46.6655" r="0.28" transform="translate(-0.0639 0.0458) rotate(-0.0786)"/><circle class="cls-1" cx="32.6105" cy="46.6665" r="0.2807" transform="translate(-0.1644 0.1153) rotate(-0.2021)"/><circle class="cls-1" cx="31.8633" cy="46.6672" r="0.2807" transform="translate(-0.0672 0.0459) rotate(-0.0825)"/><circle class="cls-1" cx="31.1161" cy="46.6684" r="0.2806"/><circle class="cls-1" cx="30.3679" cy="46.6685" r="0.2804"/><circle class="cls-1" cx="29.6201" cy="46.6692" r="0.2797" transform="translate(-0.0674 0.0428) rotate(-0.0828)"/><circle class="cls-1" cx="28.8725" cy="46.67" r="0.28"/><circle class="cls-1" cx="28.1251" cy="46.6707" r="0.2807" transform="translate(-0.1309 0.0791) rotate(-0.1609)"/><circle class="cls-1" cx="27.377" cy="46.6713" r="0.2804"/><circle class="cls-1" cx="26.6295" cy="46.6719" r="0.2803" transform="matrix(1, -0.0014, 0.0014, 1, -0.0639, 0.0365)"/><circle class="cls-1" cx="25.8811" cy="46.6723" r="0.2801"/><circle class="cls-1" cx="25.1339" cy="46.6728" r="0.2814"/><circle class="cls-1" cx="24.3866" cy="46.6744" r="0.2804"/><circle class="cls-1" cx="23.6389" cy="46.6746" r="0.2799"/><circle class="cls-1" cx="22.891" cy="46.6752" r="0.2798"/><circle class="cls-1" cx="22.1428" cy="46.6756" r="0.2808"/><circle class="cls-1" cx="21.3963" cy="46.6763" r="0.2804" transform="translate(-0.1613 0.0743) rotate(-0.1982)"/><circle class="cls-1" cx="20.648" cy="46.6774" r="0.2807"/><circle class="cls-1" cx="19.9009" cy="46.678" r="0.2805" transform="translate(-0.0672 0.0287) rotate(-0.0825)"/><circle class="cls-1" cx="19.1529" cy="46.6786" r="0.2803"/><circle class="cls-1" cx="18.4062" cy="46.6794" r="0.2809"/><circle class="cls-1" cx="17.6574" cy="46.6804" r="0.2808"/><circle class="cls-1" cx="16.9105" cy="46.6807" r="0.2807" transform="translate(-0.0638 0.0232) rotate(-0.0784)"/><circle class="cls-1" cx="16.1622" cy="46.6813" r="0.2804" transform="matrix(1, -0.0014, 0.0014, 1, -0.0673, 0.0233)"/><circle class="cls-1" cx="48.3107" cy="45.9046" r="0.28"/><circle class="cls-1" cx="47.5635" cy="45.9055" r="0.2804" transform="translate(-0.0661 0.0686) rotate(-0.0826)"/><circle class="cls-1" cx="46.8156" cy="45.9056" r="0.2804"/><circle class="cls-1" cx="46.0678" cy="45.9065" r="0.2803" transform="translate(-0.0959 0.0964) rotate(-0.1198)"/><circle class="cls-1" cx="45.3205" cy="45.9076" r="0.2806" transform="translate(-0.1287 0.1274) rotate(-0.1609)"/><circle class="cls-1" cx="44.5728" cy="45.9078" r="0.2807" transform="translate(-0.1287 0.1253) rotate(-0.1609)"/><circle class="cls-1" cx="43.8246" cy="45.9084" r="0.2804" transform="translate(-0.0661 0.0632) rotate(-0.0826)"/><circle class="cls-1" cx="43.077" cy="45.9095" r="0.2804" transform="translate(-0.0628 0.059) rotate(-0.0784)"/><circle class="cls-1" cx="42.3292" cy="45.91" r="0.2807"/><circle class="cls-1" cx="41.5818" cy="45.9105" r="0.2809" transform="matrix(1, -0.0022, 0.0022, 1, -0.099, 0.0898)"/><circle class="cls-1" cx="40.8338" cy="45.9111" r="0.2797"/><circle class="cls-1" cx="40.0862" cy="45.9117" r="0.2809" transform="translate(-0.0957 0.0837) rotate(-0.1195)"/><circle class="cls-1" cx="39.339" cy="45.9125" r="0.2807"/><circle class="cls-1" cx="38.591" cy="45.9125" r="0.2806"/><circle class="cls-1" cx="37.8435" cy="45.9143" r="0.2805"/><circle class="cls-1" cx="37.0961" cy="45.9148" r="0.2804" transform="translate(-0.1289 0.1044) rotate(-0.161)"/><circle class="cls-1" cx="36.3486" cy="45.9153" r="0.2804"/><circle class="cls-1" cx="35.5999" cy="45.9162" r="0.2804"/><circle class="cls-1" cx="34.8527" cy="45.9172" r="0.2813" transform="translate(-0.0659 0.0501) rotate(-0.0823)"/><circle class="cls-1" cx="34.1048" cy="45.9174" r="0.2802"/><circle class="cls-1" cx="33.3578" cy="45.918" r="0.2806" transform="translate(-0.0628 0.0457) rotate(-0.0784)"/><circle class="cls-1" cx="32.6102" cy="45.9185" r="0.2804"/><circle class="cls-1" cx="31.8626" cy="45.9196" r="0.2806" transform="translate(-0.1288 0.0896) rotate(-0.1609)"/><circle class="cls-1" cx="31.1147" cy="45.9206" r="0.2801"/><circle class="cls-1" cx="30.3674" cy="45.9209" r="0.2809" transform="translate(-0.066 0.0437) rotate(-0.0824)"/><circle class="cls-1" cx="29.6185" cy="45.9214" r="0.2802"/><circle class="cls-1" cx="28.8722" cy="45.9223" r="0.2807" transform="translate(-0.1288 0.0812) rotate(-0.1609)"/><circle class="cls-1" cx="28.1241" cy="45.9231" r="0.2802"/><circle class="cls-1" cx="27.3766" cy="45.9235" r="0.2806" transform="translate(-0.0661 0.0395) rotate(-0.0825)"/><circle class="cls-1" cx="26.6289" cy="45.9243" r="0.2806"/><circle class="cls-1" cx="25.881" cy="45.9248" r="0.2804" transform="translate(-0.162 0.0917) rotate(-0.2023)"/><circle class="cls-1" cx="25.1337" cy="45.9257" r="0.2807"/><circle class="cls-1" cx="24.3862" cy="45.9261" r="0.2799"/><circle class="cls-1" cx="23.6385" cy="45.9264" r="0.2801"/><circle class="cls-1" cx="22.8897" cy="45.9275" r="0.2801"/><circle class="cls-1" cx="22.1424" cy="45.9286" r="0.2807"/><circle class="cls-1" cx="21.395" cy="45.9293" r="0.2801"/><circle class="cls-1" cx="20.6477" cy="45.9296" r="0.2809" transform="translate(-0.0627 0.0283) rotate(-0.0783)"/><circle class="cls-1" cx="19.8997" cy="45.9302" r="0.2805"/><circle class="cls-1" cx="19.1524" cy="45.9308" r="0.2801" transform="translate(-0.0629 0.0263) rotate(-0.0785)"/><circle class="cls-1" cx="18.4048" cy="45.9312" r="0.2807"/><circle class="cls-1" cx="17.6565" cy="45.9327" r="0.2805" transform="translate(-0.1289 0.0498) rotate(-0.1609)"/><circle class="cls-1" cx="16.9094" cy="45.9334" r="0.28"/><circle class="cls-1" cx="16.1619" cy="45.9335" r="0.2803"/><circle class="cls-1" cx="48.3103" cy="45.1571" r="0.2809"/><circle class="cls-1" cx="47.5621" cy="45.1572" r="0.2806"/><circle class="cls-1" cx="46.8149" cy="45.1579" r="0.2794" transform="translate(-0.0653 0.0678) rotate(-0.0829)"/><circle class="cls-1" cx="46.0664" cy="45.1593" r="0.2812" transform="translate(-0.1264 0.1293) rotate(-0.1606)"/><circle class="cls-1" cx="45.3194" cy="45.1599" r="0.2798"/><circle class="cls-1" cx="44.5723" cy="45.1605" r="0.2807" transform="translate(-0.0617 0.061) rotate(-0.0784)"/><circle class="cls-1" cx="43.8237" cy="45.1608" r="0.2803"/><circle class="cls-1" cx="43.0766" cy="45.1616" r="0.2798" transform="matrix(1, -0.0021, 0.0021, 1, -0.0945, 0.0903)"/><circle class="cls-1" cx="42.3287" cy="45.1622" r="0.2806"/><circle class="cls-1" cx="41.5818" cy="45.1628" r="0.2808" transform="translate(-0.0649 0.0599) rotate(-0.0824)"/><circle class="cls-1" cx="40.8331" cy="45.1634" r="0.2804"/><circle class="cls-1" cx="40.0861" cy="45.1642" r="0.2809" transform="translate(-0.0617 0.0548) rotate(-0.0783)"/><circle class="cls-1" cx="39.338" cy="45.165" r="0.2812" transform="translate(-0.094 0.0821) rotate(-0.1194)"/><circle class="cls-1" cx="38.5909" cy="45.1661" r="0.2804" transform="translate(-0.0651 0.0557) rotate(-0.0826)"/><circle class="cls-1" cx="37.8431" cy="45.1663" r="0.2806"/><circle class="cls-1" cx="37.0955" cy="45.1668" r="0.2806"/><circle class="cls-1" cx="36.3474" cy="45.1675" r="0.2804" transform="translate(-0.1268 0.1023) rotate(-0.161)"/><circle class="cls-1" cx="35.5999" cy="45.1689" r="0.2803" transform="translate(-0.0943 0.0745) rotate(-0.1198)"/><circle class="cls-1" cx="34.8521" cy="45.1693" r="0.2801"/><circle class="cls-1" cx="34.1046" cy="45.1697" r="0.2806"/><circle class="cls-1" cx="33.3576" cy="45.1706" r="0.2805"/><circle class="cls-1" cx="32.6094" cy="45.1709" r="0.2806"/><circle class="cls-1" cx="31.8616" cy="45.1714" r="0.28"/><circle class="cls-1" cx="31.114" cy="45.1723" r="0.2805"/><circle class="cls-1" cx="30.3664" cy="45.1725" r="0.28" transform="translate(-0.0619 0.0417) rotate(-0.0786)"/><circle class="cls-1" cx="29.6185" cy="45.1737" r="0.2801"/><circle class="cls-1" cx="28.8711" cy="45.1743" r="0.2808"/><circle class="cls-1" cx="28.1237" cy="45.1748" r="0.2803" transform="translate(-0.1594 0.0996) rotate(-0.2024)"/><circle class="cls-1" cx="27.3764" cy="45.1758" r="0.2807"/><circle class="cls-1" cx="26.628" cy="45.176" r="0.28"/><circle class="cls-1" cx="25.8806" cy="45.1767" r="0.2805"/><circle class="cls-1" cx="25.1327" cy="45.1778" r="0.2803" transform="translate(-0.1594 0.0891) rotate(-0.2024)"/><circle class="cls-1" cx="24.3852" cy="45.1792" r="0.2802"/><circle class="cls-1" cx="23.6379" cy="45.1793" r="0.2802"/><circle class="cls-1" cx="22.8897" cy="45.1799" r="0.2803"/><circle class="cls-1" cx="22.1418" cy="45.1816" r="0.2805"/><circle class="cls-1" cx="21.3949" cy="45.1816" r="0.28"/><circle class="cls-1" cx="20.6472" cy="45.1822" r="0.2803" transform="translate(-0.0618 0.0283) rotate(-0.0785)"/><circle class="cls-1" cx="19.8991" cy="45.1824" r="0.2803"/><circle class="cls-1" cx="19.1515" cy="45.1834" r="0.2803" transform="translate(-0.127 0.054) rotate(-0.1611)"/><circle class="cls-1" cx="18.4037" cy="45.1843" r="0.2805"/><circle class="cls-1" cx="17.6563" cy="45.185" r="0.2807"/><circle class="cls-1" cx="16.9087" cy="45.1855" r="0.2805"/><circle class="cls-1" cx="16.1609" cy="45.1862" r="0.2804" transform="translate(-0.1595 0.0573) rotate(-0.2023)"/><circle class="cls-1" cx="48.3098" cy="44.409" r="0.2801"/><circle class="cls-1" cx="47.5612" cy="44.4099" r="0.2802"/><circle class="cls-1" cx="46.8142" cy="44.4104" r="0.2802"/><circle class="cls-1" cx="46.0659" cy="44.4113" r="0.2803"/><circle class="cls-1" cx="45.3186" cy="44.4117" r="0.28" transform="matrix(1, -0.0022, 0.0022, 1, -0.096, 0.0982)"/><circle class="cls-1" cx="44.5714" cy="44.4125" r="0.2802"/><circle class="cls-1" cx="43.8228" cy="44.4131" r="0.2808"/><circle class="cls-1" cx="43.0762" cy="44.4144" r="0.2796"/><circle class="cls-1" cx="42.3283" cy="44.4146" r="0.2803" transform="translate(-0.0608 0.058) rotate(-0.0785)"/><circle class="cls-1" cx="41.5806" cy="44.4154" r="0.2801"/><circle class="cls-1" cx="40.8329" cy="44.416" r="0.2806"/><circle class="cls-1" cx="40.0851" cy="44.4166" r="0.2809"/><circle class="cls-1" cx="39.3379" cy="44.4172" r="0.2808" transform="translate(-0.0607 0.0538) rotate(-0.0783)"/><circle class="cls-1" cx="38.5906" cy="44.418" r="0.2798" transform="translate(-0.0609 0.053) rotate(-0.0786)"/><circle class="cls-1" cx="37.8427" cy="44.4185" r="0.2803" transform="translate(-0.064 0.0546) rotate(-0.0826)"/><circle class="cls-1" cx="37.095" cy="44.4196" r="0.2807" transform="translate(-0.0607 0.0508) rotate(-0.0784)"/><circle class="cls-1" cx="36.3468" cy="44.4203" r="0.2806"/><circle class="cls-1" cx="35.599" cy="44.4212" r="0.2807"/><circle class="cls-1" cx="34.8509" cy="44.4215" r="0.2801"/><circle class="cls-1" cx="34.1035" cy="44.422" r="0.2796" transform="translate(-0.0642 0.0493) rotate(-0.0828)"/><circle class="cls-1" cx="33.3569" cy="44.4231" r="0.2801"/><circle class="cls-1" cx="32.6091" cy="44.4233" r="0.2803"/><circle class="cls-1" cx="31.861" cy="44.4244" r="0.2805"/><circle class="cls-1" cx="31.1134" cy="44.4246" r="0.2801"/><circle class="cls-1" cx="30.366" cy="44.425" r="0.2803" transform="translate(-0.064 0.0438) rotate(-0.0826)"/><circle class="cls-1" cx="29.6178" cy="44.4264" r="0.281" transform="translate(-0.0926 0.0619) rotate(-0.1195)"/><circle class="cls-1" cx="28.8706" cy="44.4271" r="0.2806"/><circle class="cls-1" cx="28.123" cy="44.4274" r="0.2806"/><circle class="cls-1" cx="27.3758" cy="44.4281" r="0.2795" transform="translate(-0.0931 0.0575) rotate(-0.1201)"/><circle class="cls-1" cx="26.6274" cy="44.4287" r="0.2809"/><circle class="cls-1" cx="25.8801" cy="44.4296" r="0.2803" transform="translate(-0.1248 0.0729) rotate(-0.1611)"/><circle class="cls-1" cx="25.1321" cy="44.4307" r="0.2804"/><circle class="cls-1" cx="24.3846" cy="44.4312" r="0.2804"/><circle class="cls-1" cx="23.6366" cy="44.4315" r="0.2801"/><circle class="cls-1" cx="22.8892" cy="44.4323" r="0.2807" transform="translate(-0.1246 0.0644) rotate(-0.1609)"/><circle class="cls-1" cx="22.1416" cy="44.4332" r="0.2808"/><circle class="cls-1" cx="21.3939" cy="44.4337" r="0.2805"/><circle class="cls-1" cx="20.6465" cy="44.4342" r="0.2806"/><circle class="cls-1" cx="19.8985" cy="44.4349" r="0.2806" transform="translate(-0.0608 0.0273) rotate(-0.0784)"/><circle class="cls-1" cx="19.1511" cy="44.4358" r="0.2803" transform="translate(-0.0961 0.0415) rotate(-0.1239)"/><circle class="cls-1" cx="18.4033" cy="44.4363" r="0.2807"/><circle class="cls-1" cx="17.6561" cy="44.4371" r="0.2802"/><circle class="cls-1" cx="16.9079" cy="44.4377" r="0.2812" transform="translate(-0.0638 0.0243) rotate(-0.0823)"/><circle class="cls-1" cx="16.16" cy="44.4381" r="0.2802"/><circle class="cls-1" cx="48.3089" cy="43.6617" r="0.2808" transform="translate(-0.1536 0.1706) rotate(-0.202)"/><circle class="cls-1" cx="47.5607" cy="43.6625" r="0.2808"/><circle class="cls-1" cx="46.813" cy="43.6635" r="0.28"/><circle class="cls-1" cx="46.0657" cy="43.6638" r="0.28"/><circle class="cls-1" cx="45.3182" cy="43.6643" r="0.2797" transform="translate(-0.063 0.0655) rotate(-0.0828)"/><circle class="cls-1" cx="44.5702" cy="43.6648" r="0.2803" transform="matrix(1, -0.0035, 0.0035, 1, -0.154, 0.1577)"/><circle class="cls-1" cx="43.8222" cy="43.6653" r="0.2801"/><circle class="cls-1" cx="43.0747" cy="43.6664" r="0.2807" transform="translate(-0.0597 0.059) rotate(-0.0784)"/><circle class="cls-1" cx="42.328" cy="43.6666" r="0.2803"/><circle class="cls-1" cx="41.5797" cy="43.6673" r="0.2798" transform="translate(-0.063 0.0601) rotate(-0.0827)"/><circle class="cls-1" cx="40.8322" cy="43.6676" r="0.2804"/><circle class="cls-1" cx="40.085" cy="43.669" r="0.2813" transform="translate(-0.1222 0.1125) rotate(-0.1605)"/><circle class="cls-1" cx="39.337" cy="43.6697" r="0.281" transform="matrix(1, -0.0021, 0.0021, 1, -0.091, 0.0821)"/><circle class="cls-1" cx="38.5894" cy="43.6707" r="0.2806"/><circle class="cls-1" cx="37.841" cy="43.6709" r="0.2807"/><circle class="cls-1" cx="37.094" cy="43.6713" r="0.2795" transform="translate(-0.123 0.1048) rotate(-0.1615)"/><circle class="cls-1" cx="36.3461" cy="43.673" r="0.2812" transform="translate(-0.1222 0.102) rotate(-0.1605)"/><circle class="cls-1" cx="35.5988" cy="43.6734" r="0.2806"/><circle class="cls-1" cx="34.8509" cy="43.6739" r="0.2802"/><circle class="cls-1" cx="34.103" cy="43.6743" r="0.2809"/><circle class="cls-1" cx="33.3557" cy="43.6754" r="0.28"/><circle class="cls-1" cx="32.6081" cy="43.6759" r="0.281" transform="translate(-0.1224 0.0916) rotate(-0.1607)"/><circle class="cls-1" cx="31.8598" cy="43.677" r="0.2801"/><circle class="cls-1" cx="31.1129" cy="43.6772" r="0.2802"/><circle class="cls-1" cx="30.3654" cy="43.6776" r="0.2804"/><circle class="cls-1" cx="29.6173" cy="43.6783" r="0.2802" transform="translate(-14.1441 73.1727) rotate(-89.839)"/><circle class="cls-1" cx="28.8701" cy="43.6788" r="0.2804"/><circle class="cls-1" cx="28.1222" cy="43.6797" r="0.2817" transform="translate(-0.0626 0.0404) rotate(-0.0822)"/><circle class="cls-1" cx="27.3747" cy="43.68" r="0.2805"/><circle class="cls-1" cx="26.626" cy="43.6804" r="0.2803"/><circle class="cls-1" cx="25.8795" cy="43.6824" r="0.2801" transform="translate(-0.0913 0.0542) rotate(-0.1199)"/><circle class="cls-1" cx="25.1312" cy="43.6824" r="0.2801" transform="translate(-0.0913 0.0527) rotate(-0.1199)"/><circle class="cls-1" cx="24.3839" cy="43.683" r="0.2797"/><circle class="cls-1" cx="23.6365" cy="43.6834" r="0.2801" transform="translate(-0.063 0.0341) rotate(-0.0827)"/><circle class="cls-1" cx="22.8885" cy="43.6846" r="0.281" transform="translate(-20.8438 66.4817) rotate(-89.8803)"/><circle class="cls-1" cx="22.1414" cy="43.6851" r="0.2813"/><circle class="cls-1" cx="21.393" cy="43.6859" r="0.2808"/><circle class="cls-1" cx="20.6457" cy="43.6869" r="0.281" transform="translate(-0.0628 0.0297) rotate(-0.0824)"/><circle class="cls-1" cx="19.8981" cy="43.6871" r="0.2802"/><circle class="cls-1" cx="19.1504" cy="43.6876" r="0.2807" transform="translate(-0.1508 0.0664) rotate(-0.198)"/><circle class="cls-1" cx="18.4026" cy="43.6888" r="0.2808"/><circle class="cls-1" cx="17.6553" cy="43.6895" r="0.2805" transform="translate(-0.0943 0.0382) rotate(-0.1238)"/><circle class="cls-1" cx="16.907" cy="43.6903" r="0.2801"/><circle class="cls-1" cx="16.1598" cy="43.6905" r="0.2804"/></g><rect class="cls-1" x="14.6359" y="37.2136" width="37.4999" height="6.0759"/></g><path class="cls-1" d="M58.6161,34.0327a1.5081,1.5081,0,0,1-1.5072,1.5105l-13.3225.0122a1.5089,1.5089,0,0,1-1.51-1.5073h0a1.5079,1.5079,0,0,1,1.5072-1.51l13.3235-.0122a1.5074,1.5074,0,0,1,1.509,1.507Z"/><path class="cls-1" d="M61.0109,38.8828a1.5088,1.5088,0,0,1-1.5084,1.509l-6.1157.0055a1.507,1.507,0,0,1-1.51-1.5074h0a1.5082,1.5082,0,0,1,1.5064-1.51L59.5,37.3746a1.51,1.51,0,0,1,1.5113,1.5082Z"/><path class="cls-1" d="M40.7912,19.3283a1.5109,1.5109,0,0,1-1.5082,1.5109l-10.53.0095a1.5107,1.5107,0,0,1-1.51-1.5082h0a1.5092,1.5092,0,0,1,1.5084-1.509L39.28,17.8221a1.5081,1.5081,0,0,1,1.5111,1.5062Z"/><path class="cls-1" d="M41.67,52.2317a1.5065,1.5065,0,0,1-1.5056,1.51l-10.53.0091a1.5073,1.5073,0,0,1-1.51-1.5078h0a1.5065,1.5065,0,0,1,1.506-1.509l10.53-.0087a1.5061,1.5061,0,0,1,1.509,1.5062Z"/><circle class="cls-1" cx="53.578" cy="26.7371" r="1.5685" transform="translate(-0.0303 0.0607) rotate(-0.0649)"/><circle class="cls-1" cx="60.9592" cy="33.9636" r="1.5675" transform="translate(-0.0341 0.0613) rotate(-0.0576)"/><circle class="cls-1" cx="25.5194" cy="52.1493" r="1.5679"/></g><g id="LOGO_ICE_CREAM" data-name="LOGO ICE CREAM"><g class="cls-5"><path d="M37.93,56.0428c-.057-2.76-1.0631-10.9916-1.0631-10.9916l-4.0415.3907s.7937,8.186,1.0547,10.9143c.0635.6653.4341,1.6924,2.1879,1.5231C37.836,57.708,37.9418,56.6962,37.93,56.0428Zm-2.8626-.1306c-.4733.045-.6047-.9324-.64-1.3353-.19-2.0989-.8109-8.3943-.8109-8.3943l.9452-.09s.6261,6.2359.8044,8.3154C35.4043,54.8377,35.5321,55.8664,35.0673,55.9121Z"/><path d="M39.1558,18.6153,25.9183,19.8946a1.2169,1.2169,0,0,0-1.0944,1.3306l2.3524,24.3571a1.22,1.22,0,0,0,1.3318,1.095L41.7467,45.398a1.2193,1.2193,0,0,0,1.0944-1.3294L40.4869,19.7107A1.2194,1.2194,0,0,0,39.1558,18.6153ZM41.53,43.1729a1.2179,1.2179,0,0,1-1.0944,1.3306L29.42,45.5673a1.2188,1.2188,0,0,1-1.33-1.0954L25.9307,22.1371a1.2189,1.2189,0,0,1,1.0958-1.33l11.017-1.0646a1.2182,1.2182,0,0,1,1.328,1.097Z"/><path d="M26.2026,33.384c.0474.3571.54.6783,1.34.5327a1.5664,1.5664,0,0,0,1.2544-1.2951c.2152-1.8463-.8144-5.6507-.3281-7.43a1.4094,1.4094,0,0,1,2.7056-.1274c.6493,1.2647.6242,4.309.9928,5.6669.1565.5722.5126,1.2359,2.0332,1.1637a1.6545,1.6545,0,0,0,1.4721-1.8239c-.1486-2.4339-.3787-2.7168-.4481-4.637-.0168-.4577-.0493-1.3416,1.08-1.4766,1.1213-.1326,1.4577.3228,1.5017.7395.2444,2.3664.261,4.3343,2.3252,3.9874a1.1457,1.1457,0,0,0,.9573-.9727L40.3668,20.25l-1.183-1.1775L26.3006,20.3168l-1.0619,1.344S25.832,30.5914,26.2026,33.384Z"/><rect x="18.4817" y="26.4189" width="5.6599" height="1.0911" transform="translate(-13.0504 26.2458) rotate(-50.4804)"/><path d="M24.9807,22.5108a1.93,1.93,0,1,0,.2634,2.7172A1.9287,1.9287,0,0,0,24.9807,22.5108Zm-.497,2.0922a.9475.9475,0,1,1-.127-1.3338A.9473.9473,0,0,1,24.4837,24.603Z"/><path d="M20.9761,36.1616l-2.83-2.3317a2.2159,2.2159,0,0,1-.3015-3.1193l.8413.6937a1.1256,1.1256,0,0,0,.1539,1.5827L21.67,35.3187Z"/><path d="M17.8013,31.2275h0a1.4294,1.4294,0,0,1-.1961-2.0132l1.8179-2.2051a1.4272,1.4272,0,0,1,2.0119-.1949h0a1.4286,1.4286,0,0,1,.1963,2.0125L19.8132,31.033A1.4289,1.4289,0,0,1,17.8013,31.2275Z"/><path d="M24.3042,36.1285l-1.1588-.9541a1.598,1.598,0,0,0-2.2437.2186l-.0612.075a1.593,1.593,0,0,0,.2168,2.2413l1.1584.9541h0l1.5646,1.29.6933-.8433-1.1428-.9419.7-.8488,1.1432.9427.6939-.8441-1.5636-1.2891Z"/><polygon points="46.766 26.903 47.458 26.061 43.089 22.461 42.398 23.304 46.766 26.903"/><path d="M43.1913,20.7509a1.93,1.93,0,1,0,.2622,2.718A1.931,1.931,0,0,0,43.1913,20.7509Zm-.497,2.0922a.948.948,0,0,1-1.3329.1287.9488.9488,0,0,1,.5114-1.6755.9488.9488,0,0,1,.8216,1.5468Z"/><path d="M47.0184,33.6452,49.35,30.8136a2.2175,2.2175,0,0,0-.3013-3.1189l-.6939.8421a1.1268,1.1268,0,0,1,.1535,1.5827l-2.3341,2.8317Z"/><path d="M49.1912,28.193h0a1.43,1.43,0,0,0-.1955-2.0117L46.79,24.3638a1.43,1.43,0,0,0-2.0141.1949h0a1.4289,1.4289,0,0,0,.1949,2.0121l2.2064,1.8171A1.43,1.43,0,0,0,49.1912,28.193Z"/><path d="M43.7473,34.25,44.7,33.092a1.5982,1.5982,0,0,1,2.2443-.2163l.0744.0619A1.5961,1.5961,0,0,1,47.236,35.18l-.9537,1.1581h0l-1.2913,1.5638-.8411-.6937.9417-1.1424-.85-.7008L43.3,36.5088l-.8407-.6945L43.7473,34.25Z"/><path d="M35.3563,17.7014l.1675,1.7236-5.8784.5682L29.4782,18.27a2.9528,2.9528,0,1,1,5.8781-.569Zm-1.097-.2861a.5849.5849,0,0,0-.6379-.5252l-2.5957.251a.5883.5883,0,0,0-.3948.21.584.584,0,0,0,.5067.953l2.5951-.2514a.5777.5777,0,0,0,.3952-.2079A.5869.5869,0,0,0,34.2593,17.4153Z"/></g><path class="cls-9" d="M38.8288,56.0428c-.056-2.76-1.0619-10.9916-1.0619-10.9916l-4.0439.3907s.7947,8.186,1.056,10.9143c.0623.6653.4351,1.6924,2.1865,1.5231C38.7343,57.708,38.8407,56.6962,38.8288,56.0428Zm-2.8638-.1306c-.4708.045-.6036-.9324-.6391-1.3353-.19-2.0989-.8121-8.3943-.8121-8.3943l.9458-.09s.6254,6.2359.8056,8.3154C36.3022,54.8377,36.4306,55.8664,35.965,55.9121Z"/><path class="cls-9" d="M40.0552,18.6153,26.816,19.8946a1.2184,1.2184,0,0,0-1.0938,1.3306l2.355,24.3571a1.2159,1.2159,0,0,0,1.3286,1.095l13.24-1.2793a1.2192,1.2192,0,0,0,1.0933-1.3294L41.3847,19.7107A1.2172,1.2172,0,0,0,40.0552,18.6153Zm2.3734,24.5576a1.2187,1.2187,0,0,1-1.094,1.3306L30.3177,45.5673A1.2169,1.2169,0,0,1,28.99,44.4719L26.8292,22.1371a1.22,1.22,0,0,1,1.0962-1.33l11.0157-1.0646a1.2205,1.2205,0,0,1,1.3306,1.097Z"/><path class="cls-9" d="M27.1009,33.384c.047.3571.538.6783,1.341.5327a1.5667,1.5667,0,0,0,1.2546-1.2951c.2145-1.8463-.8146-5.6507-.33-7.43a1.41,1.41,0,0,1,2.7064-.1274c.6515,1.2647.6252,4.309.9934,5.6669.1556.5722.5124,1.2359,2.0332,1.1637a1.6548,1.6548,0,0,0,1.4715-1.8239c-.1491-2.4339-.3788-2.7168-.4488-4.637-.016-.4577-.0482-1.3416,1.0806-1.4766,1.1215-.1326,1.4584.3228,1.5012.7395.2445,2.3664.2622,4.3343,2.3252,3.9874a1.1466,1.1466,0,0,0,.9571-.9727L41.2651,20.25l-1.1818-1.1775L27.1982,20.3168l-1.06,1.344S26.7306,30.5914,27.1009,33.384Z"/><rect class="cls-9" x="19.3805" y="26.4185" width="5.6605" height="1.0918" transform="translate(-12.7234 26.9517) rotate(-50.5007)"/><path class="cls-9" d="M25.8784,22.5108a1.9292,1.9292,0,1,0,.2628,2.7172A1.9282,1.9282,0,0,0,25.8784,22.5108ZM25.384,24.603a.95.95,0,0,1-1.3341.129.9494.9494,0,0,1,.5106-1.6755.948.948,0,0,1,.8235,1.5465Z"/><path class="cls-9" d="M21.8756,36.1616,19.0445,33.83a2.2151,2.2151,0,0,1-.3009-3.1193l.8418.6937a1.1262,1.1262,0,0,0,.1527,1.5827l2.83,2.3317Z"/><path class="cls-9" d="M18.7,31.2275h0a1.4316,1.4316,0,0,1-.1951-2.0132l1.8175-2.2051a1.4279,1.4279,0,0,1,2.0125-.1949h0a1.4309,1.4309,0,0,1,.1963,2.0125L20.7115,31.033A1.4288,1.4288,0,0,1,18.7,31.2275Z"/><path class="cls-9" d="M25.2031,36.1285l-1.1588-.9541a1.5984,1.5984,0,0,0-2.2441.2186l-.0608.075a1.5939,1.5939,0,0,0,.2165,2.2413l1.1573.9541h0l1.5656,1.29.6931-.8433-1.1408-.9419.6979-.8488,1.1434.9427.6937-.8441-1.563-1.2891Z"/><polygon class="cls-9" points="47.665 26.903 48.357 26.061 43.989 22.461 43.296 23.304 47.665 26.903"/><path class="cls-9" d="M44.0908,20.7509a1.9306,1.9306,0,1,0,.2616,2.718A1.931,1.931,0,0,0,44.0908,20.7509ZM43.594,22.843a.95.95,0,0,1-1.3342.1287.9479.9479,0,1,1,1.3342-.1287Z"/><path class="cls-9" d="M47.9161,33.6452l2.3329-2.8317a2.2169,2.2169,0,0,0-.3009-3.1189l-.6943.8421a1.1259,1.1259,0,0,1,.1533,1.5827l-2.3343,2.8317Z"/><path class="cls-9" d="M50.0884,28.193h0a1.4272,1.4272,0,0,0-.1931-2.0117l-2.207-1.8175a1.4274,1.4274,0,0,0-2.0123.1949h0a1.43,1.43,0,0,0,.1938,2.0121l2.2076,1.8171A1.4268,1.4268,0,0,0,50.0884,28.193Z"/><path class="cls-9" d="M44.645,34.25l.953-1.1581a1.5977,1.5977,0,0,1,2.2437-.2163l.0743.0619a1.5948,1.5948,0,0,1,.2174,2.2425L47.18,36.3384h0l-1.2878,1.5638-.8441-.6937.9411-1.1424-.8492-.7008-.9409,1.1436-.8431-.6945L44.645,34.25Z"/><path class="cls-9" d="M36.2544,17.7014l.1673,1.7236-5.8782.5682-.166-1.7228a2.9521,2.9521,0,1,1,5.8768-.569Zm-1.0968-.2861A.5838.5838,0,0,0,34.52,16.89l-2.5951.251a.5841.5841,0,0,0,.1118,1.1629l2.5957-.2514a.5712.5712,0,0,0,.394-.2079A.5816.5816,0,0,0,35.1576,17.4153Z"/></g></g></g></g></g></svg>