<svg xmlns="http://www.w3.org/2000/svg" viewBox="0 0 137.6333 43.381"><defs><style>.cls-1{fill:#3c0c41;}.cls-1,.cls-2{fill-rule:evenodd;}.cls-2{fill:#e48f39;}</style></defs><title>Asset 18</title><g id="Layer_2" data-name="Layer 2"><g id="CLIENT"><path class="cls-1" d="M64.4034,6.0873C62.54,3.2768,62.212.0024,56.0157,1.7993,51.9551,2.976,51.4424,3.6284,48.2276,8.46c-3.2979-.2207-13.6465.6943-15.8-.26-6.583-2.917-8.9776,2.4317-12.3535,3.7237a6.2716,6.2716,0,0,0-8.0576-2.0752c-3.0127,1.2617-.8653.65-3.9834.2187-3.4756-.48-4.46,2.0986-6.5391,4.5684-2.6123,3.1093-1.251,5.2822-.04,8.2324,1.0546,2.57,1.0341,1.6308,2.6982,3.1357-.5693,3.2666-3.0713,7.3194-.9678,10.9688,1.7871,3.0986,7.4444,2.3408,10.1035.4668.9073,1.3486.5772,5.1211,5.5069,4.876,3.6689-.1817,20.6455-4.4551,26.44-4.5684l.45,1.0449c.9111,2.54,1.499,5.19,6.6211,4.4678,3.5-.4912,6.8574-1.4483,10.6142-2.0029,11.9864-1.7686,22.9581-2.9854,34.8165-3.8243,2.9589-.2089,1.7783,1.1348,5.2666.5391a26.3563,26.3563,0,0,1,5.2607-.6592c17.9268-.4961,17.7686.624,17.7109-8.1552,2.7578-.2217,3.709,1.3125,6.5-.6514,1.7139-1.2061,1.8086-3.5147,1.8887-6.3516.1191-4.2383-3.3555-4.9482.2813-8.1025,4.4707-3.877,3.8388-13.5664-1.3243-13.96-1.2685-.0967-2.2539.2862-3.3281.27-1.5185-.02-1.834-.5166-3.8183-.3144-2.502.2539-3.66,1.76-5.544,2.5176-2.0146-1.3418-3.35-3.1612-7.1846-1.9629-2.7685.8632-4.1357,2.4746-5.5527,4.5185C103.8985,4.0121,103.7872.7807,98.4317.16c-7.54-.874-4.5264,4.917-9.7031,4.6914-3.7354-.1621-9.0459-2.7676-12.54-1.585C72.9483,4.3637,67.97,6.7914,64.4034,6.0873Z"/><path class="cls-2" d="M14.8262,22.4409a.4706.4706,0,0,0-.3066.414,48.9128,48.9128,0,0,1-2.25,7.0772,4.018,4.018,0,0,1-1.4815,2.0771,2.9151,2.9151,0,0,1-1.6738.6084c-.5156.001-1.0293.1192-1.5469.1524-.67.0439-.7871-.0635-.9131-.7334a3.9086,3.9086,0,0,1,.2413-1.9522q1.9672-6.0409,4.1933-11.9951.8086-2.1431,1.6436-4.2774a3.21,3.21,0,0,1,2.5459-2.2128,1.7237,1.7237,0,0,1,1.96.9169,3.0945,3.0945,0,0,1,.3975,1.5743,13.1657,13.1657,0,0,0,.9892,4.1836c.0967.3.2745.36.503.1338.2666-.2657.5312-.5313.7734-.8184a42.2751,42.2751,0,0,1,7.0156-6.4,10.1285,10.1285,0,0,1,2.4844-1.1973.9776.9776,0,0,1,.9024.1426,2.1207,2.1207,0,0,1,.93,2.2461,13.5525,13.5525,0,0,1-1.4863,3.4883c-1.1054,1.959-2.1972,3.9258-3.3222,5.8721a23.9217,23.9217,0,0,0-2.5215,6.3252,3.1962,3.1962,0,0,1-2.2071,2.5322,8.1989,8.1989,0,0,0-1.82.9863c-.51.3242-.7343.2354-.85-.3379a6.2889,6.2889,0,0,1,.1035-3.4892,32.2931,32.2931,0,0,0,.8809-3.1621,1.5463,1.5463,0,0,0,.0537-1.0147c-.4307-.0264-.5469.3037-.6592.5811a7.8655,7.8655,0,0,1-2.5019,2.93c-.5391.4541-.8819.3594-1.2578-.2685a4.16,4.16,0,0,1-.6-2.1387A10.4491,10.4491,0,0,0,14.8262,22.4409Z"/><path class="cls-2" d="M17.9229,36.2768a14.9461,14.9461,0,0,1,3.834-1.0352,21.0354,21.0354,0,0,0,2.4394-.5742,75.9575,75.9575,0,0,1,8.3555-1.8418C37.97,31.85,43.4024,30.9662,48.7862,29.79a74.4049,74.4049,0,0,1,9.8418-1.3936,15.1919,15.1919,0,0,1,2.4219.0049c.7929.0625.9746.4014.5947,1.0781a6.72,6.72,0,0,1-1.74,2.3408c-.0234.0166-.0527.0332-.0634.0577-.5137,1.0839-1.3545,1.9746-1.9092,3.0517a.96.96,0,0,0,.8818.05,165.3389,165.3389,0,0,1,17.4219-2.7344c2.8047-.3388,5.6045-.7714,8.4268-.8925,3.9785-.1719,7.9423-.55,11.9218-.6875a4.9474,4.9474,0,0,1,1.0332.0722c.417.0733.5762.3321.3506.6817a2.4272,2.4272,0,0,0-.3847,1.7246c.0468.3379-.1641.5312-.4239.6875a3.1337,3.1337,0,0,1-1.5644.4394c-.8653.0215-1.7315.045-2.5967.0489-3.9268.0205-7.8359.3691-11.75.6171-3.77.2383-7.53.6133-11.293.961-5.6562.5244-11.2988,1.168-16.8955,2.164-.7383.1319-1.4785.2491-2.22.3614a1.9789,1.9789,0,0,1-.6016.0176.7278.7278,0,0,1-.64-1.0606,2.0869,2.0869,0,0,1,.8779-1.1465,14.808,14.808,0,0,0,2.2354-1.7646c.6377-.584,1.498-.8672,2.1328-1.4658a3.4449,3.4449,0,0,0,1.1875-1.5508,2.103,2.103,0,0,0,.0234-.375,11.3634,11.3634,0,0,0-3.3574.21q-8.767,1.32-17.5469,2.543c-2.8545.3975-5.6992.873-8.5566,1.2461-2.5742.3369-5.1319.7666-7.6856,1.2246A1.4813,1.4813,0,0,1,17.9229,36.2768Z"/><path class="cls-2" d="M56.81,15.6088c.1963.2871.5127.1944.7852.2237A25.0716,25.0716,0,0,1,63.6065,16.98a6.9491,6.9491,0,0,1,1.83.957,4.1165,4.1165,0,0,1,.8467.86c.7666,1.0469.7,1.7207-.293,2.5264a11.9045,11.9045,0,0,1-4.2315,2.2871q-6.6064,1.8808-13.2177,3.75a17.4337,17.4337,0,0,1-3.002.3271c-.665.07-.9248-.4062-.6064-1.02a3.3582,3.3582,0,0,1,.9463-.9961,17.3165,17.3165,0,0,1,4.9482-2.789,66.1553,66.1553,0,0,1,8.07-2.24,3.2166,3.2166,0,0,0,1.501-.5537,2.0276,2.0276,0,0,0-1.251-.28c-1.7314.0274-3.45.2207-5.17.3985-1.1172.1152-2.2315.2588-3.3574.3008a2.6411,2.6411,0,0,1-2.6309-1.6036c-.1689-.3339-.2773-.7021-.4736-1.0175a1.0425,1.0425,0,0,1,.1875-1.4668,6.3127,6.3127,0,0,1,.5576-.541,34.2147,34.2147,0,0,1,8.9336-5.0206,16.2439,16.2439,0,0,1,6.37-.95c.1426.0087.2881.0078.4307.0292a.9467.9467,0,0,1,.8183,1.4375,2.9227,2.9227,0,0,1-.8379,1.1944A6.1907,6.1907,0,0,1,61.11,14.0463a18.5045,18.5045,0,0,0-4.0352,1.252A.3509.3509,0,0,0,56.81,15.6088Z"/><path class="cls-2" d="M37.38,11.4174a4.7328,4.7328,0,0,1,1.35.082c.3565.1094.4571.3438.2715.6631a3.8226,3.8226,0,0,1-.4814.6084,21.3786,21.3786,0,0,0-1.5869,1.94,5.9844,5.9844,0,0,0-.8428,1.5058,49.702,49.702,0,0,1-2.2256,4.9678,9.5091,9.5091,0,0,0-.59,1.4365,1.1659,1.1659,0,0,0,1.3173,1.5928,3.2155,3.2155,0,0,0,1.96-.8164,6.509,6.509,0,0,0,1.2656-1.6328c1.585-2.6826,3.0381-5.4356,4.4385-8.2168.1563-.3086.3154-.6162.4971-.91a1.96,1.96,0,0,1,1.7178-.9941c.749-.0088,1.5.0058,2.248.0429a1.1221,1.1221,0,0,1,1.1143.6739,1.2649,1.2649,0,0,1-.294,1.2812.2226.2226,0,0,1-.0537.0664,3.7305,3.7305,0,0,0-1.4824,2.7149,3.6171,3.6171,0,0,1-.3955,1.0469c-1.0391,2.0273-2.128,4.0273-3.3076,5.9775a13.7559,13.7559,0,0,1-4.875,4.9385,8.656,8.656,0,0,1-6.4561,1.2793,8.888,8.888,0,0,1-2.5781-1.1934,1.2451,1.2451,0,0,1-.6153-1.24,8.7189,8.7189,0,0,1,.4795-2.5391c.9073-2.43,1.8086-4.8613,2.752-7.2764a27.9776,27.9776,0,0,1,1.7764-3.3623,1.9854,1.9854,0,0,1,.5966-.6162c.5342-.3926,1.0889-.7636,1.5889-1.1963A3.18,3.18,0,0,1,37.38,11.4174Z"/><path class="cls-2" d="M121.2959,19.3666c-.1132-.2773-.3828-.34-.6162-.4306a2.151,2.151,0,0,1-.7324-.4463.7565.7565,0,0,1-.0889-1.207,3.8264,3.8264,0,0,1,1.4942-1.1524,10.9816,10.9816,0,0,1,7.5117-.5879c.6524.1885.6094.1944.3721.8018-.3281.8388-1.0156,1.4619-1.3272,2.3056-.0449.1192-.1943.212-.3134.2891-2.5889,1.667-5.044,3.5586-7.92,4.748-.8789.3633-1.7529.7364-2.63,1.1016a12.5748,12.5748,0,0,0-1.916.99,3.92,3.92,0,0,1-4.11-.0478,1.4771,1.4771,0,0,1-.6768-1.73,13.903,13.903,0,0,1,1.04-3.2871,27.9426,27.9426,0,0,1,4.3437-6.4238,32.5335,32.5335,0,0,1,7.89-6.4024c.6621-.4072,1.3212-.82,1.9853-1.2275a3.7212,3.7212,0,0,1,1.0244-.45,1.7865,1.7865,0,0,1,1.9961.668,2.646,2.646,0,0,1-1.0195,4.1728,9.1318,9.1318,0,0,1-1.2276.4111,8.8213,8.8213,0,0,0-3.5537,1.9,30.6082,30.6082,0,0,0-5.6933,6.47c-.211.331-.6543.7363-.4082,1.0605.2949.39.8017.02,1.1914-.1064.9033-.295,1.791-.6377,2.6875-.9551A1.081,1.081,0,0,0,121.2959,19.3666Z"/><path class="cls-2" d="M88.127,9.8578a8.4316,8.4316,0,0,1-3.2129,1.1006c-.9355.2012-1.8965.1045-2.8359.2842a12.1652,12.1652,0,0,0-2.7041.88,2.5093,2.5093,0,0,0-1.2207,1.1631,96.7906,96.7906,0,0,0-5.95,13.3262c-.2237.623-.4658,1.24-.6992,1.86a3.4764,3.4764,0,0,1-2.22,2.1523,22.0319,22.0319,0,0,0-2.0908.8174c-.6435.2979-.9062.1543-1.0176-.542a5.9612,5.9612,0,0,1,.3662-2.8867c.9239-2.7324,2.002-5.4023,3.1768-8.0351.8818-1.9746,1.8174-3.9239,2.8652-5.8164.0694-.125.1426-.251.2012-.3819.3154-.6982.1992-.875-.583-.8174a31.8873,31.8873,0,0,1-3.8037.0694,3.5767,3.5767,0,0,1-1.0215-.1573c-.8193-.2851-.9756-.9453-.3154-1.4921a11.062,11.062,0,0,1,1.4365-.959,11.6852,11.6852,0,0,1,4.0811-1.3438c.9941-.166,1.9814-.3711,2.9707-.5664a4.5761,4.5761,0,0,0,1.4287-.5937,4.3751,4.3751,0,0,1,1.7754-.6426c.57-.0586,1.0947-.0654,1.4082.55.1826.3584.55.3623.9023.39a21.7088,21.7088,0,0,1,4.5225.67A13.35,13.35,0,0,1,88.127,9.8578Z"/><path class="cls-2" d="M104.47,18.6108a3.5033,3.5033,0,0,0,.8623-1.17,34.0109,34.0109,0,0,1,3.084-4.4883c1.28-1.5977,2.42-3.3018,3.7412-4.8711a6.9462,6.9462,0,0,1,3.5439-2.1875,1.0914,1.0914,0,0,1,.6768-.0469c.4433.1523.5928.457.3594.8594a14.0117,14.0117,0,0,1-.9688,1.5332,27.1467,27.1467,0,0,0-3.2656,5.084,2.8165,2.8165,0,0,1-.2988.5244c-1.8438,2.4482-3.2442,5.1787-4.9493,7.7138-.2568.3838-.5244.7608-.7851,1.14a7.83,7.83,0,0,1-4.03,2.6953c-.3418.1279-.55-.043-.7432-.2764a1.6552,1.6552,0,0,1-.2617-1.1523q.0147-2.3379.0156-4.6729a1.3217,1.3217,0,0,0-.2607-1.0205,4.22,4.22,0,0,0-.7744,1.8731c-.1553.6435-.2608,1.3-.38,1.9521a7.7989,7.7989,0,0,1-1.1426,2.8741c-.4.6171-.8642,1.166-1.7588.9023a1.5255,1.5255,0,0,0-.9941.23c-.291.125-.5791.2558-.875.3711-.2607.1025-.3857-.0176-.3789-.2774a5.8662,5.8662,0,0,1,.0547-.7754,7.0348,7.0348,0,0,1,.6025-1.9785c1.27-2.625,2.2373-5.375,3.335-8.07a22.1464,22.1464,0,0,1,2.41-4.582,4.2136,4.2136,0,0,1,2.8965-1.5313.4114.4114,0,0,1,.5186.5108,12.4283,12.4283,0,0,0,.19,3.248,21.6815,21.6815,0,0,1-.4121,4.6436A1.5558,1.5558,0,0,0,104.47,18.6108Z"/><path class="cls-2" d="M77.9415,26.6987c.7451-1.1055,1.4834-2.1582,2.2919-3.1592,2.7383-3.3848,5.4678-6.7735,8.0606-10.2725.7549-1.0195,1.5674-1.9931,2.3945-2.9551A3.1593,3.1593,0,0,1,92.586,9.2006,21.21,21.21,0,0,1,96.01,8.7514c.8906-.0088.9981.1514.7969,1.0361a12.9408,12.9408,0,0,1-.7119,1.9444c-1.3418,3.3193-2.2578,6.7763-3.3184,10.1865q-.6416,2.0625-1.2334,4.1416a.9236.9236,0,0,1-.9775.7773c-.98.0245-1.9571.1045-2.9375.1387-.6553.0215-.77-.1279-.6367-.7617a1.882,1.882,0,0,1,.1562-.582c.6182-1.03.68-2.2539,1.169-3.3272a2.21,2.21,0,0,0,.2158-.92.8309.8309,0,0,0-1.1543-.8623,1.5681,1.5681,0,0,0-.5918.35,13.9141,13.9141,0,0,0-3.1026,3.791,4.5958,4.5958,0,0,1-1.583,1.9043,1.33,1.33,0,0,1-1.2949.2041,3.8276,3.8276,0,0,0-1.8838-.0351A1.448,1.448,0,0,1,77.9415,26.6987ZM91.9893,12.0053a2.0174,2.0174,0,0,0-.7871.98,1.6223,1.6223,0,0,1-.6758.9638.7064.7064,0,0,0-.2832.4209,5.0869,5.0869,0,0,1-.914,1.3545,6.1039,6.1039,0,0,0-.9268,1.4483c-.4561.998-.4131,1.0918.6562,1.22.0586.0068.1153.01.1729.0147,1.0752.0878,1.248-.0215,1.5312-1.0459q.6387-2.3292,1.2549-4.6651C92.0713,12.4916,92.1856,12.27,91.9893,12.0053Z"/><path class="cls-2" d="M6.669,18.9135c-.1025.1768-.15.2783-.2148.3672-.0977.1328-.1768.3291-.3887.2461-.1485-.0566-.1758-.2246-.1719-.3691A1.9343,1.9343,0,0,0,5.668,18.16c-.2-.3682-.0322-.73.0576-1.0908a4.6919,4.6919,0,0,0,.3262-1.36c-.4687.1407-.4726.5547-.6777.8067-.1035.1289-.1719.331-.3916.2129-.1846-.1-.35-.27-.27-.4873A2.8493,2.8493,0,0,1,5.4092,15.06c.416-.375.5625.07.8213.3887.374-.8467.7178-1.6289,1.0654-2.4092a1.7064,1.7064,0,0,1,.6055-.8213.3353.3353,0,0,1,.4-.0264.2888.2888,0,0,1,.08.3877c-.209.41-.4453.8076-.6572,1.2158-.1416.2745-.4082.5889.2353.6026.2949.0078.22.3066.1494.4805-.1924.4814-.4287.9433-.626,1.4218-.1044.251-.35.4844-.165.8008.335.001.4053-.2891.5361-.4951.3887-.6065.7647-1.2217,1.1407-1.8369.1709-.2793.4091-.64.7246-.4434.3613.2246.0371.5791-.127.8184a19.2889,19.2889,0,0,0-2.0322,4.1894c-.0508.1348-.0986.2715-.1611.4-.0645.1309-.15.2549-.3213.24-.1748-.0137-.2276-.1592-.27-.2959C6.7413,19.46,6.8682,19.2172,6.669,18.9135Z"/><path class="cls-2" d="M55.8379,7.1733c.0118-.2217-.1191-.3047-.206-.4121a.4008.4008,0,0,1,.1172-.6563,1.4588,1.4588,0,0,1,.3818-.1963c.8779-.2793,1.7559-.5693,2.6436-.8154.6992-.1934.9736.0518.9365.8164-.0088.1953.04.2617.206.2783a.9624.9624,0,0,1,.64.2139A1.5173,1.5173,0,0,1,60.71,6.62c-.0957.27-.3555.2647-.5566.3272q-1.8179.5668-3.6407,1.11A4.8234,4.8234,0,0,0,54.628,9.0785a1.2539,1.2539,0,0,1-1.27.3536c-.3828-.1221-.455-.3213-.2021-.63a3.0344,3.0344,0,0,1,1.02-.7852C54.7422,7.7358,55.3018,7.4457,55.8379,7.1733Z"/><path class="cls-2" d="M118.3067,32.2709c-.1377.6446-.2412,1.1485-.3555,1.6494a1.902,1.902,0,0,1-.1738.5723.6215.6215,0,0,1-.8408.21c-.3242-.1407-.0957-.4063-.0293-.5938.5185-1.457,1.0537-2.9082,1.6474-4.5371.4151.6631.335,1.336.69,1.918.3789-.3086.4736-.75.7324-1.0694.2256-.2783.3711-.7646.8037-.6513.4024.1064.291.5791.3086.9072.0615,1.1211.1016,2.2432.1455,3.3623.0088.2324.0186.4668-.2676.57-.4267.1543-.7392-.0713-.6835-.539a4.7024,4.7024,0,0,0-.0079-1.7793c-.6357.3945-.7148,1.17-1.2461,1.6533C118.6475,33.476,118.8829,32.7914,118.3067,32.2709Z"/><path class="cls-2" d="M127.72,25.351a1.7791,1.7791,0,0,0,.8213.3965,2.41,2.41,0,0,1,.7607.3975.63.63,0,0,1,.17.8486.6188.6188,0,0,1-.791.3506c-.5713-.1983-1.1377-.4121-1.6943-.6465a6.4175,6.4175,0,0,1-2.1953-1.17c-.1221-.1221-.2559-.2334-.3682-.3643a.4382.4382,0,0,1-.07-.5566c.1162-.168.3066-.1016.4746-.0489.7129.2266,1.4287.4512,2.1426.6778a.8536.8536,0,0,0,.664.0635c-.51-1.0137-.457-1.585,1.09-1.3594.0488-.28-.2012-.4561-.2383-.6914a.7634.7634,0,0,1,.2988-.7617c.2461-.1983.48-.0831.7149.0546a1.2064,1.2064,0,0,1,.5674.6221c.1386.3643.0781.66-.3116.7442-.4668.1-.71.2734-.6328.8076.0567.3945-.2383.5381-.6045.5615C128.27,25.2924,128.01,25.1244,127.72,25.351Z"/><path class="cls-2" d="M105.0352,35.0795c-1.1279-.0468-1.4512-.4433-1.15-1.5527a8.8023,8.8023,0,0,0,.3731-2.1924,1.6357,1.6357,0,0,1,1.9707-1.63,1.1525,1.1525,0,0,1,.8486,1.5362,4.3448,4.3448,0,0,1-.3174.71,1.8789,1.8789,0,0,0-.2764,1.3184,1.6749,1.6749,0,0,1-.1767,1.0068A1.111,1.111,0,0,1,105.0352,35.0795Zm1.1895-4.0918c-.0342-.2158-.1192-.3945-.3487-.4375-.251-.0439-.6084.3282-.5918.6172.0137.2266.1475.4014.375.3848C105.9874,31.5287,106.1338,31.2719,106.2247,30.9877Zm-.6192,2.6973c-.0107-.1914-.0859-.3516-.2978-.3467a.3609.3609,0,0,0-.3584.4053c-.002.1748.0869.3672.29.3594C105.4678,34.0932,105.5586,33.894,105.6055,33.685Z"/><path class="cls-2" d="M102.0293,35.0825c-1.22-.0381-1.6376-.5723-1.24-1.6319a4.7275,4.7275,0,0,0,.3272-1.93,2.1946,2.1946,0,0,1,.831-1.6494,1.4276,1.4276,0,0,1,1.55-.0068,1.0925,1.0925,0,0,1,.5059,1.1914,2.6814,2.6814,0,0,1-.2822.7187,2.3359,2.3359,0,0,0-.3614,1.6426,1.5381,1.5381,0,0,1-.2373.9922C102.8692,34.8881,102.5137,35.1791,102.0293,35.0825Zm1.0782-4.1045c-.045-.211-.1241-.3965-.3584-.4307-.2539-.0361-.6016.3447-.5782.6318.0186.2266.1534.4.3819.377C102.875,31.5209,103.0215,31.2631,103.1075,30.978Zm-.62,2.6826c-.0245-.1963-.1153-.3447-.3252-.3194a.3655.3655,0,0,0-.3311.43c.0147.1826.125.3535.3242.33C102.3848,34.0737,102.4551,33.8666,102.4874,33.6606Z"/><path class="cls-2" d="M109.9971,34.8256c-1.0781-.01-1.6572-.5683-1.6015-1.6035A4.0733,4.0733,0,0,1,109.97,30.184c.6523-.5263,1.0713-.4453,1.5957.2276a2.04,2.04,0,0,1,.4062,1.8613,7.88,7.88,0,0,1-.8584,1.9639A1.0644,1.0644,0,0,1,109.9971,34.8256Zm1.1192-2.67c-.1954-.3662-.0909-.9551-.5577-1.0859-.51-.1416-.6767.413-.9238.7382a1.2089,1.2089,0,0,0-.2041.4668,1.92,1.92,0,0,0,.0274,1.2618c.2529.5361.7265.6,1.0683.1367A4.777,4.777,0,0,0,111.1163,32.1557Z"/><path class="cls-2" d="M117.128,29.5873c-.086.67-.33,1.043-.9141,1.1084a.9364.9364,0,0,0-.5488.2207c-.2734.2481-.2285.4737.1328.585.1592.0469.3643,0,.375.251a.5553.5553,0,0,1-.2236.4463.3449.3449,0,0,1-.1485.0849c-.88.1826-.9765.8311-.9687,1.5713a1.1776,1.1776,0,0,1-.3145.9551.5805.5805,0,0,1-.6347.1533.4418.4418,0,0,1-.23-.583,25.9017,25.9017,0,0,0,.63-3.8262.7117.7117,0,0,1,.5625-.6845A9.8921,9.8921,0,0,1,117.128,29.5873Z"/><path class="cls-2" d="M99.2393,6.7153c.1191.3935.47.4238.6426.6455.0742.09.1416.1972.0625.3066a.22.22,0,0,1-.3115.0293,16.1317,16.1317,0,0,0-3.1338-1.4385c-.2657-.0947-.2735-.2763.0058-.41.0508-.0244.125-.0342.15-.0733a1.1473,1.1473,0,0,1,1.4473-.667,18.6205,18.6205,0,0,1,2.6807.9639,1.1015,1.1015,0,0,1,.2275.1211c.1582.1191.3965.2549.2715.4707-.1406.2422-.3545.0391-.5254-.04-.2569-.1182-.63-.4444-.7559-.27C99.7872,6.6479,99.5,6.5678,99.2393,6.7153ZM98.58,6.3012c-.0185.0166-.0547.0371-.0517.05a.6011.6011,0,0,0,.05.1045c.0185-.0176.0556-.0391.0527-.05A.4918.4918,0,0,0,98.58,6.3012Z"/><path class="cls-2" d="M133.6817,10.0473a1.348,1.348,0,0,1-.2217.82c-.3408.5342-.6807,1.0693-1.0449,1.5869-.2734.3887-.6826.4268-1.2285.1582-.4033-.1982-.503-.4414-.31-.9336a5.0982,5.0982,0,0,1,2.2256-2.331c.2158-.1387.3994-.0274.4775.1943A3.0847,3.0847,0,0,1,133.6817,10.0473Z"/><path class="cls-2" d="M132.26,7.6694a.6435.6435,0,0,1-.6973-.376c-.1376-.3623.1407-.5078.3965-.6416.2256-.1191.459-.2246.6924-.3252.1885-.0811.3887-.1348.544.0566a.5365.5365,0,0,1,.0322.5655A1.1349,1.1349,0,0,1,132.26,7.6694Z"/><path class="cls-2" d="M107.2833,35.0112c-.2159.0058-.3721-.0655-.419-.251-.0449-.1729.3232-.5459.49-.4942a.4174.4174,0,0,1,.334.4356C107.669,34.9535,107.461,34.9936,107.2833,35.0112Z"/><path class="cls-2" d="M98.58,6.3012a.4918.4918,0,0,1,.0508.1045c.0029.0107-.0342.0322-.0527.05a.6011.6011,0,0,1-.05-.1045C98.5254,6.3383,98.5616,6.3178,98.58,6.3012Z"/></g></g></svg>