<svg xmlns="http://www.w3.org/2000/svg" viewBox="0 0 210.0859 34.4516"><defs><style>.cls-1,.cls-2{fill:#1a1a1a;}.cls-1,.cls-3,.cls-4,.cls-5{fill-rule:evenodd;}.cls-3{fill:#e93024;}.cls-4{fill:#adc32b;}.cls-5{fill:#0066ae;}</style></defs><title>Asset 4</title><g id="Layer_2" data-name="Layer 2"><g id="CLIENT"><path class="cls-1" d="M60.3135,19.6334h2.1719c4.583,0,7.1718-2.0293,7.1718-6.1856,0-4.4414-3.0664-6.0781-7.7675-6.0781H55.9365V26.9576h4.377Zm0-9.0957h.7734c2.44,0,4.1065.3652,4.1065,2.8847,0,2.5449-1.4,3.0391-3.9854,3.0391h-.8945Z"/><polygon class="cls-1" points="83.252 10.696 83.252 7.37 71.649 7.37 71.649 26.958 83.252 26.958 83.252 23.633 76.022 23.633 76.022 18.333 82.984 18.333 82.984 15.005 76.022 15.005 76.022 10.696 83.252 10.696"/><path class="cls-1" d="M95.0029,18.6959a5.3186,5.3186,0,0,0,4.5811-5.4288c0-4.1816-3.0664-5.8974-7.499-5.8974H86.1631V26.9576h4.374V19.0591h.0615l5.4453,7.8985H101.34Zm-4.4658-8.2081h.5967c2.3213,0,4.0752.4659,4.0752,2.8838,0,2.3907-1.6943,3.0127-4.1045,3.0127h-.5674Z"/><polygon class="cls-1" points="110.055 10.696 114.576 10.696 114.576 7.37 101.156 7.37 101.156 10.696 105.68 10.696 105.68 26.958 110.055 26.958 110.055 10.696"/><path class="cls-1" d="M127.3691,22.8277l1.7266,4.13h4.6709L125.2578,6.8482h-3.3926l-8.748,20.1094h4.6113l1.8457-4.13Zm-1.2177-3.1191h-5.3282l2.47-7.1163h.06Z"/><polygon class="cls-1" points="154.829 26.958 159.236 26.958 155.875 6.848 152.717 6.848 147.422 19.761 141.888 6.848 138.793 6.848 135.014 26.958 139.417 26.958 141.411 14.799 141.47 14.799 146.381 27.216 147.896 27.216 152.986 14.799 153.047 14.799 154.829 26.958"/><rect class="cls-2" x="161.1699" y="7.3697" width="4.376" height="19.5879"/><polygon class="cls-1" points="168.728 26.958 173.102 26.958 173.102 13.656 173.162 13.656 184.974 27.347 188.13 27.347 188.13 7.37 183.756 7.37 183.756 20.54 183.695 20.54 171.881 6.848 168.728 6.848 168.728 26.958"/><path class="cls-1" d="M203.6875,22.8277l1.7266,4.13h4.6718l-8.51-20.1094h-3.3926l-8.75,20.1094h4.6133l1.8447-4.13Zm-1.2187-3.1191h-5.3282l2.4688-7.1163h.0625Z"/><path class="cls-3" d="M24.168,0H35.9131A4.5264,4.5264,0,0,1,39.4385,2c1.5752,2.084,6.4492,9.6884,6.4492,9.6884H34.62a5.7968,5.7968,0,0,1-4.126-1.93C29.0117,7.8589,24.168,0,24.168,0Z"/><path class="cls-4" d="M24.168,26.2564H35.9131a4.5329,4.5329,0,0,0,3.5254-2c1.5752-2.084,6.4492-9.6894,6.4492-9.6894H34.62a5.7983,5.7983,0,0,0-4.126,1.9316C29.0117,18.3961,24.168,26.2564,24.168,26.2564Z"/><path class="cls-5" d="M27.7334,14.5845H15.7266a5.1415,5.1415,0,0,0-4.2774,2.5762C9.6963,19.87,0,34.4127,0,34.4127H11.0772s2.5507.6035,4.914-2.9463c2.3652-3.55,9.6709-14.6993,9.6709-14.6993S27.1543,14.5845,27.7334,14.5845Z"/></g></g></svg>