<svg xmlns="http://www.w3.org/2000/svg" xmlns:xlink="http://www.w3.org/1999/xlink" viewBox="0 0 201.8984 64.5556"><defs><style>.cls-1,.cls-7{fill:#174a8f;}.cls-1,.cls-3{clip-rule:evenodd;}.cls-2,.cls-4{fill:#e28023;}.cls-14,.cls-3{fill:#8fc03c;}.cls-14,.cls-4,.cls-5,.cls-6,.cls-7{fill-rule:evenodd;}.cls-6{fill:#b8312c;}.cls-8{clip-path:url(#clip-path);}.cls-9{fill:url(#radial-gradient);}.cls-10{clip-path:url(#clip-path-2);}.cls-11{fill:url(#radial-gradient-2);}.cls-12{clip-path:url(#clip-path-3);}.cls-13{fill:url(#radial-gradient-3);}.cls-15{clip-path:url(#clip-path-4);}.cls-16{fill:url(#radial-gradient-4);}</style><clipPath id="clip-path"><path class="cls-1" d="M45.06,11.8769A9.6016,9.6016,0,0,1,35.2783,21.28a9.6051,9.6051,0,0,1-9.7939-9.4033,9.6065,9.6065,0,0,1,9.7939-9.4111A9.603,9.603,0,0,1,45.06,11.8769Z"/></clipPath><radialGradient id="radial-gradient" cx="177.6304" cy="14.3686" r="4.9467" gradientTransform="translate(-146.5152) scale(1.0402 1)" gradientUnits="userSpaceOnUse"><stop offset="0" stop-color="#6fc2d3" stop-opacity="0.3"/><stop offset="1" stop-color="#174a8f" stop-opacity="0.2"/></radialGradient><clipPath id="clip-path-2"><ellipse class="cls-2" cx="8.8003" cy="18.4599" rx="8.8027" ry="8.4649"/></clipPath><radialGradient id="radial-gradient-2" cx="151.2926" cy="20.8583" r="7.7045" gradientTransform="translate(-146.5152) scale(1.0402 1)" gradientUnits="userSpaceOnUse"><stop offset="0" stop-color="#ece114" stop-opacity="0.8"/><stop offset="1" stop-color="#e28023" stop-opacity="0.8"/></radialGradient><clipPath id="clip-path-3"><ellipse class="cls-2" cx="37.332" cy="56.0908" rx="8.8046" ry="8.4639"/></clipPath><radialGradient id="radial-gradient-3" cx="179.347" cy="58.5825" r="3.9465" gradientTransform="translate(-146.5152) scale(1.0402 1)" gradientUnits="userSpaceOnUse"><stop offset="0" stop-color="#ece114" stop-opacity="0.6"/><stop offset="1" stop-color="#e28023" stop-opacity="0.8"/></radialGradient><clipPath id="clip-path-4"><path class="cls-3" d="M40.039,35.1064A13.5793,13.5793,0,0,1,26.2,48.417,13.58,13.58,0,0,1,12.3447,35.1064,13.5842,13.5842,0,0,1,26.2,21.792,13.5831,13.5831,0,0,1,40.039,35.1064Z"/></clipPath><radialGradient id="radial-gradient-4" cx="172.6157" cy="37.2558" r="11.8323" gradientTransform="translate(-146.5152) scale(1.0402 1)" gradientUnits="userSpaceOnUse"><stop offset="0" stop-color="#f0e323" stop-opacity="0.6"/><stop offset="1" stop-color="#f0e323" stop-opacity="0"/></radialGradient></defs><title>Asset 5</title><g id="Layer_2" data-name="Layer 2"><g id="CLIENT"><polygon class="cls-4" points="17.605 26.287 16.203 27.692 12.792 24.557 14.193 23.14 17.605 26.287"/><path class="cls-5" d="M139.5595,40.4248c-1.1318,0-2.2363.0312-3.3466-.0284-.2276-.0166-.501-.3291-.6739-.56-2.08-2.874-4.1328-5.7705-6.2041-8.6553a2.1758,2.1758,0,0,0-.7548-.7187V40.38H125.247V24.6806c1.0831,0,2.1719-.0371,3.2686.0274.2295.0166.4883.3506.6553.5947q3.167,4.437,6.3183,8.89c.1748.2491.3565.4981.7071.9668V24.7373h3.3632Z"/><path class="cls-5" d="M79.5459,35.1533V24.7275h3.3486V40.4248c-1.1406,0-2.2617.0312-3.3838-.0313-.2353-.0137-.4951-.3467-.6767-.5869q-3.1041-4.32-6.1983-8.6543a2.04,2.04,0,0,0-.7-.665v9.86H68.5371c-.0156-.2656-.044-.5049-.044-.751-.0078-4.6875.0079-9.3671-.0156-14.05-.0088-.7011.2295-.8193.9317-.91a3.7756,3.7756,0,0,1,4.1367,2.0459c1.61,2.626,3.5254,5.0732,5.3349,7.5976C79.0322,34.5048,79.208,34.72,79.5459,35.1533Z"/><path class="cls-5" d="M86.8867,40.5283V24.7841a1.6792,1.6792,0,0,1,.4395-.1035c2.6464.01,5.3056-.0488,7.9443.086,3.7715.1943,6.0879,2.2461,6.6973,5.8222a9.5823,9.5823,0,0,1-.84,6.4024,5.7063,5.7063,0,0,1-4.5693,3.1679C93.372,40.4433,90.1758,40.4248,86.8867,40.5283Zm3.6582-2.85c1.6563,0,3.2207.0849,4.7725-.0293A2.8793,2.8793,0,0,0,98.03,35.2763a10.3568,10.3568,0,0,0,.0791-5.0859,3.1431,3.1431,0,0,0-1.8916-2.3926c-1.8233-.7422-3.75-.4062-5.6729-.4863Z"/><path class="cls-5" d="M113.2969,40.7373c-.836-.1035-1.69-.1553-2.5127-.3125a7.1324,7.1324,0,0,1-6.087-6.418,12.716,12.716,0,0,1,.3985-4.5625,6.6421,6.6421,0,0,1,4.6162-4.4814,11.5753,11.5753,0,0,1,6.6406-.1788,7.1286,7.1286,0,0,1,5.7363,6.1993c.4317,3.0673-.0859,5.8984-2.7793,7.9755A9.8226,9.8226,0,0,1,113.2969,40.7373Zm5.163-8.211c-.0322-.4629-.0556-.916-.11-1.3623a4.5248,4.5248,0,0,0-4.668-4.05c-2.8174-.0781-4.7412,1.2666-5.1592,3.7715a9.3908,9.3908,0,0,0-.0058,3.2549c.4043,2.4668,2.3847,3.9033,5.0293,3.8525a4.6429,4.6429,0,0,0,4.791-4.0566C118.4043,33.4648,118.4189,32.9873,118.46,32.5263Z"/><path class="cls-5" d="M147.2617,33.456v4.31h10.085v2.5918H143.65v-15.63H156.997v2.5791h-9.7031v3.5176h9.0205V33.456Z"/><path class="cls-5" d="M173.8984,29.1377c-1.12.0527-2.1416.1191-3.1533.124a.7218.7218,0,0,1-.5606-.3555,2.7013,2.7013,0,0,0-2.8886-1.8652,10.3471,10.3471,0,0,0-2.3262.2978,1.2833,1.2833,0,0,0-1.1465,1.2139,1.3213,1.3213,0,0,0,1.07,1.27c.7784.2676,1.5664.4707,2.3565.6768,1.2168.3154,2.45.5547,3.63.9345,2.4423.79,3.6084,2.3233,3.5507,4.5274a4.654,4.654,0,0,1-3.789,4.3047,12.7915,12.7915,0,0,1-6.833,0,5.3476,5.3476,0,0,1-4.0762-4.9483c1.0195-.0869,2.0576-.1953,3.0859-.2324.1661-.0127.4258.2441.501.4287a4.4936,4.4936,0,0,0,6.3867,1.9746,1.8372,1.8372,0,0,0,1.0606-1.8,1.6338,1.6338,0,0,0-1.376-1.36c-1.3184-.3623-2.6592-.6231-3.9834-.9942a15.3089,15.3089,0,0,1-2.8516-1.0312,3.8261,3.8261,0,0,1,.2178-7.0547,10.54,10.54,0,0,1,8.4795-.0195A4.1923,4.1923,0,0,1,173.8984,29.1377Z"/><path class="cls-5" d="M182.8877,40.4287c.1357-.3369.1943-.5742.2929-.794,2.1358-4.7324,4.2832-9.4619,6.3877-14.2041a1.0783,1.0783,0,0,1,1.2325-.7734c.7656.0537,1.5673-.0371,2.3525.0332a1.1883,1.1883,0,0,1,.8457.4951c2.3154,4.9336,4.5967,9.876,6.8867,14.8145a4.0035,4.0035,0,0,1,.1153.4248c-1.2247,0-2.3819.0234-3.5264-.0264-.209-.0049-.47-.2881-.584-.499-.3877-.8145-.6934-1.6719-1.1377-2.46a1.2333,1.2333,0,0,0-.8691-.56c-2.0118-.05-4.0342-.0117-6.0371-.0351a.8038.8038,0,0,0-.9024.5986c-.1543.4561-.3642.89-.56,1.3252-.6933,1.66-.6933,1.66-2.5839,1.66Zm8.9277-12.1211c-.873,2.0635-1.6445,3.9111-2.459,5.8447h4.9727C193.49,32.207,192.6924,30.3652,191.8154,28.3076Z"/><path class="cls-5" d="M187.5928,12.3017q2.7142-2.5079,5.42-5.0019c.8017-.7481,1.6435-1.4424,2.376-2.24a2.7182,2.7182,0,0,1,2.5312-.957,6.0427,6.0427,0,0,1,1.5117.2031c-2.4433,2.19-4.8887,4.3848-7.3818,6.62,2.6221,3.3038,5.2158,6.5782,7.9209,9.9864-1.082,0-1.9785.0439-2.8682-.0283-.2363-.0166-.5029-.3262-.6865-.5557-1.8154-2.374-3.6152-4.7588-5.4248-7.14-.1875-.2421-.3789-.4746-.6231-.7832-.95.8692-1.8535,1.6524-2.708,2.49a1.3874,1.3874,0,0,0-.2685.9189c-.0215,1.6553-.0069,3.3106-.0069,5.0322h-2.2695V4.1826h2.2373v8.0215C187.4306,12.2363,187.5166,12.2675,187.5928,12.3017Z"/><path class="cls-5" d="M92.0625,4.1093c0,2.8643-.0147,5.586.0068,8.3018a27.706,27.706,0,0,0,.1319,3.2773c.2753,2.25,1.5644,3.3731,3.9277,3.5284.27.0166.5254.0146.7842.01,3.0273-.0361,4.4453-1.2451,4.58-4.1533.1123-2.6289.05-5.27.0655-7.9082.0176-.9785,0-1.9521,0-2.9883H103.82c.0322.05.1094.1211.0976.1953-.0263,3.7871.0674,7.5752-.1376,11.3555-.168,3.2363-2.1163,5.0879-5.4942,5.3525a16.0584,16.0584,0,0,1-4.5723-.332,4.4,4.4,0,0,1-3.5664-3.5488,18.0212,18.0212,0,0,1-.4414-3.668c-.0654-2.8047.01-5.6094-.042-8.415-.0146-.8145.23-1.1211,1.0733-1.0137A11.3149,11.3149,0,0,0,92.0625,4.1093Z"/><path class="cls-5" d="M152.7363,4.21c2.3272-.3652,2.3272-.3652,2.3272,1.7412v7.1524c0,.5058,0,1.0078.0253,1.5146.1436,4.001,3.8213,5.9639,7.545,4.0371a2.8752,2.8752,0,0,0,1.5781-2.0175,18.1089,18.1089,0,0,0,.3389-2.9092c.0468-2.8643.0136-5.7256.0136-8.584V4.1132c.6846,0,1.292-.0341,1.8955.02.168.0205.4659.289.4571.4394-.05,3.9229.0088,7.8526-.2383,11.77-.168,2.6064-1.96,4.1025-4.5752,4.6474a11.0273,11.0273,0,0,1-5.4434-.2129,4.8586,4.8586,0,0,1-3.5644-3.6006,9.0359,9.0359,0,0,1-.3438-2.0732C152.7226,11.4931,152.7363,7.874,152.7363,4.21Z"/><path class="cls-5" d="M59.206,4.02c3.2764.1006,6.5332.05,9.7422.3477a4.3014,4.3014,0,0,1,3.9922,4.39,4.5893,4.5893,0,0,1-3.6875,4.95,21.8542,21.8542,0,0,1-3.7266.3623c-1.2968.0557-2.6.0088-4.0117.0088v6.7842H59.206Zm2.35,8.1963c2.2442-.0977,4.4151-.1768,6.584-.3047a2.5353,2.5353,0,0,0,1.041-.3945,2.7418,2.7418,0,0,0,1.2745-3.001c-.212-1.1475-.8282-2.1455-2.0528-2.2256-2.2656-.1514-4.5293-.0449-6.8467-.0449Z"/><path class="cls-5" d="M124.497,14.0781v6.7842h-2.3144c-.0225-.3067-.0459-.6006-.0459-.8965,0-4.9668.01-9.9258-.0254-14.8936,0-.7744.23-1.0009,1.02-.9726,2.7129.0771,5.4365-.0283,8.1436.1631,3.7519.2646,5.6748,3.48,4.2314,6.8212-.8789,2.0606-2.7021,2.7715-4.8213,2.8985-1.6816.1142-3.375.0752-5.0791.0957C125.2685,14.083,124.9189,14.0781,124.497,14.0781ZM127.79,6.03v.0469c-.88,0-1.7471.0254-2.6211-.0137-.5556-.0185-.6963.1885-.6894.6924q.0262,2.3483,0,4.6992c-.0069.5108.1631.6963.7021.6856,1.5947-.04,3.1953-.0137,4.7969-.0674a5.8886,5.8886,0,0,0,1.6191-.292,2.6582,2.6582,0,0,0,1.8614-3.0556,2.6035,2.6035,0,0,0-2.3584-2.5186C130.0029,6.0732,128.8906,6.0791,127.79,6.03Z"/><path class="cls-5" d="M64.85,40.373H61.3047V24.7275H64.85Z"/><path class="cls-5" d="M181.0293,40.3935h-3.4629V24.7275h3.4629Z"/><path class="cls-5" d="M160.208,49.5957c-.5869,1.3076-1.1416,2.6259-1.77,3.9121-.1436.2724-.4766.6338-.7325.64-.247.002-.5966-.3593-.7285-.6328-.6269-1.3164-1.1865-2.668-1.77-3.999-.08.0078-.1592.0185-.2353.0264v2.2714a17.5961,17.5961,0,0,1-.0264,1.8457c-.0147.1944-.2959.3584-.45.5332-.1523-.1621-.4326-.3154-.4326-.4775-.0244-1.7881-.0244-3.5879-.0244-5.3564,1.2734-.375,1.4531-.2959,1.9072.7529.5342,1.2666,1.0879,2.5322,1.6426,3.8037.0136.0449.0566.0879.1826.2373.1377-.2432.2558-.4336.3515-.6426.4961-1.1416,1.0762-2.247,1.4893-3.4131.3106-.8535.8037-1.0693,1.78-.8017v5.22c0,.3408.0322.7715-.4932.6445a.8669.8669,0,0,1-.4492-.6816c-.0381-1.2793-.0244-2.5713-.0244-3.8535C160.3554,49.61,160.2851,49.6064,160.208,49.5957Z"/><path class="cls-5" d="M185.1308,48.3183a1.1568,1.1568,0,0,1,1.4981.4063c1.12,1.3476,2.2812,2.6631,3.5957,4.1972V48.2412h.9267v5.834a1.0651,1.0651,0,0,1-1.4091-.3731,48.355,48.355,0,0,0-3.6514-3.9824v1.9365c0,.6748.0293,1.3467-.0234,2.02-.0147.1807-.3164.3438-.4717.5156-.1572-.1513-.4531-.3007-.457-.45C185.1152,51.9267,185.1308,50.1054,185.1308,48.3183Z"/><path class="cls-5" d="M112.52,54.0947a1.13,1.13,0,0,1-1.4131-.418c-1.1143-1.3506-2.2812-2.6758-3.6094-4.2148v4.666c-.4853.0371-.97.2832-.97-.3965-.02-1.82,0-3.6357,0-5.42a1.1753,1.1753,0,0,1,1.5059.4316,49.3149,49.3149,0,0,0,3.5722,3.91V48.2548h.9141Z"/><path class="cls-5" d="M89.6875,48.2519c1.372,0,2.5928-.08,3.8115.0176a2.6806,2.6806,0,0,1,2.5664,2.7881,2.7385,2.7385,0,0,1-2.499,3.0254,30.4438,30.4438,0,0,1-3.4033.0908.6577.6577,0,0,1-.4649-.4287C89.6728,51.9287,89.6875,50.1172,89.6875,48.2519Zm1.0381,5.291A26.4355,26.4355,0,0,0,93.55,53.37c.9687-.1514,1.48-1.0078,1.4883-2.1992a1.9221,1.9221,0,0,0-1.43-2.1465,26.7673,26.7673,0,0,0-2.8828-.1934Z"/><path class="cls-5" d="M123.1767,51.8281c-.5263,0-1.0654.03-1.6064-.0176-.1963-.0166-.37-.2353-.542-.3623.1719-.0976.3457-.2734.5381-.2773.86-.0313,1.7246-.0127,2.708-.0127a17.4493,17.4493,0,0,1-.0254,1.83.93.93,0,0,1-.4678.6172,5.6019,5.6019,0,0,1-4.6318.3477,2.7815,2.7815,0,0,1-2-2.7764,2.7223,2.7223,0,0,1,2.0908-2.7744,10.1384,10.1384,0,0,1,3.1768-.0986,1.9493,1.9493,0,0,1,1.6562,1.4531c-.4267.2676-.73.3506-1.0722-.1562a2.991,2.991,0,0,0-3.3545-.6358,2.3211,2.3211,0,0,0-1.4678,2.5957,2.2079,2.2079,0,0,0,2.1631,1.9619,6.1821,6.1821,0,0,0,1.9853-.1465C123.3222,53.1484,123.3681,53.0068,123.1767,51.8281Z"/><path class="cls-5" d="M146.1338,54.4287c-2.5938-.1319-4.2657-1.8467-3.667-3.9571a3.224,3.224,0,0,1,1.2529-1.7265,4.2068,4.2068,0,0,1,4.6328-.0274,2.8723,2.8723,0,0,1-.043,4.95A11.2875,11.2875,0,0,1,146.1338,54.4287ZM143.38,51.125a2.3392,2.3392,0,0,0,2.53,2.498,2.4492,2.4492,0,1,0-2.53-2.498Z"/><path class="cls-5" d="M73.082,54.457c-2.5879-.1914-4.19-1.9219-3.5771-4.0762a3.3488,3.3488,0,0,1,1.0888-1.5527,4.4825,4.4825,0,0,1,4.8565-.0752,2.8872,2.8872,0,0,1,.0224,4.8144A11.5109,11.5109,0,0,1,73.082,54.457Zm-.0127-.832a2.3781,2.3781,0,0,0,2.6377-2.4893,2.6659,2.6659,0,1,0-2.6377,2.4893Z"/><path class="cls-5" d="M63.8584,48.2519h1.0029c0,1.8613.0361,3.6768,0,5.4932-.0039.6836-.5117.3965-.9883.4023v-2.74h-4.04a18.98,18.98,0,0,1-.0352,2.0879.8548.8548,0,0,1-.457.664c-.5127.1387-.5195-.2675-.5195-.6289.0068-1.7265.0068-3.4609.0068-5.2754.3252-.02.6006-.0351.9932-.0644v2.4228h4.0371Z"/><path class="cls-5" d="M181.8232,54.0849c-.7226.2207-1.1953.1367-1.3613-.497a1.5874,1.5874,0,0,0-2.0742-1.22.9342.9342,0,0,1-.3457,0,1.58,1.58,0,0,0-2.044,1.2373c-.1963.6377-.2851.6133-1.2636.5108.4482-.9053.8681-1.7754,1.288-2.6446.47-.9453.918-1.8857,1.3926-2.8105a.8558.8558,0,0,1,1.4629-.17C179.87,50.3154,180.8174,52.1709,181.8232,54.0849Zm-3.6387-5.17c-.4453,1.01-.832,1.8516-1.2363,2.752h2.542C179.0488,50.7334,178.6582,49.9013,178.1845,48.915Z"/><path class="cls-5" d="M166.0937,48.2519c1.4561,0,2.753-.0615,4.06.0176a1.6738,1.6738,0,1,1,.1348,3.3437,15.4611,15.4611,0,0,1-2.5176.1094c-.5488-.0049-.7363.1709-.7031.6846.03.5527.0058,1.1113.0058,1.6973-.4512.0634-.89.3066-.9746-.3428a3.8213,3.8213,0,0,1-.0049-.5889Zm.9844.6436c0,.6465-.0264,1.21.0273,1.7539a.554.554,0,0,0,.4063.3887,19.5585,19.5585,0,0,0,2.3545-.0577c.6025-.0556,1.0674-.3808,1.05-1.039-.0186-.7022-.5137-1-1.1553-1.0323C168.9316,48.8584,168.0781,48.8955,167.0781,48.8955Z"/><path class="cls-5" d="M137.4111,52.1513c.2324.0469.4785.0869.7315.1319-.2022,1.2783-1.3829,2.0049-3.1856,1.9931-1.9463-.0156-3.2373-1.0156-3.4375-2.6806a2.9331,2.9331,0,0,1,2.3643-3.3526c1.9-.4863,3.5586.1,4.1728,1.501a.7782.7782,0,0,1-1.2051-.2666,2.5918,2.5918,0,0,0-2.9677-.5156,2.2656,2.2656,0,0,0-1.3369,2.581,2.1438,2.1438,0,0,0,1.7793,2.02C135.664,53.8427,136.51,53.4638,137.4111,52.1513Z"/><path class="cls-5" d="M195.1045,48.2988a1.2752,1.2752,0,0,1,1.624.4834c.5273.7275,1.1426,1.4121,1.73,2.1211,1.2832-.7061,1.4658-2.6748,3.4394-2.5606-.6748.7657-1.3066,1.5586-2.043,2.2657a2.6335,2.6335,0,0,0-.9033,2.4082,8.9854,8.9854,0,0,1,.0078,1.1181h-.8671c-.4014-1.0244.3154-2.2412-.6895-3.1855A32.2073,32.2073,0,0,1,195.1045,48.2988Z"/><path class="cls-5" d="M81.9941,53.51c1.1358,0,2.1485-.0146,3.166.0186.2051.01.4219.2256.6309.3506-.1982.1064-.3984.2978-.6045.3008-1.332.0273-2.6787.0156-4.08.0156V48.247c.2539-.02.502-.0273.8877-.0547Z"/><path class="cls-5" d="M101.4717,54.3037c-.2461-.1807-.7071-.3623-.7188-.55-.0586-1.81-.0361-3.627-.0361-5.5069.3437-.02.62-.0273.9394-.0488v5.89A2.6015,2.6015,0,0,0,101.4717,54.3037Z"/><polygon class="cls-6" points="38.375 4.94 36.476 4.257 38.139 0 40.039 0.684 38.375 4.94"/><path class="cls-7" d="M45.06,11.8769A9.6016,9.6016,0,0,1,35.2783,21.28a9.6051,9.6051,0,0,1-9.7939-9.4033,9.6065,9.6065,0,0,1,9.7939-9.4111A9.603,9.603,0,0,1,45.06,11.8769Z"/><g class="cls-8"><ellipse class="cls-9" cx="38.2563" cy="14.3679" rx="5.1464" ry="4.9458"/></g><ellipse class="cls-2" cx="8.8003" cy="18.4599" rx="8.8027" ry="8.4649"/><g class="cls-10"><path class="cls-11" d="M18.873,20.8623a7.863,7.863,0,0,1-8.0166,7.7011,7.86,7.86,0,0,1-8.0107-7.7011,7.86,7.86,0,0,1,8.0107-7.709A7.8632,7.8632,0,0,1,18.873,20.8623Z"/></g><ellipse class="cls-2" cx="37.332" cy="56.0908" rx="8.8046" ry="8.4639"/><g class="cls-12"><path class="cls-13" d="M44.1474,58.582a4.1092,4.1092,0,1,1-4.1084-3.9453A4.0256,4.0256,0,0,1,44.1474,58.582Z"/></g><polygon class="cls-7" points="31.377 24.263 29.472 23.578 31.146 19.314 33.042 20.011 31.377 24.263"/><polygon class="cls-4" points="35.278 50.361 33.277 50.716 32.423 46.237 34.416 45.887 35.278 50.361"/><path class="cls-14" d="M40.039,35.1064A13.5793,13.5793,0,0,1,26.2,48.417,13.58,13.58,0,0,1,12.3447,35.1064,13.5842,13.5842,0,0,1,26.2,21.792,13.5831,13.5831,0,0,1,40.039,35.1064Z"/><g class="cls-15"><path class="cls-16" d="M45.3447,37.2529A12.0786,12.0786,0,0,1,33.042,49.0908,12.0716,12.0716,0,0,1,20.7344,37.2529,12.0692,12.0692,0,0,1,33.042,25.4209,12.0762,12.0762,0,0,1,45.3447,37.2529Z"/></g></g></g></svg>