<svg xmlns="http://www.w3.org/2000/svg" viewBox="0 0 76.36 69.81"><defs><style>.cls-1{fill:#c2c3c9;}.cls-1,.cls-2,.cls-3,.cls-4,.cls-5{fill-rule:evenodd;}.cls-2{fill:#aeadb3;}.cls-3{fill:#edeef0;}.cls-4{fill:#d8d9dd;}.cls-5{fill:#f7f7f8;}.cls-6{fill:#333;}</style></defs><title>Asset 13</title><g id="Layer_2" data-name="Layer 2"><g id="CONTACT_US" data-name="CONTACT US"><path class="cls-1" d="M6.41,17.82c-4.08-7.67-3-11.51,6.35-15.23s50.34-3.16,47.33,0,.62,2.19-.45,3.09c-3.17,2-6.76,1.88-10.3,2-8.2.1-16.41,0-24.62.05-6.22,0-11.14,2.1-14,8C9.64,17,8.36,18.11,6.41,17.82Z"/><path class="cls-2" d="M58.16,5.24c0-.72,0-1.43,0-2.14h2.15C62,6.15,65.55,4.54,67.82,6c2.83,1.82,2.09,3.09-.89,3.67-2,1.7-.65,4.56-2.25,6.4q0,2.1,0,4.21c-5.88.13-7-5.07-9.72-8.59C54.05,8.56,55.75,6.72,58.16,5.24Z"/><path class="cls-3" d="M6.41,17.82l2.27-2.35C17.6,5.37,30.28,7.31,40,10S58.86,19.15,68,24.39c5,5,5.67,10.74,3,17.07-.1,1.75-.64,3.26-2.35,4.09-2.13,2.25-1.72,5.5-3.15,8C62.28,57,57,58.74,53.93,57c-8.36-4.86-10.76-.13-13.11,6.15C24.47,71.55,25.49,70.2,12.3,56.4.28,43.83-.26,32,6.41,17.82Z"/><path class="cls-4" d="M66.58,26.24c-2.66.51-2.43-10-7.71-1.66-2,3.22-4.22-1.82-6.08-3.54C41.13,10.25,21.4,7.75,8.68,15.47c1.54-7.86,6.51-11,14.27-10.79,8.79.24,17.58.18,26.37.25C52.15,7.07,53.67,11,58,11.1c4.3,1.48,5.24,6.28,8.62,8.66l2.24,2.06C70.16,24.36,68.08,25.15,66.58,26.24Z"/><path class="cls-4" d="M40.82,63.13c3.15-5.85-4.26-3.47-5.4-7.25a21.65,21.65,0,0,0,17.63-8.19c3.88,3.59-.5,5.19.19,8.09,4.23.66,7.75-1.26,11.13-3.65,4-.27,3.48,1.81,2.19,4.26Z"/><path class="cls-1" d="M66.58,26.24l2.27-4.42c5.85,6,12.4,11.89,2.16,19.64C69.63,36.36,71.26,30.38,66.58,26.24Z"/><path class="cls-1" d="M66.57,56.38c-.13-1.73-.42-3.37-2.19-4.26,0-3.11,1.17-5.48,4.28-6.57C66.34,48.85,74.54,54.18,66.57,56.38Z"/><path class="cls-1" d="M64.67,16.57c-1.17-2.81-4-7.33,1.9-7.64,3-1.08,4.89,6.37,4.89,6.37S65.63,19.52,64.67,16.57Z"/><path class="cls-1" d="M58,11.1a24,24,0,0,1-1.91,3.2C52,12.59,49,9.86,49.32,4.93l10.78-.2Z"/><path class="cls-5" d="M15.08,67.83l-2-.63C4.49,65,1.88,57,.61,50.48S.36,36.72.71,29.8C2.13,25.37,5.32,23.3,9.83,23a2.85,2.85,0,0,1,3.09.17c1.95.58,3.73-.62,5.63-.53,3,.88,5.54,3.48,5.41,5.77-.37,6.33,3.11,6.34,7.48,5.85,9.76,7.09,8.67,6.89,4.5,18.69C32.13,63.72,25.36,67.55,15.08,67.83Z"/><path class="cls-5" d="M6.28,62.8q-1.91-.16-3.81-.36l.37-3.82c5.71-2.53,3.45-9.06,6.42-12.84,3.72-4.73,5.85-3.19,6.37,2.2,2.67,3.81,8,1.94,11,5.09l7.47.74c-.77,10.47-10.21,11.66-16.9,15.81C11.48,70.65,8.5,67.33,6.28,62.8Z"/><path class="cls-6" d="M56.75,22.42c-2.44,13.72-16,25.34-20.13,28s-7.83-1.07-9.18-3.87c-1.55-3.2-6.2-20.57-7.41-22S15.16,26,15.16,26l-1.77-2.32s7.41-8.85,13-10c6-1.17,6,9.18,7.41,14.93,1.39,5.57,2.32,8.74,3.54,8.74s3.54-3.1,6.08-7.85-.11-9-5.09-6C40.38,11.58,59.19,8.7,56.75,22.42Z"/></g></g></svg>