<svg xmlns="http://www.w3.org/2000/svg" xmlns:xlink="http://www.w3.org/1999/xlink" viewBox="0 0 1281 744.44"><defs><style>.cls-1{isolation:isolate;}.cls-2{fill:url(#linear-gradient);}.cls-3{opacity:0.3;}.cls-4{fill:#bcbcbc;opacity:0.37;mix-blend-mode:overlay;}.cls-5{fill:#444a77;}</style><linearGradient id="linear-gradient" x1="639.99" y1="369.22" x2="638.25" y2="-20.96" gradientUnits="userSpaceOnUse"><stop offset="0" stop-color="#794d8e"/><stop offset="1" stop-color="#444a77"/></linearGradient></defs><title>work_bg</title><g class="cls-1"><g id="Layer_2" data-name="Layer 2"><g id="WORKS"><rect id="BACKGROUND" class="cls-2" width="1280" height="744.26"/><g id="AWAN" class="cls-3"><path class="cls-4" d="M160.42,295.53s61,7,119.22,7,155.8,14,176.12,12.27-107,10.52-140.9,8.76-139.54,7-150.38,7S160.42,295.53,160.42,295.53Z"/><path class="cls-4" d="M788.26,378.48s-87.64,5.27-100.55,4.39-48.92,0-65.9,3.51-21.06,4.4-26.5,4.4,20.38,7,40.08,5.27,91.72,9.67,103.95,8.79,34,3.52,37.37,3.52,14.27-.88,14.27-.88Z"/><path class="cls-4" d="M1245,211s-56.27,5.43-77.27,5.43-80.62,7.6-94.06,8.69-59.63,12-65.51,12,89,6.52,114.22,4.35,119.25,2.17,123.45,2.17S1245,211,1245,211Z"/><path class="cls-4" d="M915.49,255.41s-61-1.31-84.33,0-68.08,7.89-83.32,9.2,72.14,10.51,98.56,9.2,69.09,3.94,69.09,3.94Z"/><path class="cls-4" d="M63.14,188.36s349.12-5.62,476.62-1.87,476.63-1.88,525.2-3.75,151.79,1.87,179.12,1.87-470.55,45-537.34,35.62S269.57,254,221,252.1s-148.75,7.5-148.75,7.5l3-28.12s72.86,0,145.72-5.62,191.26-18.75,191.26-18.75-297.51,5.63-337,5.63Z"/><path class="cls-4" d="M406.76,263.88c-4.48-3.09,94.49-7.89,127-13.14s154.44,6.57,160.53,7.89-137.16,9.2-158.5,11.83S422,274.39,406.76,263.88Z"/><path class="cls-4" d="M931,336c10.6-8.73-145.29-6.57-173.74-9.2s-129,10.51-139.2,11.83,119.89,9.2,141.23,7.89S919.79,345.23,931,336Z"/><path class="cls-4" d="M548.14,363.26c4-4.11-99.57-6.57-115.83-9.2s-78.24,13.14-86.37,18.4,57.92,0,77.22,0S538,373.77,548.14,363.26Z"/></g><g id="AWAN-2" data-name="AWAN" class="cls-3"><path class="cls-4" d="M1141.88,443.3s-61-7-119.22-7-155.8-14-176.12-12.27,107-10.52,140.9-8.76,139.54-7,150.38-7S1141.88,443.3,1141.88,443.3Z"/><path class="cls-4" d="M514,360.36s87.64-5.27,100.55-4.39,48.91,0,65.9-3.51,21.06-4.4,26.5-4.4-20.38-7-40.08-5.27S575.19,333.12,563,334s-34-3.52-37.37-3.52-14.27.88-14.27.88Z"/><path class="cls-4" d="M57.35,527.88s56.27-5.43,77.27-5.43,80.62-7.6,94.06-8.69,59.63-12,65.51-12-89-6.52-114.22-4.35-119.25-2.17-123.45-2.17S57.35,527.88,57.35,527.88Z"/><path class="cls-4" d="M386.81,483.43s61,1.31,84.33,0,68.08-7.89,83.32-9.2-72.14-10.51-98.56-9.2-69.09-3.94-69.09-3.94Z"/><path class="cls-4" d="M1239.17,550.47S890,556.1,762.54,552.35s-476.63,1.88-525.2,3.75-151.79-1.87-179.12-1.87,470.55-45,537.34-35.62,437.16-33.74,485.73-31.87,148.75-7.5,148.75-7.5l-3,28.12s-72.86,0-145.72,5.62S890,531.73,890,531.73s297.51-5.62,337-5.62Z"/><path class="cls-4" d="M895.55,475c4.48,3.09-94.49,7.89-127,13.14S614.11,481.53,608,480.21s137.16-9.2,158.5-11.83S880.31,464.44,895.55,475Z"/><path class="cls-4" d="M371.34,402.81c-10.6,8.73,145.29,6.57,173.74,9.2s129-10.51,139.2-11.83S564.39,391,543,392.3,382.52,393.61,371.34,402.81Z"/><path class="cls-4" d="M754.16,375.58c-4,4.11,99.57,6.57,115.83,9.2s78.24-13.14,86.37-18.4-57.91,0-77.22,0S764.33,365.07,754.16,375.58Z"/></g><polygon class="cls-5" points="1281 744.43 245.21 744.43 210.2 669.69 1075.57 182.44 1281 744.43"/></g></g></g></svg>
