<svg xmlns="http://www.w3.org/2000/svg" xmlns:xlink="http://www.w3.org/1999/xlink" viewBox="0 0 1281 727.65"><defs><style>.cls-1{isolation:isolate;}.cls-2{fill:url(#linear-gradient);}.cls-3{opacity:0.3;}.cls-4{fill:#bcbcbc;opacity:0.37;mix-blend-mode:overlay;}.cls-5{fill:#444a77;}</style><linearGradient id="linear-gradient" x1="640.5" x2="640.5" y2="727.65" gradientUnits="userSpaceOnUse"><stop offset="0" stop-color="#794d8e"/><stop offset="1" stop-color="#00968c"/></linearGradient></defs><title>work02_bg</title><g class="cls-1"><g id="Layer_2" data-name="Layer 2"><g id="WORKS"><rect id="BACKGROUND" class="cls-2" width="1281" height="727.65"/><g id="AWAN" class="cls-3"><path class="cls-4" d="M160.42,311.91s61,7,119.22,7,155.8,14,176.12,12.27-107,10.52-140.9,8.76-139.54,7-150.38,7S160.42,311.91,160.42,311.91Z"/><path class="cls-4" d="M788.26,394.85s-87.64,5.27-100.55,4.39-48.92,0-65.9,3.51-21.06,4.4-26.5,4.4,20.38,7,40.08,5.27,91.72,9.67,103.95,8.79,34,3.52,37.37,3.52,14.27-.88,14.27-.88Z"/><path class="cls-4" d="M1245,227.33s-56.27,5.43-77.27,5.43-80.62,7.61-94.06,8.69-59.63,12-65.51,12,89,6.52,114.22,4.34,119.25,2.17,123.45,2.17S1245,227.33,1245,227.33Z"/><path class="cls-4" d="M915.49,271.78s-61-1.32-84.33,0-68.08,7.89-83.32,9.2,72.14,10.51,98.56,9.2,69.09,3.94,69.09,3.94Z"/><path class="cls-4" d="M63.14,204.74s349.12-5.62,476.62-1.87,476.63-1.88,525.2-3.75S1216.75,201,1244.07,201s-470.55,45-537.34,35.62S269.57,270.35,221,268.48,72.25,276,72.25,276l3-28.12s72.86,0,145.72-5.62,191.26-18.75,191.26-18.75-297.51,5.63-337,5.63Z"/><path class="cls-4" d="M406.75,280.25c-4.48-3.09,94.49-7.89,127-13.14s154.44,6.57,160.53,7.89-137.16,9.2-158.5,11.83S422,290.77,406.75,280.25Z"/><path class="cls-4" d="M931,352.4c10.6-8.73-145.29-6.57-173.74-9.2S628.19,353.71,618,355s119.89,9.2,141.23,7.88S919.79,361.6,931,352.4Z"/><path class="cls-4" d="M548.14,379.63c4-4.11-99.57-6.57-115.83-9.2s-78.24,13.14-86.37,18.4,57.92,0,77.22,0S538,390.15,548.14,379.63Z"/></g><g id="AWAN-2" data-name="AWAN" class="cls-3"><path class="cls-4" d="M1141.88,459.68s-61-7-119.22-7-155.8-14-176.12-12.27,107-10.52,140.9-8.76,139.54-7,150.38-7S1141.88,459.68,1141.88,459.68Z"/><path class="cls-4" d="M514,376.74s87.64-5.27,100.55-4.39,48.91,0,65.9-3.52,21.06-4.39,26.5-4.39-20.38-7-40.08-5.27-91.72-9.67-103.95-8.79-34-3.52-37.37-3.52-14.27.88-14.27.88Z"/><path class="cls-4" d="M57.35,544.25s56.27-5.43,77.27-5.43,80.62-7.6,94.06-8.69,59.63-12,65.51-12-89-6.52-114.22-4.35S60.7,511.66,56.51,511.66,57.35,544.25,57.35,544.25Z"/><path class="cls-4" d="M386.81,499.8s61,1.31,84.33,0,68.08-7.89,83.32-9.2-72.14-10.51-98.56-9.2-69.09-3.94-69.09-3.94Z"/><path class="cls-4" d="M1239.17,566.85S890,572.47,762.54,568.72s-476.63,1.88-525.2,3.75S85.55,570.6,58.23,570.6s470.55-45,537.34-35.62,437.16-33.74,485.73-31.87,148.75-7.5,148.75-7.5l-3,28.12s-72.86,0-145.72,5.62S890,548.1,890,548.1s297.51-5.62,337-5.62Z"/><path class="cls-4" d="M895.55,491.33c4.48,3.09-94.49,7.89-127,13.14S614.11,497.9,608,496.59s137.16-9.2,158.5-11.83S880.31,480.82,895.55,491.33Z"/><path class="cls-4" d="M371.34,419.19c-10.6,8.73,145.29,6.57,173.74,9.2s129-10.51,139.2-11.83-119.89-9.2-141.23-7.89S382.52,410,371.34,419.19Z"/><path class="cls-4" d="M754.16,392c-4,4.11,99.57,6.57,115.83,9.2s78.24-13.14,86.37-18.4-57.91,0-77.22,0S764.33,381.44,754.16,392Z"/></g><polygon class="cls-5" points="1280 727.29 189.21 727.65 154.33 660.32 1127.1 116.63 1280 727.29"/></g></g></g></svg>
